<svg version="1.1" id="Layer_1" xmlns="http://www.w3.org/2000/svg"
	xmlns:xlink="http://www.w3.org/1999/xlink" x="0px" y="0px"
	width="100%" viewBox="0 0 1548 576" enable-background="new 0 0 1548 576" xml:space="preserve">

	<!-- Text from left to right and top to bottom -->

<path id="artiphishell_0_letter_a" fill="#000000" opacity="1.000000" stroke="none" 
	d="
M0.999998,307.416656 
	C1.728257,306.757172 2.709844,306.737518 3.148544,306.239594 
	C28.446926,277.524658 59.253128,255.851227 92.060059,236.772507 
	C126.344704,216.834442 162.518890,201.011292 199.848572,187.749283 
	C200.918442,187.369186 202.021774,187.083191 203.519531,186.628983 
	C203.519531,268.657837 203.519531,350.323700 203.519531,432.687347 
	C197.063766,430.374298 190.649323,428.260162 184.376266,425.787323 
	C173.715591,421.584869 163.183807,417.054474 152.509415,412.888458 
	C149.508240,411.717194 148.670807,410.034943 148.741592,406.936249 
	C148.950790,397.778595 148.928406,388.610443 148.712677,379.453094 
	C148.673981,377.810547 147.718185,375.398071 146.443848,374.704559 
	C138.168045,370.201141 129.687103,366.074738 120.843010,361.607513 
	C116.695557,371.683990 112.682159,381.434723 108.531944,391.517914 
	C79.215660,375.834320 51.667843,358.162018 26.114864,335.842041 
	C37.063721,334.134857 47.091694,332.882385 56.986443,330.948303 
	C68.882019,328.623138 80.718224,325.930420 92.465263,322.944855 
	C96.399910,321.944855 100.144104,319.833771 103.693764,317.750702 
	C113.123024,312.217194 123.183434,312.882904 133.300400,314.456543 
	C138.680237,315.293335 143.963455,316.751373 149.559875,317.988586 
	C149.559875,300.957214 149.559875,284.103943 149.559875,266.530060 
	C147.672913,267.832275 146.210220,268.774567 144.818634,269.812134 
	C126.273338,283.639465 107.797287,297.561218 89.124901,311.214508 
	C86.802383,312.912750 83.459129,313.997589 80.576546,314.024017 
	C56.589630,314.244141 32.599201,314.224152 8.611847,314.028961 
	C6.294038,314.010101 3.989871,312.314850 1.339686,311.698914 
	C1.000000,310.611115 1.000000,309.222198 0.999998,307.416656 
z"/>
<path id="artiphishell_1_letter_r" fill="#000000" opacity="1.000000" stroke="none" 
	d="
M347.000000,255.000000 
	C347.000000,271.975830 347.000000,288.451660 347.000000,305.295410 
	C329.308960,308.536774 311.834808,311.738403 293.772614,315.047791 
	C321.105896,368.374725 348.261322,421.354645 375.952179,475.379150 
	C366.917114,473.804535 358.834473,472.495056 350.792664,470.970337 
	C339.842377,468.894165 328.940552,466.559357 317.979065,464.547241 
	C315.076263,464.014404 313.467865,462.731750 312.161652,460.064453 
	C298.936096,433.057892 285.564392,406.122894 272.232361,379.168457 
	C271.764252,378.222046 271.283081,377.282104 269.736450,376.572052 
	C269.736450,401.784851 269.736450,426.997620 269.736450,453.101288 
	C257.177979,449.480560 245.438232,446.157837 233.737122,442.704315 
	C222.798553,439.475891 222.816574,439.414795 222.816574,427.841125 
	C222.816574,347.018860 222.852127,266.196533 222.715149,185.374512 
	C222.708038,181.182205 223.899918,179.407684 227.930298,178.108856 
	C258.095490,168.387833 325.607971,151.743378 347.000000,149.082733 
	C347.000000,184.257782 347.000000,219.378891 347.000000,255.000000 
M288.450714,204.277359 
	C281.994843,204.277359 275.538971,204.277359 268.811310,204.277359 
	C268.811310,228.431854 268.811310,252.124451 268.811310,276.064636 
	C278.549927,276.064636 288.110626,276.064636 297.760620,276.064636 
	C297.760620,252.132431 297.760620,228.322067 297.760620,204.277359 
	C294.722107,204.277359 292.077820,204.277359 288.450714,204.277359 
z"/>

<path id="artiphishell_2_letter_t" fill="#000000" opacity="1.000000" stroke="none" 
	d="
M382.999878,191.209808 
	C376.521210,191.209808 370.542297,191.209808 364.287659,191.209808 
	C364.287659,176.064148 364.287659,161.134628 364.287659,144.804993 
	C405.128021,139.740463 446.200226,134.647186 487.800354,129.488449 
	C487.800354,150.611526 487.800354,170.630264 487.800354,191.055862 
	C475.161285,191.055862 462.415710,191.055862 449.189453,191.055862 
	C449.189453,289.151154 449.189453,386.844299 449.189453,485.251678 
	C433.699036,483.352753 418.770020,481.522614 403.353577,479.632751 
	C403.353577,383.497772 403.353577,287.630676 403.353577,191.209808 
	C396.395264,191.209808 389.947479,191.209808 382.999878,191.209808 
z"/>
<path id="artiphishell_3_letter_i" fill="#000000" opacity="1.000000" stroke="none" 
	d="
M550.158936,466.000092 
	C550.158936,474.976837 550.158936,483.453552 550.158936,492.637634 
	C534.821106,491.782288 519.804871,490.944885 504.668945,490.100830 
	C504.668945,369.538361 504.668945,249.501572 504.668945,129.107025 
	C519.774231,128.211380 534.667419,127.328323 550.158936,126.409782 
	C550.158936,239.758163 550.158936,352.629120 550.158936,466.000092 
z"/>
<path id="artiphishell_4_letter_p" fill="#000000" opacity="1.000000" stroke="none" 
d="
M681.894165,306.054596 
C659.939148,306.054596 638.472229,306.054596 616.563965,306.054596 
C616.563965,368.812134 616.563965,431.207703 616.563965,493.622894 
C601.198181,493.622894 586.281250,493.622894 571.086792,493.622894 
C571.086792,370.879028 571.086792,248.659164 571.086792,126.435722 
C583.491455,123.719116 673.151855,124.656219 689.111572,127.691376 
C689.111572,186.859406 689.111572,246.045273 689.111572,306.054596 
C686.519043,306.054596 684.450684,306.054596 681.894165,306.054596 
M643.903564,250.498550 
C643.903564,221.101547 643.903564,191.704544 643.903564,162.314453 
C634.453918,162.314453 625.692871,162.314453 616.714844,162.314453 
C616.714844,197.604309 616.714844,232.664856 616.714844,267.727722 
C625.864685,267.727722 634.760193,267.727722 643.903564,267.727722 
C643.903564,262.107574 643.903564,256.802704 643.903564,250.498550 
z"/>
<path id="artiphishell_5_letter_h" fill="#000000" opacity="1.000000" stroke="none" 
	d="
M709.093567,462.999939 
	C709.093567,351.554047 709.093567,240.608139 709.093567,129.080002 
	C724.525208,130.969833 739.496826,132.803314 754.795532,134.676865 
	C754.795532,186.463638 754.795532,237.873932 754.795532,289.591217 
	C770.718933,289.591217 786.266479,289.591217 802.218994,289.591217 
	C802.218994,240.684616 802.218994,191.929825 802.218994,142.342575 
	C817.725769,145.259079 832.696594,148.074768 847.810669,150.917419 
	C847.810669,259.578491 847.810669,368.002686 847.810669,476.897186 
	C832.809265,478.904724 817.868652,480.904144 802.434692,482.969574 
	C802.434692,431.704315 802.434692,380.800995 802.434692,329.554993 
	C786.449280,329.554993 770.913391,329.554993 755.029846,329.554993 
	C755.029846,382.275085 755.029846,434.867828 755.029846,488.067719 
	C739.715149,489.291931 724.692810,490.492767 709.093567,491.739746 
	C709.093567,482.071442 709.093567,472.785706 709.093567,462.999939 
z"/>
<path id="artiphishell_6_letter_i" fill="#000000" opacity="1.000000" stroke="none" 
	d="
M867.316467,436.999756 
	C867.316467,342.859772 867.316467,249.219772 867.316467,155.002625 
	C882.825684,158.444672 897.845398,161.778076 912.938354,165.127747 
	C912.938354,265.636902 912.938354,365.762939 912.938354,466.401581 
	C897.860413,468.901703 882.827576,471.394379 867.316467,473.966339 
	C867.316467,461.452271 867.316467,449.476044 867.316467,436.999756 
z"/>
<path id="artiphishell_7_letter_s" fill="#000000" opacity="1.000000" stroke="none" 
	d="
M980.867126,250.999924 
	C980.865601,260.145996 980.865601,268.792053 980.865601,278.283142 
	C996.718628,278.283142 1012.458374,278.283142 1028.783447,278.283142 
	C1028.783447,280.895966 1028.790771,282.669495 1028.782349,284.442963 
	C1028.610352,320.766998 1028.409790,357.090973 1028.275635,393.415161 
	C1028.219727,408.571869 1028.251831,423.729584 1028.375732,438.885773 
	C1028.397339,441.526886 1028.015503,443.244751 1025.019165,443.853760 
	C993.989319,450.161072 962.976624,456.553009 931.955139,462.901672 
	C931.333374,463.028900 930.662781,462.917633 929.737061,462.917633 
	C929.737061,450.699738 929.737061,438.605438 929.737061,426.008667 
	C941.229919,423.078674 952.943542,420.040894 964.684570,417.113068 
	C977.482910,413.921631 977.509521,413.966125 977.570374,400.692780 
	C977.668884,379.198273 977.745117,357.703644 977.829224,336.209076 
	C977.835632,334.576904 977.830078,332.944702 977.830078,330.714172 
	C961.692139,330.714172 945.953491,330.714172 930.130737,330.714172 
	C930.130737,276.823944 930.130737,223.553650 930.130737,169.378311 
	C937.564697,171.041672 944.598083,172.411880 951.522949,174.201660 
	C975.757690,180.465271 999.930176,186.970993 1024.189331,193.137253 
	C1028.561279,194.248535 1029.797241,196.187836 1029.651611,200.636017 
	C1029.276489,212.096191 1029.526001,223.576797 1029.526001,235.860992 
	C1013.164673,230.564102 997.342529,225.441772 980.868652,220.108444 
	C980.868652,230.638123 980.868652,240.569016 980.867126,250.999924 
z"/>

<path id="artiphishell_8_letter_h" fill="#000000" opacity="1.000000" stroke="none" 
	d="
M1162.969971,376.000000 
	C1162.969971,386.492035 1162.969971,396.484100 1162.969971,407.204956 
	C1147.987793,411.522339 1132.918823,415.864746 1117.346924,420.352051 
	C1117.346924,390.450104 1117.346924,361.075287 1117.346924,331.379791 
	C1107.563965,331.379791 1098.161987,331.379791 1088.345459,331.379791 
	C1088.345459,363.412506 1088.345459,395.487793 1088.345459,428.075500 
	C1073.161865,431.865784 1058.242676,435.590027 1042.822998,439.439240 
	C1042.822998,358.962891 1042.822998,279.010406 1042.822998,198.373795 
	C1058.054932,202.654678 1073.000732,206.855179 1088.149536,211.112701 
	C1088.149536,239.508804 1088.149536,267.624908 1088.149536,296.128479 
	C1097.813965,296.128479 1107.196411,296.128479 1116.953125,296.128479 
	C1116.953125,271.002106 1116.953125,245.734573 1116.953125,219.511307 
	C1132.548218,224.133957 1147.549805,228.580673 1162.969971,233.151459 
	C1162.969971,280.649292 1162.969971,328.074646 1162.969971,376.000000 
z"/>

<path id="artiphishell_9_letter_e" fill="#000000" opacity="1.000000" stroke="none" 
	d="
M1175.448853,277.999695 
	C1175.448853,264.197571 1175.448853,250.895477 1175.448853,236.835434 
	C1204.984985,246.024796 1234.023193,255.059280 1263.076538,264.098450 
	C1263.076538,272.672607 1263.076538,280.807037 1263.076538,289.780731 
	C1249.172363,285.384735 1235.557495,281.080200 1221.502197,276.636414 
	C1221.502197,284.579651 1221.502197,292.083588 1221.502197,299.878784 
	C1235.220093,299.878784 1248.946411,299.878784 1262.949951,299.878784 
	C1262.949951,310.384308 1262.949951,320.808411 1262.949951,332.064392 
	C1249.289307,332.064392 1235.542236,332.064392 1221.477295,332.064392 
	C1221.477295,341.467499 1221.477295,350.052399 1221.477295,359.372192 
	C1235.300293,354.312469 1249.036621,349.284546 1263.229736,344.089355 
	C1263.229736,353.740814 1263.308960,362.725891 1263.126221,371.705658 
	C1263.104248,372.785767 1261.873901,374.465179 1260.848389,374.810089 
	C1232.735474,384.264862 1204.576416,393.582611 1176.420532,402.909058 
	C1176.305298,402.947235 1176.122681,402.782196 1175.448853,402.469574 
	C1175.448853,361.309448 1175.448853,319.904572 1175.448853,277.999695 
z"/>
<path id="artiphishell_10_letter_l_first" fill="#000000" opacity="1.000000" stroke="none" 
	d="
M1287.089966,345.999878 
	C1287.089966,321.177002 1287.089966,296.854095 1287.089966,273.530212 
	C1302.476318,262.787628 1317.281860,252.450516 1332.938843,241.518921 
	C1332.938843,260.727325 1332.938843,279.236328 1332.938843,297.745300 
	C1332.938843,316.395599 1332.938843,335.045898 1332.938843,353.810822 
	C1345.355225,359.774628 1357.587280,365.758972 1369.932983,371.499054 
	C1372.822144,372.842438 1374.161621,374.244324 1374.070801,377.713898 
	C1373.783936,388.676300 1373.964844,399.650940 1373.964844,411.342957 
	C1364.704102,406.533081 1355.913452,401.969543 1347.124634,397.402252 
	C1331.229858,389.142151 1315.338623,380.875305 1299.438599,372.625397 
	C1297.816895,371.784088 1296.189087,370.481781 1294.489014,370.347748 
	C1287.717896,369.813934 1286.319580,366.001465 1286.992310,359.986633 
	C1287.489380,355.542999 1287.089966,350.999054 1287.089966,345.999878 
z"/>
<path id="artiphishell_11_letter_l_second" fill="#000000" opacity="1.000000" stroke="none" 
	d="
M1549.000000,487.571533 
	C1531.049683,490.925018 1514.012939,486.891205 1498.097534,479.346954 
	C1485.113525,473.192291 1473.149292,464.896362 1460.683838,457.633972 
	C1452.803467,453.042786 1444.933594,448.416229 1436.881348,444.140381 
	C1421.335693,435.885590 1405.692871,427.811798 1390.016968,419.806458 
	C1387.368896,418.454193 1386.187256,417.028259 1386.192505,413.824188 
	C1386.305664,345.179352 1386.264282,276.534302 1386.359497,207.889435 
	C1386.361816,206.173325 1387.058960,203.745331 1388.298584,202.852875 
	C1402.463257,192.654846 1416.796387,182.690781 1432.076782,171.968002 
	C1432.076782,174.494553 1432.076782,176.186432 1432.076782,177.878326 
	C1432.076782,240.525223 1432.109741,303.172180 1431.991333,365.818848 
	C1431.984497,369.405792 1432.868530,371.371490 1436.159912,373.147125 
	C1439.504761,374.951599 1442.229126,377.947021 1445.128540,380.529419 
	C1465.901855,399.030487 1486.613647,417.600739 1507.418701,436.065948 
	C1522.988770,449.884857 1538.611572,463.630280 1548.693359,482.272522 
	C1549.000000,483.714355 1549.000000,485.428711 1549.000000,487.571533 
z"/>

	<!-- ############################### FINS ############################# -->
	<!-- Right at the end -->
<path id="fins_right_above_l" fill="#000000" opacity="1.000000" stroke="none" 
	d="
M1549.000000,126.571533 
	C1548.423950,127.244652 1547.512573,127.336136 1547.320679,127.756332 
	C1541.954102,139.500916 1533.727905,149.195465 1524.219604,157.539413 
	C1495.811401,182.468842 1474.910400,213.213547 1455.094727,244.879684 
	C1453.586182,247.290268 1451.730835,249.483749 1448.934082,251.255402 
	C1448.934082,249.821091 1448.934082,248.386795 1448.934082,246.952484 
	C1448.934082,219.474136 1448.992798,191.995514 1448.854492,164.517853 
	C1448.838379,161.329117 1449.848877,159.538864 1452.386108,157.621811 
	C1466.875000,146.674820 1481.665405,136.252502 1498.585938,129.322586 
	C1514.462891,122.820053 1530.766846,118.604568 1548.578613,120.955124 
	C1549.000000,122.714355 1549.000000,124.428719 1549.000000,126.571533 
z"/>

	<!-- Top -->
<path id="fins_top_0" fill="#000000" opacity="1.000000" stroke="none" 
	d="
M749.531372,1.000011 
	C750.873169,1.621369 751.677246,2.639374 752.629822,2.805341 
	C770.648560,5.944574 788.685181,8.981025 806.715332,12.055161 
	C807.165649,12.131924 807.584473,12.393420 808.305115,12.684911 
	C792.911621,14.053161 777.840820,15.317474 762.785645,16.745520 
	C723.296814,20.491180 684.221802,26.836168 645.636658,36.028397 
	C606.893127,45.258366 569.146606,57.388245 533.782043,76.068321 
	C516.794617,85.041298 500.915375,95.653648 486.816650,108.812157 
	C485.693817,109.860138 484.072815,110.852753 482.604919,110.982254 
	C451.578644,113.719444 420.541229,116.330238 389.505066,118.955048 
	C388.736938,119.020004 387.958496,118.963219 386.633728,117.853256 
	C396.767487,110.199928 406.671570,102.217941 417.073517,94.948364 
	C471.309692,57.044506 530.288208,29.260017 594.719788,13.824574 
	C614.731689,9.030449 635.283875,6.493833 655.581482,2.882877 
	C656.633118,2.695787 657.616272,2.123786 658.315674,1.365491 
	C688.354248,1.000000 718.708435,1.000000 749.531372,1.000011 
z"/>

<path id="fins_top_1" fill="#000000" opacity="1.000000" stroke="none" 
	d="
M719.481934,44.566692 
	C784.778748,36.798145 848.595825,40.098282 910.576599,62.965927 
	C900.094238,62.167896 889.619507,61.247608 879.128113,60.594288 
	C844.814270,58.457466 810.549622,59.019104 776.338440,62.588032 
	C743.156555,66.049583 710.424561,71.895790 678.953979,83.117737 
	C662.892456,88.845032 647.466125,96.348335 631.720093,102.971352 
	C629.479919,103.913574 627.078308,104.937775 624.711914,105.044083 
	C587.937500,106.696136 551.156616,108.202950 514.349060,109.744522 
	C528.206970,92.410576 655.531067,51.938080 719.481934,44.566692 
z"/>
<path id="fins_top_2" fill="#000000" opacity="1.000000" stroke="none" 
	d="
M929.009521,105.924896 
	C895.498474,108.750153 862.466003,111.368149 829.481323,114.489883 
	C816.239014,115.743164 803.146851,118.712059 789.896912,119.702110 
	C783.285645,120.196114 776.481384,117.928490 769.749573,117.019646 
	C743.521118,113.478577 717.286743,109.981392 690.469116,105.477692 
	C700.532776,101.618660 710.408508,97.141472 720.694885,94.014755 
	C753.545715,84.029099 787.414734,81.703262 821.501648,82.298424 
	C865.605896,83.068481 909.150940,88.405273 951.809814,99.994141 
	C957.578125,101.561188 963.255554,103.464836 968.963928,105.248375 
	C969.856873,105.527390 970.689819,105.998093 970.513611,105.919876 
	C957.476929,105.919876 943.492126,105.919876 929.009521,105.924896 
z"/>
<path id="fins_top_3" fill="#000000" opacity="1.000000" stroke="none" 
	d="
M832.018188,131.881622 
	C863.096985,124.313194 894.283081,122.518066 925.677917,124.263977 
	C956.563049,125.981544 986.702515,131.923843 1016.006958,141.926636 
	C1017.733887,142.516129 1019.438660,143.172791 1021.135742,143.843842 
	C1021.339478,143.924408 1021.429199,144.293167 1021.909607,145.085495 
	C1019.027649,145.085495 1016.470581,145.162598 1013.919312,145.073669 
	C985.279541,144.075546 957.056946,146.974640 929.244873,153.933594 
	C927.630798,154.337479 925.553162,154.384384 924.100464,153.712570 
	C903.771118,144.311157 882.076538,140.189453 860.139343,137.071793 
	C849.991699,135.629654 839.779114,134.645493 829.139038,133.400223 
	C830.119751,132.835205 830.873230,132.401077 832.018188,131.881622 
z"/>

	<!-- Bottom -->
<path id="fins_bottom_0" fill="#000000" opacity="1.000000" stroke="none" 
d="
M331.750488,479.282654 
C349.069885,482.963257 366.006500,486.424133 382.860901,490.247375 
C385.512268,490.848846 388.373993,492.589630 390.151978,494.653442 
C407.225220,514.471375 425.893799,532.365295 449.516724,544.262024 
C456.090637,547.572754 463.107849,550.003113 469.854340,553.266602 
C445.343536,555.167969 421.603027,551.670044 398.491913,543.167358 
C362.560333,529.947937 331.441040,501.545624 317.091034,476.324677 
C322.088654,477.326904 326.714661,478.254608 331.750488,479.282654 
z"/>
<path id="fins_bottom_1" fill="#000000" opacity="1.000000" stroke="none" 
d="
M414.738251,495.093445 
C415.484375,494.538086 416.485382,493.968048 417.403564,494.079620 
C437.221161,496.487000 457.035187,498.927063 476.829010,501.520294 
C478.433533,501.730499 480.393402,502.711273 481.337006,503.971313 
C502.297058,531.960449 530.346558,550.427551 561.914612,564.169312 
C568.265564,566.933899 574.776184,569.331665 581.556519,572.035400 
C527.235718,576.273865 460.525177,551.235474 414.738251,495.093445 
z"/>
<path id="fins_bottom_2" fill="#000000" opacity="1.000000" stroke="none" 
	d="
M643.468628,577.000000 
	C642.128784,576.362671 641.319885,575.284790 640.377380,575.151489 
	C598.062866,569.166748 560.074280,553.149414 526.955933,526.035278 
	C519.300842,519.768005 512.239258,512.775818 504.626221,505.864502 
	C524.643555,506.608276 543.722900,507.290192 562.797119,508.092468 
	C563.951477,508.141022 565.237244,508.943878 566.173462,509.736450 
	C597.253296,536.048889 633.334229,552.514343 672.328003,562.829712 
	C688.511536,567.111023 705.116577,569.798401 720.880615,573.075623 
	C717.336243,573.989746 712.847900,575.147339 708.679810,576.652466 
	C687.312439,577.000000 665.624878,577.000000 643.468628,577.000000 
z"/>
</svg>