<?xml version="1.0" encoding="utf-8" standalone="no"?>
<!DOCTYPE svg PUBLIC "-//W3C//DTD SVG 1.1//EN"
  "http://www.w3.org/Graphics/SVG/1.1/DTD/svg11.dtd">
<svg xmlns:xlink="http://www.w3.org/1999/xlink" width="471.564375pt" height="276.194375pt" viewBox="0 0 471.564375 276.194375" xmlns="http://www.w3.org/2000/svg" version="1.1">
 <metadata>
  <rdf:RDF xmlns:dc="http://purl.org/dc/elements/1.1/" xmlns:cc="http://creativecommons.org/ns#" xmlns:rdf="http://www.w3.org/1999/02/22-rdf-syntax-ns#">
   <cc:Work>
    <dc:type rdf:resource="http://purl.org/dc/dcmitype/StillImage"/>
    <dc:date>2023-10-07T23:48:12.421060</dc:date>
    <dc:format>image/svg+xml</dc:format>
    <dc:creator>
     <cc:Agent>
      <dc:title>Matplotlib v3.7.1, https://matplotlib.org/</dc:title>
     </cc:Agent>
    </dc:creator>
   </cc:Work>
  </rdf:RDF>
 </metadata>
 <defs>
  <style type="text/css">*{stroke-linejoin: round; stroke-linecap: butt}</style>
 </defs>
 <g id="figure_1">
  <g id="patch_1">
   <path d="M 0 276.194375 
L 471.564375 276.194375 
L 471.564375 0 
L 0 0 
z
" style="fill: #ffffff"/>
  </g>
  <g id="axes_1">
   <g id="patch_2">
    <path d="M 73.764375 228.96 
L 464.364375 228.96 
L 464.364375 7.2 
L 73.764375 7.2 
z
" style="fill: #ffffff"/>
   </g>
   <g id="matplotlib.axis_1">
    <g id="xtick_1">
     <g id="line2d_1">
      <path d="M 91.51892 228.96 
L 91.51892 7.2 
" clip-path="url(#p2e1511dfe4)" style="fill: none; stroke: #b0b0b0; stroke-opacity: 0.3; stroke-width: 0.8; stroke-linecap: square"/>
     </g>
     <g id="line2d_2">
      <defs>
       <path id="mb901dbdab2" d="M 0 0 
L 0 3.5 
" style="stroke: #000000; stroke-width: 0.8"/>
      </defs>
      <g>
       <use xlink:href="#mb901dbdab2" x="91.51892" y="228.96" style="stroke: #000000; stroke-width: 0.8"/>
      </g>
     </g>
     <g id="text_1">
      <!-- 0h -->
      <g transform="translate(82.62892 246.597813) scale(0.14 -0.14)">
       <defs>
        <path id="DejaVuSans-30" d="M 2034 4250 
Q 1547 4250 1301 3770 
Q 1056 3291 1056 2328 
Q 1056 1369 1301 889 
Q 1547 409 2034 409 
Q 2525 409 2770 889 
Q 3016 1369 3016 2328 
Q 3016 3291 2770 3770 
Q 2525 4250 2034 4250 
z
M 2034 4750 
Q 2819 4750 3233 4129 
Q 3647 3509 3647 2328 
Q 3647 1150 3233 529 
Q 2819 -91 2034 -91 
Q 1250 -91 836 529 
Q 422 1150 422 2328 
Q 422 3509 836 4129 
Q 1250 4750 2034 4750 
z
" transform="scale(0.015625)"/>
        <path id="DejaVuSans-68" d="M 3513 2113 
L 3513 0 
L 2938 0 
L 2938 2094 
Q 2938 2591 2744 2837 
Q 2550 3084 2163 3084 
Q 1697 3084 1428 2787 
Q 1159 2491 1159 1978 
L 1159 0 
L 581 0 
L 581 4863 
L 1159 4863 
L 1159 2956 
Q 1366 3272 1645 3428 
Q 1925 3584 2291 3584 
Q 2894 3584 3203 3211 
Q 3513 2838 3513 2113 
z
" transform="scale(0.015625)"/>
       </defs>
       <use xlink:href="#DejaVuSans-30"/>
       <use xlink:href="#DejaVuSans-68" x="63.623047"/>
      </g>
     </g>
    </g>
    <g id="xtick_2">
     <g id="line2d_3">
      <path d="M 180.291648 228.96 
L 180.291648 7.2 
" clip-path="url(#p2e1511dfe4)" style="fill: none; stroke: #b0b0b0; stroke-opacity: 0.3; stroke-width: 0.8; stroke-linecap: square"/>
     </g>
     <g id="line2d_4">
      <g>
       <use xlink:href="#mb901dbdab2" x="180.291648" y="228.96" style="stroke: #000000; stroke-width: 0.8"/>
      </g>
     </g>
     <g id="text_2">
      <!-- 12h -->
      <g transform="translate(166.947898 246.597813) scale(0.14 -0.14)">
       <defs>
        <path id="DejaVuSans-31" d="M 794 531 
L 1825 531 
L 1825 4091 
L 703 3866 
L 703 4441 
L 1819 4666 
L 2450 4666 
L 2450 531 
L 3481 531 
L 3481 0 
L 794 0 
L 794 531 
z
" transform="scale(0.015625)"/>
        <path id="DejaVuSans-32" d="M 1228 531 
L 3431 531 
L 3431 0 
L 469 0 
L 469 531 
Q 828 903 1448 1529 
Q 2069 2156 2228 2338 
Q 2531 2678 2651 2914 
Q 2772 3150 2772 3378 
Q 2772 3750 2511 3984 
Q 2250 4219 1831 4219 
Q 1534 4219 1204 4116 
Q 875 4013 500 3803 
L 500 4441 
Q 881 4594 1212 4672 
Q 1544 4750 1819 4750 
Q 2544 4750 2975 4387 
Q 3406 4025 3406 3419 
Q 3406 3131 3298 2873 
Q 3191 2616 2906 2266 
Q 2828 2175 2409 1742 
Q 1991 1309 1228 531 
z
" transform="scale(0.015625)"/>
       </defs>
       <use xlink:href="#DejaVuSans-31"/>
       <use xlink:href="#DejaVuSans-32" x="63.623047"/>
       <use xlink:href="#DejaVuSans-68" x="127.246094"/>
      </g>
     </g>
    </g>
    <g id="xtick_3">
     <g id="line2d_5">
      <path d="M 269.064375 228.96 
L 269.064375 7.2 
" clip-path="url(#p2e1511dfe4)" style="fill: none; stroke: #b0b0b0; stroke-opacity: 0.3; stroke-width: 0.8; stroke-linecap: square"/>
     </g>
     <g id="line2d_6">
      <g>
       <use xlink:href="#mb901dbdab2" x="269.064375" y="228.96" style="stroke: #000000; stroke-width: 0.8"/>
      </g>
     </g>
     <g id="text_3">
      <!-- 24h -->
      <g transform="translate(255.720625 246.597813) scale(0.14 -0.14)">
       <defs>
        <path id="DejaVuSans-34" d="M 2419 4116 
L 825 1625 
L 2419 1625 
L 2419 4116 
z
M 2253 4666 
L 3047 4666 
L 3047 1625 
L 3713 1625 
L 3713 1100 
L 3047 1100 
L 3047 0 
L 2419 0 
L 2419 1100 
L 313 1100 
L 313 1709 
L 2253 4666 
z
" transform="scale(0.015625)"/>
       </defs>
       <use xlink:href="#DejaVuSans-32"/>
       <use xlink:href="#DejaVuSans-34" x="63.623047"/>
       <use xlink:href="#DejaVuSans-68" x="127.246094"/>
      </g>
     </g>
    </g>
    <g id="xtick_4">
     <g id="line2d_7">
      <path d="M 357.837102 228.96 
L 357.837102 7.2 
" clip-path="url(#p2e1511dfe4)" style="fill: none; stroke: #b0b0b0; stroke-opacity: 0.3; stroke-width: 0.8; stroke-linecap: square"/>
     </g>
     <g id="line2d_8">
      <g>
       <use xlink:href="#mb901dbdab2" x="357.837102" y="228.96" style="stroke: #000000; stroke-width: 0.8"/>
      </g>
     </g>
     <g id="text_4">
      <!-- 36h -->
      <g transform="translate(344.493352 246.597813) scale(0.14 -0.14)">
       <defs>
        <path id="DejaVuSans-33" d="M 2597 2516 
Q 3050 2419 3304 2112 
Q 3559 1806 3559 1356 
Q 3559 666 3084 287 
Q 2609 -91 1734 -91 
Q 1441 -91 1130 -33 
Q 819 25 488 141 
L 488 750 
Q 750 597 1062 519 
Q 1375 441 1716 441 
Q 2309 441 2620 675 
Q 2931 909 2931 1356 
Q 2931 1769 2642 2001 
Q 2353 2234 1838 2234 
L 1294 2234 
L 1294 2753 
L 1863 2753 
Q 2328 2753 2575 2939 
Q 2822 3125 2822 3475 
Q 2822 3834 2567 4026 
Q 2313 4219 1838 4219 
Q 1578 4219 1281 4162 
Q 984 4106 628 3988 
L 628 4550 
Q 988 4650 1302 4700 
Q 1616 4750 1894 4750 
Q 2613 4750 3031 4423 
Q 3450 4097 3450 3541 
Q 3450 3153 3228 2886 
Q 3006 2619 2597 2516 
z
" transform="scale(0.015625)"/>
        <path id="DejaVuSans-36" d="M 2113 2584 
Q 1688 2584 1439 2293 
Q 1191 2003 1191 1497 
Q 1191 994 1439 701 
Q 1688 409 2113 409 
Q 2538 409 2786 701 
Q 3034 994 3034 1497 
Q 3034 2003 2786 2293 
Q 2538 2584 2113 2584 
z
M 3366 4563 
L 3366 3988 
Q 3128 4100 2886 4159 
Q 2644 4219 2406 4219 
Q 1781 4219 1451 3797 
Q 1122 3375 1075 2522 
Q 1259 2794 1537 2939 
Q 1816 3084 2150 3084 
Q 2853 3084 3261 2657 
Q 3669 2231 3669 1497 
Q 3669 778 3244 343 
Q 2819 -91 2113 -91 
Q 1303 -91 875 529 
Q 447 1150 447 2328 
Q 447 3434 972 4092 
Q 1497 4750 2381 4750 
Q 2619 4750 2861 4703 
Q 3103 4656 3366 4563 
z
" transform="scale(0.015625)"/>
       </defs>
       <use xlink:href="#DejaVuSans-33"/>
       <use xlink:href="#DejaVuSans-36" x="63.623047"/>
       <use xlink:href="#DejaVuSans-68" x="127.246094"/>
      </g>
     </g>
    </g>
    <g id="xtick_5">
     <g id="line2d_9">
      <path d="M 446.60983 228.96 
L 446.60983 7.2 
" clip-path="url(#p2e1511dfe4)" style="fill: none; stroke: #b0b0b0; stroke-opacity: 0.3; stroke-width: 0.8; stroke-linecap: square"/>
     </g>
     <g id="line2d_10">
      <g>
       <use xlink:href="#mb901dbdab2" x="446.60983" y="228.96" style="stroke: #000000; stroke-width: 0.8"/>
      </g>
     </g>
     <g id="text_5">
      <!-- 48h -->
      <g transform="translate(433.26608 246.597813) scale(0.14 -0.14)">
       <defs>
        <path id="DejaVuSans-38" d="M 2034 2216 
Q 1584 2216 1326 1975 
Q 1069 1734 1069 1313 
Q 1069 891 1326 650 
Q 1584 409 2034 409 
Q 2484 409 2743 651 
Q 3003 894 3003 1313 
Q 3003 1734 2745 1975 
Q 2488 2216 2034 2216 
z
M 1403 2484 
Q 997 2584 770 2862 
Q 544 3141 544 3541 
Q 544 4100 942 4425 
Q 1341 4750 2034 4750 
Q 2731 4750 3128 4425 
Q 3525 4100 3525 3541 
Q 3525 3141 3298 2862 
Q 3072 2584 2669 2484 
Q 3125 2378 3379 2068 
Q 3634 1759 3634 1313 
Q 3634 634 3220 271 
Q 2806 -91 2034 -91 
Q 1263 -91 848 271 
Q 434 634 434 1313 
Q 434 1759 690 2068 
Q 947 2378 1403 2484 
z
M 1172 3481 
Q 1172 3119 1398 2916 
Q 1625 2713 2034 2713 
Q 2441 2713 2670 2916 
Q 2900 3119 2900 3481 
Q 2900 3844 2670 4047 
Q 2441 4250 2034 4250 
Q 1625 4250 1398 4047 
Q 1172 3844 1172 3481 
z
" transform="scale(0.015625)"/>
       </defs>
       <use xlink:href="#DejaVuSans-34"/>
       <use xlink:href="#DejaVuSans-38" x="63.623047"/>
       <use xlink:href="#DejaVuSans-68" x="127.246094"/>
      </g>
     </g>
    </g>
    <g id="text_6">
     <!-- Time -->
     <g transform="translate(249.490625 265.666875) scale(0.16 -0.16)">
      <defs>
       <path id="DejaVuSans-54" d="M -19 4666 
L 3928 4666 
L 3928 4134 
L 2272 4134 
L 2272 0 
L 1638 0 
L 1638 4134 
L -19 4134 
L -19 4666 
z
" transform="scale(0.015625)"/>
       <path id="DejaVuSans-69" d="M 603 3500 
L 1178 3500 
L 1178 0 
L 603 0 
L 603 3500 
z
M 603 4863 
L 1178 4863 
L 1178 4134 
L 603 4134 
L 603 4863 
z
" transform="scale(0.015625)"/>
       <path id="DejaVuSans-6d" d="M 3328 2828 
Q 3544 3216 3844 3400 
Q 4144 3584 4550 3584 
Q 5097 3584 5394 3201 
Q 5691 2819 5691 2113 
L 5691 0 
L 5113 0 
L 5113 2094 
Q 5113 2597 4934 2840 
Q 4756 3084 4391 3084 
Q 3944 3084 3684 2787 
Q 3425 2491 3425 1978 
L 3425 0 
L 2847 0 
L 2847 2094 
Q 2847 2600 2669 2842 
Q 2491 3084 2119 3084 
Q 1678 3084 1418 2786 
Q 1159 2488 1159 1978 
L 1159 0 
L 581 0 
L 581 3500 
L 1159 3500 
L 1159 2956 
Q 1356 3278 1631 3431 
Q 1906 3584 2284 3584 
Q 2666 3584 2933 3390 
Q 3200 3197 3328 2828 
z
" transform="scale(0.015625)"/>
       <path id="DejaVuSans-65" d="M 3597 1894 
L 3597 1613 
L 953 1613 
Q 991 1019 1311 708 
Q 1631 397 2203 397 
Q 2534 397 2845 478 
Q 3156 559 3463 722 
L 3463 178 
Q 3153 47 2828 -22 
Q 2503 -91 2169 -91 
Q 1331 -91 842 396 
Q 353 884 353 1716 
Q 353 2575 817 3079 
Q 1281 3584 2069 3584 
Q 2775 3584 3186 3129 
Q 3597 2675 3597 1894 
z
M 3022 2063 
Q 3016 2534 2758 2815 
Q 2500 3097 2075 3097 
Q 1594 3097 1305 2825 
Q 1016 2553 972 2059 
L 3022 2063 
z
" transform="scale(0.015625)"/>
      </defs>
      <use xlink:href="#DejaVuSans-54"/>
      <use xlink:href="#DejaVuSans-69" x="57.958984"/>
      <use xlink:href="#DejaVuSans-6d" x="85.742188"/>
      <use xlink:href="#DejaVuSans-65" x="183.154297"/>
     </g>
    </g>
   </g>
   <g id="matplotlib.axis_2">
    <g id="ytick_1">
     <g id="line2d_11">
      <path d="M 73.764375 202.942781 
L 464.364375 202.942781 
" clip-path="url(#p2e1511dfe4)" style="fill: none; stroke: #b0b0b0; stroke-opacity: 0.3; stroke-width: 0.8; stroke-linecap: square"/>
     </g>
     <g id="line2d_12">
      <defs>
       <path id="m0d10b7fee9" d="M 0 0 
L -3.5 0 
" style="stroke: #000000; stroke-width: 0.8"/>
      </defs>
      <g>
       <use xlink:href="#m0d10b7fee9" x="73.764375" y="202.942781" style="stroke: #000000; stroke-width: 0.8"/>
      </g>
     </g>
     <g id="text_7">
      <!-- 4,500 -->
      <g transform="translate(26.685 208.261688) scale(0.14 -0.14)">
       <defs>
        <path id="DejaVuSans-2c" d="M 750 794 
L 1409 794 
L 1409 256 
L 897 -744 
L 494 -744 
L 750 256 
L 750 794 
z
" transform="scale(0.015625)"/>
        <path id="DejaVuSans-35" d="M 691 4666 
L 3169 4666 
L 3169 4134 
L 1269 4134 
L 1269 2991 
Q 1406 3038 1543 3061 
Q 1681 3084 1819 3084 
Q 2600 3084 3056 2656 
Q 3513 2228 3513 1497 
Q 3513 744 3044 326 
Q 2575 -91 1722 -91 
Q 1428 -91 1123 -41 
Q 819 9 494 109 
L 494 744 
Q 775 591 1075 516 
Q 1375 441 1709 441 
Q 2250 441 2565 725 
Q 2881 1009 2881 1497 
Q 2881 1984 2565 2268 
Q 2250 2553 1709 2553 
Q 1456 2553 1204 2497 
Q 953 2441 691 2322 
L 691 4666 
z
" transform="scale(0.015625)"/>
       </defs>
       <use xlink:href="#DejaVuSans-34"/>
       <use xlink:href="#DejaVuSans-2c" x="63.623047"/>
       <use xlink:href="#DejaVuSans-35" x="95.410156"/>
       <use xlink:href="#DejaVuSans-30" x="159.033203"/>
       <use xlink:href="#DejaVuSans-30" x="222.65625"/>
      </g>
     </g>
    </g>
    <g id="ytick_2">
     <g id="line2d_13">
      <path d="M 73.764375 173.860265 
L 464.364375 173.860265 
" clip-path="url(#p2e1511dfe4)" style="fill: none; stroke: #b0b0b0; stroke-opacity: 0.3; stroke-width: 0.8; stroke-linecap: square"/>
     </g>
     <g id="line2d_14">
      <g>
       <use xlink:href="#m0d10b7fee9" x="73.764375" y="173.860265" style="stroke: #000000; stroke-width: 0.8"/>
      </g>
     </g>
     <g id="text_8">
      <!-- 4,750 -->
      <g transform="translate(26.685 179.179172) scale(0.14 -0.14)">
       <defs>
        <path id="DejaVuSans-37" d="M 525 4666 
L 3525 4666 
L 3525 4397 
L 1831 0 
L 1172 0 
L 2766 4134 
L 525 4134 
L 525 4666 
z
" transform="scale(0.015625)"/>
       </defs>
       <use xlink:href="#DejaVuSans-34"/>
       <use xlink:href="#DejaVuSans-2c" x="63.623047"/>
       <use xlink:href="#DejaVuSans-37" x="95.410156"/>
       <use xlink:href="#DejaVuSans-35" x="159.033203"/>
       <use xlink:href="#DejaVuSans-30" x="222.65625"/>
      </g>
     </g>
    </g>
    <g id="ytick_3">
     <g id="line2d_15">
      <path d="M 73.764375 144.77775 
L 464.364375 144.77775 
" clip-path="url(#p2e1511dfe4)" style="fill: none; stroke: #b0b0b0; stroke-opacity: 0.3; stroke-width: 0.8; stroke-linecap: square"/>
     </g>
     <g id="line2d_16">
      <g>
       <use xlink:href="#m0d10b7fee9" x="73.764375" y="144.77775" style="stroke: #000000; stroke-width: 0.8"/>
      </g>
     </g>
     <g id="text_9">
      <!-- 5,000 -->
      <g transform="translate(26.685 150.096656) scale(0.14 -0.14)">
       <use xlink:href="#DejaVuSans-35"/>
       <use xlink:href="#DejaVuSans-2c" x="63.623047"/>
       <use xlink:href="#DejaVuSans-30" x="95.410156"/>
       <use xlink:href="#DejaVuSans-30" x="159.033203"/>
       <use xlink:href="#DejaVuSans-30" x="222.65625"/>
      </g>
     </g>
    </g>
    <g id="ytick_4">
     <g id="line2d_17">
      <path d="M 73.764375 115.695234 
L 464.364375 115.695234 
" clip-path="url(#p2e1511dfe4)" style="fill: none; stroke: #b0b0b0; stroke-opacity: 0.3; stroke-width: 0.8; stroke-linecap: square"/>
     </g>
     <g id="line2d_18">
      <g>
       <use xlink:href="#m0d10b7fee9" x="73.764375" y="115.695234" style="stroke: #000000; stroke-width: 0.8"/>
      </g>
     </g>
     <g id="text_10">
      <!-- 5,250 -->
      <g transform="translate(26.685 121.01414) scale(0.14 -0.14)">
       <use xlink:href="#DejaVuSans-35"/>
       <use xlink:href="#DejaVuSans-2c" x="63.623047"/>
       <use xlink:href="#DejaVuSans-32" x="95.410156"/>
       <use xlink:href="#DejaVuSans-35" x="159.033203"/>
       <use xlink:href="#DejaVuSans-30" x="222.65625"/>
      </g>
     </g>
    </g>
    <g id="ytick_5">
     <g id="line2d_19">
      <path d="M 73.764375 86.612718 
L 464.364375 86.612718 
" clip-path="url(#p2e1511dfe4)" style="fill: none; stroke: #b0b0b0; stroke-opacity: 0.3; stroke-width: 0.8; stroke-linecap: square"/>
     </g>
     <g id="line2d_20">
      <g>
       <use xlink:href="#m0d10b7fee9" x="73.764375" y="86.612718" style="stroke: #000000; stroke-width: 0.8"/>
      </g>
     </g>
     <g id="text_11">
      <!-- 5,500 -->
      <g transform="translate(26.685 91.931624) scale(0.14 -0.14)">
       <use xlink:href="#DejaVuSans-35"/>
       <use xlink:href="#DejaVuSans-2c" x="63.623047"/>
       <use xlink:href="#DejaVuSans-35" x="95.410156"/>
       <use xlink:href="#DejaVuSans-30" x="159.033203"/>
       <use xlink:href="#DejaVuSans-30" x="222.65625"/>
      </g>
     </g>
    </g>
    <g id="ytick_6">
     <g id="line2d_21">
      <path d="M 73.764375 57.530202 
L 464.364375 57.530202 
" clip-path="url(#p2e1511dfe4)" style="fill: none; stroke: #b0b0b0; stroke-opacity: 0.3; stroke-width: 0.8; stroke-linecap: square"/>
     </g>
     <g id="line2d_22">
      <g>
       <use xlink:href="#m0d10b7fee9" x="73.764375" y="57.530202" style="stroke: #000000; stroke-width: 0.8"/>
      </g>
     </g>
     <g id="text_12">
      <!-- 5,750 -->
      <g transform="translate(26.685 62.849108) scale(0.14 -0.14)">
       <use xlink:href="#DejaVuSans-35"/>
       <use xlink:href="#DejaVuSans-2c" x="63.623047"/>
       <use xlink:href="#DejaVuSans-37" x="95.410156"/>
       <use xlink:href="#DejaVuSans-35" x="159.033203"/>
       <use xlink:href="#DejaVuSans-30" x="222.65625"/>
      </g>
     </g>
    </g>
    <g id="ytick_7">
     <g id="line2d_23">
      <path d="M 73.764375 28.447686 
L 464.364375 28.447686 
" clip-path="url(#p2e1511dfe4)" style="fill: none; stroke: #b0b0b0; stroke-opacity: 0.3; stroke-width: 0.8; stroke-linecap: square"/>
     </g>
     <g id="line2d_24">
      <g>
       <use xlink:href="#m0d10b7fee9" x="73.764375" y="28.447686" style="stroke: #000000; stroke-width: 0.8"/>
      </g>
     </g>
     <g id="text_13">
      <!-- 6,000 -->
      <g transform="translate(26.685 33.766592) scale(0.14 -0.14)">
       <use xlink:href="#DejaVuSans-36"/>
       <use xlink:href="#DejaVuSans-2c" x="63.623047"/>
       <use xlink:href="#DejaVuSans-30" x="95.410156"/>
       <use xlink:href="#DejaVuSans-30" x="159.033203"/>
       <use xlink:href="#DejaVuSans-30" x="222.65625"/>
      </g>
     </g>
    </g>
    <g id="text_14">
     <!-- Edges -->
     <g transform="translate(19.3575 142.3825) rotate(-90) scale(0.16 -0.16)">
      <defs>
       <path id="DejaVuSans-45" d="M 628 4666 
L 3578 4666 
L 3578 4134 
L 1259 4134 
L 1259 2753 
L 3481 2753 
L 3481 2222 
L 1259 2222 
L 1259 531 
L 3634 531 
L 3634 0 
L 628 0 
L 628 4666 
z
" transform="scale(0.015625)"/>
       <path id="DejaVuSans-64" d="M 2906 2969 
L 2906 4863 
L 3481 4863 
L 3481 0 
L 2906 0 
L 2906 525 
Q 2725 213 2448 61 
Q 2172 -91 1784 -91 
Q 1150 -91 751 415 
Q 353 922 353 1747 
Q 353 2572 751 3078 
Q 1150 3584 1784 3584 
Q 2172 3584 2448 3432 
Q 2725 3281 2906 2969 
z
M 947 1747 
Q 947 1113 1208 752 
Q 1469 391 1925 391 
Q 2381 391 2643 752 
Q 2906 1113 2906 1747 
Q 2906 2381 2643 2742 
Q 2381 3103 1925 3103 
Q 1469 3103 1208 2742 
Q 947 2381 947 1747 
z
" transform="scale(0.015625)"/>
       <path id="DejaVuSans-67" d="M 2906 1791 
Q 2906 2416 2648 2759 
Q 2391 3103 1925 3103 
Q 1463 3103 1205 2759 
Q 947 2416 947 1791 
Q 947 1169 1205 825 
Q 1463 481 1925 481 
Q 2391 481 2648 825 
Q 2906 1169 2906 1791 
z
M 3481 434 
Q 3481 -459 3084 -895 
Q 2688 -1331 1869 -1331 
Q 1566 -1331 1297 -1286 
Q 1028 -1241 775 -1147 
L 775 -588 
Q 1028 -725 1275 -790 
Q 1522 -856 1778 -856 
Q 2344 -856 2625 -561 
Q 2906 -266 2906 331 
L 2906 616 
Q 2728 306 2450 153 
Q 2172 0 1784 0 
Q 1141 0 747 490 
Q 353 981 353 1791 
Q 353 2603 747 3093 
Q 1141 3584 1784 3584 
Q 2172 3584 2450 3431 
Q 2728 3278 2906 2969 
L 2906 3500 
L 3481 3500 
L 3481 434 
z
" transform="scale(0.015625)"/>
       <path id="DejaVuSans-73" d="M 2834 3397 
L 2834 2853 
Q 2591 2978 2328 3040 
Q 2066 3103 1784 3103 
Q 1356 3103 1142 2972 
Q 928 2841 928 2578 
Q 928 2378 1081 2264 
Q 1234 2150 1697 2047 
L 1894 2003 
Q 2506 1872 2764 1633 
Q 3022 1394 3022 966 
Q 3022 478 2636 193 
Q 2250 -91 1575 -91 
Q 1294 -91 989 -36 
Q 684 19 347 128 
L 347 722 
Q 666 556 975 473 
Q 1284 391 1588 391 
Q 1994 391 2212 530 
Q 2431 669 2431 922 
Q 2431 1156 2273 1281 
Q 2116 1406 1581 1522 
L 1381 1569 
Q 847 1681 609 1914 
Q 372 2147 372 2553 
Q 372 3047 722 3315 
Q 1072 3584 1716 3584 
Q 2034 3584 2315 3537 
Q 2597 3491 2834 3397 
z
" transform="scale(0.015625)"/>
      </defs>
      <use xlink:href="#DejaVuSans-45"/>
      <use xlink:href="#DejaVuSans-64" x="63.183594"/>
      <use xlink:href="#DejaVuSans-67" x="126.660156"/>
      <use xlink:href="#DejaVuSans-65" x="190.136719"/>
      <use xlink:href="#DejaVuSans-73" x="251.660156"/>
     </g>
    </g>
   </g>
   <g id="line2d_25">
    <path d="M 91.51892 218.88 
L 93.368352 197.591598 
L 108.163807 197.591598 
L 110.013239 182.58502 
L 117.410966 182.58502 
L 119.260398 181.77071 
L 121.10983 179.095118 
L 128.507557 179.095118 
L 130.356989 178.862458 
L 134.055852 178.862458 
L 135.905284 177.582827 
L 137.754716 177.233837 
L 147.001875 177.233837 
L 148.851307 177.001177 
L 150.700739 175.721546 
L 152.55017 175.256226 
L 165.496193 175.256226 
L 167.345625 174.325586 
L 174.743352 174.325586 
L 176.592784 173.045955 
L 178.442216 173.045955 
L 180.291648 172.813295 
L 200.635398 172.813295 
L 202.48483 171.998984 
L 208.033125 171.998984 
L 209.882557 166.647802 
L 211.731989 166.066151 
L 213.58142 165.949821 
L 215.430852 165.717161 
L 217.280284 165.368171 
L 220.979148 165.368171 
L 222.82858 165.135511 
L 224.678011 165.135511 
L 226.527443 165.019181 
L 228.376875 164.55386 
L 230.226307 164.3212 
L 252.419489 164.3212 
L 254.26892 162.692579 
L 280.160966 162.692579 
L 282.010398 161.180289 
L 287.558693 161.180289 
L 289.408125 161.063958 
L 293.106989 161.063958 
L 294.95642 160.947628 
L 341.192216 160.947628 
L 343.041648 160.831298 
L 367.084261 160.831298 
L 368.933693 160.598638 
L 418.868352 160.598638 
L 420.717784 160.482308 
L 422.567216 160.482308 
L 424.416648 159.784328 
L 426.26608 159.667998 
L 446.60983 159.667998 
L 446.60983 159.667998 
" clip-path="url(#p2e1511dfe4)" style="fill: none; stroke-dasharray: 3,4.95; stroke-dashoffset: 0; stroke: #ddaa33; stroke-width: 3"/>
   </g>
   <g id="line2d_26">
    <path d="M 91.51892 218.88 
L 93.368352 200.96517 
L 95.217784 200.84884 
L 97.067216 185.609602 
L 98.916648 183.166671 
L 100.76608 183.166671 
L 102.615511 179.327778 
L 104.464943 170.603024 
L 106.314375 168.741743 
L 108.163807 166.531471 
L 110.013239 159.784328 
L 111.86267 159.784328 
L 113.712102 158.388367 
L 115.561534 156.410756 
L 117.410966 151.641223 
L 119.260398 150.012602 
L 121.10983 141.287848 
L 122.959261 138.495926 
L 124.808693 138.263266 
L 126.658125 138.146936 
L 128.507557 138.146936 
L 132.20642 136.867305 
L 135.905284 136.867305 
L 137.754716 136.750975 
L 139.604148 135.122354 
L 147.001875 135.122354 
L 148.851307 134.424374 
L 152.55017 134.424374 
L 154.399602 134.191714 
L 174.743352 134.191714 
L 176.592784 133.610063 
L 180.291648 132.912083 
L 182.14108 122.558707 
L 183.990511 122.326047 
L 185.839943 121.977057 
L 187.689375 121.279077 
L 191.388239 119.301466 
L 193.23767 115.811564 
L 195.087102 113.368632 
L 196.936534 113.368632 
L 198.785966 109.18075 
L 200.635398 109.06442 
L 204.334261 108.5991 
L 206.183693 108.5991 
L 208.033125 108.36644 
L 209.882557 108.25011 
L 211.731989 106.505159 
L 213.58142 106.388829 
L 215.430852 106.388829 
L 217.280284 105.923508 
L 222.82858 105.923508 
L 224.678011 105.341858 
L 228.376875 104.876538 
L 230.226307 104.876538 
L 232.075739 104.760208 
L 237.624034 104.760208 
L 239.473466 104.527548 
L 243.17233 104.527548 
L 245.021761 103.945897 
L 246.871193 103.713237 
L 248.720625 103.713237 
L 250.570057 103.596907 
L 270.913807 103.596907 
L 272.763239 103.480577 
L 278.311534 103.480577 
L 280.160966 103.015257 
L 282.010398 102.666267 
L 283.85983 100.455995 
L 285.709261 99.292695 
L 287.558693 97.431414 
L 289.408125 97.315084 
L 291.257557 95.919123 
L 293.106989 95.802793 
L 294.95642 88.706659 
L 296.805852 88.706659 
L 298.655284 84.402447 
L 306.053011 84.402447 
L 307.902443 83.006486 
L 309.751875 82.192175 
L 311.601307 82.192175 
L 313.450739 81.261535 
L 315.30017 80.563555 
L 317.149602 80.098234 
L 324.54733 80.098234 
L 326.396761 76.724662 
L 328.246193 76.608332 
L 330.095625 75.328702 
L 331.945057 73.467421 
L 333.794489 73.0021 
L 335.64392 69.628529 
L 337.493352 68.232568 
L 339.342784 67.069267 
L 341.192216 67.069267 
L 343.041648 66.720277 
L 344.89108 65.440646 
L 348.589943 65.440646 
L 350.439375 64.858996 
L 352.288807 64.742666 
L 365.23483 64.742666 
L 367.084261 64.161016 
L 378.180852 64.161016 
L 380.030284 63.114045 
L 383.729148 63.114045 
L 385.57858 62.532395 
L 387.428011 60.205793 
L 389.277443 59.391483 
L 391.126875 59.391483 
L 392.976307 59.158823 
L 394.825739 58.228182 
L 396.67517 54.27296 
L 400.374034 54.27296 
L 404.072898 53.80764 
L 405.92233 53.45865 
L 407.771761 53.45865 
L 409.621193 52.993329 
L 446.60983 52.993329 
L 446.60983 52.993329 
" clip-path="url(#p2e1511dfe4)" style="fill: none; stroke-dasharray: 3,4.95; stroke-dashoffset: 0; stroke: #000000; stroke-width: 3"/>
   </g>
   <g id="line2d_27">
    <path d="M 91.51892 218.88 
L 93.368352 204.687732 
L 98.916648 200.84884 
L 100.76608 199.80187 
L 102.615511 197.126278 
L 104.464943 197.009948 
L 110.013239 197.009948 
L 111.86267 196.777288 
L 150.700739 196.777288 
L 152.55017 195.730317 
L 154.399602 195.497657 
L 169.195057 195.497657 
L 171.044489 195.264997 
L 426.26608 195.264997 
L 428.115511 195.148667 
L 446.60983 195.148667 
L 446.60983 195.148667 
" clip-path="url(#p2e1511dfe4)" style="fill: none; stroke: #994455; stroke-width: 3; stroke-linecap: square"/>
   </g>
   <g id="line2d_28">
    <path d="M 91.51892 218.88 
L 93.368352 166.182481 
L 95.217784 162.925239 
L 97.067216 162.343589 
L 98.916648 162.343589 
L 100.76608 162.227259 
L 102.615511 162.227259 
L 104.464943 161.878269 
L 106.314375 159.551668 
L 108.163807 159.319008 
L 110.013239 159.319008 
L 111.86267 157.806717 
L 119.260398 157.806717 
L 121.10983 157.690387 
L 122.959261 157.690387 
L 124.808693 156.992406 
L 126.658125 156.992406 
L 130.356989 156.527086 
L 132.20642 154.549475 
L 134.055852 152.106544 
L 135.905284 152.106544 
L 137.754716 151.408563 
L 139.604148 148.151321 
L 141.45358 147.802331 
L 143.303011 146.871691 
L 145.152443 146.871691 
L 147.001875 144.77775 
L 163.646761 144.77775 
L 165.496193 144.312429 
L 167.345625 143.032799 
L 172.89392 143.032799 
L 174.743352 141.869498 
L 176.592784 140.473537 
L 182.14108 139.775557 
L 183.990511 139.775557 
L 185.839943 139.542897 
L 187.689375 139.542897 
L 189.538807 138.612256 
L 193.23767 138.612256 
L 195.087102 138.495926 
L 196.936534 137.099965 
L 204.334261 137.099965 
L 206.183693 134.889694 
L 213.58142 134.889694 
L 215.430852 132.912083 
L 220.979148 132.912083 
L 222.82858 130.701812 
L 224.678011 130.701812 
L 226.527443 130.236492 
L 239.473466 130.236492 
L 241.322898 129.771171 
L 243.17233 128.724201 
L 245.021761 127.90989 
L 246.871193 127.90989 
L 248.720625 127.67723 
L 250.570057 125.234299 
L 252.419489 123.489348 
L 254.26892 122.907698 
L 256.118352 121.744397 
L 257.967784 120.348436 
L 259.817216 118.719815 
L 261.666648 116.276884 
L 263.51608 115.113583 
L 265.365511 109.7624 
L 267.214943 106.156168 
L 269.064375 106.039838 
L 270.913807 106.039838 
L 272.763239 103.480577 
L 274.61267 99.990675 
L 276.462102 99.525355 
L 280.160966 98.827374 
L 282.010398 98.827374 
L 283.85983 91.614911 
L 285.709261 91.14959 
L 287.558693 91.14959 
L 289.408125 90.45161 
L 291.257557 87.078038 
L 294.95642 86.147398 
L 296.805852 85.449417 
L 298.655284 85.100427 
L 300.504716 83.937126 
L 302.354148 83.355476 
L 304.20358 83.239146 
L 306.053011 83.239146 
L 307.902443 82.657496 
L 311.601307 82.192175 
L 313.450739 82.192175 
L 315.30017 81.726855 
L 317.149602 79.981904 
L 318.999034 79.400254 
L 320.848466 79.167594 
L 324.54733 78.934934 
L 326.396761 78.585943 
L 328.246193 78.120623 
L 330.095625 77.887963 
L 331.945057 77.771633 
L 333.794489 77.306313 
L 339.342784 77.306313 
L 341.192216 75.212372 
L 343.041648 75.096042 
L 344.89108 75.096042 
L 346.740511 71.48981 
L 348.589943 71.140819 
L 350.439375 70.908159 
L 352.288807 70.559169 
L 354.138239 69.744859 
L 355.98767 69.628529 
L 357.837102 68.232568 
L 359.686534 68.116238 
L 361.535966 66.603947 
L 363.385398 66.487617 
L 365.23483 66.254957 
L 367.084261 66.138627 
L 368.933693 64.626336 
L 370.783125 64.626336 
L 372.632557 64.393676 
L 376.33142 64.161016 
L 378.180852 63.463035 
L 380.030284 41.476653 
L 381.879716 40.429683 
L 383.729148 40.080692 
L 387.428011 39.150052 
L 391.126875 38.917392 
L 392.976307 37.986751 
L 394.825739 37.637761 
L 396.67517 37.637761 
L 398.524602 36.939781 
L 400.374034 36.707121 
L 402.223466 36.590791 
L 405.92233 36.590791 
L 407.771761 36.2418 
L 409.621193 36.2418 
L 411.470625 36.00914 
L 413.320057 36.00914 
L 415.169489 35.89281 
L 417.01892 35.31116 
L 418.868352 35.0785 
L 420.717784 35.0785 
L 422.567216 34.96217 
L 446.60983 34.96217 
L 446.60983 34.96217 
" clip-path="url(#p2e1511dfe4)" style="fill: none; stroke: #ee99aa; stroke-width: 3; stroke-linecap: square"/>
   </g>
   <g id="line2d_29">
    <path d="M 91.51892 218.88 
L 93.368352 211.434876 
L 95.217784 207.712314 
L 97.067216 204.571402 
L 98.916648 204.571402 
L 100.76608 201.546821 
L 102.615511 199.68554 
L 104.464943 198.871229 
L 106.314375 198.871229 
L 108.163807 196.777288 
L 111.86267 190.030144 
L 113.712102 190.030144 
L 115.561534 189.797484 
L 119.260398 189.797484 
L 121.10983 188.168863 
L 122.959261 187.936203 
L 124.808693 185.842262 
L 128.507557 185.842262 
L 130.356989 185.376942 
L 132.20642 184.213641 
L 134.055852 184.213641 
L 135.905284 178.978788 
L 137.754716 175.139896 
L 139.604148 170.370364 
L 141.45358 170.254033 
L 143.303011 169.672383 
L 145.152443 168.625413 
L 147.001875 168.509083 
L 148.851307 168.276422 
L 150.700739 168.276422 
L 152.55017 167.811102 
L 154.399602 167.578442 
L 156.249034 167.578442 
L 158.098466 162.808909 
L 159.947898 162.692579 
L 161.79733 162.692579 
L 163.646761 157.225066 
L 165.496193 156.876076 
L 167.345625 155.363785 
L 171.044489 155.363785 
L 172.89392 153.618834 
L 174.743352 152.455534 
L 178.442216 152.455534 
L 180.291648 151.059573 
L 182.14108 150.943243 
L 185.839943 150.943243 
L 187.689375 150.710583 
L 189.538807 148.732972 
L 191.388239 148.616642 
L 193.23767 148.383982 
L 195.087102 147.918661 
L 196.936534 147.918661 
L 200.635398 145.70839 
L 202.48483 145.3594 
L 204.334261 145.59206 
L 206.183693 141.636838 
L 208.033125 139.833722 
L 213.58142 139.601062 
L 215.430852 138.728586 
L 217.280284 138.321431 
L 219.129716 138.205101 
L 220.979148 137.623451 
L 224.678011 137.27446 
L 226.527443 137.27446 
L 232.075739 135.76217 
L 233.92517 135.52951 
L 235.774602 132.912083 
L 237.624034 132.912083 
L 241.322898 132.679423 
L 243.17233 132.679423 
L 245.021761 131.632452 
L 246.871193 130.236492 
L 254.26892 130.236492 
L 256.118352 129.771171 
L 259.817216 129.771171 
L 261.666648 129.654841 
L 263.51608 129.189521 
L 265.365511 126.63026 
L 267.214943 119.883116 
L 269.064375 119.708621 
L 270.913807 119.417796 
L 272.763239 119.417796 
L 274.61267 119.126971 
L 276.462102 119.126971 
L 278.311534 116.974864 
L 282.010398 116.509544 
L 283.85983 116.509544 
L 285.709261 116.102389 
L 289.408125 115.869729 
L 291.257557 115.462574 
L 294.95642 115.055418 
L 298.655284 114.648263 
L 300.504716 114.241108 
L 306.053011 114.008448 
L 307.902443 113.601293 
L 309.751875 112.903312 
L 311.601307 112.786982 
L 313.450739 112.786982 
L 315.30017 112.554322 
L 317.149602 112.030837 
L 318.999034 111.972672 
L 320.848466 111.798177 
L 322.697898 111.798177 
L 324.54733 111.449186 
L 326.396761 111.332856 
L 328.246193 110.693041 
L 330.095625 110.693041 
L 331.945057 110.518546 
L 333.794489 110.227721 
L 335.64392 109.587905 
L 337.493352 109.587905 
L 339.342784 109.355245 
L 343.041648 109.355245 
L 346.740511 108.773595 
L 348.589943 108.657265 
L 350.439375 108.657265 
L 352.288807 108.191945 
L 355.98767 108.191945 
L 357.837102 107.901119 
L 359.686534 107.901119 
L 361.535966 106.621489 
L 363.385398 106.214334 
L 365.23483 106.214334 
L 367.084261 110.460381 
L 368.933693 110.111391 
L 370.783125 110.111391 
L 372.632557 109.878731 
L 378.180852 109.878731 
L 380.030284 108.48277 
L 381.879716 108.48277 
L 383.729148 108.36644 
L 385.57858 108.13378 
L 392.976307 108.13378 
L 394.825739 108.01745 
L 396.67517 108.01745 
L 398.524602 107.668459 
L 405.92233 107.668459 
L 407.771761 106.737819 
L 417.01892 106.737819 
L 418.868352 106.388829 
L 420.717784 106.388829 
L 422.567216 106.156168 
L 424.416648 105.341858 
L 426.26608 105.341858 
L 429.964943 105.109198 
L 431.814375 104.643878 
L 437.36267 104.643878 
L 439.212102 104.178557 
L 441.061534 104.178557 
L 442.910966 103.713237 
L 446.60983 103.713237 
L 446.60983 103.713237 
" clip-path="url(#p2e1511dfe4)" style="fill: none; stroke: #004488; stroke-width: 3; stroke-linecap: square"/>
   </g>
   <g id="line2d_30">
    <path d="M 91.51892 218.88 
L 93.368352 169.323393 
L 95.217784 164.20487 
L 97.067216 162.343589 
L 98.916648 157.341396 
L 100.76608 155.596445 
L 102.615511 154.084155 
L 104.464943 152.222874 
L 106.314375 151.408563 
L 108.163807 150.943243 
L 110.013239 150.594253 
L 111.86267 149.198292 
L 115.561534 147.918661 
L 117.410966 145.94105 
L 119.260398 145.94105 
L 121.10983 139.775557 
L 122.959261 138.844916 
L 124.808693 137.216295 
L 126.658125 135.820335 
L 130.356989 134.657034 
L 134.055852 134.191714 
L 135.905284 133.842724 
L 139.604148 133.842724 
L 141.45358 133.610063 
L 143.303011 133.610063 
L 145.152443 133.493733 
L 147.001875 133.493733 
L 148.851307 131.516122 
L 150.700739 128.258881 
L 152.55017 127.32824 
L 154.399602 127.32824 
L 156.249034 127.21191 
L 161.79733 127.21191 
L 163.646761 126.97925 
L 169.195057 126.97925 
L 171.044489 126.86292 
L 176.592784 126.86292 
L 180.291648 126.63026 
L 182.14108 125.932279 
L 183.990511 124.419988 
L 185.839943 115.811564 
L 187.689375 112.554322 
L 189.538807 111.972672 
L 191.388239 111.972672 
L 193.23767 111.740012 
L 195.087102 111.740012 
L 196.936534 111.623681 
L 198.785966 111.623681 
L 200.635398 108.94809 
L 206.183693 108.94809 
L 208.033125 108.83176 
L 209.882557 108.83176 
L 211.731989 108.01745 
L 213.58142 108.01745 
L 215.430852 107.784789 
L 226.527443 107.784789 
L 228.376875 107.668459 
L 233.92517 107.668459 
L 235.774602 104.178557 
L 237.624034 102.549937 
L 239.473466 101.502966 
L 243.17233 100.455995 
L 245.021761 100.223335 
L 246.871193 99.525355 
L 248.720625 95.570133 
L 252.419489 93.127201 
L 254.26892 90.45161 
L 256.118352 90.10262 
L 257.967784 89.055649 
L 259.817216 86.729048 
L 261.666648 85.914737 
L 263.51608 85.682077 
L 267.214943 84.984097 
L 269.064375 82.773826 
L 270.913807 82.541166 
L 272.763239 82.541166 
L 274.61267 82.424836 
L 276.462102 82.075845 
L 278.311534 80.447224 
L 280.160966 78.353283 
L 283.85983 78.353283 
L 285.709261 78.120623 
L 287.558693 78.120623 
L 289.408125 76.840992 
L 291.257557 76.492002 
L 293.106989 76.492002 
L 294.95642 76.375672 
L 296.805852 76.143012 
L 298.655284 76.143012 
L 300.504716 75.910352 
L 306.053011 75.561362 
L 307.902443 74.979711 
L 309.751875 74.863381 
L 311.601307 74.863381 
L 313.450739 72.18779 
L 315.30017 71.8388 
L 317.149602 71.140819 
L 318.999034 71.140819 
L 320.848466 70.210179 
L 322.697898 70.210179 
L 324.54733 68.814218 
L 326.396761 67.185597 
L 328.246193 66.603947 
L 330.095625 64.975326 
L 331.945057 59.391483 
L 333.794489 58.460842 
L 335.64392 53.22599 
L 337.493352 53.22599 
L 339.342784 52.993329 
L 341.192216 49.619758 
L 343.041648 49.503428 
L 344.89108 48.805447 
L 346.740511 48.689117 
L 348.589943 48.340127 
L 350.439375 48.340127 
L 352.288807 47.874807 
L 355.98767 47.874807 
L 357.837102 47.409486 
L 359.686534 45.664535 
L 361.535966 45.548205 
L 363.385398 45.315545 
L 365.23483 45.315545 
L 367.084261 44.966555 
L 368.933693 44.966555 
L 370.783125 44.850225 
L 372.632557 44.617565 
L 374.481989 44.617565 
L 376.33142 44.501235 
L 380.030284 44.501235 
L 381.879716 44.152245 
L 383.729148 43.919585 
L 385.57858 43.803254 
L 389.277443 43.803254 
L 391.126875 43.570594 
L 392.976307 43.454264 
L 394.825739 42.290964 
L 396.67517 42.290964 
L 398.524602 41.127663 
L 400.374034 41.127663 
L 402.223466 38.917392 
L 404.072898 25.190444 
L 405.92233 21.933203 
L 407.771761 21.700542 
L 411.470625 19.722931 
L 417.01892 18.09431 
L 418.868352 18.09431 
L 420.717784 17.97798 
L 431.814375 17.97798 
L 433.663807 17.51266 
L 435.513239 17.28 
L 446.60983 17.28 
L 446.60983 17.28 
" clip-path="url(#p2e1511dfe4)" style="fill: none; stroke: #6699cc; stroke-width: 3; stroke-linecap: square"/>
   </g>
   <g id="line2d_31">
    <path d="M 91.51892 218.88 
L 93.368352 202.128471 
L 95.217784 197.475268 
L 97.067216 197.126278 
L 98.916648 188.866844 
L 100.76608 181.305389 
L 102.615511 163.39056 
L 104.464943 152.804524 
L 106.314375 147.918661 
L 108.163807 125.117969 
L 110.013239 123.024028 
L 111.86267 121.511737 
L 113.712102 120.930087 
L 115.561534 109.18075 
L 117.410966 107.552129 
L 119.260398 103.829567 
L 121.10983 103.596907 
L 122.959261 103.131587 
L 124.808693 96.849763 
L 126.658125 96.500773 
L 130.356989 94.872152 
L 132.20642 94.755822 
L 134.055852 94.755822 
L 135.905284 93.825182 
L 137.754716 93.708852 
L 139.604148 93.708852 
L 141.45358 92.778211 
L 143.303011 90.21895 
L 145.152443 81.377865 
L 147.001875 80.679885 
L 148.851307 78.353283 
L 150.700739 73.932741 
L 152.55017 73.11843 
L 154.399602 73.11843 
L 156.249034 73.0021 
L 158.098466 73.0021 
L 159.947898 72.65311 
L 167.345625 72.65311 
L 169.195057 71.48981 
L 176.592784 71.48981 
L 178.442216 69.046878 
L 180.291648 62.765055 
L 182.14108 61.718084 
L 183.990511 61.369094 
L 187.689375 61.369094 
L 189.538807 61.020104 
L 200.635398 61.020104 
L 202.48483 60.554784 
L 204.334261 60.554784 
L 206.183693 57.530202 
L 208.033125 56.366901 
L 211.731989 56.366901 
L 213.58142 55.785251 
L 215.430852 54.50562 
L 219.129716 54.50562 
L 220.979148 54.15663 
L 232.075739 54.15663 
L 233.92517 54.0403 
L 309.751875 54.0403 
L 311.601307 53.45865 
L 368.933693 53.45865 
L 370.783125 53.22599 
L 374.481989 53.22599 
L 376.33142 52.993329 
L 378.180852 52.876999 
L 398.524602 52.876999 
L 400.374034 52.760669 
L 413.320057 52.760669 
L 415.169489 52.644339 
L 446.60983 52.644339 
L 446.60983 52.644339 
" clip-path="url(#p2e1511dfe4)" style="fill: none; stroke-dasharray: 3,4.95; stroke-dashoffset: 0; stroke: #808080; stroke-width: 3"/>
   </g>
   <g id="patch_3">
    <path d="M 73.764375 228.96 
L 73.764375 7.2 
" style="fill: none; stroke: #000000; stroke-width: 0.8; stroke-linejoin: miter; stroke-linecap: square"/>
   </g>
   <g id="patch_4">
    <path d="M 464.364375 228.96 
L 464.364375 7.2 
" style="fill: none; stroke: #000000; stroke-width: 0.8; stroke-linejoin: miter; stroke-linecap: square"/>
   </g>
   <g id="patch_5">
    <path d="M 73.764375 228.96 
L 464.364375 228.96 
" style="fill: none; stroke: #000000; stroke-width: 0.8; stroke-linejoin: miter; stroke-linecap: square"/>
   </g>
   <g id="patch_6">
    <path d="M 73.764375 7.2 
L 464.364375 7.2 
" style="fill: none; stroke: #000000; stroke-width: 0.8; stroke-linejoin: miter; stroke-linecap: square"/>
   </g>
   <g id="legend_1">
    <g id="patch_7">
     <path d="M 80.764375 77.496875 
L 248.164375 77.496875 
Q 250.164375 77.496875 250.164375 75.496875 
L 250.164375 14.2 
Q 250.164375 12.2 248.164375 12.2 
L 80.764375 12.2 
Q 78.764375 12.2 78.764375 14.2 
L 78.764375 75.496875 
Q 78.764375 77.496875 80.764375 77.496875 
z
" style="fill: #ffffff; opacity: 0.8; stroke: #cccccc; stroke-linejoin: miter"/>
    </g>
    <g id="line2d_32">
     <path d="M 82.764375 20.298438 
L 92.764375 20.298438 
L 102.764375 20.298438 
" style="fill: none; stroke: #994455; stroke-width: 3; stroke-linecap: square"/>
    </g>
    <g id="text_15">
     <!-- $symcts$ -->
     <g transform="translate(110.764375 23.798438) scale(0.1 -0.1)">
      <defs>
       <path id="DejaVuSans-Oblique-73" d="M 3200 3397 
L 3091 2853 
Q 2863 2978 2609 3040 
Q 2356 3103 2088 3103 
Q 1634 3103 1373 2948 
Q 1113 2794 1113 2528 
Q 1113 2219 1719 2053 
Q 1766 2041 1788 2034 
L 1972 1978 
Q 2547 1819 2739 1644 
Q 2931 1469 2931 1166 
Q 2931 609 2489 259 
Q 2047 -91 1331 -91 
Q 1053 -91 747 -37 
Q 441 16 72 128 
L 184 722 
Q 500 559 806 475 
Q 1113 391 1394 391 
Q 1816 391 2080 572 
Q 2344 753 2344 1031 
Q 2344 1331 1650 1516 
L 1591 1531 
L 1394 1581 
Q 956 1697 753 1886 
Q 550 2075 550 2369 
Q 550 2928 970 3256 
Q 1391 3584 2113 3584 
Q 2397 3584 2667 3537 
Q 2938 3491 3200 3397 
z
" transform="scale(0.015625)"/>
       <path id="DejaVuSans-Oblique-79" d="M 1588 -325 
Q 1188 -997 936 -1164 
Q 684 -1331 294 -1331 
L -159 -1331 
L -63 -850 
L 269 -850 
Q 509 -850 678 -719 
Q 847 -588 1056 -206 
L 1234 128 
L 459 3500 
L 1069 3500 
L 1650 819 
L 3256 3500 
L 3859 3500 
L 1588 -325 
z
" transform="scale(0.015625)"/>
       <path id="DejaVuSans-Oblique-6d" d="M 5747 2113 
L 5338 0 
L 4763 0 
L 5166 2094 
Q 5191 2228 5203 2325 
Q 5216 2422 5216 2491 
Q 5216 2772 5059 2928 
Q 4903 3084 4622 3084 
Q 4203 3084 3875 2770 
Q 3547 2456 3450 1953 
L 3066 0 
L 2491 0 
L 2900 2094 
Q 2925 2209 2937 2307 
Q 2950 2406 2950 2484 
Q 2950 2769 2794 2926 
Q 2638 3084 2363 3084 
Q 1938 3084 1609 2770 
Q 1281 2456 1184 1953 
L 800 0 
L 225 0 
L 909 3500 
L 1484 3500 
L 1375 2956 
Q 1609 3263 1923 3423 
Q 2238 3584 2597 3584 
Q 2978 3584 3223 3384 
Q 3469 3184 3519 2828 
Q 3781 3197 4126 3390 
Q 4472 3584 4856 3584 
Q 5306 3584 5551 3325 
Q 5797 3066 5797 2591 
Q 5797 2488 5784 2364 
Q 5772 2241 5747 2113 
z
" transform="scale(0.015625)"/>
       <path id="DejaVuSans-Oblique-63" d="M 3431 3366 
L 3316 2797 
Q 3109 2947 2876 3022 
Q 2644 3097 2394 3097 
Q 2119 3097 1870 3000 
Q 1622 2903 1453 2725 
Q 1184 2453 1037 2087 
Q 891 1722 891 1331 
Q 891 859 1127 628 
Q 1363 397 1844 397 
Q 2081 397 2348 469 
Q 2616 541 2906 684 
L 2797 116 
Q 2547 13 2283 -39 
Q 2019 -91 1741 -91 
Q 1044 -91 669 257 
Q 294 606 294 1253 
Q 294 1797 489 2255 
Q 684 2713 1069 3078 
Q 1331 3328 1684 3456 
Q 2038 3584 2456 3584 
Q 2700 3584 2940 3529 
Q 3181 3475 3431 3366 
z
" transform="scale(0.015625)"/>
       <path id="DejaVuSans-Oblique-74" d="M 2706 3500 
L 2619 3053 
L 1472 3053 
L 1100 1153 
Q 1081 1047 1072 975 
Q 1063 903 1063 863 
Q 1063 663 1183 572 
Q 1303 481 1569 481 
L 2150 481 
L 2053 0 
L 1503 0 
Q 991 0 739 200 
Q 488 400 488 806 
Q 488 878 497 964 
Q 506 1050 525 1153 
L 897 3053 
L 409 3053 
L 500 3500 
L 978 3500 
L 1172 4494 
L 1747 4494 
L 1556 3500 
L 2706 3500 
z
" transform="scale(0.015625)"/>
      </defs>
      <use xlink:href="#DejaVuSans-Oblique-73" transform="translate(0 0.78125)"/>
      <use xlink:href="#DejaVuSans-Oblique-79" transform="translate(52.099609 0.78125)"/>
      <use xlink:href="#DejaVuSans-Oblique-6d" transform="translate(111.279297 0.78125)"/>
      <use xlink:href="#DejaVuSans-Oblique-63" transform="translate(208.691406 0.78125)"/>
      <use xlink:href="#DejaVuSans-Oblique-74" transform="translate(263.671875 0.78125)"/>
      <use xlink:href="#DejaVuSans-Oblique-73" transform="translate(302.880859 0.78125)"/>
     </g>
    </g>
    <g id="line2d_33">
     <path d="M 82.764375 35.698438 
L 92.764375 35.698438 
L 102.764375 35.698438 
" style="fill: none; stroke: #ee99aa; stroke-width: 3; stroke-linecap: square"/>
    </g>
    <g id="text_16">
     <!-- $symcts^{+}$ -->
     <g transform="translate(110.764375 39.198438) scale(0.1 -0.1)">
      <defs>
       <path id="DejaVuSans-2b" d="M 2944 4013 
L 2944 2272 
L 4684 2272 
L 4684 1741 
L 2944 1741 
L 2944 0 
L 2419 0 
L 2419 1741 
L 678 1741 
L 678 2272 
L 2419 2272 
L 2419 4013 
L 2944 4013 
z
" transform="scale(0.015625)"/>
      </defs>
      <use xlink:href="#DejaVuSans-Oblique-73" transform="translate(0 0.826562)"/>
      <use xlink:href="#DejaVuSans-Oblique-79" transform="translate(52.099609 0.826562)"/>
      <use xlink:href="#DejaVuSans-Oblique-6d" transform="translate(111.279297 0.826562)"/>
      <use xlink:href="#DejaVuSans-Oblique-63" transform="translate(208.691406 0.826562)"/>
      <use xlink:href="#DejaVuSans-Oblique-74" transform="translate(263.671875 0.826562)"/>
      <use xlink:href="#DejaVuSans-Oblique-73" transform="translate(302.880859 0.826562)"/>
      <use xlink:href="#DejaVuSans-2b" transform="translate(359.630365 39.107812) scale(0.7)"/>
     </g>
    </g>
    <g id="line2d_34">
     <path d="M 82.764375 50.396875 
L 92.764375 50.396875 
L 102.764375 50.396875 
" style="fill: none; stroke: #004488; stroke-width: 3; stroke-linecap: square"/>
    </g>
    <g id="text_17">
     <!-- $symcts_{Q}$ -->
     <g transform="translate(110.764375 53.896875) scale(0.1 -0.1)">
      <defs>
       <path id="DejaVuSans-Oblique-51" d="M 2309 -84 
Q 2275 -88 2237 -89 
Q 2200 -91 2125 -91 
Q 1250 -91 756 411 
Q 263 913 263 1797 
Q 263 2319 452 2844 
Q 641 3369 978 3788 
Q 1369 4269 1858 4509 
Q 2347 4750 2938 4750 
Q 3794 4750 4287 4245 
Q 4781 3741 4781 2869 
Q 4781 1928 4265 1147 
Q 3750 366 2919 44 
L 3553 -825 
L 2847 -825 
L 2309 -84 
z
M 2919 4238 
Q 2400 4238 2003 3986 
Q 1606 3734 1313 3219 
Q 1125 2891 1026 2522 
Q 928 2153 928 1778 
Q 928 1128 1239 775 
Q 1550 422 2119 422 
Q 2631 422 3032 676 
Q 3434 931 3719 1434 
Q 3909 1772 4009 2142 
Q 4109 2513 4109 2881 
Q 4109 3528 3796 3883 
Q 3484 4238 2919 4238 
z
" transform="scale(0.015625)"/>
      </defs>
      <use xlink:href="#DejaVuSans-Oblique-73" transform="translate(0 0.78125)"/>
      <use xlink:href="#DejaVuSans-Oblique-79" transform="translate(52.099609 0.78125)"/>
      <use xlink:href="#DejaVuSans-Oblique-6d" transform="translate(111.279297 0.78125)"/>
      <use xlink:href="#DejaVuSans-Oblique-63" transform="translate(208.691406 0.78125)"/>
      <use xlink:href="#DejaVuSans-Oblique-74" transform="translate(263.671875 0.78125)"/>
      <use xlink:href="#DejaVuSans-Oblique-73" transform="translate(302.880859 0.78125)"/>
      <use xlink:href="#DejaVuSans-Oblique-51" transform="translate(354.980469 -15.625) scale(0.7)"/>
     </g>
    </g>
    <g id="line2d_35">
     <path d="M 82.764375 66.296875 
L 92.764375 66.296875 
L 102.764375 66.296875 
" style="fill: none; stroke: #6699cc; stroke-width: 3; stroke-linecap: square"/>
    </g>
    <g id="text_18">
     <!-- $symcts_{Q}^{+}$ -->
     <g transform="translate(110.764375 69.796875) scale(0.1 -0.1)">
      <use xlink:href="#DejaVuSans-Oblique-73" transform="translate(0 0.826562)"/>
      <use xlink:href="#DejaVuSans-Oblique-79" transform="translate(52.099609 0.826562)"/>
      <use xlink:href="#DejaVuSans-Oblique-6d" transform="translate(111.279297 0.826562)"/>
      <use xlink:href="#DejaVuSans-Oblique-63" transform="translate(208.691406 0.826562)"/>
      <use xlink:href="#DejaVuSans-Oblique-74" transform="translate(263.671875 0.826562)"/>
      <use xlink:href="#DejaVuSans-Oblique-73" transform="translate(302.880859 0.826562)"/>
      <use xlink:href="#DejaVuSans-2b" transform="translate(359.630365 39.107813) scale(0.7)"/>
      <use xlink:href="#DejaVuSans-Oblique-51" transform="translate(354.980469 -26.517188) scale(0.7)"/>
     </g>
    </g>
    <g id="line2d_36">
     <path d="M 172.964375 20.298438 
L 182.964375 20.298438 
L 192.964375 20.298438 
" style="fill: none; stroke-dasharray: 3,4.95; stroke-dashoffset: 0; stroke: #ddaa33; stroke-width: 3"/>
    </g>
    <g id="text_19">
     <!-- $afl$++ -->
     <g transform="translate(200.964375 23.798438) scale(0.1 -0.1)">
      <defs>
       <path id="DejaVuSans-Oblique-61" d="M 3438 1997 
L 3047 0 
L 2472 0 
L 2578 531 
Q 2325 219 2001 64 
Q 1678 -91 1281 -91 
Q 834 -91 548 182 
Q 263 456 263 884 
Q 263 1497 752 1853 
Q 1241 2209 2100 2209 
L 2900 2209 
L 2931 2363 
Q 2938 2388 2941 2417 
Q 2944 2447 2944 2509 
Q 2944 2788 2717 2942 
Q 2491 3097 2081 3097 
Q 1800 3097 1504 3025 
Q 1209 2953 897 2809 
L 997 3341 
Q 1322 3463 1633 3523 
Q 1944 3584 2234 3584 
Q 2853 3584 3176 3315 
Q 3500 3047 3500 2534 
Q 3500 2431 3484 2292 
Q 3469 2153 3438 1997 
z
M 2816 1759 
L 2241 1759 
Q 1534 1759 1195 1570 
Q 856 1381 856 984 
Q 856 709 1029 553 
Q 1203 397 1509 397 
Q 1978 397 2328 733 
Q 2678 1069 2791 1631 
L 2816 1759 
z
" transform="scale(0.015625)"/>
       <path id="DejaVuSans-Oblique-66" d="M 3059 4863 
L 2969 4384 
L 2419 4384 
Q 2106 4384 1964 4261 
Q 1822 4138 1753 3809 
L 1691 3500 
L 2638 3500 
L 2553 3053 
L 1606 3053 
L 1013 0 
L 434 0 
L 1031 3053 
L 481 3053 
L 563 3500 
L 1113 3500 
L 1159 3744 
Q 1278 4363 1576 4613 
Q 1875 4863 2516 4863 
L 3059 4863 
z
" transform="scale(0.015625)"/>
       <path id="DejaVuSans-Oblique-6c" d="M 1172 4863 
L 1747 4863 
L 800 0 
L 225 0 
L 1172 4863 
z
" transform="scale(0.015625)"/>
      </defs>
      <use xlink:href="#DejaVuSans-Oblique-61" transform="translate(0 0.015625)"/>
      <use xlink:href="#DejaVuSans-Oblique-66" transform="translate(61.279297 0.015625)"/>
      <use xlink:href="#DejaVuSans-Oblique-6c" transform="translate(96.484375 0.015625)"/>
      <use xlink:href="#DejaVuSans-2b" transform="translate(124.267578 0.015625)"/>
      <use xlink:href="#DejaVuSans-2b" transform="translate(208.056641 0.015625)"/>
     </g>
    </g>
    <g id="line2d_37">
     <path d="M 172.964375 35.678125 
L 182.964375 35.678125 
L 192.964375 35.678125 
" style="fill: none; stroke-dasharray: 3,4.95; stroke-dashoffset: 0; stroke: #000000; stroke-width: 3"/>
    </g>
    <g id="text_20">
     <!-- $symcc^{+}$ -->
     <g transform="translate(200.964375 39.178125) scale(0.1 -0.1)">
      <use xlink:href="#DejaVuSans-Oblique-73" transform="translate(0 0.826562)"/>
      <use xlink:href="#DejaVuSans-Oblique-79" transform="translate(52.099609 0.826562)"/>
      <use xlink:href="#DejaVuSans-Oblique-6d" transform="translate(111.279297 0.826562)"/>
      <use xlink:href="#DejaVuSans-Oblique-63" transform="translate(208.691406 0.826562)"/>
      <use xlink:href="#DejaVuSans-Oblique-63" transform="translate(263.671875 0.826562)"/>
      <use xlink:href="#DejaVuSans-2b" transform="translate(323.30224 39.107812) scale(0.7)"/>
     </g>
    </g>
    <g id="line2d_38">
     <path d="M 172.964375 51.078125 
L 182.964375 51.078125 
L 192.964375 51.078125 
" style="fill: none; stroke-dasharray: 3,4.95; stroke-dashoffset: 0; stroke: #808080; stroke-width: 3"/>
    </g>
    <g id="text_21">
     <!-- $symsan^{+}$ -->
     <g transform="translate(200.964375 54.578125) scale(0.1 -0.1)">
      <defs>
       <path id="DejaVuSans-Oblique-6e" d="M 3566 2113 
L 3156 0 
L 2578 0 
L 2988 2091 
Q 3016 2238 3031 2350 
Q 3047 2463 3047 2528 
Q 3047 2791 2881 2937 
Q 2716 3084 2419 3084 
Q 1956 3084 1622 2776 
Q 1288 2469 1184 1941 
L 800 0 
L 225 0 
L 903 3500 
L 1478 3500 
L 1363 2950 
Q 1603 3253 1940 3418 
Q 2278 3584 2650 3584 
Q 3113 3584 3367 3334 
Q 3622 3084 3622 2631 
Q 3622 2519 3608 2391 
Q 3594 2263 3566 2113 
z
" transform="scale(0.015625)"/>
      </defs>
      <use xlink:href="#DejaVuSans-Oblique-73" transform="translate(0 0.826562)"/>
      <use xlink:href="#DejaVuSans-Oblique-79" transform="translate(52.099609 0.826562)"/>
      <use xlink:href="#DejaVuSans-Oblique-6d" transform="translate(111.279297 0.826562)"/>
      <use xlink:href="#DejaVuSans-Oblique-73" transform="translate(208.691406 0.826562)"/>
      <use xlink:href="#DejaVuSans-Oblique-61" transform="translate(260.791016 0.826562)"/>
      <use xlink:href="#DejaVuSans-Oblique-6e" transform="translate(322.070312 0.826562)"/>
      <use xlink:href="#DejaVuSans-2b" transform="translate(390.099115 39.107812) scale(0.7)"/>
     </g>
    </g>
   </g>
  </g>
 </g>
 <defs>
  <clipPath id="p2e1511dfe4">
   <rect x="73.764375" y="7.2" width="390.6" height="221.76"/>
  </clipPath>
 </defs>
</svg>
