<?xml version="1.0" encoding="utf-8" standalone="no"?>
<!DOCTYPE svg PUBLIC "-//W3C//DTD SVG 1.1//EN"
  "http://www.w3.org/Graphics/SVG/1.1/DTD/svg11.dtd">
<svg xmlns:xlink="http://www.w3.org/1999/xlink" width="480.471875pt" height="276.194375pt" viewBox="0 0 480.471875 276.194375" xmlns="http://www.w3.org/2000/svg" version="1.1">
 <metadata>
  <rdf:RDF xmlns:dc="http://purl.org/dc/elements/1.1/" xmlns:cc="http://creativecommons.org/ns#" xmlns:rdf="http://www.w3.org/1999/02/22-rdf-syntax-ns#">
   <cc:Work>
    <dc:type rdf:resource="http://purl.org/dc/dcmitype/StillImage"/>
    <dc:date>2023-10-07T23:48:50.264798</dc:date>
    <dc:format>image/svg+xml</dc:format>
    <dc:creator>
     <cc:Agent>
      <dc:title>Matplotlib v3.7.1, https://matplotlib.org/</dc:title>
     </cc:Agent>
    </dc:creator>
   </cc:Work>
  </rdf:RDF>
 </metadata>
 <defs>
  <style type="text/css">*{stroke-linejoin: round; stroke-linecap: butt}</style>
 </defs>
 <g id="figure_1">
  <g id="patch_1">
   <path d="M 0 276.194375 
L 480.471875 276.194375 
L 480.471875 0 
L 0 0 
z
" style="fill: #ffffff"/>
  </g>
  <g id="axes_1">
   <g id="patch_2">
    <path d="M 82.671875 228.96 
L 473.271875 228.96 
L 473.271875 7.2 
L 82.671875 7.2 
z
" style="fill: #ffffff"/>
   </g>
   <g id="matplotlib.axis_1">
    <g id="xtick_1">
     <g id="line2d_1">
      <path d="M 135.935511 228.96 
L 135.935511 7.2 
" clip-path="url(#p94accb8bf9)" style="fill: none; stroke: #b0b0b0; stroke-opacity: 0.3; stroke-width: 0.8; stroke-linecap: square"/>
     </g>
     <g id="line2d_2">
      <defs>
       <path id="mcc6f1f4ad2" d="M 0 0 
L 0 3.5 
" style="stroke: #000000; stroke-width: 0.8"/>
      </defs>
      <g>
       <use xlink:href="#mcc6f1f4ad2" x="135.935511" y="228.96" style="stroke: #000000; stroke-width: 0.8"/>
      </g>
     </g>
     <g id="text_1">
      <!-- 12h -->
      <g transform="translate(122.591761 246.597813) scale(0.14 -0.14)">
       <defs>
        <path id="DejaVuSans-31" d="M 794 531 
L 1825 531 
L 1825 4091 
L 703 3866 
L 703 4441 
L 1819 4666 
L 2450 4666 
L 2450 531 
L 3481 531 
L 3481 0 
L 794 0 
L 794 531 
z
" transform="scale(0.015625)"/>
        <path id="DejaVuSans-32" d="M 1228 531 
L 3431 531 
L 3431 0 
L 469 0 
L 469 531 
Q 828 903 1448 1529 
Q 2069 2156 2228 2338 
Q 2531 2678 2651 2914 
Q 2772 3150 2772 3378 
Q 2772 3750 2511 3984 
Q 2250 4219 1831 4219 
Q 1534 4219 1204 4116 
Q 875 4013 500 3803 
L 500 4441 
Q 881 4594 1212 4672 
Q 1544 4750 1819 4750 
Q 2544 4750 2975 4387 
Q 3406 4025 3406 3419 
Q 3406 3131 3298 2873 
Q 3191 2616 2906 2266 
Q 2828 2175 2409 1742 
Q 1991 1309 1228 531 
z
" transform="scale(0.015625)"/>
        <path id="DejaVuSans-68" d="M 3513 2113 
L 3513 0 
L 2938 0 
L 2938 2094 
Q 2938 2591 2744 2837 
Q 2550 3084 2163 3084 
Q 1697 3084 1428 2787 
Q 1159 2491 1159 1978 
L 1159 0 
L 581 0 
L 581 4863 
L 1159 4863 
L 1159 2956 
Q 1366 3272 1645 3428 
Q 1925 3584 2291 3584 
Q 2894 3584 3203 3211 
Q 3513 2838 3513 2113 
z
" transform="scale(0.015625)"/>
       </defs>
       <use xlink:href="#DejaVuSans-31"/>
       <use xlink:href="#DejaVuSans-32" x="63.623047"/>
       <use xlink:href="#DejaVuSans-68" x="127.246094"/>
      </g>
     </g>
    </g>
    <g id="xtick_2">
     <g id="line2d_3">
      <path d="M 242.462784 228.96 
L 242.462784 7.2 
" clip-path="url(#p94accb8bf9)" style="fill: none; stroke: #b0b0b0; stroke-opacity: 0.3; stroke-width: 0.8; stroke-linecap: square"/>
     </g>
     <g id="line2d_4">
      <g>
       <use xlink:href="#mcc6f1f4ad2" x="242.462784" y="228.96" style="stroke: #000000; stroke-width: 0.8"/>
      </g>
     </g>
     <g id="text_2">
      <!-- 24h -->
      <g transform="translate(229.119034 246.597813) scale(0.14 -0.14)">
       <defs>
        <path id="DejaVuSans-34" d="M 2419 4116 
L 825 1625 
L 2419 1625 
L 2419 4116 
z
M 2253 4666 
L 3047 4666 
L 3047 1625 
L 3713 1625 
L 3713 1100 
L 3047 1100 
L 3047 0 
L 2419 0 
L 2419 1100 
L 313 1100 
L 313 1709 
L 2253 4666 
z
" transform="scale(0.015625)"/>
       </defs>
       <use xlink:href="#DejaVuSans-32"/>
       <use xlink:href="#DejaVuSans-34" x="63.623047"/>
       <use xlink:href="#DejaVuSans-68" x="127.246094"/>
      </g>
     </g>
    </g>
    <g id="xtick_3">
     <g id="line2d_5">
      <path d="M 348.990057 228.96 
L 348.990057 7.2 
" clip-path="url(#p94accb8bf9)" style="fill: none; stroke: #b0b0b0; stroke-opacity: 0.3; stroke-width: 0.8; stroke-linecap: square"/>
     </g>
     <g id="line2d_6">
      <g>
       <use xlink:href="#mcc6f1f4ad2" x="348.990057" y="228.96" style="stroke: #000000; stroke-width: 0.8"/>
      </g>
     </g>
     <g id="text_3">
      <!-- 36h -->
      <g transform="translate(335.646307 246.597813) scale(0.14 -0.14)">
       <defs>
        <path id="DejaVuSans-33" d="M 2597 2516 
Q 3050 2419 3304 2112 
Q 3559 1806 3559 1356 
Q 3559 666 3084 287 
Q 2609 -91 1734 -91 
Q 1441 -91 1130 -33 
Q 819 25 488 141 
L 488 750 
Q 750 597 1062 519 
Q 1375 441 1716 441 
Q 2309 441 2620 675 
Q 2931 909 2931 1356 
Q 2931 1769 2642 2001 
Q 2353 2234 1838 2234 
L 1294 2234 
L 1294 2753 
L 1863 2753 
Q 2328 2753 2575 2939 
Q 2822 3125 2822 3475 
Q 2822 3834 2567 4026 
Q 2313 4219 1838 4219 
Q 1578 4219 1281 4162 
Q 984 4106 628 3988 
L 628 4550 
Q 988 4650 1302 4700 
Q 1616 4750 1894 4750 
Q 2613 4750 3031 4423 
Q 3450 4097 3450 3541 
Q 3450 3153 3228 2886 
Q 3006 2619 2597 2516 
z
" transform="scale(0.015625)"/>
        <path id="DejaVuSans-36" d="M 2113 2584 
Q 1688 2584 1439 2293 
Q 1191 2003 1191 1497 
Q 1191 994 1439 701 
Q 1688 409 2113 409 
Q 2538 409 2786 701 
Q 3034 994 3034 1497 
Q 3034 2003 2786 2293 
Q 2538 2584 2113 2584 
z
M 3366 4563 
L 3366 3988 
Q 3128 4100 2886 4159 
Q 2644 4219 2406 4219 
Q 1781 4219 1451 3797 
Q 1122 3375 1075 2522 
Q 1259 2794 1537 2939 
Q 1816 3084 2150 3084 
Q 2853 3084 3261 2657 
Q 3669 2231 3669 1497 
Q 3669 778 3244 343 
Q 2819 -91 2113 -91 
Q 1303 -91 875 529 
Q 447 1150 447 2328 
Q 447 3434 972 4092 
Q 1497 4750 2381 4750 
Q 2619 4750 2861 4703 
Q 3103 4656 3366 4563 
z
" transform="scale(0.015625)"/>
       </defs>
       <use xlink:href="#DejaVuSans-33"/>
       <use xlink:href="#DejaVuSans-36" x="63.623047"/>
       <use xlink:href="#DejaVuSans-68" x="127.246094"/>
      </g>
     </g>
    </g>
    <g id="xtick_4">
     <g id="line2d_7">
      <path d="M 455.51733 228.96 
L 455.51733 7.2 
" clip-path="url(#p94accb8bf9)" style="fill: none; stroke: #b0b0b0; stroke-opacity: 0.3; stroke-width: 0.8; stroke-linecap: square"/>
     </g>
     <g id="line2d_8">
      <g>
       <use xlink:href="#mcc6f1f4ad2" x="455.51733" y="228.96" style="stroke: #000000; stroke-width: 0.8"/>
      </g>
     </g>
     <g id="text_4">
      <!-- 48h -->
      <g transform="translate(442.17358 246.597813) scale(0.14 -0.14)">
       <defs>
        <path id="DejaVuSans-38" d="M 2034 2216 
Q 1584 2216 1326 1975 
Q 1069 1734 1069 1313 
Q 1069 891 1326 650 
Q 1584 409 2034 409 
Q 2484 409 2743 651 
Q 3003 894 3003 1313 
Q 3003 1734 2745 1975 
Q 2488 2216 2034 2216 
z
M 1403 2484 
Q 997 2584 770 2862 
Q 544 3141 544 3541 
Q 544 4100 942 4425 
Q 1341 4750 2034 4750 
Q 2731 4750 3128 4425 
Q 3525 4100 3525 3541 
Q 3525 3141 3298 2862 
Q 3072 2584 2669 2484 
Q 3125 2378 3379 2068 
Q 3634 1759 3634 1313 
Q 3634 634 3220 271 
Q 2806 -91 2034 -91 
Q 1263 -91 848 271 
Q 434 634 434 1313 
Q 434 1759 690 2068 
Q 947 2378 1403 2484 
z
M 1172 3481 
Q 1172 3119 1398 2916 
Q 1625 2713 2034 2713 
Q 2441 2713 2670 2916 
Q 2900 3119 2900 3481 
Q 2900 3844 2670 4047 
Q 2441 4250 2034 4250 
Q 1625 4250 1398 4047 
Q 1172 3844 1172 3481 
z
" transform="scale(0.015625)"/>
       </defs>
       <use xlink:href="#DejaVuSans-34"/>
       <use xlink:href="#DejaVuSans-38" x="63.623047"/>
       <use xlink:href="#DejaVuSans-68" x="127.246094"/>
      </g>
     </g>
    </g>
    <g id="text_5">
     <!-- Time -->
     <g transform="translate(258.398125 265.666875) scale(0.16 -0.16)">
      <defs>
       <path id="DejaVuSans-54" d="M -19 4666 
L 3928 4666 
L 3928 4134 
L 2272 4134 
L 2272 0 
L 1638 0 
L 1638 4134 
L -19 4134 
L -19 4666 
z
" transform="scale(0.015625)"/>
       <path id="DejaVuSans-69" d="M 603 3500 
L 1178 3500 
L 1178 0 
L 603 0 
L 603 3500 
z
M 603 4863 
L 1178 4863 
L 1178 4134 
L 603 4134 
L 603 4863 
z
" transform="scale(0.015625)"/>
       <path id="DejaVuSans-6d" d="M 3328 2828 
Q 3544 3216 3844 3400 
Q 4144 3584 4550 3584 
Q 5097 3584 5394 3201 
Q 5691 2819 5691 2113 
L 5691 0 
L 5113 0 
L 5113 2094 
Q 5113 2597 4934 2840 
Q 4756 3084 4391 3084 
Q 3944 3084 3684 2787 
Q 3425 2491 3425 1978 
L 3425 0 
L 2847 0 
L 2847 2094 
Q 2847 2600 2669 2842 
Q 2491 3084 2119 3084 
Q 1678 3084 1418 2786 
Q 1159 2488 1159 1978 
L 1159 0 
L 581 0 
L 581 3500 
L 1159 3500 
L 1159 2956 
Q 1356 3278 1631 3431 
Q 1906 3584 2284 3584 
Q 2666 3584 2933 3390 
Q 3200 3197 3328 2828 
z
" transform="scale(0.015625)"/>
       <path id="DejaVuSans-65" d="M 3597 1894 
L 3597 1613 
L 953 1613 
Q 991 1019 1311 708 
Q 1631 397 2203 397 
Q 2534 397 2845 478 
Q 3156 559 3463 722 
L 3463 178 
Q 3153 47 2828 -22 
Q 2503 -91 2169 -91 
Q 1331 -91 842 396 
Q 353 884 353 1716 
Q 353 2575 817 3079 
Q 1281 3584 2069 3584 
Q 2775 3584 3186 3129 
Q 3597 2675 3597 1894 
z
M 3022 2063 
Q 3016 2534 2758 2815 
Q 2500 3097 2075 3097 
Q 1594 3097 1305 2825 
Q 1016 2553 972 2059 
L 3022 2063 
z
" transform="scale(0.015625)"/>
      </defs>
      <use xlink:href="#DejaVuSans-54"/>
      <use xlink:href="#DejaVuSans-69" x="57.958984"/>
      <use xlink:href="#DejaVuSans-6d" x="85.742188"/>
      <use xlink:href="#DejaVuSans-65" x="183.154297"/>
     </g>
    </g>
   </g>
   <g id="matplotlib.axis_2">
    <g id="ytick_1">
     <g id="line2d_9">
      <path d="M 82.671875 227.80093 
L 473.271875 227.80093 
" clip-path="url(#p94accb8bf9)" style="fill: none; stroke: #b0b0b0; stroke-opacity: 0.3; stroke-width: 0.8; stroke-linecap: square"/>
     </g>
     <g id="line2d_10">
      <defs>
       <path id="m335ced64e2" d="M 0 0 
L -3.5 0 
" style="stroke: #000000; stroke-width: 0.8"/>
      </defs>
      <g>
       <use xlink:href="#m335ced64e2" x="82.671875" y="227.80093" style="stroke: #000000; stroke-width: 0.8"/>
      </g>
     </g>
     <g id="text_6">
      <!-- 12,500 -->
      <g transform="translate(26.685 233.119836) scale(0.14 -0.14)">
       <defs>
        <path id="DejaVuSans-2c" d="M 750 794 
L 1409 794 
L 1409 256 
L 897 -744 
L 494 -744 
L 750 256 
L 750 794 
z
" transform="scale(0.015625)"/>
        <path id="DejaVuSans-35" d="M 691 4666 
L 3169 4666 
L 3169 4134 
L 1269 4134 
L 1269 2991 
Q 1406 3038 1543 3061 
Q 1681 3084 1819 3084 
Q 2600 3084 3056 2656 
Q 3513 2228 3513 1497 
Q 3513 744 3044 326 
Q 2575 -91 1722 -91 
Q 1428 -91 1123 -41 
Q 819 9 494 109 
L 494 744 
Q 775 591 1075 516 
Q 1375 441 1709 441 
Q 2250 441 2565 725 
Q 2881 1009 2881 1497 
Q 2881 1984 2565 2268 
Q 2250 2553 1709 2553 
Q 1456 2553 1204 2497 
Q 953 2441 691 2322 
L 691 4666 
z
" transform="scale(0.015625)"/>
        <path id="DejaVuSans-30" d="M 2034 4250 
Q 1547 4250 1301 3770 
Q 1056 3291 1056 2328 
Q 1056 1369 1301 889 
Q 1547 409 2034 409 
Q 2525 409 2770 889 
Q 3016 1369 3016 2328 
Q 3016 3291 2770 3770 
Q 2525 4250 2034 4250 
z
M 2034 4750 
Q 2819 4750 3233 4129 
Q 3647 3509 3647 2328 
Q 3647 1150 3233 529 
Q 2819 -91 2034 -91 
Q 1250 -91 836 529 
Q 422 1150 422 2328 
Q 422 3509 836 4129 
Q 1250 4750 2034 4750 
z
" transform="scale(0.015625)"/>
       </defs>
       <use xlink:href="#DejaVuSans-31"/>
       <use xlink:href="#DejaVuSans-32" x="63.623047"/>
       <use xlink:href="#DejaVuSans-2c" x="127.246094"/>
       <use xlink:href="#DejaVuSans-35" x="159.033203"/>
       <use xlink:href="#DejaVuSans-30" x="222.65625"/>
       <use xlink:href="#DejaVuSans-30" x="286.279297"/>
      </g>
     </g>
    </g>
    <g id="ytick_2">
     <g id="line2d_11">
      <path d="M 82.671875 195.242791 
L 473.271875 195.242791 
" clip-path="url(#p94accb8bf9)" style="fill: none; stroke: #b0b0b0; stroke-opacity: 0.3; stroke-width: 0.8; stroke-linecap: square"/>
     </g>
     <g id="line2d_12">
      <g>
       <use xlink:href="#m335ced64e2" x="82.671875" y="195.242791" style="stroke: #000000; stroke-width: 0.8"/>
      </g>
     </g>
     <g id="text_7">
      <!-- 13,000 -->
      <g transform="translate(26.685 200.561697) scale(0.14 -0.14)">
       <use xlink:href="#DejaVuSans-31"/>
       <use xlink:href="#DejaVuSans-33" x="63.623047"/>
       <use xlink:href="#DejaVuSans-2c" x="127.246094"/>
       <use xlink:href="#DejaVuSans-30" x="159.033203"/>
       <use xlink:href="#DejaVuSans-30" x="222.65625"/>
       <use xlink:href="#DejaVuSans-30" x="286.279297"/>
      </g>
     </g>
    </g>
    <g id="ytick_3">
     <g id="line2d_13">
      <path d="M 82.671875 162.684651 
L 473.271875 162.684651 
" clip-path="url(#p94accb8bf9)" style="fill: none; stroke: #b0b0b0; stroke-opacity: 0.3; stroke-width: 0.8; stroke-linecap: square"/>
     </g>
     <g id="line2d_14">
      <g>
       <use xlink:href="#m335ced64e2" x="82.671875" y="162.684651" style="stroke: #000000; stroke-width: 0.8"/>
      </g>
     </g>
     <g id="text_8">
      <!-- 13,500 -->
      <g transform="translate(26.685 168.003557) scale(0.14 -0.14)">
       <use xlink:href="#DejaVuSans-31"/>
       <use xlink:href="#DejaVuSans-33" x="63.623047"/>
       <use xlink:href="#DejaVuSans-2c" x="127.246094"/>
       <use xlink:href="#DejaVuSans-35" x="159.033203"/>
       <use xlink:href="#DejaVuSans-30" x="222.65625"/>
       <use xlink:href="#DejaVuSans-30" x="286.279297"/>
      </g>
     </g>
    </g>
    <g id="ytick_4">
     <g id="line2d_15">
      <path d="M 82.671875 130.126512 
L 473.271875 130.126512 
" clip-path="url(#p94accb8bf9)" style="fill: none; stroke: #b0b0b0; stroke-opacity: 0.3; stroke-width: 0.8; stroke-linecap: square"/>
     </g>
     <g id="line2d_16">
      <g>
       <use xlink:href="#m335ced64e2" x="82.671875" y="130.126512" style="stroke: #000000; stroke-width: 0.8"/>
      </g>
     </g>
     <g id="text_9">
      <!-- 14,000 -->
      <g transform="translate(26.685 135.445418) scale(0.14 -0.14)">
       <use xlink:href="#DejaVuSans-31"/>
       <use xlink:href="#DejaVuSans-34" x="63.623047"/>
       <use xlink:href="#DejaVuSans-2c" x="127.246094"/>
       <use xlink:href="#DejaVuSans-30" x="159.033203"/>
       <use xlink:href="#DejaVuSans-30" x="222.65625"/>
       <use xlink:href="#DejaVuSans-30" x="286.279297"/>
      </g>
     </g>
    </g>
    <g id="ytick_5">
     <g id="line2d_17">
      <path d="M 82.671875 97.568372 
L 473.271875 97.568372 
" clip-path="url(#p94accb8bf9)" style="fill: none; stroke: #b0b0b0; stroke-opacity: 0.3; stroke-width: 0.8; stroke-linecap: square"/>
     </g>
     <g id="line2d_18">
      <g>
       <use xlink:href="#m335ced64e2" x="82.671875" y="97.568372" style="stroke: #000000; stroke-width: 0.8"/>
      </g>
     </g>
     <g id="text_10">
      <!-- 14,500 -->
      <g transform="translate(26.685 102.887278) scale(0.14 -0.14)">
       <use xlink:href="#DejaVuSans-31"/>
       <use xlink:href="#DejaVuSans-34" x="63.623047"/>
       <use xlink:href="#DejaVuSans-2c" x="127.246094"/>
       <use xlink:href="#DejaVuSans-35" x="159.033203"/>
       <use xlink:href="#DejaVuSans-30" x="222.65625"/>
       <use xlink:href="#DejaVuSans-30" x="286.279297"/>
      </g>
     </g>
    </g>
    <g id="ytick_6">
     <g id="line2d_19">
      <path d="M 82.671875 65.010233 
L 473.271875 65.010233 
" clip-path="url(#p94accb8bf9)" style="fill: none; stroke: #b0b0b0; stroke-opacity: 0.3; stroke-width: 0.8; stroke-linecap: square"/>
     </g>
     <g id="line2d_20">
      <g>
       <use xlink:href="#m335ced64e2" x="82.671875" y="65.010233" style="stroke: #000000; stroke-width: 0.8"/>
      </g>
     </g>
     <g id="text_11">
      <!-- 15,000 -->
      <g transform="translate(26.685 70.329139) scale(0.14 -0.14)">
       <use xlink:href="#DejaVuSans-31"/>
       <use xlink:href="#DejaVuSans-35" x="63.623047"/>
       <use xlink:href="#DejaVuSans-2c" x="127.246094"/>
       <use xlink:href="#DejaVuSans-30" x="159.033203"/>
       <use xlink:href="#DejaVuSans-30" x="222.65625"/>
       <use xlink:href="#DejaVuSans-30" x="286.279297"/>
      </g>
     </g>
    </g>
    <g id="ytick_7">
     <g id="line2d_21">
      <path d="M 82.671875 32.452093 
L 473.271875 32.452093 
" clip-path="url(#p94accb8bf9)" style="fill: none; stroke: #b0b0b0; stroke-opacity: 0.3; stroke-width: 0.8; stroke-linecap: square"/>
     </g>
     <g id="line2d_22">
      <g>
       <use xlink:href="#m335ced64e2" x="82.671875" y="32.452093" style="stroke: #000000; stroke-width: 0.8"/>
      </g>
     </g>
     <g id="text_12">
      <!-- 15,500 -->
      <g transform="translate(26.685 37.770999) scale(0.14 -0.14)">
       <use xlink:href="#DejaVuSans-31"/>
       <use xlink:href="#DejaVuSans-35" x="63.623047"/>
       <use xlink:href="#DejaVuSans-2c" x="127.246094"/>
       <use xlink:href="#DejaVuSans-35" x="159.033203"/>
       <use xlink:href="#DejaVuSans-30" x="222.65625"/>
       <use xlink:href="#DejaVuSans-30" x="286.279297"/>
      </g>
     </g>
    </g>
    <g id="text_13">
     <!-- Edges -->
     <g transform="translate(19.3575 142.3825) rotate(-90) scale(0.16 -0.16)">
      <defs>
       <path id="DejaVuSans-45" d="M 628 4666 
L 3578 4666 
L 3578 4134 
L 1259 4134 
L 1259 2753 
L 3481 2753 
L 3481 2222 
L 1259 2222 
L 1259 531 
L 3634 531 
L 3634 0 
L 628 0 
L 628 4666 
z
" transform="scale(0.015625)"/>
       <path id="DejaVuSans-64" d="M 2906 2969 
L 2906 4863 
L 3481 4863 
L 3481 0 
L 2906 0 
L 2906 525 
Q 2725 213 2448 61 
Q 2172 -91 1784 -91 
Q 1150 -91 751 415 
Q 353 922 353 1747 
Q 353 2572 751 3078 
Q 1150 3584 1784 3584 
Q 2172 3584 2448 3432 
Q 2725 3281 2906 2969 
z
M 947 1747 
Q 947 1113 1208 752 
Q 1469 391 1925 391 
Q 2381 391 2643 752 
Q 2906 1113 2906 1747 
Q 2906 2381 2643 2742 
Q 2381 3103 1925 3103 
Q 1469 3103 1208 2742 
Q 947 2381 947 1747 
z
" transform="scale(0.015625)"/>
       <path id="DejaVuSans-67" d="M 2906 1791 
Q 2906 2416 2648 2759 
Q 2391 3103 1925 3103 
Q 1463 3103 1205 2759 
Q 947 2416 947 1791 
Q 947 1169 1205 825 
Q 1463 481 1925 481 
Q 2391 481 2648 825 
Q 2906 1169 2906 1791 
z
M 3481 434 
Q 3481 -459 3084 -895 
Q 2688 -1331 1869 -1331 
Q 1566 -1331 1297 -1286 
Q 1028 -1241 775 -1147 
L 775 -588 
Q 1028 -725 1275 -790 
Q 1522 -856 1778 -856 
Q 2344 -856 2625 -561 
Q 2906 -266 2906 331 
L 2906 616 
Q 2728 306 2450 153 
Q 2172 0 1784 0 
Q 1141 0 747 490 
Q 353 981 353 1791 
Q 353 2603 747 3093 
Q 1141 3584 1784 3584 
Q 2172 3584 2450 3431 
Q 2728 3278 2906 2969 
L 2906 3500 
L 3481 3500 
L 3481 434 
z
" transform="scale(0.015625)"/>
       <path id="DejaVuSans-73" d="M 2834 3397 
L 2834 2853 
Q 2591 2978 2328 3040 
Q 2066 3103 1784 3103 
Q 1356 3103 1142 2972 
Q 928 2841 928 2578 
Q 928 2378 1081 2264 
Q 1234 2150 1697 2047 
L 1894 2003 
Q 2506 1872 2764 1633 
Q 3022 1394 3022 966 
Q 3022 478 2636 193 
Q 2250 -91 1575 -91 
Q 1294 -91 989 -36 
Q 684 19 347 128 
L 347 722 
Q 666 556 975 473 
Q 1284 391 1588 391 
Q 1994 391 2212 530 
Q 2431 669 2431 922 
Q 2431 1156 2273 1281 
Q 2116 1406 1581 1522 
L 1381 1569 
Q 847 1681 609 1914 
Q 372 2147 372 2553 
Q 372 3047 722 3315 
Q 1072 3584 1716 3584 
Q 2034 3584 2315 3537 
Q 2597 3491 2834 3397 
z
" transform="scale(0.015625)"/>
      </defs>
      <use xlink:href="#DejaVuSans-45"/>
      <use xlink:href="#DejaVuSans-64" x="63.183594"/>
      <use xlink:href="#DejaVuSans-67" x="126.660156"/>
      <use xlink:href="#DejaVuSans-65" x="190.136719"/>
      <use xlink:href="#DejaVuSans-73" x="251.660156"/>
     </g>
    </g>
   </g>
   <g id="line2d_23">
    <path d="M 100.42642 75.884651 
L 102.645739 74.256744 
L 131.496875 74.256744 
L 133.716193 69.242791 
L 153.690057 69.242791 
L 155.909375 68.461395 
L 158.128693 67.289302 
L 169.225284 67.289302 
L 171.444602 67.15907 
L 186.97983 67.093953 
L 189.199148 66.312558 
L 195.857102 66.312558 
L 198.07642 65.661395 
L 200.295739 65.661395 
L 202.515057 64.293953 
L 204.734375 64.098605 
L 206.953693 64.098605 
L 209.173011 63.968372 
L 275.752557 63.903256 
L 277.971875 63.707907 
L 302.384375 63.642791 
L 309.04233 63.512558 
L 317.919602 63.447442 
L 320.13892 61.493953 
L 329.016193 61.428837 
L 331.235511 61.298605 
L 335.674148 61.298605 
L 337.893466 60.452093 
L 340.112784 58.23814 
L 342.332102 57.391628 
L 344.55142 56.805581 
L 355.648011 56.805581 
L 357.86733 56.284651 
L 364.525284 56.024186 
L 366.744602 52.833488 
L 368.96392 52.573023 
L 377.841193 52.507907 
L 380.060511 51.140465 
L 386.718466 51.075349 
L 388.937784 50.749767 
L 391.157102 50.554419 
L 406.69233 50.554419 
L 408.911648 49.382326 
L 446.640057 49.382326 
L 448.859375 49.252093 
L 455.51733 49.252093 
L 455.51733 49.252093 
" clip-path="url(#p94accb8bf9)" style="fill: none; stroke-dasharray: 3,4.95; stroke-dashoffset: 0; stroke: #ddaa33; stroke-width: 3"/>
   </g>
   <g id="line2d_24">
    <path d="M 100.42642 57.391628 
L 109.303693 57.391628 
L 111.523011 57.196279 
L 118.180966 57.196279 
L 122.619602 56.740465 
L 131.496875 56.675349 
L 133.716193 55.893953 
L 135.935511 55.698605 
L 138.15483 55.698605 
L 140.374148 55.503256 
L 149.25142 55.43814 
L 151.470739 55.047442 
L 173.66392 54.982326 
L 175.883239 54.852093 
L 178.102557 54.331163 
L 202.515057 54.331163 
L 209.173011 53.745116 
L 213.611648 53.745116 
L 215.830966 53.15907 
L 218.050284 53.15907 
L 220.269602 50.619535 
L 222.48892 50.163721 
L 224.708239 50.163721 
L 226.927557 49.83814 
L 229.146875 49.83814 
L 231.366193 49.382326 
L 233.585511 49.382326 
L 235.80483 49.186977 
L 238.024148 49.186977 
L 240.243466 48.014884 
L 246.90142 48.014884 
L 249.120739 47.624186 
L 251.340057 47.363721 
L 284.62983 47.298605 
L 286.849148 47.168372 
L 289.068466 46.777674 
L 297.945739 46.777674 
L 300.165057 46.452093 
L 315.700284 46.386977 
L 317.919602 45.80093 
L 331.235511 45.80093 
L 333.45483 45.605581 
L 344.55142 45.605581 
L 351.209375 45.28 
L 357.86733 45.28 
L 360.086648 44.824186 
L 362.305966 44.824186 
L 364.525284 44.693953 
L 371.183239 44.693953 
L 373.402557 43.977674 
L 384.499148 43.977674 
L 386.718466 43.782326 
L 397.815057 43.782326 
L 400.034375 43.391628 
L 402.253693 43.131163 
L 406.69233 43.131163 
L 408.911648 43.00093 
L 439.982102 42.935814 
L 444.420739 42.870698 
L 446.640057 42.870698 
L 448.859375 50.489302 
L 451.078693 56.610233 
L 451.078693 56.610233 
" clip-path="url(#p94accb8bf9)" style="fill: none; stroke-dasharray: 3,4.95; stroke-dashoffset: 0; stroke: #000000; stroke-width: 3"/>
   </g>
   <g id="line2d_25">
    <path d="M 100.42642 166.819535 
L 102.645739 166.428837 
L 104.865057 166.233488 
L 107.084375 165.777674 
L 109.303693 163.75907 
L 111.523011 162.977674 
L 113.74233 162.489302 
L 115.961648 162.391628 
L 118.180966 161.642791 
L 120.400284 161.154419 
L 122.619602 161.024186 
L 124.83892 160.95907 
L 127.058239 160.893953 
L 129.277557 160.731163 
L 131.496875 159.526512 
L 133.716193 157.442791 
L 135.935511 156.92186 
L 138.15483 156.140465 
L 140.374148 156.010233 
L 142.593466 155.066047 
L 144.812784 154.968372 
L 147.032102 154.870698 
L 149.25142 152.03814 
L 151.470739 151.191628 
L 153.690057 150.605581 
L 155.909375 150.573023 
L 158.128693 149.270698 
L 160.348011 149.23814 
L 162.56733 148.88 
L 164.786648 147.512558 
L 167.005966 147.284651 
L 169.225284 147.089302 
L 171.444602 144.842791 
L 173.66392 144.810233 
L 175.883239 143.735814 
L 178.102557 143.605581 
L 180.321875 143.214884 
L 182.541193 143.149767 
L 184.760511 142.889302 
L 186.97983 142.628837 
L 189.199148 142.498605 
L 191.418466 142.303256 
L 193.637784 142.23814 
L 195.857102 141.652093 
L 198.07642 141.326512 
L 200.295739 141.261395 
L 202.515057 141.261395 
L 204.734375 141.066047 
L 206.953693 141.066047 
L 209.173011 141.066047 
L 211.39233 140.805581 
L 213.611648 140.805581 
" clip-path="url(#p94accb8bf9)" style="fill: none; stroke: #994455; stroke-width: 3; stroke-linecap: square"/>
   </g>
   <g id="line2d_26">
    <path d="M 100.42642 36.228837 
L 102.645739 36.033488 
L 111.523011 36.033488 
L 113.74233 35.83814 
L 115.961648 35.83814 
L 118.180966 35.317209 
L 127.058239 35.252093 
L 133.716193 34.014884 
L 135.935511 33.884651 
L 144.812784 33.884651 
L 147.032102 33.233488 
L 149.25142 32.777674 
L 151.470739 31.80093 
L 153.690057 31.670698 
L 155.909375 31.670698 
L 158.128693 31.540465 
L 173.66392 31.475349 
L 180.321875 31.149767 
L 200.295739 31.084651 
L 204.734375 31.019535 
L 213.611648 31.019535 
L 215.830966 30.75907 
L 222.48892 30.368372 
L 235.80483 30.368372 
L 238.024148 30.173023 
L 240.243466 30.107907 
L 242.462784 29.456744 
L 255.778693 29.391628 
L 262.436648 29.066047 
L 266.875284 29.00093 
L 269.094602 28.610233 
L 273.533239 28.545116 
L 280.191193 28.545116 
L 282.410511 28.024186 
L 286.849148 27.95907 
L 289.068466 26.591628 
L 291.287784 26.461395 
L 300.165057 26.396279 
L 302.384375 26.070698 
L 304.603693 25.875349 
L 306.823011 25.810233 
L 309.04233 24.573023 
L 311.261648 24.507907 
L 313.480966 23.986977 
L 315.700284 23.726512 
L 317.919602 23.661395 
L 322.358239 23.075349 
L 326.796875 23.010233 
L 331.235511 22.88 
L 333.45483 22.489302 
L 337.893466 22.424186 
L 340.112784 22.228837 
L 342.332102 22.228837 
L 344.55142 22.098605 
L 355.648011 22.033488 
L 357.86733 21.903256 
L 382.27983 21.83814 
L 388.937784 21.642791 
L 391.157102 20.796279 
L 402.253693 20.731163 
L 404.473011 19.949767 
L 408.911648 19.949767 
L 411.130966 19.689302 
L 413.350284 19.689302 
L 415.569602 19.493953 
L 439.982102 19.428837 
L 442.20142 17.28 
L 442.20142 17.28 
" clip-path="url(#p94accb8bf9)" style="fill: none; stroke: #ee99aa; stroke-width: 3; stroke-linecap: square"/>
   </g>
   <g id="line2d_27">
    <path d="M 100.42642 218.88 
L 102.645739 216.210233 
L 104.865057 214.126512 
L 109.303693 214.126512 
L 111.523011 213.866047 
L 113.74233 209.633488 
L 115.961648 207.842791 
L 120.400284 204.066047 
L 122.619602 200.614884 
L 124.83892 200.289302 
L 127.058239 198.466047 
L 129.277557 197.814884 
L 131.496875 194.168372 
L 133.716193 191.661395 
L 135.935511 190.00093 
L 138.15483 189.284651 
L 140.374148 188.698605 
L 142.593466 186.712558 
L 144.812784 186.224186 
L 147.032102 185.963721 
L 149.25142 185.963721 
L 151.470739 185.019535 
L 153.690057 184.270698 
L 155.909375 182.252093 
L 158.128693 181.95907 
L 160.348011 180.55907 
L 162.56733 178.507907 
L 164.786648 176.261395 
L 167.005966 175.968372 
L 169.225284 175.12186 
L 171.444602 174.828837 
L 173.66392 174.405581 
L 175.883239 174.112558 
L 178.102557 174.112558 
L 182.541193 173.852093 
L 184.760511 173.396279 
L 186.97983 173.298605 
L 191.418466 172.517209 
L 195.857102 172.256744 
L 198.07642 169.554419 
L 200.295739 169.35907 
L 202.515057 168.48 
L 204.734375 167.731163 
L 206.953693 167.307907 
L 209.173011 167.112558 
L 211.39233 167.112558 
L 213.611648 166.917209 
L 220.269602 166.819535 
L 222.48892 166.624186 
L 229.146875 166.624186 
L 231.366193 166.396279 
L 233.585511 166.03814 
L 238.024148 165.940465 
L 240.243466 165.712558 
L 242.462784 165.68 
L 244.682102 164.63814 
L 246.90142 164.084651 
L 249.120739 163.693953 
L 251.340057 163.693953 
L 255.778693 163.335814 
L 257.998011 162.847442 
L 262.436648 162.489302 
L 264.655966 162.489302 
L 269.094602 161.382326 
L 271.31392 160.43814 
L 273.533239 160.014884 
L 282.410511 159.949767 
L 284.62983 158.68 
L 286.849148 157.182326 
L 289.068466 157.182326 
L 291.287784 156.75907 
L 293.507102 156.75907 
L 297.945739 156.563721 
L 300.165057 156.531163 
L 302.384375 155.977674 
L 304.603693 155.749767 
L 306.823011 154.642791 
L 309.04233 152.917209 
L 317.919602 152.884651 
L 320.13892 152.591628 
L 324.577557 152.591628 
L 326.796875 152.461395 
L 331.235511 152.005581 
L 344.55142 151.907907 
L 348.990057 151.907907 
L 351.209375 151.777674 
L 360.086648 151.68 
L 371.183239 151.614884 
L 380.060511 151.582326 
L 382.27983 151.191628 
L 384.499148 150.931163 
L 388.937784 150.866047 
L 393.37642 150.866047 
L 397.815057 150.573023 
L 404.473011 150.540465 
L 406.69233 149.986977 
L 408.911648 149.824186 
L 411.130966 149.498605 
L 420.008239 149.433488 
L 424.446875 149.368372 
L 426.666193 149.368372 
L 428.885511 149.23814 
L 431.10483 149.23814 
L 433.324148 148.456744 
L 439.982102 148.066047 
L 444.420739 148.00093 
L 448.859375 147.968372 
L 451.078693 149.010233 
L 453.298011 149.010233 
L 453.298011 149.010233 
" clip-path="url(#p94accb8bf9)" style="fill: none; stroke: #004488; stroke-width: 3; stroke-linecap: square"/>
   </g>
   <g id="line2d_28">
    <path d="M 100.42642 35.773023 
L 102.645739 35.773023 
L 104.865057 35.512558 
L 107.084375 35.512558 
L 109.303693 35.317209 
L 115.961648 35.186977 
L 118.180966 34.60093 
L 120.400284 34.405581 
L 129.277557 34.340465 
L 131.496875 33.103256 
L 133.716193 32.777674 
L 135.935511 31.410233 
L 140.374148 31.345116 
L 149.25142 31.345116 
L 153.690057 31.149767 
L 158.128693 30.433488 
L 160.348011 30.433488 
L 162.56733 30.23814 
L 175.883239 30.173023 
L 178.102557 29.912558 
L 180.321875 29.912558 
L 182.541193 29.586977 
L 195.857102 29.52186 
L 198.07642 28.740465 
L 202.515057 28.740465 
L 204.734375 28.349767 
L 215.830966 28.349767 
L 218.050284 26.852093 
L 220.269602 26.786977 
L 222.48892 26.461395 
L 226.927557 26.461395 
L 229.146875 25.940465 
L 235.80483 25.875349 
L 238.024148 25.68 
L 242.462784 25.614884 
L 246.90142 25.549767 
L 251.340057 25.549767 
L 255.778693 25.354419 
L 260.21733 25.354419 
L 262.436648 24.898605 
L 266.875284 24.703256 
L 271.31392 24.507907 
L 280.191193 24.052093 
L 295.72642 23.661395 
L 317.919602 23.596279 
L 320.13892 23.466047 
L 322.358239 23.075349 
L 324.577557 22.814884 
L 326.796875 22.814884 
L 329.016193 21.968372 
L 340.112784 21.968372 
L 344.55142 21.317209 
L 353.428693 21.317209 
L 355.648011 21.186977 
L 377.841193 21.186977 
L 380.060511 20.796279 
L 382.27983 20.796279 
L 384.499148 20.666047 
L 386.718466 18.842791 
L 393.37642 18.32186 
L 406.69233 18.256744 
L 408.911648 18.126512 
L 415.569602 18.061395 
L 420.008239 17.996279 
L 431.10483 17.996279 
L 435.543466 17.735814 
L 439.982102 17.735814 
L 442.20142 17.442791 
L 444.420739 17.670698 
L 446.640057 17.670698 
L 446.640057 17.670698 
" clip-path="url(#p94accb8bf9)" style="fill: none; stroke: #6699cc; stroke-width: 3; stroke-linecap: square"/>
   </g>
   <g id="line2d_29">
    <path d="M 100.42642 87.084651 
L 102.645739 86.889302 
L 104.865057 86.303256 
L 107.084375 86.23814 
L 109.303693 85.717209 
L 111.523011 85.717209 
L 113.74233 82.396279 
L 115.961648 82.135814 
L 120.400284 82.135814 
L 122.619602 81.875349 
L 124.83892 81.875349 
L 127.058239 79.40093 
L 129.277557 77.707907 
L 131.496875 75.819535 
L 133.716193 75.819535 
L 135.935511 75.103256 
L 140.374148 75.103256 
L 142.593466 74.061395 
L 151.470739 74.061395 
L 153.690057 73.345116 
L 155.909375 73.149767 
L 158.128693 72.824186 
L 160.348011 72.824186 
L 162.56733 71.977674 
L 164.786648 71.977674 
L 169.225284 71.717209 
L 173.66392 71.717209 
L 175.883239 70.870698 
L 178.102557 70.870698 
L 180.321875 70.545116 
L 189.199148 70.48 
L 191.418466 69.95907 
L 193.637784 69.828837 
L 195.857102 69.568372 
L 206.953693 69.568372 
L 209.173011 69.43814 
L 220.269602 69.43814 
L 222.48892 68.72186 
L 226.927557 68.266047 
L 229.146875 68.005581 
L 231.366193 68.005581 
L 233.585511 67.028837 
L 242.462784 66.182326 
L 244.682102 64.35907 
L 246.90142 63.252093 
L 269.094602 63.252093 
L 271.31392 62.731163 
L 280.191193 62.731163 
L 282.410511 62.60093 
L 286.849148 62.60093 
L 289.068466 61.428837 
L 291.287784 60.973023 
L 295.72642 60.907907 
L 302.384375 60.907907 
L 304.603693 60.582326 
L 306.823011 59.28 
L 311.261648 59.214884 
L 313.480966 58.889302 
L 315.700284 57.847442 
L 340.112784 57.847442 
L 342.332102 57.586977 
L 357.86733 57.586977 
L 360.086648 57.456744 
L 366.744602 57.456744 
L 371.183239 57.131163 
L 373.402557 57.00093 
L 377.841193 57.00093 
L 380.060511 56.805581 
L 391.157102 56.805581 
L 393.37642 56.48 
L 424.446875 56.414884 
L 426.666193 56.024186 
L 435.543466 56.024186 
L 437.762784 55.43814 
L 444.420739 55.373023 
L 446.640057 56.675349 
L 448.859375 55.373023 
L 451.078693 41.893953 
L 451.078693 41.893953 
" clip-path="url(#p94accb8bf9)" style="fill: none; stroke-dasharray: 3,4.95; stroke-dashoffset: 0; stroke: #808080; stroke-width: 3"/>
   </g>
   <g id="patch_3">
    <path d="M 82.671875 228.96 
L 82.671875 7.2 
" style="fill: none; stroke: #000000; stroke-width: 0.8; stroke-linejoin: miter; stroke-linecap: square"/>
   </g>
   <g id="patch_4">
    <path d="M 473.271875 228.96 
L 473.271875 7.2 
" style="fill: none; stroke: #000000; stroke-width: 0.8; stroke-linejoin: miter; stroke-linecap: square"/>
   </g>
   <g id="patch_5">
    <path d="M 82.671875 228.96 
L 473.271875 228.96 
" style="fill: none; stroke: #000000; stroke-width: 0.8; stroke-linejoin: miter; stroke-linecap: square"/>
   </g>
   <g id="patch_6">
    <path d="M 82.671875 7.2 
L 473.271875 7.2 
" style="fill: none; stroke: #000000; stroke-width: 0.8; stroke-linejoin: miter; stroke-linecap: square"/>
   </g>
   <g id="legend_1">
    <g id="patch_7">
     <path d="M 298.871875 223.96 
L 466.271875 223.96 
Q 468.271875 223.96 468.271875 221.96 
L 468.271875 160.663125 
Q 468.271875 158.663125 466.271875 158.663125 
L 298.871875 158.663125 
Q 296.871875 158.663125 296.871875 160.663125 
L 296.871875 221.96 
Q 296.871875 223.96 298.871875 223.96 
z
" style="fill: #ffffff; opacity: 0.8; stroke: #cccccc; stroke-linejoin: miter"/>
    </g>
    <g id="line2d_30">
     <path d="M 300.871875 166.761563 
L 310.871875 166.761563 
L 320.871875 166.761563 
" style="fill: none; stroke: #994455; stroke-width: 3; stroke-linecap: square"/>
    </g>
    <g id="text_14">
     <!-- $symcts$ -->
     <g transform="translate(328.871875 170.261563) scale(0.1 -0.1)">
      <defs>
       <path id="DejaVuSans-Oblique-73" d="M 3200 3397 
L 3091 2853 
Q 2863 2978 2609 3040 
Q 2356 3103 2088 3103 
Q 1634 3103 1373 2948 
Q 1113 2794 1113 2528 
Q 1113 2219 1719 2053 
Q 1766 2041 1788 2034 
L 1972 1978 
Q 2547 1819 2739 1644 
Q 2931 1469 2931 1166 
Q 2931 609 2489 259 
Q 2047 -91 1331 -91 
Q 1053 -91 747 -37 
Q 441 16 72 128 
L 184 722 
Q 500 559 806 475 
Q 1113 391 1394 391 
Q 1816 391 2080 572 
Q 2344 753 2344 1031 
Q 2344 1331 1650 1516 
L 1591 1531 
L 1394 1581 
Q 956 1697 753 1886 
Q 550 2075 550 2369 
Q 550 2928 970 3256 
Q 1391 3584 2113 3584 
Q 2397 3584 2667 3537 
Q 2938 3491 3200 3397 
z
" transform="scale(0.015625)"/>
       <path id="DejaVuSans-Oblique-79" d="M 1588 -325 
Q 1188 -997 936 -1164 
Q 684 -1331 294 -1331 
L -159 -1331 
L -63 -850 
L 269 -850 
Q 509 -850 678 -719 
Q 847 -588 1056 -206 
L 1234 128 
L 459 3500 
L 1069 3500 
L 1650 819 
L 3256 3500 
L 3859 3500 
L 1588 -325 
z
" transform="scale(0.015625)"/>
       <path id="DejaVuSans-Oblique-6d" d="M 5747 2113 
L 5338 0 
L 4763 0 
L 5166 2094 
Q 5191 2228 5203 2325 
Q 5216 2422 5216 2491 
Q 5216 2772 5059 2928 
Q 4903 3084 4622 3084 
Q 4203 3084 3875 2770 
Q 3547 2456 3450 1953 
L 3066 0 
L 2491 0 
L 2900 2094 
Q 2925 2209 2937 2307 
Q 2950 2406 2950 2484 
Q 2950 2769 2794 2926 
Q 2638 3084 2363 3084 
Q 1938 3084 1609 2770 
Q 1281 2456 1184 1953 
L 800 0 
L 225 0 
L 909 3500 
L 1484 3500 
L 1375 2956 
Q 1609 3263 1923 3423 
Q 2238 3584 2597 3584 
Q 2978 3584 3223 3384 
Q 3469 3184 3519 2828 
Q 3781 3197 4126 3390 
Q 4472 3584 4856 3584 
Q 5306 3584 5551 3325 
Q 5797 3066 5797 2591 
Q 5797 2488 5784 2364 
Q 5772 2241 5747 2113 
z
" transform="scale(0.015625)"/>
       <path id="DejaVuSans-Oblique-63" d="M 3431 3366 
L 3316 2797 
Q 3109 2947 2876 3022 
Q 2644 3097 2394 3097 
Q 2119 3097 1870 3000 
Q 1622 2903 1453 2725 
Q 1184 2453 1037 2087 
Q 891 1722 891 1331 
Q 891 859 1127 628 
Q 1363 397 1844 397 
Q 2081 397 2348 469 
Q 2616 541 2906 684 
L 2797 116 
Q 2547 13 2283 -39 
Q 2019 -91 1741 -91 
Q 1044 -91 669 257 
Q 294 606 294 1253 
Q 294 1797 489 2255 
Q 684 2713 1069 3078 
Q 1331 3328 1684 3456 
Q 2038 3584 2456 3584 
Q 2700 3584 2940 3529 
Q 3181 3475 3431 3366 
z
" transform="scale(0.015625)"/>
       <path id="DejaVuSans-Oblique-74" d="M 2706 3500 
L 2619 3053 
L 1472 3053 
L 1100 1153 
Q 1081 1047 1072 975 
Q 1063 903 1063 863 
Q 1063 663 1183 572 
Q 1303 481 1569 481 
L 2150 481 
L 2053 0 
L 1503 0 
Q 991 0 739 200 
Q 488 400 488 806 
Q 488 878 497 964 
Q 506 1050 525 1153 
L 897 3053 
L 409 3053 
L 500 3500 
L 978 3500 
L 1172 4494 
L 1747 4494 
L 1556 3500 
L 2706 3500 
z
" transform="scale(0.015625)"/>
      </defs>
      <use xlink:href="#DejaVuSans-Oblique-73" transform="translate(0 0.78125)"/>
      <use xlink:href="#DejaVuSans-Oblique-79" transform="translate(52.099609 0.78125)"/>
      <use xlink:href="#DejaVuSans-Oblique-6d" transform="translate(111.279297 0.78125)"/>
      <use xlink:href="#DejaVuSans-Oblique-63" transform="translate(208.691406 0.78125)"/>
      <use xlink:href="#DejaVuSans-Oblique-74" transform="translate(263.671875 0.78125)"/>
      <use xlink:href="#DejaVuSans-Oblique-73" transform="translate(302.880859 0.78125)"/>
     </g>
    </g>
    <g id="line2d_31">
     <path d="M 300.871875 182.161563 
L 310.871875 182.161563 
L 320.871875 182.161563 
" style="fill: none; stroke: #ee99aa; stroke-width: 3; stroke-linecap: square"/>
    </g>
    <g id="text_15">
     <!-- $symcts^{+}$ -->
     <g transform="translate(328.871875 185.661563) scale(0.1 -0.1)">
      <defs>
       <path id="DejaVuSans-2b" d="M 2944 4013 
L 2944 2272 
L 4684 2272 
L 4684 1741 
L 2944 1741 
L 2944 0 
L 2419 0 
L 2419 1741 
L 678 1741 
L 678 2272 
L 2419 2272 
L 2419 4013 
L 2944 4013 
z
" transform="scale(0.015625)"/>
      </defs>
      <use xlink:href="#DejaVuSans-Oblique-73" transform="translate(0 0.826562)"/>
      <use xlink:href="#DejaVuSans-Oblique-79" transform="translate(52.099609 0.826562)"/>
      <use xlink:href="#DejaVuSans-Oblique-6d" transform="translate(111.279297 0.826562)"/>
      <use xlink:href="#DejaVuSans-Oblique-63" transform="translate(208.691406 0.826562)"/>
      <use xlink:href="#DejaVuSans-Oblique-74" transform="translate(263.671875 0.826562)"/>
      <use xlink:href="#DejaVuSans-Oblique-73" transform="translate(302.880859 0.826562)"/>
      <use xlink:href="#DejaVuSans-2b" transform="translate(359.630365 39.107812) scale(0.7)"/>
     </g>
    </g>
    <g id="line2d_32">
     <path d="M 300.871875 196.86 
L 310.871875 196.86 
L 320.871875 196.86 
" style="fill: none; stroke: #004488; stroke-width: 3; stroke-linecap: square"/>
    </g>
    <g id="text_16">
     <!-- $symcts_{Q}$ -->
     <g transform="translate(328.871875 200.36) scale(0.1 -0.1)">
      <defs>
       <path id="DejaVuSans-Oblique-51" d="M 2309 -84 
Q 2275 -88 2237 -89 
Q 2200 -91 2125 -91 
Q 1250 -91 756 411 
Q 263 913 263 1797 
Q 263 2319 452 2844 
Q 641 3369 978 3788 
Q 1369 4269 1858 4509 
Q 2347 4750 2938 4750 
Q 3794 4750 4287 4245 
Q 4781 3741 4781 2869 
Q 4781 1928 4265 1147 
Q 3750 366 2919 44 
L 3553 -825 
L 2847 -825 
L 2309 -84 
z
M 2919 4238 
Q 2400 4238 2003 3986 
Q 1606 3734 1313 3219 
Q 1125 2891 1026 2522 
Q 928 2153 928 1778 
Q 928 1128 1239 775 
Q 1550 422 2119 422 
Q 2631 422 3032 676 
Q 3434 931 3719 1434 
Q 3909 1772 4009 2142 
Q 4109 2513 4109 2881 
Q 4109 3528 3796 3883 
Q 3484 4238 2919 4238 
z
" transform="scale(0.015625)"/>
      </defs>
      <use xlink:href="#DejaVuSans-Oblique-73" transform="translate(0 0.78125)"/>
      <use xlink:href="#DejaVuSans-Oblique-79" transform="translate(52.099609 0.78125)"/>
      <use xlink:href="#DejaVuSans-Oblique-6d" transform="translate(111.279297 0.78125)"/>
      <use xlink:href="#DejaVuSans-Oblique-63" transform="translate(208.691406 0.78125)"/>
      <use xlink:href="#DejaVuSans-Oblique-74" transform="translate(263.671875 0.78125)"/>
      <use xlink:href="#DejaVuSans-Oblique-73" transform="translate(302.880859 0.78125)"/>
      <use xlink:href="#DejaVuSans-Oblique-51" transform="translate(354.980469 -15.625) scale(0.7)"/>
     </g>
    </g>
    <g id="line2d_33">
     <path d="M 300.871875 212.76 
L 310.871875 212.76 
L 320.871875 212.76 
" style="fill: none; stroke: #6699cc; stroke-width: 3; stroke-linecap: square"/>
    </g>
    <g id="text_17">
     <!-- $symcts_{Q}^{+}$ -->
     <g transform="translate(328.871875 216.26) scale(0.1 -0.1)">
      <use xlink:href="#DejaVuSans-Oblique-73" transform="translate(0 0.826562)"/>
      <use xlink:href="#DejaVuSans-Oblique-79" transform="translate(52.099609 0.826562)"/>
      <use xlink:href="#DejaVuSans-Oblique-6d" transform="translate(111.279297 0.826562)"/>
      <use xlink:href="#DejaVuSans-Oblique-63" transform="translate(208.691406 0.826562)"/>
      <use xlink:href="#DejaVuSans-Oblique-74" transform="translate(263.671875 0.826562)"/>
      <use xlink:href="#DejaVuSans-Oblique-73" transform="translate(302.880859 0.826562)"/>
      <use xlink:href="#DejaVuSans-2b" transform="translate(359.630365 39.107813) scale(0.7)"/>
      <use xlink:href="#DejaVuSans-Oblique-51" transform="translate(354.980469 -26.517188) scale(0.7)"/>
     </g>
    </g>
    <g id="line2d_34">
     <path d="M 391.071875 166.761563 
L 401.071875 166.761563 
L 411.071875 166.761563 
" style="fill: none; stroke-dasharray: 3,4.95; stroke-dashoffset: 0; stroke: #ddaa33; stroke-width: 3"/>
    </g>
    <g id="text_18">
     <!-- $afl$++ -->
     <g transform="translate(419.071875 170.261563) scale(0.1 -0.1)">
      <defs>
       <path id="DejaVuSans-Oblique-61" d="M 3438 1997 
L 3047 0 
L 2472 0 
L 2578 531 
Q 2325 219 2001 64 
Q 1678 -91 1281 -91 
Q 834 -91 548 182 
Q 263 456 263 884 
Q 263 1497 752 1853 
Q 1241 2209 2100 2209 
L 2900 2209 
L 2931 2363 
Q 2938 2388 2941 2417 
Q 2944 2447 2944 2509 
Q 2944 2788 2717 2942 
Q 2491 3097 2081 3097 
Q 1800 3097 1504 3025 
Q 1209 2953 897 2809 
L 997 3341 
Q 1322 3463 1633 3523 
Q 1944 3584 2234 3584 
Q 2853 3584 3176 3315 
Q 3500 3047 3500 2534 
Q 3500 2431 3484 2292 
Q 3469 2153 3438 1997 
z
M 2816 1759 
L 2241 1759 
Q 1534 1759 1195 1570 
Q 856 1381 856 984 
Q 856 709 1029 553 
Q 1203 397 1509 397 
Q 1978 397 2328 733 
Q 2678 1069 2791 1631 
L 2816 1759 
z
" transform="scale(0.015625)"/>
       <path id="DejaVuSans-Oblique-66" d="M 3059 4863 
L 2969 4384 
L 2419 4384 
Q 2106 4384 1964 4261 
Q 1822 4138 1753 3809 
L 1691 3500 
L 2638 3500 
L 2553 3053 
L 1606 3053 
L 1013 0 
L 434 0 
L 1031 3053 
L 481 3053 
L 563 3500 
L 1113 3500 
L 1159 3744 
Q 1278 4363 1576 4613 
Q 1875 4863 2516 4863 
L 3059 4863 
z
" transform="scale(0.015625)"/>
       <path id="DejaVuSans-Oblique-6c" d="M 1172 4863 
L 1747 4863 
L 800 0 
L 225 0 
L 1172 4863 
z
" transform="scale(0.015625)"/>
      </defs>
      <use xlink:href="#DejaVuSans-Oblique-61" transform="translate(0 0.015625)"/>
      <use xlink:href="#DejaVuSans-Oblique-66" transform="translate(61.279297 0.015625)"/>
      <use xlink:href="#DejaVuSans-Oblique-6c" transform="translate(96.484375 0.015625)"/>
      <use xlink:href="#DejaVuSans-2b" transform="translate(124.267578 0.015625)"/>
      <use xlink:href="#DejaVuSans-2b" transform="translate(208.056641 0.015625)"/>
     </g>
    </g>
    <g id="line2d_35">
     <path d="M 391.071875 182.14125 
L 401.071875 182.14125 
L 411.071875 182.14125 
" style="fill: none; stroke-dasharray: 3,4.95; stroke-dashoffset: 0; stroke: #000000; stroke-width: 3"/>
    </g>
    <g id="text_19">
     <!-- $symcc^{+}$ -->
     <g transform="translate(419.071875 185.64125) scale(0.1 -0.1)">
      <use xlink:href="#DejaVuSans-Oblique-73" transform="translate(0 0.826562)"/>
      <use xlink:href="#DejaVuSans-Oblique-79" transform="translate(52.099609 0.826562)"/>
      <use xlink:href="#DejaVuSans-Oblique-6d" transform="translate(111.279297 0.826562)"/>
      <use xlink:href="#DejaVuSans-Oblique-63" transform="translate(208.691406 0.826562)"/>
      <use xlink:href="#DejaVuSans-Oblique-63" transform="translate(263.671875 0.826562)"/>
      <use xlink:href="#DejaVuSans-2b" transform="translate(323.30224 39.107812) scale(0.7)"/>
     </g>
    </g>
    <g id="line2d_36">
     <path d="M 391.071875 197.54125 
L 401.071875 197.54125 
L 411.071875 197.54125 
" style="fill: none; stroke-dasharray: 3,4.95; stroke-dashoffset: 0; stroke: #808080; stroke-width: 3"/>
    </g>
    <g id="text_20">
     <!-- $symsan^{+}$ -->
     <g transform="translate(419.071875 201.04125) scale(0.1 -0.1)">
      <defs>
       <path id="DejaVuSans-Oblique-6e" d="M 3566 2113 
L 3156 0 
L 2578 0 
L 2988 2091 
Q 3016 2238 3031 2350 
Q 3047 2463 3047 2528 
Q 3047 2791 2881 2937 
Q 2716 3084 2419 3084 
Q 1956 3084 1622 2776 
Q 1288 2469 1184 1941 
L 800 0 
L 225 0 
L 903 3500 
L 1478 3500 
L 1363 2950 
Q 1603 3253 1940 3418 
Q 2278 3584 2650 3584 
Q 3113 3584 3367 3334 
Q 3622 3084 3622 2631 
Q 3622 2519 3608 2391 
Q 3594 2263 3566 2113 
z
" transform="scale(0.015625)"/>
      </defs>
      <use xlink:href="#DejaVuSans-Oblique-73" transform="translate(0 0.826562)"/>
      <use xlink:href="#DejaVuSans-Oblique-79" transform="translate(52.099609 0.826562)"/>
      <use xlink:href="#DejaVuSans-Oblique-6d" transform="translate(111.279297 0.826562)"/>
      <use xlink:href="#DejaVuSans-Oblique-73" transform="translate(208.691406 0.826562)"/>
      <use xlink:href="#DejaVuSans-Oblique-61" transform="translate(260.791016 0.826562)"/>
      <use xlink:href="#DejaVuSans-Oblique-6e" transform="translate(322.070312 0.826562)"/>
      <use xlink:href="#DejaVuSans-2b" transform="translate(390.099115 39.107812) scale(0.7)"/>
     </g>
    </g>
   </g>
  </g>
 </g>
 <defs>
  <clipPath id="p94accb8bf9">
   <rect x="82.671875" y="7.2" width="390.6" height="221.76"/>
  </clipPath>
 </defs>
</svg>
