<?xml version="1.0" encoding="utf-8" standalone="no"?>
<!DOCTYPE svg PUBLIC "-//W3C//DTD SVG 1.1//EN"
  "http://www.w3.org/Graphics/SVG/1.1/DTD/svg11.dtd">
<svg xmlns:xlink="http://www.w3.org/1999/xlink" width="480.471875pt" height="278.933239pt" viewBox="0 0 480.471875 278.933239" xmlns="http://www.w3.org/2000/svg" version="1.1">
 <metadata>
  <rdf:RDF xmlns:dc="http://purl.org/dc/elements/1.1/" xmlns:cc="http://creativecommons.org/ns#" xmlns:rdf="http://www.w3.org/1999/02/22-rdf-syntax-ns#">
   <cc:Work>
    <dc:type rdf:resource="http://purl.org/dc/dcmitype/StillImage"/>
    <dc:date>2023-10-07T23:48:49.307623</dc:date>
    <dc:format>image/svg+xml</dc:format>
    <dc:creator>
     <cc:Agent>
      <dc:title>Matplotlib v3.7.1, https://matplotlib.org/</dc:title>
     </cc:Agent>
    </dc:creator>
   </cc:Work>
  </rdf:RDF>
 </metadata>
 <defs>
  <style type="text/css">*{stroke-linejoin: round; stroke-linecap: butt}</style>
 </defs>
 <g id="figure_1">
  <g id="patch_1">
   <path d="M 0 278.933239 
L 480.471875 278.933239 
L 480.471875 0 
L 0 0 
z
" style="fill: #ffffff"/>
  </g>
  <g id="axes_1">
   <g id="patch_2">
    <path d="M 82.671875 231.698864 
L 473.271875 231.698864 
L 473.271875 9.938864 
L 82.671875 9.938864 
z
" style="fill: #ffffff"/>
   </g>
   <g id="matplotlib.axis_1">
    <g id="xtick_1">
     <g id="line2d_1">
      <path d="M 100.42642 231.698864 
L 100.42642 9.938864 
" clip-path="url(#p162053b095)" style="fill: none; stroke: #b0b0b0; stroke-opacity: 0.3; stroke-width: 0.8; stroke-linecap: square"/>
     </g>
     <g id="line2d_2">
      <defs>
       <path id="m483d97e763" d="M 0 0 
L 0 3.5 
" style="stroke: #000000; stroke-width: 0.8"/>
      </defs>
      <g>
       <use xlink:href="#m483d97e763" x="100.42642" y="231.698864" style="stroke: #000000; stroke-width: 0.8"/>
      </g>
     </g>
     <g id="text_1">
      <!-- 0h -->
      <g transform="translate(91.53642 249.336677) scale(0.14 -0.14)">
       <defs>
        <path id="DejaVuSans-30" d="M 2034 4250 
Q 1547 4250 1301 3770 
Q 1056 3291 1056 2328 
Q 1056 1369 1301 889 
Q 1547 409 2034 409 
Q 2525 409 2770 889 
Q 3016 1369 3016 2328 
Q 3016 3291 2770 3770 
Q 2525 4250 2034 4250 
z
M 2034 4750 
Q 2819 4750 3233 4129 
Q 3647 3509 3647 2328 
Q 3647 1150 3233 529 
Q 2819 -91 2034 -91 
Q 1250 -91 836 529 
Q 422 1150 422 2328 
Q 422 3509 836 4129 
Q 1250 4750 2034 4750 
z
" transform="scale(0.015625)"/>
        <path id="DejaVuSans-68" d="M 3513 2113 
L 3513 0 
L 2938 0 
L 2938 2094 
Q 2938 2591 2744 2837 
Q 2550 3084 2163 3084 
Q 1697 3084 1428 2787 
Q 1159 2491 1159 1978 
L 1159 0 
L 581 0 
L 581 4863 
L 1159 4863 
L 1159 2956 
Q 1366 3272 1645 3428 
Q 1925 3584 2291 3584 
Q 2894 3584 3203 3211 
Q 3513 2838 3513 2113 
z
" transform="scale(0.015625)"/>
       </defs>
       <use xlink:href="#DejaVuSans-30"/>
       <use xlink:href="#DejaVuSans-68" x="63.623047"/>
      </g>
     </g>
    </g>
    <g id="xtick_2">
     <g id="line2d_3">
      <path d="M 189.199148 231.698864 
L 189.199148 9.938864 
" clip-path="url(#p162053b095)" style="fill: none; stroke: #b0b0b0; stroke-opacity: 0.3; stroke-width: 0.8; stroke-linecap: square"/>
     </g>
     <g id="line2d_4">
      <g>
       <use xlink:href="#m483d97e763" x="189.199148" y="231.698864" style="stroke: #000000; stroke-width: 0.8"/>
      </g>
     </g>
     <g id="text_2">
      <!-- 12h -->
      <g transform="translate(175.855398 249.336677) scale(0.14 -0.14)">
       <defs>
        <path id="DejaVuSans-31" d="M 794 531 
L 1825 531 
L 1825 4091 
L 703 3866 
L 703 4441 
L 1819 4666 
L 2450 4666 
L 2450 531 
L 3481 531 
L 3481 0 
L 794 0 
L 794 531 
z
" transform="scale(0.015625)"/>
        <path id="DejaVuSans-32" d="M 1228 531 
L 3431 531 
L 3431 0 
L 469 0 
L 469 531 
Q 828 903 1448 1529 
Q 2069 2156 2228 2338 
Q 2531 2678 2651 2914 
Q 2772 3150 2772 3378 
Q 2772 3750 2511 3984 
Q 2250 4219 1831 4219 
Q 1534 4219 1204 4116 
Q 875 4013 500 3803 
L 500 4441 
Q 881 4594 1212 4672 
Q 1544 4750 1819 4750 
Q 2544 4750 2975 4387 
Q 3406 4025 3406 3419 
Q 3406 3131 3298 2873 
Q 3191 2616 2906 2266 
Q 2828 2175 2409 1742 
Q 1991 1309 1228 531 
z
" transform="scale(0.015625)"/>
       </defs>
       <use xlink:href="#DejaVuSans-31"/>
       <use xlink:href="#DejaVuSans-32" x="63.623047"/>
       <use xlink:href="#DejaVuSans-68" x="127.246094"/>
      </g>
     </g>
    </g>
    <g id="xtick_3">
     <g id="line2d_5">
      <path d="M 277.971875 231.698864 
L 277.971875 9.938864 
" clip-path="url(#p162053b095)" style="fill: none; stroke: #b0b0b0; stroke-opacity: 0.3; stroke-width: 0.8; stroke-linecap: square"/>
     </g>
     <g id="line2d_6">
      <g>
       <use xlink:href="#m483d97e763" x="277.971875" y="231.698864" style="stroke: #000000; stroke-width: 0.8"/>
      </g>
     </g>
     <g id="text_3">
      <!-- 24h -->
      <g transform="translate(264.628125 249.336677) scale(0.14 -0.14)">
       <defs>
        <path id="DejaVuSans-34" d="M 2419 4116 
L 825 1625 
L 2419 1625 
L 2419 4116 
z
M 2253 4666 
L 3047 4666 
L 3047 1625 
L 3713 1625 
L 3713 1100 
L 3047 1100 
L 3047 0 
L 2419 0 
L 2419 1100 
L 313 1100 
L 313 1709 
L 2253 4666 
z
" transform="scale(0.015625)"/>
       </defs>
       <use xlink:href="#DejaVuSans-32"/>
       <use xlink:href="#DejaVuSans-34" x="63.623047"/>
       <use xlink:href="#DejaVuSans-68" x="127.246094"/>
      </g>
     </g>
    </g>
    <g id="xtick_4">
     <g id="line2d_7">
      <path d="M 366.744602 231.698864 
L 366.744602 9.938864 
" clip-path="url(#p162053b095)" style="fill: none; stroke: #b0b0b0; stroke-opacity: 0.3; stroke-width: 0.8; stroke-linecap: square"/>
     </g>
     <g id="line2d_8">
      <g>
       <use xlink:href="#m483d97e763" x="366.744602" y="231.698864" style="stroke: #000000; stroke-width: 0.8"/>
      </g>
     </g>
     <g id="text_4">
      <!-- 36h -->
      <g transform="translate(353.400852 249.336677) scale(0.14 -0.14)">
       <defs>
        <path id="DejaVuSans-33" d="M 2597 2516 
Q 3050 2419 3304 2112 
Q 3559 1806 3559 1356 
Q 3559 666 3084 287 
Q 2609 -91 1734 -91 
Q 1441 -91 1130 -33 
Q 819 25 488 141 
L 488 750 
Q 750 597 1062 519 
Q 1375 441 1716 441 
Q 2309 441 2620 675 
Q 2931 909 2931 1356 
Q 2931 1769 2642 2001 
Q 2353 2234 1838 2234 
L 1294 2234 
L 1294 2753 
L 1863 2753 
Q 2328 2753 2575 2939 
Q 2822 3125 2822 3475 
Q 2822 3834 2567 4026 
Q 2313 4219 1838 4219 
Q 1578 4219 1281 4162 
Q 984 4106 628 3988 
L 628 4550 
Q 988 4650 1302 4700 
Q 1616 4750 1894 4750 
Q 2613 4750 3031 4423 
Q 3450 4097 3450 3541 
Q 3450 3153 3228 2886 
Q 3006 2619 2597 2516 
z
" transform="scale(0.015625)"/>
        <path id="DejaVuSans-36" d="M 2113 2584 
Q 1688 2584 1439 2293 
Q 1191 2003 1191 1497 
Q 1191 994 1439 701 
Q 1688 409 2113 409 
Q 2538 409 2786 701 
Q 3034 994 3034 1497 
Q 3034 2003 2786 2293 
Q 2538 2584 2113 2584 
z
M 3366 4563 
L 3366 3988 
Q 3128 4100 2886 4159 
Q 2644 4219 2406 4219 
Q 1781 4219 1451 3797 
Q 1122 3375 1075 2522 
Q 1259 2794 1537 2939 
Q 1816 3084 2150 3084 
Q 2853 3084 3261 2657 
Q 3669 2231 3669 1497 
Q 3669 778 3244 343 
Q 2819 -91 2113 -91 
Q 1303 -91 875 529 
Q 447 1150 447 2328 
Q 447 3434 972 4092 
Q 1497 4750 2381 4750 
Q 2619 4750 2861 4703 
Q 3103 4656 3366 4563 
z
" transform="scale(0.015625)"/>
       </defs>
       <use xlink:href="#DejaVuSans-33"/>
       <use xlink:href="#DejaVuSans-36" x="63.623047"/>
       <use xlink:href="#DejaVuSans-68" x="127.246094"/>
      </g>
     </g>
    </g>
    <g id="xtick_5">
     <g id="line2d_9">
      <path d="M 455.51733 231.698864 
L 455.51733 9.938864 
" clip-path="url(#p162053b095)" style="fill: none; stroke: #b0b0b0; stroke-opacity: 0.3; stroke-width: 0.8; stroke-linecap: square"/>
     </g>
     <g id="line2d_10">
      <g>
       <use xlink:href="#m483d97e763" x="455.51733" y="231.698864" style="stroke: #000000; stroke-width: 0.8"/>
      </g>
     </g>
     <g id="text_5">
      <!-- 48h -->
      <g transform="translate(442.17358 249.336677) scale(0.14 -0.14)">
       <defs>
        <path id="DejaVuSans-38" d="M 2034 2216 
Q 1584 2216 1326 1975 
Q 1069 1734 1069 1313 
Q 1069 891 1326 650 
Q 1584 409 2034 409 
Q 2484 409 2743 651 
Q 3003 894 3003 1313 
Q 3003 1734 2745 1975 
Q 2488 2216 2034 2216 
z
M 1403 2484 
Q 997 2584 770 2862 
Q 544 3141 544 3541 
Q 544 4100 942 4425 
Q 1341 4750 2034 4750 
Q 2731 4750 3128 4425 
Q 3525 4100 3525 3541 
Q 3525 3141 3298 2862 
Q 3072 2584 2669 2484 
Q 3125 2378 3379 2068 
Q 3634 1759 3634 1313 
Q 3634 634 3220 271 
Q 2806 -91 2034 -91 
Q 1263 -91 848 271 
Q 434 634 434 1313 
Q 434 1759 690 2068 
Q 947 2378 1403 2484 
z
M 1172 3481 
Q 1172 3119 1398 2916 
Q 1625 2713 2034 2713 
Q 2441 2713 2670 2916 
Q 2900 3119 2900 3481 
Q 2900 3844 2670 4047 
Q 2441 4250 2034 4250 
Q 1625 4250 1398 4047 
Q 1172 3844 1172 3481 
z
" transform="scale(0.015625)"/>
       </defs>
       <use xlink:href="#DejaVuSans-34"/>
       <use xlink:href="#DejaVuSans-38" x="63.623047"/>
       <use xlink:href="#DejaVuSans-68" x="127.246094"/>
      </g>
     </g>
    </g>
    <g id="text_6">
     <!-- Time -->
     <g transform="translate(258.398125 268.405739) scale(0.16 -0.16)">
      <defs>
       <path id="DejaVuSans-54" d="M -19 4666 
L 3928 4666 
L 3928 4134 
L 2272 4134 
L 2272 0 
L 1638 0 
L 1638 4134 
L -19 4134 
L -19 4666 
z
" transform="scale(0.015625)"/>
       <path id="DejaVuSans-69" d="M 603 3500 
L 1178 3500 
L 1178 0 
L 603 0 
L 603 3500 
z
M 603 4863 
L 1178 4863 
L 1178 4134 
L 603 4134 
L 603 4863 
z
" transform="scale(0.015625)"/>
       <path id="DejaVuSans-6d" d="M 3328 2828 
Q 3544 3216 3844 3400 
Q 4144 3584 4550 3584 
Q 5097 3584 5394 3201 
Q 5691 2819 5691 2113 
L 5691 0 
L 5113 0 
L 5113 2094 
Q 5113 2597 4934 2840 
Q 4756 3084 4391 3084 
Q 3944 3084 3684 2787 
Q 3425 2491 3425 1978 
L 3425 0 
L 2847 0 
L 2847 2094 
Q 2847 2600 2669 2842 
Q 2491 3084 2119 3084 
Q 1678 3084 1418 2786 
Q 1159 2488 1159 1978 
L 1159 0 
L 581 0 
L 581 3500 
L 1159 3500 
L 1159 2956 
Q 1356 3278 1631 3431 
Q 1906 3584 2284 3584 
Q 2666 3584 2933 3390 
Q 3200 3197 3328 2828 
z
" transform="scale(0.015625)"/>
       <path id="DejaVuSans-65" d="M 3597 1894 
L 3597 1613 
L 953 1613 
Q 991 1019 1311 708 
Q 1631 397 2203 397 
Q 2534 397 2845 478 
Q 3156 559 3463 722 
L 3463 178 
Q 3153 47 2828 -22 
Q 2503 -91 2169 -91 
Q 1331 -91 842 396 
Q 353 884 353 1716 
Q 353 2575 817 3079 
Q 1281 3584 2069 3584 
Q 2775 3584 3186 3129 
Q 3597 2675 3597 1894 
z
M 3022 2063 
Q 3016 2534 2758 2815 
Q 2500 3097 2075 3097 
Q 1594 3097 1305 2825 
Q 1016 2553 972 2059 
L 3022 2063 
z
" transform="scale(0.015625)"/>
      </defs>
      <use xlink:href="#DejaVuSans-54"/>
      <use xlink:href="#DejaVuSans-69" x="57.958984"/>
      <use xlink:href="#DejaVuSans-6d" x="85.742188"/>
      <use xlink:href="#DejaVuSans-65" x="183.154297"/>
     </g>
    </g>
   </g>
   <g id="matplotlib.axis_2">
    <g id="ytick_1">
     <g id="line2d_11">
      <path d="M 82.671875 209.147024 
L 473.271875 209.147024 
" clip-path="url(#p162053b095)" style="fill: none; stroke: #b0b0b0; stroke-opacity: 0.3; stroke-width: 0.8; stroke-linecap: square"/>
     </g>
     <g id="line2d_12">
      <defs>
       <path id="m755d4e6f59" d="M 0 0 
L -3.5 0 
" style="stroke: #000000; stroke-width: 0.8"/>
      </defs>
      <g>
       <use xlink:href="#m755d4e6f59" x="82.671875" y="209.147024" style="stroke: #000000; stroke-width: 0.8"/>
      </g>
     </g>
     <g id="text_7">
      <!-- 9,000 -->
      <g transform="translate(35.5925 214.46593) scale(0.14 -0.14)">
       <defs>
        <path id="DejaVuSans-39" d="M 703 97 
L 703 672 
Q 941 559 1184 500 
Q 1428 441 1663 441 
Q 2288 441 2617 861 
Q 2947 1281 2994 2138 
Q 2813 1869 2534 1725 
Q 2256 1581 1919 1581 
Q 1219 1581 811 2004 
Q 403 2428 403 3163 
Q 403 3881 828 4315 
Q 1253 4750 1959 4750 
Q 2769 4750 3195 4129 
Q 3622 3509 3622 2328 
Q 3622 1225 3098 567 
Q 2575 -91 1691 -91 
Q 1453 -91 1209 -44 
Q 966 3 703 97 
z
M 1959 2075 
Q 2384 2075 2632 2365 
Q 2881 2656 2881 3163 
Q 2881 3666 2632 3958 
Q 2384 4250 1959 4250 
Q 1534 4250 1286 3958 
Q 1038 3666 1038 3163 
Q 1038 2656 1286 2365 
Q 1534 2075 1959 2075 
z
" transform="scale(0.015625)"/>
        <path id="DejaVuSans-2c" d="M 750 794 
L 1409 794 
L 1409 256 
L 897 -744 
L 494 -744 
L 750 256 
L 750 794 
z
" transform="scale(0.015625)"/>
       </defs>
       <use xlink:href="#DejaVuSans-39"/>
       <use xlink:href="#DejaVuSans-2c" x="63.623047"/>
       <use xlink:href="#DejaVuSans-30" x="95.410156"/>
       <use xlink:href="#DejaVuSans-30" x="159.033203"/>
       <use xlink:href="#DejaVuSans-30" x="222.65625"/>
      </g>
     </g>
    </g>
    <g id="ytick_2">
     <g id="line2d_13">
      <path d="M 82.671875 181.057293 
L 473.271875 181.057293 
" clip-path="url(#p162053b095)" style="fill: none; stroke: #b0b0b0; stroke-opacity: 0.3; stroke-width: 0.8; stroke-linecap: square"/>
     </g>
     <g id="line2d_14">
      <g>
       <use xlink:href="#m755d4e6f59" x="82.671875" y="181.057293" style="stroke: #000000; stroke-width: 0.8"/>
      </g>
     </g>
     <g id="text_8">
      <!-- 10,000 -->
      <g transform="translate(26.685 186.376199) scale(0.14 -0.14)">
       <use xlink:href="#DejaVuSans-31"/>
       <use xlink:href="#DejaVuSans-30" x="63.623047"/>
       <use xlink:href="#DejaVuSans-2c" x="127.246094"/>
       <use xlink:href="#DejaVuSans-30" x="159.033203"/>
       <use xlink:href="#DejaVuSans-30" x="222.65625"/>
       <use xlink:href="#DejaVuSans-30" x="286.279297"/>
      </g>
     </g>
    </g>
    <g id="ytick_3">
     <g id="line2d_15">
      <path d="M 82.671875 152.967562 
L 473.271875 152.967562 
" clip-path="url(#p162053b095)" style="fill: none; stroke: #b0b0b0; stroke-opacity: 0.3; stroke-width: 0.8; stroke-linecap: square"/>
     </g>
     <g id="line2d_16">
      <g>
       <use xlink:href="#m755d4e6f59" x="82.671875" y="152.967562" style="stroke: #000000; stroke-width: 0.8"/>
      </g>
     </g>
     <g id="text_9">
      <!-- 11,000 -->
      <g transform="translate(26.685 158.286468) scale(0.14 -0.14)">
       <use xlink:href="#DejaVuSans-31"/>
       <use xlink:href="#DejaVuSans-31" x="63.623047"/>
       <use xlink:href="#DejaVuSans-2c" x="127.246094"/>
       <use xlink:href="#DejaVuSans-30" x="159.033203"/>
       <use xlink:href="#DejaVuSans-30" x="222.65625"/>
       <use xlink:href="#DejaVuSans-30" x="286.279297"/>
      </g>
     </g>
    </g>
    <g id="ytick_4">
     <g id="line2d_17">
      <path d="M 82.671875 124.877831 
L 473.271875 124.877831 
" clip-path="url(#p162053b095)" style="fill: none; stroke: #b0b0b0; stroke-opacity: 0.3; stroke-width: 0.8; stroke-linecap: square"/>
     </g>
     <g id="line2d_18">
      <g>
       <use xlink:href="#m755d4e6f59" x="82.671875" y="124.877831" style="stroke: #000000; stroke-width: 0.8"/>
      </g>
     </g>
     <g id="text_10">
      <!-- 12,000 -->
      <g transform="translate(26.685 130.196737) scale(0.14 -0.14)">
       <use xlink:href="#DejaVuSans-31"/>
       <use xlink:href="#DejaVuSans-32" x="63.623047"/>
       <use xlink:href="#DejaVuSans-2c" x="127.246094"/>
       <use xlink:href="#DejaVuSans-30" x="159.033203"/>
       <use xlink:href="#DejaVuSans-30" x="222.65625"/>
       <use xlink:href="#DejaVuSans-30" x="286.279297"/>
      </g>
     </g>
    </g>
    <g id="ytick_5">
     <g id="line2d_19">
      <path d="M 82.671875 96.7881 
L 473.271875 96.7881 
" clip-path="url(#p162053b095)" style="fill: none; stroke: #b0b0b0; stroke-opacity: 0.3; stroke-width: 0.8; stroke-linecap: square"/>
     </g>
     <g id="line2d_20">
      <g>
       <use xlink:href="#m755d4e6f59" x="82.671875" y="96.7881" style="stroke: #000000; stroke-width: 0.8"/>
      </g>
     </g>
     <g id="text_11">
      <!-- 13,000 -->
      <g transform="translate(26.685 102.107006) scale(0.14 -0.14)">
       <use xlink:href="#DejaVuSans-31"/>
       <use xlink:href="#DejaVuSans-33" x="63.623047"/>
       <use xlink:href="#DejaVuSans-2c" x="127.246094"/>
       <use xlink:href="#DejaVuSans-30" x="159.033203"/>
       <use xlink:href="#DejaVuSans-30" x="222.65625"/>
       <use xlink:href="#DejaVuSans-30" x="286.279297"/>
      </g>
     </g>
    </g>
    <g id="ytick_6">
     <g id="line2d_21">
      <path d="M 82.671875 68.698368 
L 473.271875 68.698368 
" clip-path="url(#p162053b095)" style="fill: none; stroke: #b0b0b0; stroke-opacity: 0.3; stroke-width: 0.8; stroke-linecap: square"/>
     </g>
     <g id="line2d_22">
      <g>
       <use xlink:href="#m755d4e6f59" x="82.671875" y="68.698368" style="stroke: #000000; stroke-width: 0.8"/>
      </g>
     </g>
     <g id="text_12">
      <!-- 14,000 -->
      <g transform="translate(26.685 74.017275) scale(0.14 -0.14)">
       <use xlink:href="#DejaVuSans-31"/>
       <use xlink:href="#DejaVuSans-34" x="63.623047"/>
       <use xlink:href="#DejaVuSans-2c" x="127.246094"/>
       <use xlink:href="#DejaVuSans-30" x="159.033203"/>
       <use xlink:href="#DejaVuSans-30" x="222.65625"/>
       <use xlink:href="#DejaVuSans-30" x="286.279297"/>
      </g>
     </g>
    </g>
    <g id="ytick_7">
     <g id="line2d_23">
      <path d="M 82.671875 40.608637 
L 473.271875 40.608637 
" clip-path="url(#p162053b095)" style="fill: none; stroke: #b0b0b0; stroke-opacity: 0.3; stroke-width: 0.8; stroke-linecap: square"/>
     </g>
     <g id="line2d_24">
      <g>
       <use xlink:href="#m755d4e6f59" x="82.671875" y="40.608637" style="stroke: #000000; stroke-width: 0.8"/>
      </g>
     </g>
     <g id="text_13">
      <!-- 15,000 -->
      <g transform="translate(26.685 45.927544) scale(0.14 -0.14)">
       <defs>
        <path id="DejaVuSans-35" d="M 691 4666 
L 3169 4666 
L 3169 4134 
L 1269 4134 
L 1269 2991 
Q 1406 3038 1543 3061 
Q 1681 3084 1819 3084 
Q 2600 3084 3056 2656 
Q 3513 2228 3513 1497 
Q 3513 744 3044 326 
Q 2575 -91 1722 -91 
Q 1428 -91 1123 -41 
Q 819 9 494 109 
L 494 744 
Q 775 591 1075 516 
Q 1375 441 1709 441 
Q 2250 441 2565 725 
Q 2881 1009 2881 1497 
Q 2881 1984 2565 2268 
Q 2250 2553 1709 2553 
Q 1456 2553 1204 2497 
Q 953 2441 691 2322 
L 691 4666 
z
" transform="scale(0.015625)"/>
       </defs>
       <use xlink:href="#DejaVuSans-31"/>
       <use xlink:href="#DejaVuSans-35" x="63.623047"/>
       <use xlink:href="#DejaVuSans-2c" x="127.246094"/>
       <use xlink:href="#DejaVuSans-30" x="159.033203"/>
       <use xlink:href="#DejaVuSans-30" x="222.65625"/>
       <use xlink:href="#DejaVuSans-30" x="286.279297"/>
      </g>
     </g>
    </g>
    <g id="ytick_8">
     <g id="line2d_25">
      <path d="M 82.671875 12.518906 
L 473.271875 12.518906 
" clip-path="url(#p162053b095)" style="fill: none; stroke: #b0b0b0; stroke-opacity: 0.3; stroke-width: 0.8; stroke-linecap: square"/>
     </g>
     <g id="line2d_26">
      <g>
       <use xlink:href="#m755d4e6f59" x="82.671875" y="12.518906" style="stroke: #000000; stroke-width: 0.8"/>
      </g>
     </g>
     <g id="text_14">
      <!-- 16,000 -->
      <g transform="translate(26.685 17.837812) scale(0.14 -0.14)">
       <use xlink:href="#DejaVuSans-31"/>
       <use xlink:href="#DejaVuSans-36" x="63.623047"/>
       <use xlink:href="#DejaVuSans-2c" x="127.246094"/>
       <use xlink:href="#DejaVuSans-30" x="159.033203"/>
       <use xlink:href="#DejaVuSans-30" x="222.65625"/>
       <use xlink:href="#DejaVuSans-30" x="286.279297"/>
      </g>
     </g>
    </g>
    <g id="text_15">
     <!-- Edges -->
     <g transform="translate(19.3575 145.121364) rotate(-90) scale(0.16 -0.16)">
      <defs>
       <path id="DejaVuSans-45" d="M 628 4666 
L 3578 4666 
L 3578 4134 
L 1259 4134 
L 1259 2753 
L 3481 2753 
L 3481 2222 
L 1259 2222 
L 1259 531 
L 3634 531 
L 3634 0 
L 628 0 
L 628 4666 
z
" transform="scale(0.015625)"/>
       <path id="DejaVuSans-64" d="M 2906 2969 
L 2906 4863 
L 3481 4863 
L 3481 0 
L 2906 0 
L 2906 525 
Q 2725 213 2448 61 
Q 2172 -91 1784 -91 
Q 1150 -91 751 415 
Q 353 922 353 1747 
Q 353 2572 751 3078 
Q 1150 3584 1784 3584 
Q 2172 3584 2448 3432 
Q 2725 3281 2906 2969 
z
M 947 1747 
Q 947 1113 1208 752 
Q 1469 391 1925 391 
Q 2381 391 2643 752 
Q 2906 1113 2906 1747 
Q 2906 2381 2643 2742 
Q 2381 3103 1925 3103 
Q 1469 3103 1208 2742 
Q 947 2381 947 1747 
z
" transform="scale(0.015625)"/>
       <path id="DejaVuSans-67" d="M 2906 1791 
Q 2906 2416 2648 2759 
Q 2391 3103 1925 3103 
Q 1463 3103 1205 2759 
Q 947 2416 947 1791 
Q 947 1169 1205 825 
Q 1463 481 1925 481 
Q 2391 481 2648 825 
Q 2906 1169 2906 1791 
z
M 3481 434 
Q 3481 -459 3084 -895 
Q 2688 -1331 1869 -1331 
Q 1566 -1331 1297 -1286 
Q 1028 -1241 775 -1147 
L 775 -588 
Q 1028 -725 1275 -790 
Q 1522 -856 1778 -856 
Q 2344 -856 2625 -561 
Q 2906 -266 2906 331 
L 2906 616 
Q 2728 306 2450 153 
Q 2172 0 1784 0 
Q 1141 0 747 490 
Q 353 981 353 1791 
Q 353 2603 747 3093 
Q 1141 3584 1784 3584 
Q 2172 3584 2450 3431 
Q 2728 3278 2906 2969 
L 2906 3500 
L 3481 3500 
L 3481 434 
z
" transform="scale(0.015625)"/>
       <path id="DejaVuSans-73" d="M 2834 3397 
L 2834 2853 
Q 2591 2978 2328 3040 
Q 2066 3103 1784 3103 
Q 1356 3103 1142 2972 
Q 928 2841 928 2578 
Q 928 2378 1081 2264 
Q 1234 2150 1697 2047 
L 1894 2003 
Q 2506 1872 2764 1633 
Q 3022 1394 3022 966 
Q 3022 478 2636 193 
Q 2250 -91 1575 -91 
Q 1294 -91 989 -36 
Q 684 19 347 128 
L 347 722 
Q 666 556 975 473 
Q 1284 391 1588 391 
Q 1994 391 2212 530 
Q 2431 669 2431 922 
Q 2431 1156 2273 1281 
Q 2116 1406 1581 1522 
L 1381 1569 
Q 847 1681 609 1914 
Q 372 2147 372 2553 
Q 372 3047 722 3315 
Q 1072 3584 1716 3584 
Q 2034 3584 2315 3537 
Q 2597 3491 2834 3397 
z
" transform="scale(0.015625)"/>
      </defs>
      <use xlink:href="#DejaVuSans-45"/>
      <use xlink:href="#DejaVuSans-64" x="63.183594"/>
      <use xlink:href="#DejaVuSans-67" x="126.660156"/>
      <use xlink:href="#DejaVuSans-65" x="190.136719"/>
      <use xlink:href="#DejaVuSans-73" x="251.660156"/>
     </g>
    </g>
   </g>
   <g id="line2d_27">
    <path d="M 100.42642 221.618864 
L 102.275852 74.653391 
L 104.125284 66.39501 
L 105.974716 64.821986 
L 107.824148 64.512998 
L 109.67358 62.097282 
L 111.523011 58.05236 
L 113.372443 57.659104 
L 115.221875 56.591694 
L 117.071307 56.226528 
L 118.920739 56.086079 
L 120.77017 56.086079 
L 124.469034 55.833272 
L 126.318466 54.175977 
L 128.167898 51.732171 
L 130.01733 51.338915 
L 131.866761 49.934428 
L 133.716193 49.513082 
L 139.264489 49.513082 
L 141.11392 48.867018 
L 142.963352 48.867018 
L 144.812784 48.614211 
L 146.662216 46.029955 
L 157.758807 46.029955 
L 161.45767 44.597379 
L 185.500284 44.597379 
L 187.349716 42.43447 
L 203.994602 42.43447 
L 205.844034 42.097393 
L 207.693466 41.591778 
L 231.73608 41.507509 
L 233.585511 41.170432 
L 239.133807 41.170432 
L 240.983239 40.889535 
L 242.83267 40.889535 
L 244.682102 40.29965 
L 248.380966 40.215381 
L 252.07983 40.159202 
L 305.713352 40.131112 
L 309.412216 40.046843 
L 316.809943 40.018753 
L 340.852557 39.934484 
L 342.701989 39.091792 
L 355.648011 39.007523 
L 357.497443 38.642356 
L 359.346875 37.687305 
L 363.045739 37.069331 
L 372.292898 37.069331 
L 374.14233 36.844613 
L 379.690625 36.732254 
L 381.540057 35.355858 
L 383.389489 35.243499 
L 390.787216 35.215409 
L 392.636648 34.625525 
L 398.184943 34.597435 
L 401.883807 34.372717 
L 414.82983 34.372717 
L 416.679261 33.867102 
L 455.51733 33.810922 
L 455.51733 33.810922 
" clip-path="url(#p162053b095)" style="fill: none; stroke-dasharray: 3,4.95; stroke-dashoffset: 0; stroke: #ddaa33; stroke-width: 3"/>
   </g>
   <g id="line2d_28">
    <path d="M 100.42642 221.618864 
L 102.275852 61.591666 
L 104.125284 54.9344 
L 105.974716 50.496223 
L 107.824148 47.546801 
L 109.67358 43.754687 
L 111.523011 41.732227 
L 113.372443 41.591778 
L 118.920739 41.563688 
L 120.77017 41.001894 
L 122.619602 39.653586 
L 124.469034 39.456958 
L 126.318466 39.456958 
L 128.167898 39.28842 
L 130.01733 39.28842 
L 131.866761 39.176061 
L 139.264489 39.147971 
L 141.11392 39.007523 
L 144.812784 38.417638 
L 148.511648 38.417638 
L 150.36108 37.968203 
L 152.210511 37.968203 
L 154.059943 37.490677 
L 155.909375 37.490677 
L 157.758807 37.350229 
L 165.156534 37.322139 
L 174.403693 37.23787 
L 178.102557 37.041241 
L 185.500284 37.013152 
L 187.349716 36.676075 
L 192.898011 36.507537 
L 200.295739 36.479447 
L 202.14517 36.310908 
L 222.48892 36.226639 
L 224.338352 36.001921 
L 246.531534 35.917652 
L 252.07983 35.749114 
L 253.929261 35.749114 
L 255.778693 35.496306 
L 257.628125 35.496306 
L 259.477557 34.400807 
L 261.326989 34.204179 
L 263.17642 34.204179 
L 265.025852 34.06373 
L 266.875284 34.06373 
L 268.724716 33.867102 
L 274.273011 33.782833 
L 276.122443 33.277218 
L 281.670739 33.277218 
L 285.369602 32.99632 
L 314.960511 32.912051 
L 316.809943 32.743513 
L 324.20767 32.743513 
L 326.057102 32.603064 
L 339.003125 32.574974 
L 340.852557 32.322167 
L 363.045739 32.237897 
L 370.443466 32.097449 
L 374.14233 32.097449 
L 375.991761 31.900821 
L 385.23892 31.844641 
L 387.088352 31.535654 
L 407.432102 31.451385 
L 411.130966 31.170488 
L 442.571307 31.086218 
L 448.119602 31.058129 
L 449.969034 34.344627 
L 451.818466 36.985062 
L 451.818466 36.985062 
" clip-path="url(#p162053b095)" style="fill: none; stroke-dasharray: 3,4.95; stroke-dashoffset: 0; stroke: #000000; stroke-width: 3"/>
   </g>
   <g id="line2d_29">
    <path d="M 100.42642 221.618864 
L 102.275852 159.765277 
L 104.125284 145.636142 
L 105.974716 132.855314 
L 107.824148 126.787932 
L 109.67358 121.75987 
L 111.523011 117.939667 
L 113.372443 115.271143 
L 115.221875 114.400361 
L 117.071307 108.22062 
L 118.920739 104.119519 
L 120.77017 101.872341 
L 122.619602 99.470669 
L 124.469034 98.936964 
L 126.318466 98.052137 
L 128.167898 96.998772 
L 130.01733 95.72069 
L 131.866761 94.231934 
L 133.716193 93.698229 
L 135.565625 92.60273 
L 137.415057 92.60273 
L 139.264489 92.813403 
L 141.11392 90.790942 
L 142.963352 89.119603 
L 144.812784 87.715116 
L 146.662216 86.549393 
L 148.511648 86.352764 
L 150.36108 85.973553 
L 152.210511 85.973553 
L 154.059943 85.847149 
L 155.909375 85.805015 
L 157.758807 85.285355 
L 159.608239 84.526932 
L 161.45767 84.358394 
L 163.307102 84.274124 
L 165.156534 84.077496 
L 167.005966 83.206715 
L 168.855398 82.869638 
L 170.70483 82.658965 
L 172.554261 82.61683 
L 174.403693 82.293798 
L 176.253125 82.083125 
L 178.102557 82.026946 
L 179.951989 81.998856 
L 181.80142 81.970766 
L 183.650852 81.900542 
L 185.500284 81.380882 
L 187.349716 80.482011 
L 189.199148 80.257293 
L 191.04858 79.920216 
L 192.898011 79.864037 
L 194.747443 79.456735 
L 196.596875 79.414601 
L 198.446307 79.372466 
L 200.295739 78.150563 
L 202.14517 77.785396 
L 203.994602 77.532589 
L 205.844034 77.518544 
L 207.693466 76.956749 
L 209.542898 76.942704 
L 211.39233 76.788211 
L 213.241761 76.198327 
L 215.091193 76.100013 
L 216.940625 76.015743 
L 218.790057 75.046648 
L 220.639489 75.032603 
L 222.48892 74.569122 
L 224.338352 74.512943 
L 226.187784 74.344404 
L 228.037216 74.316315 
L 229.886648 74.203956 
L 231.73608 74.091597 
L 233.585511 74.035417 
L 235.434943 73.951148 
L 237.284375 73.923058 
L 239.133807 73.670251 
L 240.983239 73.529802 
L 242.83267 73.501712 
L 244.682102 73.501712 
L 246.531534 73.417443 
L 248.380966 73.417443 
L 250.230398 73.417443 
L 252.07983 73.305084 
L 253.929261 73.305084 
" clip-path="url(#p162053b095)" style="fill: none; stroke: #994455; stroke-width: 3; stroke-linecap: square"/>
   </g>
   <g id="line2d_30">
    <path d="M 100.42642 221.618864 
L 102.275852 62.125371 
L 104.125284 50.524312 
L 105.974716 43.726597 
L 107.824148 41.226611 
L 109.67358 37.434498 
L 111.523011 36.844613 
L 113.372443 36.086191 
L 115.221875 34.878332 
L 118.920739 33.979461 
L 120.77017 33.754743 
L 122.619602 33.164859 
L 124.469034 32.940141 
L 128.167898 31.451385 
L 131.866761 31.030039 
L 139.264489 31.001949 
L 141.11392 30.692962 
L 142.963352 29.541283 
L 152.210511 29.119937 
L 154.059943 28.417694 
L 155.909375 28.192976 
L 168.855398 28.108707 
L 178.102557 27.77163 
L 181.80142 27.77163 
L 189.199148 27.181746 
L 196.596875 27.181746 
L 202.14517 26.282874 
L 207.693466 26.170516 
L 222.48892 26.086246 
L 226.187784 26.001977 
L 253.929261 25.945798 
L 257.628125 25.777259 
L 270.574148 25.6649 
L 274.273011 25.580631 
L 276.122443 25.552541 
L 277.971875 25.271644 
L 290.917898 25.187375 
L 296.466193 25.103106 
L 298.315625 25.075016 
L 300.165057 24.906478 
L 307.562784 24.878388 
L 309.412216 24.878388 
L 311.261648 24.65367 
L 314.960511 24.62558 
L 316.809943 24.035696 
L 320.508807 23.979517 
L 326.057102 23.951427 
L 329.755966 23.726709 
L 331.605398 23.698619 
L 333.45483 23.164914 
L 335.304261 23.136825 
L 337.153693 22.912107 
L 344.55142 22.518851 
L 351.949148 22.434581 
L 353.79858 22.266043 
L 357.497443 22.237953 
L 361.196307 22.153684 
L 366.744602 22.069415 
L 394.48608 21.985146 
L 400.034375 21.900876 
L 401.883807 21.53571 
L 411.130966 21.50762 
L 412.980398 21.170543 
L 416.679261 21.170543 
L 418.528693 21.058184 
L 424.076989 20.973915 
L 431.474716 20.945826 
L 442.571307 20.945826 
L 444.420739 20.018864 
L 444.420739 20.018864 
" clip-path="url(#p162053b095)" style="fill: none; stroke: #ee99aa; stroke-width: 3; stroke-linecap: square"/>
   </g>
   <g id="line2d_31">
    <path d="M 100.42642 221.618864 
L 102.275852 201.394258 
L 104.125284 182.770766 
L 105.974716 178.838204 
L 107.824148 168.445004 
L 109.67358 158.782136 
L 111.523011 151.08555 
L 113.372443 150.748473 
L 115.221875 141.984477 
L 117.071307 139.793478 
L 118.920739 137.939556 
L 120.77017 134.962044 
L 122.619602 126.844112 
L 124.469034 124.90592 
L 128.167898 122.490203 
L 130.01733 120.552012 
L 131.866761 118.810449 
L 133.716193 118.613821 
L 135.565625 116.282373 
L 137.415057 116.282373 
L 139.264489 115.49586 
L 141.11392 115.327322 
L 142.963352 113.192502 
L 144.812784 112.686887 
L 146.662216 111.703747 
L 148.511648 109.877914 
L 152.210511 109.877914 
L 154.059943 109.765555 
L 155.909375 108.754325 
L 157.758807 107.939723 
L 159.608239 106.984672 
L 161.45767 105.832993 
L 163.307102 104.934122 
L 167.005966 104.934122 
L 168.855398 104.821763 
L 170.70483 102.99593 
L 176.253125 100.594258 
L 178.102557 99.105502 
L 179.951989 98.965054 
L 181.80142 98.178541 
L 183.650852 97.897644 
L 185.500284 96.324619 
L 187.349716 95.243164 
L 189.199148 94.526876 
L 192.898011 93.965082 
L 194.747443 93.108345 
L 198.446307 92.785313 
L 200.295739 92.785313 
L 203.994602 92.05498 
L 205.844034 91.184198 
L 207.693466 91.057794 
L 209.542898 90.453865 
L 213.241761 88.599943 
L 215.091193 88.473539 
L 216.940625 88.108373 
L 224.338352 87.672982 
L 231.73608 87.32186 
L 235.434943 86.984783 
L 239.133807 86.872424 
L 240.983239 85.706701 
L 242.83267 85.622431 
L 246.531534 84.920188 
L 250.230398 84.653336 
L 255.778693 84.569066 
L 265.025852 84.442663 
L 268.724716 84.344349 
L 270.574148 84.189855 
L 277.971875 84.035362 
L 279.821307 83.585926 
L 283.52017 83.178625 
L 287.219034 83.1084 
L 289.068466 83.024131 
L 290.917898 82.813458 
L 298.315625 82.406157 
L 300.165057 82.181439 
L 302.014489 81.774138 
L 303.86392 81.591555 
L 311.261648 81.563465 
L 314.960511 80.369652 
L 316.809943 80.369652 
L 318.659375 80.187068 
L 326.057102 80.088754 
L 327.906534 79.849992 
L 329.755966 79.751678 
L 331.605398 79.274152 
L 333.45483 78.529774 
L 348.250284 78.333146 
L 351.949148 78.136518 
L 387.088352 77.96798 
L 392.636648 77.953935 
L 396.335511 77.673038 
L 412.980398 77.504499 
L 414.82983 77.265736 
L 422.227557 77.041019 
L 435.17358 76.942704 
L 437.023011 76.605628 
L 444.420739 76.409 
L 449.969034 76.394955 
L 451.818466 76.84439 
L 453.667898 76.84439 
L 453.667898 76.84439 
" clip-path="url(#p162053b095)" style="fill: none; stroke: #004488; stroke-width: 3; stroke-linecap: square"/>
   </g>
   <g id="line2d_32">
    <path d="M 100.42642 221.618864 
L 102.275852 54.99058 
L 104.125284 44.765918 
L 105.974716 38.838984 
L 107.824148 36.310908 
L 109.67358 35.15923 
L 111.523011 34.934512 
L 113.372443 33.782833 
L 115.221875 33.501935 
L 117.071307 32.434526 
L 118.920739 31.957 
L 120.77017 31.816552 
L 124.469034 31.732282 
L 128.167898 30.861501 
L 135.565625 30.440155 
L 139.264489 30.440155 
L 141.11392 30.103078 
L 142.963352 29.485104 
L 144.812784 28.670502 
L 152.210511 28.389604 
L 154.059943 28.136797 
L 155.909375 27.996348 
L 161.45767 27.996348 
L 163.307102 27.883989 
L 167.005966 27.79972 
L 172.554261 27.74354 
L 174.403693 27.490733 
L 178.102557 27.406464 
L 183.650852 27.378374 
L 185.500284 26.844669 
L 187.349716 26.70422 
L 189.199148 26.114336 
L 196.596875 26.086246 
L 203.994602 26.001977 
L 207.693466 25.69299 
L 213.241761 25.608721 
L 220.639489 25.580631 
L 222.48892 25.580631 
L 224.338352 25.468272 
L 226.187784 25.468272 
L 228.037216 25.327824 
L 239.133807 25.299734 
L 240.983239 24.962657 
L 244.682102 24.962657 
L 246.531534 24.794119 
L 255.778693 24.794119 
L 257.628125 24.148055 
L 259.477557 24.119965 
L 261.326989 23.979517 
L 265.025852 23.979517 
L 266.875284 23.754799 
L 272.42358 23.726709 
L 276.122443 23.64244 
L 290.917898 23.501991 
L 292.76733 23.501991 
L 294.616761 23.305363 
L 309.412216 22.940196 
L 326.057102 22.771658 
L 342.701989 22.687389 
L 346.400852 22.406492 
L 348.250284 22.406492 
L 350.099716 22.041325 
L 359.346875 22.041325 
L 363.045739 21.760428 
L 390.787216 21.704248 
L 392.636648 21.53571 
L 396.335511 21.47953 
L 398.184943 20.693018 
L 403.733239 20.4683 
L 418.528693 20.384031 
L 427.775852 20.327851 
L 437.023011 20.271672 
L 440.721875 20.215493 
L 442.571307 20.215493 
L 444.420739 20.089089 
L 448.119602 20.187403 
L 448.119602 20.187403 
" clip-path="url(#p162053b095)" style="fill: none; stroke: #6699cc; stroke-width: 3; stroke-linecap: square"/>
   </g>
   <g id="line2d_33">
    <path d="M 100.42642 221.618864 
L 102.275852 72.406213 
L 104.125284 63.754576 
L 105.974716 61.619756 
L 107.824148 60.580436 
L 109.67358 60.580436 
L 111.523011 60.018642 
L 113.372443 59.11977 
L 115.221875 55.271477 
L 117.071307 52.771491 
L 118.920739 52.490594 
L 120.77017 51.78835 
L 124.469034 51.760261 
L 126.318466 51.367004 
L 128.167898 51.367004 
L 130.01733 50.945658 
L 141.11392 50.861389 
L 142.963352 50.664761 
L 148.511648 50.580492 
L 150.36108 50.355774 
L 154.059943 50.355774 
L 155.909375 50.131056 
L 161.45767 50.046787 
L 163.307102 49.793979 
L 165.156534 49.76589 
L 167.005966 49.541172 
L 168.855398 49.541172 
L 170.70483 48.108596 
L 172.554261 47.996237 
L 176.253125 47.996237 
L 178.102557 47.883878 
L 179.951989 47.883878 
L 181.80142 46.816468 
L 185.500284 45.271533 
L 187.349716 45.271533 
L 189.199148 44.962546 
L 192.898011 44.962546 
L 194.747443 44.51311 
L 202.14517 44.51311 
L 203.994602 44.204123 
L 209.542898 43.979405 
L 211.39233 43.614239 
L 215.091193 43.558059 
L 218.790057 43.50188 
L 220.639489 43.50188 
L 222.48892 43.136713 
L 224.338352 43.136713 
L 226.187784 42.996264 
L 233.585511 42.968175 
L 235.434943 42.743457 
L 242.83267 42.574919 
L 259.477557 42.518739 
L 261.326989 42.209752 
L 268.724716 41.900765 
L 270.574148 41.479419 
L 277.971875 41.114252 
L 279.821307 40.32774 
L 281.670739 39.850215 
L 300.165057 39.850215 
L 302.014489 39.625497 
L 314.960511 39.569317 
L 316.809943 39.063702 
L 318.659375 38.867074 
L 326.057102 38.838984 
L 327.906534 38.838984 
L 329.755966 38.698536 
L 331.605398 38.136741 
L 335.304261 38.108651 
L 337.153693 37.968203 
L 339.003125 37.518767 
L 359.346875 37.518767 
L 361.196307 37.406408 
L 381.540057 37.350229 
L 387.088352 37.1536 
L 401.883807 37.069331 
L 403.733239 36.928883 
L 429.625284 36.900793 
L 431.474716 36.732254 
L 438.872443 36.732254 
L 440.721875 36.479447 
L 446.27017 36.451357 
L 448.119602 37.013152 
L 449.969034 36.451357 
L 451.818466 30.636783 
L 451.818466 30.636783 
" clip-path="url(#p162053b095)" style="fill: none; stroke-dasharray: 3,4.95; stroke-dashoffset: 0; stroke: #808080; stroke-width: 3"/>
   </g>
   <g id="patch_3">
    <path d="M 82.671875 231.698864 
L 82.671875 9.938864 
" style="fill: none; stroke: #000000; stroke-width: 0.8; stroke-linejoin: miter; stroke-linecap: square"/>
   </g>
   <g id="patch_4">
    <path d="M 473.271875 231.698864 
L 473.271875 9.938864 
" style="fill: none; stroke: #000000; stroke-width: 0.8; stroke-linejoin: miter; stroke-linecap: square"/>
   </g>
   <g id="patch_5">
    <path d="M 82.671875 231.698864 
L 473.271875 231.698864 
" style="fill: none; stroke: #000000; stroke-width: 0.8; stroke-linejoin: miter; stroke-linecap: square"/>
   </g>
   <g id="patch_6">
    <path d="M 82.671875 9.938864 
L 473.271875 9.938864 
" style="fill: none; stroke: #000000; stroke-width: 0.8; stroke-linejoin: miter; stroke-linecap: square"/>
   </g>
   <g id="legend_1">
    <g id="patch_7">
     <path d="M 298.871875 226.698864 
L 466.271875 226.698864 
Q 468.271875 226.698864 468.271875 224.698864 
L 468.271875 163.401989 
Q 468.271875 161.401989 466.271875 161.401989 
L 298.871875 161.401989 
Q 296.871875 161.401989 296.871875 163.401989 
L 296.871875 224.698864 
Q 296.871875 226.698864 298.871875 226.698864 
z
" style="fill: #ffffff; opacity: 0.8; stroke: #cccccc; stroke-linejoin: miter"/>
    </g>
    <g id="line2d_34">
     <path d="M 300.871875 169.500427 
L 310.871875 169.500427 
L 320.871875 169.500427 
" style="fill: none; stroke: #994455; stroke-width: 3; stroke-linecap: square"/>
    </g>
    <g id="text_16">
     <!-- $symcts$ -->
     <g transform="translate(328.871875 173.000427) scale(0.1 -0.1)">
      <defs>
       <path id="DejaVuSans-Oblique-73" d="M 3200 3397 
L 3091 2853 
Q 2863 2978 2609 3040 
Q 2356 3103 2088 3103 
Q 1634 3103 1373 2948 
Q 1113 2794 1113 2528 
Q 1113 2219 1719 2053 
Q 1766 2041 1788 2034 
L 1972 1978 
Q 2547 1819 2739 1644 
Q 2931 1469 2931 1166 
Q 2931 609 2489 259 
Q 2047 -91 1331 -91 
Q 1053 -91 747 -37 
Q 441 16 72 128 
L 184 722 
Q 500 559 806 475 
Q 1113 391 1394 391 
Q 1816 391 2080 572 
Q 2344 753 2344 1031 
Q 2344 1331 1650 1516 
L 1591 1531 
L 1394 1581 
Q 956 1697 753 1886 
Q 550 2075 550 2369 
Q 550 2928 970 3256 
Q 1391 3584 2113 3584 
Q 2397 3584 2667 3537 
Q 2938 3491 3200 3397 
z
" transform="scale(0.015625)"/>
       <path id="DejaVuSans-Oblique-79" d="M 1588 -325 
Q 1188 -997 936 -1164 
Q 684 -1331 294 -1331 
L -159 -1331 
L -63 -850 
L 269 -850 
Q 509 -850 678 -719 
Q 847 -588 1056 -206 
L 1234 128 
L 459 3500 
L 1069 3500 
L 1650 819 
L 3256 3500 
L 3859 3500 
L 1588 -325 
z
" transform="scale(0.015625)"/>
       <path id="DejaVuSans-Oblique-6d" d="M 5747 2113 
L 5338 0 
L 4763 0 
L 5166 2094 
Q 5191 2228 5203 2325 
Q 5216 2422 5216 2491 
Q 5216 2772 5059 2928 
Q 4903 3084 4622 3084 
Q 4203 3084 3875 2770 
Q 3547 2456 3450 1953 
L 3066 0 
L 2491 0 
L 2900 2094 
Q 2925 2209 2937 2307 
Q 2950 2406 2950 2484 
Q 2950 2769 2794 2926 
Q 2638 3084 2363 3084 
Q 1938 3084 1609 2770 
Q 1281 2456 1184 1953 
L 800 0 
L 225 0 
L 909 3500 
L 1484 3500 
L 1375 2956 
Q 1609 3263 1923 3423 
Q 2238 3584 2597 3584 
Q 2978 3584 3223 3384 
Q 3469 3184 3519 2828 
Q 3781 3197 4126 3390 
Q 4472 3584 4856 3584 
Q 5306 3584 5551 3325 
Q 5797 3066 5797 2591 
Q 5797 2488 5784 2364 
Q 5772 2241 5747 2113 
z
" transform="scale(0.015625)"/>
       <path id="DejaVuSans-Oblique-63" d="M 3431 3366 
L 3316 2797 
Q 3109 2947 2876 3022 
Q 2644 3097 2394 3097 
Q 2119 3097 1870 3000 
Q 1622 2903 1453 2725 
Q 1184 2453 1037 2087 
Q 891 1722 891 1331 
Q 891 859 1127 628 
Q 1363 397 1844 397 
Q 2081 397 2348 469 
Q 2616 541 2906 684 
L 2797 116 
Q 2547 13 2283 -39 
Q 2019 -91 1741 -91 
Q 1044 -91 669 257 
Q 294 606 294 1253 
Q 294 1797 489 2255 
Q 684 2713 1069 3078 
Q 1331 3328 1684 3456 
Q 2038 3584 2456 3584 
Q 2700 3584 2940 3529 
Q 3181 3475 3431 3366 
z
" transform="scale(0.015625)"/>
       <path id="DejaVuSans-Oblique-74" d="M 2706 3500 
L 2619 3053 
L 1472 3053 
L 1100 1153 
Q 1081 1047 1072 975 
Q 1063 903 1063 863 
Q 1063 663 1183 572 
Q 1303 481 1569 481 
L 2150 481 
L 2053 0 
L 1503 0 
Q 991 0 739 200 
Q 488 400 488 806 
Q 488 878 497 964 
Q 506 1050 525 1153 
L 897 3053 
L 409 3053 
L 500 3500 
L 978 3500 
L 1172 4494 
L 1747 4494 
L 1556 3500 
L 2706 3500 
z
" transform="scale(0.015625)"/>
      </defs>
      <use xlink:href="#DejaVuSans-Oblique-73" transform="translate(0 0.78125)"/>
      <use xlink:href="#DejaVuSans-Oblique-79" transform="translate(52.099609 0.78125)"/>
      <use xlink:href="#DejaVuSans-Oblique-6d" transform="translate(111.279297 0.78125)"/>
      <use xlink:href="#DejaVuSans-Oblique-63" transform="translate(208.691406 0.78125)"/>
      <use xlink:href="#DejaVuSans-Oblique-74" transform="translate(263.671875 0.78125)"/>
      <use xlink:href="#DejaVuSans-Oblique-73" transform="translate(302.880859 0.78125)"/>
     </g>
    </g>
    <g id="line2d_35">
     <path d="M 300.871875 184.900427 
L 310.871875 184.900427 
L 320.871875 184.900427 
" style="fill: none; stroke: #ee99aa; stroke-width: 3; stroke-linecap: square"/>
    </g>
    <g id="text_17">
     <!-- $symcts^{+}$ -->
     <g transform="translate(328.871875 188.400427) scale(0.1 -0.1)">
      <defs>
       <path id="DejaVuSans-2b" d="M 2944 4013 
L 2944 2272 
L 4684 2272 
L 4684 1741 
L 2944 1741 
L 2944 0 
L 2419 0 
L 2419 1741 
L 678 1741 
L 678 2272 
L 2419 2272 
L 2419 4013 
L 2944 4013 
z
" transform="scale(0.015625)"/>
      </defs>
      <use xlink:href="#DejaVuSans-Oblique-73" transform="translate(0 0.826562)"/>
      <use xlink:href="#DejaVuSans-Oblique-79" transform="translate(52.099609 0.826562)"/>
      <use xlink:href="#DejaVuSans-Oblique-6d" transform="translate(111.279297 0.826562)"/>
      <use xlink:href="#DejaVuSans-Oblique-63" transform="translate(208.691406 0.826562)"/>
      <use xlink:href="#DejaVuSans-Oblique-74" transform="translate(263.671875 0.826562)"/>
      <use xlink:href="#DejaVuSans-Oblique-73" transform="translate(302.880859 0.826562)"/>
      <use xlink:href="#DejaVuSans-2b" transform="translate(359.630365 39.107812) scale(0.7)"/>
     </g>
    </g>
    <g id="line2d_36">
     <path d="M 300.871875 199.598864 
L 310.871875 199.598864 
L 320.871875 199.598864 
" style="fill: none; stroke: #004488; stroke-width: 3; stroke-linecap: square"/>
    </g>
    <g id="text_18">
     <!-- $symcts_{Q}$ -->
     <g transform="translate(328.871875 203.098864) scale(0.1 -0.1)">
      <defs>
       <path id="DejaVuSans-Oblique-51" d="M 2309 -84 
Q 2275 -88 2237 -89 
Q 2200 -91 2125 -91 
Q 1250 -91 756 411 
Q 263 913 263 1797 
Q 263 2319 452 2844 
Q 641 3369 978 3788 
Q 1369 4269 1858 4509 
Q 2347 4750 2938 4750 
Q 3794 4750 4287 4245 
Q 4781 3741 4781 2869 
Q 4781 1928 4265 1147 
Q 3750 366 2919 44 
L 3553 -825 
L 2847 -825 
L 2309 -84 
z
M 2919 4238 
Q 2400 4238 2003 3986 
Q 1606 3734 1313 3219 
Q 1125 2891 1026 2522 
Q 928 2153 928 1778 
Q 928 1128 1239 775 
Q 1550 422 2119 422 
Q 2631 422 3032 676 
Q 3434 931 3719 1434 
Q 3909 1772 4009 2142 
Q 4109 2513 4109 2881 
Q 4109 3528 3796 3883 
Q 3484 4238 2919 4238 
z
" transform="scale(0.015625)"/>
      </defs>
      <use xlink:href="#DejaVuSans-Oblique-73" transform="translate(0 0.78125)"/>
      <use xlink:href="#DejaVuSans-Oblique-79" transform="translate(52.099609 0.78125)"/>
      <use xlink:href="#DejaVuSans-Oblique-6d" transform="translate(111.279297 0.78125)"/>
      <use xlink:href="#DejaVuSans-Oblique-63" transform="translate(208.691406 0.78125)"/>
      <use xlink:href="#DejaVuSans-Oblique-74" transform="translate(263.671875 0.78125)"/>
      <use xlink:href="#DejaVuSans-Oblique-73" transform="translate(302.880859 0.78125)"/>
      <use xlink:href="#DejaVuSans-Oblique-51" transform="translate(354.980469 -15.625) scale(0.7)"/>
     </g>
    </g>
    <g id="line2d_37">
     <path d="M 300.871875 215.498864 
L 310.871875 215.498864 
L 320.871875 215.498864 
" style="fill: none; stroke: #6699cc; stroke-width: 3; stroke-linecap: square"/>
    </g>
    <g id="text_19">
     <!-- $symcts_{Q}^{+}$ -->
     <g transform="translate(328.871875 218.998864) scale(0.1 -0.1)">
      <use xlink:href="#DejaVuSans-Oblique-73" transform="translate(0 0.826562)"/>
      <use xlink:href="#DejaVuSans-Oblique-79" transform="translate(52.099609 0.826562)"/>
      <use xlink:href="#DejaVuSans-Oblique-6d" transform="translate(111.279297 0.826562)"/>
      <use xlink:href="#DejaVuSans-Oblique-63" transform="translate(208.691406 0.826562)"/>
      <use xlink:href="#DejaVuSans-Oblique-74" transform="translate(263.671875 0.826562)"/>
      <use xlink:href="#DejaVuSans-Oblique-73" transform="translate(302.880859 0.826562)"/>
      <use xlink:href="#DejaVuSans-2b" transform="translate(359.630365 39.107813) scale(0.7)"/>
      <use xlink:href="#DejaVuSans-Oblique-51" transform="translate(354.980469 -26.517188) scale(0.7)"/>
     </g>
    </g>
    <g id="line2d_38">
     <path d="M 391.071875 169.500427 
L 401.071875 169.500427 
L 411.071875 169.500427 
" style="fill: none; stroke-dasharray: 3,4.95; stroke-dashoffset: 0; stroke: #ddaa33; stroke-width: 3"/>
    </g>
    <g id="text_20">
     <!-- $afl$++ -->
     <g transform="translate(419.071875 173.000427) scale(0.1 -0.1)">
      <defs>
       <path id="DejaVuSans-Oblique-61" d="M 3438 1997 
L 3047 0 
L 2472 0 
L 2578 531 
Q 2325 219 2001 64 
Q 1678 -91 1281 -91 
Q 834 -91 548 182 
Q 263 456 263 884 
Q 263 1497 752 1853 
Q 1241 2209 2100 2209 
L 2900 2209 
L 2931 2363 
Q 2938 2388 2941 2417 
Q 2944 2447 2944 2509 
Q 2944 2788 2717 2942 
Q 2491 3097 2081 3097 
Q 1800 3097 1504 3025 
Q 1209 2953 897 2809 
L 997 3341 
Q 1322 3463 1633 3523 
Q 1944 3584 2234 3584 
Q 2853 3584 3176 3315 
Q 3500 3047 3500 2534 
Q 3500 2431 3484 2292 
Q 3469 2153 3438 1997 
z
M 2816 1759 
L 2241 1759 
Q 1534 1759 1195 1570 
Q 856 1381 856 984 
Q 856 709 1029 553 
Q 1203 397 1509 397 
Q 1978 397 2328 733 
Q 2678 1069 2791 1631 
L 2816 1759 
z
" transform="scale(0.015625)"/>
       <path id="DejaVuSans-Oblique-66" d="M 3059 4863 
L 2969 4384 
L 2419 4384 
Q 2106 4384 1964 4261 
Q 1822 4138 1753 3809 
L 1691 3500 
L 2638 3500 
L 2553 3053 
L 1606 3053 
L 1013 0 
L 434 0 
L 1031 3053 
L 481 3053 
L 563 3500 
L 1113 3500 
L 1159 3744 
Q 1278 4363 1576 4613 
Q 1875 4863 2516 4863 
L 3059 4863 
z
" transform="scale(0.015625)"/>
       <path id="DejaVuSans-Oblique-6c" d="M 1172 4863 
L 1747 4863 
L 800 0 
L 225 0 
L 1172 4863 
z
" transform="scale(0.015625)"/>
      </defs>
      <use xlink:href="#DejaVuSans-Oblique-61" transform="translate(0 0.015625)"/>
      <use xlink:href="#DejaVuSans-Oblique-66" transform="translate(61.279297 0.015625)"/>
      <use xlink:href="#DejaVuSans-Oblique-6c" transform="translate(96.484375 0.015625)"/>
      <use xlink:href="#DejaVuSans-2b" transform="translate(124.267578 0.015625)"/>
      <use xlink:href="#DejaVuSans-2b" transform="translate(208.056641 0.015625)"/>
     </g>
    </g>
    <g id="line2d_39">
     <path d="M 391.071875 184.880114 
L 401.071875 184.880114 
L 411.071875 184.880114 
" style="fill: none; stroke-dasharray: 3,4.95; stroke-dashoffset: 0; stroke: #000000; stroke-width: 3"/>
    </g>
    <g id="text_21">
     <!-- $symcc^{+}$ -->
     <g transform="translate(419.071875 188.380114) scale(0.1 -0.1)">
      <use xlink:href="#DejaVuSans-Oblique-73" transform="translate(0 0.826562)"/>
      <use xlink:href="#DejaVuSans-Oblique-79" transform="translate(52.099609 0.826562)"/>
      <use xlink:href="#DejaVuSans-Oblique-6d" transform="translate(111.279297 0.826562)"/>
      <use xlink:href="#DejaVuSans-Oblique-63" transform="translate(208.691406 0.826562)"/>
      <use xlink:href="#DejaVuSans-Oblique-63" transform="translate(263.671875 0.826562)"/>
      <use xlink:href="#DejaVuSans-2b" transform="translate(323.30224 39.107812) scale(0.7)"/>
     </g>
    </g>
    <g id="line2d_40">
     <path d="M 391.071875 200.280114 
L 401.071875 200.280114 
L 411.071875 200.280114 
" style="fill: none; stroke-dasharray: 3,4.95; stroke-dashoffset: 0; stroke: #808080; stroke-width: 3"/>
    </g>
    <g id="text_22">
     <!-- $symsan^{+}$ -->
     <g transform="translate(419.071875 203.780114) scale(0.1 -0.1)">
      <defs>
       <path id="DejaVuSans-Oblique-6e" d="M 3566 2113 
L 3156 0 
L 2578 0 
L 2988 2091 
Q 3016 2238 3031 2350 
Q 3047 2463 3047 2528 
Q 3047 2791 2881 2937 
Q 2716 3084 2419 3084 
Q 1956 3084 1622 2776 
Q 1288 2469 1184 1941 
L 800 0 
L 225 0 
L 903 3500 
L 1478 3500 
L 1363 2950 
Q 1603 3253 1940 3418 
Q 2278 3584 2650 3584 
Q 3113 3584 3367 3334 
Q 3622 3084 3622 2631 
Q 3622 2519 3608 2391 
Q 3594 2263 3566 2113 
z
" transform="scale(0.015625)"/>
      </defs>
      <use xlink:href="#DejaVuSans-Oblique-73" transform="translate(0 0.826562)"/>
      <use xlink:href="#DejaVuSans-Oblique-79" transform="translate(52.099609 0.826562)"/>
      <use xlink:href="#DejaVuSans-Oblique-6d" transform="translate(111.279297 0.826562)"/>
      <use xlink:href="#DejaVuSans-Oblique-73" transform="translate(208.691406 0.826562)"/>
      <use xlink:href="#DejaVuSans-Oblique-61" transform="translate(260.791016 0.826562)"/>
      <use xlink:href="#DejaVuSans-Oblique-6e" transform="translate(322.070312 0.826562)"/>
      <use xlink:href="#DejaVuSans-2b" transform="translate(390.099115 39.107812) scale(0.7)"/>
     </g>
    </g>
   </g>
  </g>
 </g>
 <defs>
  <clipPath id="p162053b095">
   <rect x="82.671875" y="9.938864" width="390.6" height="221.76"/>
  </clipPath>
 </defs>
</svg>
