<?xml version="1.0" encoding="utf-8" standalone="no"?>
<!DOCTYPE svg PUBLIC "-//W3C//DTD SVG 1.1//EN"
  "http://www.w3.org/Graphics/SVG/1.1/DTD/svg11.dtd">
<svg xmlns:xlink="http://www.w3.org/1999/xlink" width="480.471875pt" height="276.194375pt" viewBox="0 0 480.471875 276.194375" xmlns="http://www.w3.org/2000/svg" version="1.1">
 <metadata>
  <rdf:RDF xmlns:dc="http://purl.org/dc/elements/1.1/" xmlns:cc="http://creativecommons.org/ns#" xmlns:rdf="http://www.w3.org/1999/02/22-rdf-syntax-ns#">
   <cc:Work>
    <dc:type rdf:resource="http://purl.org/dc/dcmitype/StillImage"/>
    <dc:date>2023-10-07T23:49:17.271286</dc:date>
    <dc:format>image/svg+xml</dc:format>
    <dc:creator>
     <cc:Agent>
      <dc:title>Matplotlib v3.7.1, https://matplotlib.org/</dc:title>
     </cc:Agent>
    </dc:creator>
   </cc:Work>
  </rdf:RDF>
 </metadata>
 <defs>
  <style type="text/css">*{stroke-linejoin: round; stroke-linecap: butt}</style>
 </defs>
 <g id="figure_1">
  <g id="patch_1">
   <path d="M 0 276.194375 
L 480.471875 276.194375 
L 480.471875 0 
L 0 0 
z
" style="fill: #ffffff"/>
  </g>
  <g id="axes_1">
   <g id="patch_2">
    <path d="M 82.671875 228.96 
L 473.271875 228.96 
L 473.271875 7.2 
L 82.671875 7.2 
z
" style="fill: #ffffff"/>
   </g>
   <g id="matplotlib.axis_1">
    <g id="xtick_1">
     <g id="line2d_1">
      <path d="M 100.42642 228.96 
L 100.42642 7.2 
" clip-path="url(#pe4fb59d9eb)" style="fill: none; stroke: #b0b0b0; stroke-opacity: 0.3; stroke-width: 0.8; stroke-linecap: square"/>
     </g>
     <g id="line2d_2">
      <defs>
       <path id="m550e86e1ca" d="M 0 0 
L 0 3.5 
" style="stroke: #000000; stroke-width: 0.8"/>
      </defs>
      <g>
       <use xlink:href="#m550e86e1ca" x="100.42642" y="228.96" style="stroke: #000000; stroke-width: 0.8"/>
      </g>
     </g>
     <g id="text_1">
      <!-- 0h -->
      <g transform="translate(91.53642 246.597812) scale(0.14 -0.14)">
       <defs>
        <path id="DejaVuSans-30" d="M 2034 4250 
Q 1547 4250 1301 3770 
Q 1056 3291 1056 2328 
Q 1056 1369 1301 889 
Q 1547 409 2034 409 
Q 2525 409 2770 889 
Q 3016 1369 3016 2328 
Q 3016 3291 2770 3770 
Q 2525 4250 2034 4250 
z
M 2034 4750 
Q 2819 4750 3233 4129 
Q 3647 3509 3647 2328 
Q 3647 1150 3233 529 
Q 2819 -91 2034 -91 
Q 1250 -91 836 529 
Q 422 1150 422 2328 
Q 422 3509 836 4129 
Q 1250 4750 2034 4750 
z
" transform="scale(0.015625)"/>
        <path id="DejaVuSans-68" d="M 3513 2113 
L 3513 0 
L 2938 0 
L 2938 2094 
Q 2938 2591 2744 2837 
Q 2550 3084 2163 3084 
Q 1697 3084 1428 2787 
Q 1159 2491 1159 1978 
L 1159 0 
L 581 0 
L 581 4863 
L 1159 4863 
L 1159 2956 
Q 1366 3272 1645 3428 
Q 1925 3584 2291 3584 
Q 2894 3584 3203 3211 
Q 3513 2838 3513 2113 
z
" transform="scale(0.015625)"/>
       </defs>
       <use xlink:href="#DejaVuSans-30"/>
       <use xlink:href="#DejaVuSans-68" x="63.623047"/>
      </g>
     </g>
    </g>
    <g id="xtick_2">
     <g id="line2d_3">
      <path d="M 189.199148 228.96 
L 189.199148 7.2 
" clip-path="url(#pe4fb59d9eb)" style="fill: none; stroke: #b0b0b0; stroke-opacity: 0.3; stroke-width: 0.8; stroke-linecap: square"/>
     </g>
     <g id="line2d_4">
      <g>
       <use xlink:href="#m550e86e1ca" x="189.199148" y="228.96" style="stroke: #000000; stroke-width: 0.8"/>
      </g>
     </g>
     <g id="text_2">
      <!-- 12h -->
      <g transform="translate(175.855398 246.597812) scale(0.14 -0.14)">
       <defs>
        <path id="DejaVuSans-31" d="M 794 531 
L 1825 531 
L 1825 4091 
L 703 3866 
L 703 4441 
L 1819 4666 
L 2450 4666 
L 2450 531 
L 3481 531 
L 3481 0 
L 794 0 
L 794 531 
z
" transform="scale(0.015625)"/>
        <path id="DejaVuSans-32" d="M 1228 531 
L 3431 531 
L 3431 0 
L 469 0 
L 469 531 
Q 828 903 1448 1529 
Q 2069 2156 2228 2338 
Q 2531 2678 2651 2914 
Q 2772 3150 2772 3378 
Q 2772 3750 2511 3984 
Q 2250 4219 1831 4219 
Q 1534 4219 1204 4116 
Q 875 4013 500 3803 
L 500 4441 
Q 881 4594 1212 4672 
Q 1544 4750 1819 4750 
Q 2544 4750 2975 4387 
Q 3406 4025 3406 3419 
Q 3406 3131 3298 2873 
Q 3191 2616 2906 2266 
Q 2828 2175 2409 1742 
Q 1991 1309 1228 531 
z
" transform="scale(0.015625)"/>
       </defs>
       <use xlink:href="#DejaVuSans-31"/>
       <use xlink:href="#DejaVuSans-32" x="63.623047"/>
       <use xlink:href="#DejaVuSans-68" x="127.246094"/>
      </g>
     </g>
    </g>
    <g id="xtick_3">
     <g id="line2d_5">
      <path d="M 277.971875 228.96 
L 277.971875 7.2 
" clip-path="url(#pe4fb59d9eb)" style="fill: none; stroke: #b0b0b0; stroke-opacity: 0.3; stroke-width: 0.8; stroke-linecap: square"/>
     </g>
     <g id="line2d_6">
      <g>
       <use xlink:href="#m550e86e1ca" x="277.971875" y="228.96" style="stroke: #000000; stroke-width: 0.8"/>
      </g>
     </g>
     <g id="text_3">
      <!-- 24h -->
      <g transform="translate(264.628125 246.597812) scale(0.14 -0.14)">
       <defs>
        <path id="DejaVuSans-34" d="M 2419 4116 
L 825 1625 
L 2419 1625 
L 2419 4116 
z
M 2253 4666 
L 3047 4666 
L 3047 1625 
L 3713 1625 
L 3713 1100 
L 3047 1100 
L 3047 0 
L 2419 0 
L 2419 1100 
L 313 1100 
L 313 1709 
L 2253 4666 
z
" transform="scale(0.015625)"/>
       </defs>
       <use xlink:href="#DejaVuSans-32"/>
       <use xlink:href="#DejaVuSans-34" x="63.623047"/>
       <use xlink:href="#DejaVuSans-68" x="127.246094"/>
      </g>
     </g>
    </g>
    <g id="xtick_4">
     <g id="line2d_7">
      <path d="M 366.744602 228.96 
L 366.744602 7.2 
" clip-path="url(#pe4fb59d9eb)" style="fill: none; stroke: #b0b0b0; stroke-opacity: 0.3; stroke-width: 0.8; stroke-linecap: square"/>
     </g>
     <g id="line2d_8">
      <g>
       <use xlink:href="#m550e86e1ca" x="366.744602" y="228.96" style="stroke: #000000; stroke-width: 0.8"/>
      </g>
     </g>
     <g id="text_4">
      <!-- 36h -->
      <g transform="translate(353.400852 246.597812) scale(0.14 -0.14)">
       <defs>
        <path id="DejaVuSans-33" d="M 2597 2516 
Q 3050 2419 3304 2112 
Q 3559 1806 3559 1356 
Q 3559 666 3084 287 
Q 2609 -91 1734 -91 
Q 1441 -91 1130 -33 
Q 819 25 488 141 
L 488 750 
Q 750 597 1062 519 
Q 1375 441 1716 441 
Q 2309 441 2620 675 
Q 2931 909 2931 1356 
Q 2931 1769 2642 2001 
Q 2353 2234 1838 2234 
L 1294 2234 
L 1294 2753 
L 1863 2753 
Q 2328 2753 2575 2939 
Q 2822 3125 2822 3475 
Q 2822 3834 2567 4026 
Q 2313 4219 1838 4219 
Q 1578 4219 1281 4162 
Q 984 4106 628 3988 
L 628 4550 
Q 988 4650 1302 4700 
Q 1616 4750 1894 4750 
Q 2613 4750 3031 4423 
Q 3450 4097 3450 3541 
Q 3450 3153 3228 2886 
Q 3006 2619 2597 2516 
z
" transform="scale(0.015625)"/>
        <path id="DejaVuSans-36" d="M 2113 2584 
Q 1688 2584 1439 2293 
Q 1191 2003 1191 1497 
Q 1191 994 1439 701 
Q 1688 409 2113 409 
Q 2538 409 2786 701 
Q 3034 994 3034 1497 
Q 3034 2003 2786 2293 
Q 2538 2584 2113 2584 
z
M 3366 4563 
L 3366 3988 
Q 3128 4100 2886 4159 
Q 2644 4219 2406 4219 
Q 1781 4219 1451 3797 
Q 1122 3375 1075 2522 
Q 1259 2794 1537 2939 
Q 1816 3084 2150 3084 
Q 2853 3084 3261 2657 
Q 3669 2231 3669 1497 
Q 3669 778 3244 343 
Q 2819 -91 2113 -91 
Q 1303 -91 875 529 
Q 447 1150 447 2328 
Q 447 3434 972 4092 
Q 1497 4750 2381 4750 
Q 2619 4750 2861 4703 
Q 3103 4656 3366 4563 
z
" transform="scale(0.015625)"/>
       </defs>
       <use xlink:href="#DejaVuSans-33"/>
       <use xlink:href="#DejaVuSans-36" x="63.623047"/>
       <use xlink:href="#DejaVuSans-68" x="127.246094"/>
      </g>
     </g>
    </g>
    <g id="xtick_5">
     <g id="line2d_9">
      <path d="M 455.51733 228.96 
L 455.51733 7.2 
" clip-path="url(#pe4fb59d9eb)" style="fill: none; stroke: #b0b0b0; stroke-opacity: 0.3; stroke-width: 0.8; stroke-linecap: square"/>
     </g>
     <g id="line2d_10">
      <g>
       <use xlink:href="#m550e86e1ca" x="455.51733" y="228.96" style="stroke: #000000; stroke-width: 0.8"/>
      </g>
     </g>
     <g id="text_5">
      <!-- 48h -->
      <g transform="translate(442.17358 246.597812) scale(0.14 -0.14)">
       <defs>
        <path id="DejaVuSans-38" d="M 2034 2216 
Q 1584 2216 1326 1975 
Q 1069 1734 1069 1313 
Q 1069 891 1326 650 
Q 1584 409 2034 409 
Q 2484 409 2743 651 
Q 3003 894 3003 1313 
Q 3003 1734 2745 1975 
Q 2488 2216 2034 2216 
z
M 1403 2484 
Q 997 2584 770 2862 
Q 544 3141 544 3541 
Q 544 4100 942 4425 
Q 1341 4750 2034 4750 
Q 2731 4750 3128 4425 
Q 3525 4100 3525 3541 
Q 3525 3141 3298 2862 
Q 3072 2584 2669 2484 
Q 3125 2378 3379 2068 
Q 3634 1759 3634 1313 
Q 3634 634 3220 271 
Q 2806 -91 2034 -91 
Q 1263 -91 848 271 
Q 434 634 434 1313 
Q 434 1759 690 2068 
Q 947 2378 1403 2484 
z
M 1172 3481 
Q 1172 3119 1398 2916 
Q 1625 2713 2034 2713 
Q 2441 2713 2670 2916 
Q 2900 3119 2900 3481 
Q 2900 3844 2670 4047 
Q 2441 4250 2034 4250 
Q 1625 4250 1398 4047 
Q 1172 3844 1172 3481 
z
" transform="scale(0.015625)"/>
       </defs>
       <use xlink:href="#DejaVuSans-34"/>
       <use xlink:href="#DejaVuSans-38" x="63.623047"/>
       <use xlink:href="#DejaVuSans-68" x="127.246094"/>
      </g>
     </g>
    </g>
    <g id="text_6">
     <!-- Time -->
     <g transform="translate(258.398125 265.666875) scale(0.16 -0.16)">
      <defs>
       <path id="DejaVuSans-54" d="M -19 4666 
L 3928 4666 
L 3928 4134 
L 2272 4134 
L 2272 0 
L 1638 0 
L 1638 4134 
L -19 4134 
L -19 4666 
z
" transform="scale(0.015625)"/>
       <path id="DejaVuSans-69" d="M 603 3500 
L 1178 3500 
L 1178 0 
L 603 0 
L 603 3500 
z
M 603 4863 
L 1178 4863 
L 1178 4134 
L 603 4134 
L 603 4863 
z
" transform="scale(0.015625)"/>
       <path id="DejaVuSans-6d" d="M 3328 2828 
Q 3544 3216 3844 3400 
Q 4144 3584 4550 3584 
Q 5097 3584 5394 3201 
Q 5691 2819 5691 2113 
L 5691 0 
L 5113 0 
L 5113 2094 
Q 5113 2597 4934 2840 
Q 4756 3084 4391 3084 
Q 3944 3084 3684 2787 
Q 3425 2491 3425 1978 
L 3425 0 
L 2847 0 
L 2847 2094 
Q 2847 2600 2669 2842 
Q 2491 3084 2119 3084 
Q 1678 3084 1418 2786 
Q 1159 2488 1159 1978 
L 1159 0 
L 581 0 
L 581 3500 
L 1159 3500 
L 1159 2956 
Q 1356 3278 1631 3431 
Q 1906 3584 2284 3584 
Q 2666 3584 2933 3390 
Q 3200 3197 3328 2828 
z
" transform="scale(0.015625)"/>
       <path id="DejaVuSans-65" d="M 3597 1894 
L 3597 1613 
L 953 1613 
Q 991 1019 1311 708 
Q 1631 397 2203 397 
Q 2534 397 2845 478 
Q 3156 559 3463 722 
L 3463 178 
Q 3153 47 2828 -22 
Q 2503 -91 2169 -91 
Q 1331 -91 842 396 
Q 353 884 353 1716 
Q 353 2575 817 3079 
Q 1281 3584 2069 3584 
Q 2775 3584 3186 3129 
Q 3597 2675 3597 1894 
z
M 3022 2063 
Q 3016 2534 2758 2815 
Q 2500 3097 2075 3097 
Q 1594 3097 1305 2825 
Q 1016 2553 972 2059 
L 3022 2063 
z
" transform="scale(0.015625)"/>
      </defs>
      <use xlink:href="#DejaVuSans-54"/>
      <use xlink:href="#DejaVuSans-69" x="57.958984"/>
      <use xlink:href="#DejaVuSans-6d" x="85.742188"/>
      <use xlink:href="#DejaVuSans-65" x="183.154297"/>
     </g>
    </g>
   </g>
   <g id="matplotlib.axis_2">
    <g id="ytick_1">
     <g id="line2d_11">
      <path d="M 82.671875 214.900509 
L 473.271875 214.900509 
" clip-path="url(#pe4fb59d9eb)" style="fill: none; stroke: #b0b0b0; stroke-opacity: 0.3; stroke-width: 0.8; stroke-linecap: square"/>
     </g>
     <g id="line2d_12">
      <defs>
       <path id="m15c1676090" d="M 0 0 
L -3.5 0 
" style="stroke: #000000; stroke-width: 0.8"/>
      </defs>
      <g>
       <use xlink:href="#m15c1676090" x="82.671875" y="214.900509" style="stroke: #000000; stroke-width: 0.8"/>
      </g>
     </g>
     <g id="text_7">
      <!-- 8,000 -->
      <g transform="translate(35.5925 220.219416) scale(0.14 -0.14)">
       <defs>
        <path id="DejaVuSans-2c" d="M 750 794 
L 1409 794 
L 1409 256 
L 897 -744 
L 494 -744 
L 750 256 
L 750 794 
z
" transform="scale(0.015625)"/>
       </defs>
       <use xlink:href="#DejaVuSans-38"/>
       <use xlink:href="#DejaVuSans-2c" x="63.623047"/>
       <use xlink:href="#DejaVuSans-30" x="95.410156"/>
       <use xlink:href="#DejaVuSans-30" x="159.033203"/>
       <use xlink:href="#DejaVuSans-30" x="222.65625"/>
      </g>
     </g>
    </g>
    <g id="ytick_2">
     <g id="line2d_13">
      <path d="M 82.671875 181.875692 
L 473.271875 181.875692 
" clip-path="url(#pe4fb59d9eb)" style="fill: none; stroke: #b0b0b0; stroke-opacity: 0.3; stroke-width: 0.8; stroke-linecap: square"/>
     </g>
     <g id="line2d_14">
      <g>
       <use xlink:href="#m15c1676090" x="82.671875" y="181.875692" style="stroke: #000000; stroke-width: 0.8"/>
      </g>
     </g>
     <g id="text_8">
      <!-- 10,000 -->
      <g transform="translate(26.685 187.194598) scale(0.14 -0.14)">
       <use xlink:href="#DejaVuSans-31"/>
       <use xlink:href="#DejaVuSans-30" x="63.623047"/>
       <use xlink:href="#DejaVuSans-2c" x="127.246094"/>
       <use xlink:href="#DejaVuSans-30" x="159.033203"/>
       <use xlink:href="#DejaVuSans-30" x="222.65625"/>
       <use xlink:href="#DejaVuSans-30" x="286.279297"/>
      </g>
     </g>
    </g>
    <g id="ytick_3">
     <g id="line2d_15">
      <path d="M 82.671875 148.850874 
L 473.271875 148.850874 
" clip-path="url(#pe4fb59d9eb)" style="fill: none; stroke: #b0b0b0; stroke-opacity: 0.3; stroke-width: 0.8; stroke-linecap: square"/>
     </g>
     <g id="line2d_16">
      <g>
       <use xlink:href="#m15c1676090" x="82.671875" y="148.850874" style="stroke: #000000; stroke-width: 0.8"/>
      </g>
     </g>
     <g id="text_9">
      <!-- 12,000 -->
      <g transform="translate(26.685 154.16978) scale(0.14 -0.14)">
       <use xlink:href="#DejaVuSans-31"/>
       <use xlink:href="#DejaVuSans-32" x="63.623047"/>
       <use xlink:href="#DejaVuSans-2c" x="127.246094"/>
       <use xlink:href="#DejaVuSans-30" x="159.033203"/>
       <use xlink:href="#DejaVuSans-30" x="222.65625"/>
       <use xlink:href="#DejaVuSans-30" x="286.279297"/>
      </g>
     </g>
    </g>
    <g id="ytick_4">
     <g id="line2d_17">
      <path d="M 82.671875 115.826056 
L 473.271875 115.826056 
" clip-path="url(#pe4fb59d9eb)" style="fill: none; stroke: #b0b0b0; stroke-opacity: 0.3; stroke-width: 0.8; stroke-linecap: square"/>
     </g>
     <g id="line2d_18">
      <g>
       <use xlink:href="#m15c1676090" x="82.671875" y="115.826056" style="stroke: #000000; stroke-width: 0.8"/>
      </g>
     </g>
     <g id="text_10">
      <!-- 14,000 -->
      <g transform="translate(26.685 121.144962) scale(0.14 -0.14)">
       <use xlink:href="#DejaVuSans-31"/>
       <use xlink:href="#DejaVuSans-34" x="63.623047"/>
       <use xlink:href="#DejaVuSans-2c" x="127.246094"/>
       <use xlink:href="#DejaVuSans-30" x="159.033203"/>
       <use xlink:href="#DejaVuSans-30" x="222.65625"/>
       <use xlink:href="#DejaVuSans-30" x="286.279297"/>
      </g>
     </g>
    </g>
    <g id="ytick_5">
     <g id="line2d_19">
      <path d="M 82.671875 82.801238 
L 473.271875 82.801238 
" clip-path="url(#pe4fb59d9eb)" style="fill: none; stroke: #b0b0b0; stroke-opacity: 0.3; stroke-width: 0.8; stroke-linecap: square"/>
     </g>
     <g id="line2d_20">
      <g>
       <use xlink:href="#m15c1676090" x="82.671875" y="82.801238" style="stroke: #000000; stroke-width: 0.8"/>
      </g>
     </g>
     <g id="text_11">
      <!-- 16,000 -->
      <g transform="translate(26.685 88.120145) scale(0.14 -0.14)">
       <use xlink:href="#DejaVuSans-31"/>
       <use xlink:href="#DejaVuSans-36" x="63.623047"/>
       <use xlink:href="#DejaVuSans-2c" x="127.246094"/>
       <use xlink:href="#DejaVuSans-30" x="159.033203"/>
       <use xlink:href="#DejaVuSans-30" x="222.65625"/>
       <use xlink:href="#DejaVuSans-30" x="286.279297"/>
      </g>
     </g>
    </g>
    <g id="ytick_6">
     <g id="line2d_21">
      <path d="M 82.671875 49.776421 
L 473.271875 49.776421 
" clip-path="url(#pe4fb59d9eb)" style="fill: none; stroke: #b0b0b0; stroke-opacity: 0.3; stroke-width: 0.8; stroke-linecap: square"/>
     </g>
     <g id="line2d_22">
      <g>
       <use xlink:href="#m15c1676090" x="82.671875" y="49.776421" style="stroke: #000000; stroke-width: 0.8"/>
      </g>
     </g>
     <g id="text_12">
      <!-- 18,000 -->
      <g transform="translate(26.685 55.095327) scale(0.14 -0.14)">
       <use xlink:href="#DejaVuSans-31"/>
       <use xlink:href="#DejaVuSans-38" x="63.623047"/>
       <use xlink:href="#DejaVuSans-2c" x="127.246094"/>
       <use xlink:href="#DejaVuSans-30" x="159.033203"/>
       <use xlink:href="#DejaVuSans-30" x="222.65625"/>
       <use xlink:href="#DejaVuSans-30" x="286.279297"/>
      </g>
     </g>
    </g>
    <g id="ytick_7">
     <g id="line2d_23">
      <path d="M 82.671875 16.751603 
L 473.271875 16.751603 
" clip-path="url(#pe4fb59d9eb)" style="fill: none; stroke: #b0b0b0; stroke-opacity: 0.3; stroke-width: 0.8; stroke-linecap: square"/>
     </g>
     <g id="line2d_24">
      <g>
       <use xlink:href="#m15c1676090" x="82.671875" y="16.751603" style="stroke: #000000; stroke-width: 0.8"/>
      </g>
     </g>
     <g id="text_13">
      <!-- 20,000 -->
      <g transform="translate(26.685 22.070509) scale(0.14 -0.14)">
       <use xlink:href="#DejaVuSans-32"/>
       <use xlink:href="#DejaVuSans-30" x="63.623047"/>
       <use xlink:href="#DejaVuSans-2c" x="127.246094"/>
       <use xlink:href="#DejaVuSans-30" x="159.033203"/>
       <use xlink:href="#DejaVuSans-30" x="222.65625"/>
       <use xlink:href="#DejaVuSans-30" x="286.279297"/>
      </g>
     </g>
    </g>
    <g id="text_14">
     <!-- Edges -->
     <g transform="translate(19.3575 142.3825) rotate(-90) scale(0.16 -0.16)">
      <defs>
       <path id="DejaVuSans-45" d="M 628 4666 
L 3578 4666 
L 3578 4134 
L 1259 4134 
L 1259 2753 
L 3481 2753 
L 3481 2222 
L 1259 2222 
L 1259 531 
L 3634 531 
L 3634 0 
L 628 0 
L 628 4666 
z
" transform="scale(0.015625)"/>
       <path id="DejaVuSans-64" d="M 2906 2969 
L 2906 4863 
L 3481 4863 
L 3481 0 
L 2906 0 
L 2906 525 
Q 2725 213 2448 61 
Q 2172 -91 1784 -91 
Q 1150 -91 751 415 
Q 353 922 353 1747 
Q 353 2572 751 3078 
Q 1150 3584 1784 3584 
Q 2172 3584 2448 3432 
Q 2725 3281 2906 2969 
z
M 947 1747 
Q 947 1113 1208 752 
Q 1469 391 1925 391 
Q 2381 391 2643 752 
Q 2906 1113 2906 1747 
Q 2906 2381 2643 2742 
Q 2381 3103 1925 3103 
Q 1469 3103 1208 2742 
Q 947 2381 947 1747 
z
" transform="scale(0.015625)"/>
       <path id="DejaVuSans-67" d="M 2906 1791 
Q 2906 2416 2648 2759 
Q 2391 3103 1925 3103 
Q 1463 3103 1205 2759 
Q 947 2416 947 1791 
Q 947 1169 1205 825 
Q 1463 481 1925 481 
Q 2391 481 2648 825 
Q 2906 1169 2906 1791 
z
M 3481 434 
Q 3481 -459 3084 -895 
Q 2688 -1331 1869 -1331 
Q 1566 -1331 1297 -1286 
Q 1028 -1241 775 -1147 
L 775 -588 
Q 1028 -725 1275 -790 
Q 1522 -856 1778 -856 
Q 2344 -856 2625 -561 
Q 2906 -266 2906 331 
L 2906 616 
Q 2728 306 2450 153 
Q 2172 0 1784 0 
Q 1141 0 747 490 
Q 353 981 353 1791 
Q 353 2603 747 3093 
Q 1141 3584 1784 3584 
Q 2172 3584 2450 3431 
Q 2728 3278 2906 2969 
L 2906 3500 
L 3481 3500 
L 3481 434 
z
" transform="scale(0.015625)"/>
       <path id="DejaVuSans-73" d="M 2834 3397 
L 2834 2853 
Q 2591 2978 2328 3040 
Q 2066 3103 1784 3103 
Q 1356 3103 1142 2972 
Q 928 2841 928 2578 
Q 928 2378 1081 2264 
Q 1234 2150 1697 2047 
L 1894 2003 
Q 2506 1872 2764 1633 
Q 3022 1394 3022 966 
Q 3022 478 2636 193 
Q 2250 -91 1575 -91 
Q 1294 -91 989 -36 
Q 684 19 347 128 
L 347 722 
Q 666 556 975 473 
Q 1284 391 1588 391 
Q 1994 391 2212 530 
Q 2431 669 2431 922 
Q 2431 1156 2273 1281 
Q 2116 1406 1581 1522 
L 1381 1569 
Q 847 1681 609 1914 
Q 372 2147 372 2553 
Q 372 3047 722 3315 
Q 1072 3584 1716 3584 
Q 2034 3584 2315 3537 
Q 2597 3491 2834 3397 
z
" transform="scale(0.015625)"/>
      </defs>
      <use xlink:href="#DejaVuSans-45"/>
      <use xlink:href="#DejaVuSans-64" x="63.183594"/>
      <use xlink:href="#DejaVuSans-67" x="126.660156"/>
      <use xlink:href="#DejaVuSans-65" x="190.136719"/>
      <use xlink:href="#DejaVuSans-73" x="251.660156"/>
     </g>
    </g>
   </g>
   <g id="line2d_25">
    <path d="M 100.42642 218.88 
L 102.275852 168.517153 
L 104.125284 163.546918 
L 105.974716 160.706784 
L 107.824148 154.613705 
L 109.67358 152.25243 
L 111.523011 151.162611 
L 113.372443 150.667239 
L 115.221875 150.518627 
L 117.071307 148.305964 
L 118.920739 147.496856 
L 120.77017 146.90241 
L 122.619602 146.753798 
L 124.469034 146.324475 
L 126.318466 143.385267 
L 128.167898 142.691745 
L 130.01733 141.634951 
L 131.866761 141.073529 
L 133.716193 138.101296 
L 135.565625 135.376748 
L 139.264489 135.129062 
L 142.963352 135.0465 
L 144.812784 134.947426 
L 148.511648 133.890632 
L 150.36108 133.626433 
L 152.210511 131.628431 
L 154.059943 131.628431 
L 155.909375 131.496332 
L 157.758807 131.496332 
L 159.608239 130.736761 
L 161.45767 129.845091 
L 163.307102 124.313434 
L 165.156534 122.711731 
L 167.005966 118.880852 
L 168.855398 118.335942 
L 170.70483 115.892106 
L 172.554261 109.055969 
L 176.253125 107.289141 
L 178.102557 106.760744 
L 179.951989 105.522313 
L 181.80142 103.838047 
L 185.500284 103.606874 
L 187.349716 103.507799 
L 189.199148 102.682179 
L 192.898011 102.665666 
L 194.747443 102.00517 
L 196.596875 101.196062 
L 200.295739 100.981401 
L 202.14517 99.957631 
L 207.693466 99.941119 
L 209.542898 98.157779 
L 211.39233 97.183547 
L 215.091193 97.117497 
L 216.940625 96.5891 
L 218.790057 96.440488 
L 220.639489 96.423976 
L 222.48892 92.560072 
L 224.338352 92.444485 
L 226.187784 91.866551 
L 228.037216 91.58584 
L 231.73608 91.371179 
L 233.585511 86.896316 
L 235.434943 86.351406 
L 237.284375 86.120233 
L 239.133807 85.674398 
L 240.983239 85.509273 
L 242.83267 84.221306 
L 244.682102 83.940595 
L 248.380966 83.924082 
L 250.230398 83.758958 
L 253.929261 83.725933 
L 255.778693 83.346148 
L 257.628125 82.206792 
L 261.326989 81.083948 
L 265.025852 80.737187 
L 268.724716 80.555551 
L 270.574148 80.175765 
L 272.42358 79.416195 
L 274.273011 79.234558 
L 276.122443 77.913565 
L 281.670739 77.187019 
L 283.52017 77.038408 
L 285.369602 76.361399 
L 287.219034 75.007381 
L 289.068466 72.959843 
L 290.917898 72.381908 
L 292.76733 72.11771 
L 294.616761 71.193015 
L 296.466193 71.193015 
L 298.315625 70.846254 
L 300.165057 68.336368 
L 302.014489 67.874021 
L 303.86392 67.626335 
L 305.713352 67.246549 
L 307.562784 66.503491 
L 309.412216 64.967837 
L 311.261648 64.142216 
L 313.11108 64.059654 
L 314.960511 62.969835 
L 316.809943 62.903786 
L 318.659375 62.705637 
L 320.508807 62.127703 
L 322.358239 61.830479 
L 324.20767 61.186495 
L 329.755966 60.872759 
L 342.701989 60.691123 
L 344.55142 60.459949 
L 346.400852 60.047139 
L 348.250284 59.78294 
L 350.099716 59.122444 
L 351.949148 58.990345 
L 353.79858 58.990345 
L 355.648011 58.181237 
L 359.346875 57.702377 
L 361.196307 55.985086 
L 363.045739 55.588789 
L 364.89517 54.350358 
L 366.744602 54.317333 
L 368.594034 53.987085 
L 375.991761 53.871498 
L 379.690625 53.755911 
L 381.540057 53.755911 
L 383.389489 53.227514 
L 387.088352 52.699117 
L 388.937784 52.616555 
L 392.636648 52.154208 
L 394.48608 49.314073 
L 396.335511 48.752651 
L 398.184943 48.389378 
L 400.034375 46.622551 
L 401.883807 46.077641 
L 403.733239 45.813443 
L 414.82983 45.103409 
L 416.679261 45.053872 
L 418.528693 43.765904 
L 422.227557 43.699854 
L 424.076989 43.353094 
L 425.92642 43.320069 
L 427.775852 42.940283 
L 431.474716 42.857721 
L 438.872443 42.791672 
L 440.721875 42.23025 
L 442.571307 42.1642 
L 444.420739 41.933026 
L 448.119602 41.933026 
L 449.969034 55.795194 
L 449.969034 55.795194 
" clip-path="url(#pe4fb59d9eb)" style="fill: none; stroke-dasharray: 3,4.95; stroke-dashoffset: 0; stroke: #ddaa33; stroke-width: 3"/>
   </g>
   <g id="line2d_26">
    <path d="M 100.42642 218.88 
L 102.275852 218.566264 
L 104.125284 216.634312 
L 105.974716 208.724869 
L 107.824148 202.235492 
L 109.67358 201.591508 
L 111.523011 201.178698 
L 113.372443 200.914499 
L 115.221875 200.187953 
L 117.071307 199.973292 
L 124.469034 199.709093 
L 126.318466 199.593506 
L 128.167898 199.593506 
L 131.866761 199.34582 
L 135.565625 199.34582 
L 139.264489 199.098134 
L 144.812784 199.015572 
L 148.511648 199.015572 
L 150.36108 198.833936 
L 172.554261 198.536712 
L 181.80142 198.45415 
L 183.650852 198.074365 
L 187.349716 198.04134 
L 191.04858 197.942266 
L 202.14517 197.859703 
L 205.844034 197.711092 
L 215.091193 197.612017 
L 216.940625 197.496431 
L 237.284375 197.397356 
L 240.983239 197.314794 
L 270.574148 197.232232 
L 272.42358 197.182695 
L 274.273011 196.951521 
L 302.014489 196.901984 
L 305.713352 196.819422 
L 316.809943 196.571736 
L 318.659375 196.340562 
L 329.755966 196.258 
L 333.45483 196.158925 
L 339.003125 196.125901 
L 344.55142 196.142413 
L 359.346875 196.109388 
L 361.196307 195.993801 
L 375.991761 195.977289 
L 379.690625 195.853446 
L 390.787216 195.828677 
L 392.636648 195.019569 
L 401.883807 194.920495 
L 414.82983 194.903982 
L 435.17358 194.804908 
L 438.872443 194.623271 
L 453.667898 194.623271 
L 455.51733 194.326048 
L 455.51733 194.326048 
" clip-path="url(#pe4fb59d9eb)" style="fill: none; stroke: #994455; stroke-width: 3; stroke-linecap: square"/>
   </g>
   <g id="line2d_27">
    <path d="M 100.42642 218.88 
L 102.275852 163.068058 
L 104.125284 151.245173 
L 107.824148 135.806071 
L 109.67358 131.00096 
L 111.523011 124.676707 
L 113.372443 122.183334 
L 115.221875 119.409249 
L 117.071307 117.625909 
L 120.77017 99.858557 
L 122.619602 93.996652 
L 124.469034 90.017161 
L 126.318466 83.709421 
L 128.167898 80.472989 
L 130.01733 79.284095 
L 131.866761 78.821748 
L 133.716193 78.128227 
L 135.565625 73.669876 
L 137.415057 73.108454 
L 139.264489 72.101197 
L 141.11392 70.68113 
L 142.963352 70.317857 
L 144.812784 64.010117 
L 146.662216 63.663357 
L 148.511648 59.997602 
L 150.36108 57.735402 
L 152.210511 56.975831 
L 154.059943 55.770425 
L 155.909375 54.895267 
L 157.758807 52.880754 
L 161.45767 51.724885 
L 163.307102 50.106669 
L 165.156534 48.042618 
L 167.005966 47.860981 
L 168.855398 46.804187 
L 170.70483 46.160203 
L 172.554261 45.334583 
L 176.253125 44.327326 
L 178.102557 43.997078 
L 179.951989 43.798929 
L 181.80142 43.419143 
L 183.650852 42.543986 
L 185.500284 42.197225 
L 189.199148 40.612034 
L 191.04858 40.31481 
L 192.898011 40.248761 
L 194.747443 39.984562 
L 196.596875 39.456165 
L 198.446307 39.456165 
L 200.295739 39.208479 
L 203.994602 39.07638 
L 209.542898 39.059867 
L 211.39233 38.762644 
L 213.241761 38.647057 
L 216.940625 38.564495 
L 218.790057 38.448908 
L 220.639489 38.069123 
L 226.187784 37.986561 
L 228.037216 37.788412 
L 229.886648 37.722362 
L 231.73608 37.441651 
L 233.585511 36.81418 
L 237.284375 36.170196 
L 239.133807 36.120659 
L 240.983239 35.889485 
L 244.682102 35.757386 
L 246.531534 35.707848 
L 248.380966 34.915253 
L 255.778693 34.750129 
L 257.628125 34.122657 
L 261.326989 33.990558 
L 263.17642 32.818177 
L 265.025852 32.801664 
L 266.875284 32.553978 
L 268.724716 32.471416 
L 270.574148 32.240242 
L 276.122443 32.15768 
L 277.971875 31.81092 
L 281.670739 31.695333 
L 289.068466 30.820175 
L 290.917898 30.671564 
L 298.315625 30.539464 
L 300.165057 30.390853 
L 302.014489 30.011067 
L 307.562784 29.945018 
L 309.412216 29.763381 
L 316.809943 29.664307 
L 318.659375 29.416621 
L 320.508807 28.508438 
L 322.358239 28.029578 
L 324.20767 27.947016 
L 326.057102 27.583743 
L 327.906534 27.484669 
L 329.755966 26.956272 
L 333.45483 26.939759 
L 335.304261 26.774635 
L 337.153693 26.74161 
L 342.701989 25.701329 
L 346.400852 25.37108 
L 348.250284 24.826171 
L 353.79858 24.083112 
L 366.744602 23.901476 
L 368.594034 23.637277 
L 377.841193 23.356566 
L 381.540057 23.323542 
L 383.389489 22.613508 
L 387.088352 22.002549 
L 414.82983 21.077854 
L 420.378125 21.044829 
L 424.076989 20.549457 
L 429.625284 20.400845 
L 433.324148 20.301771 
L 435.17358 20.08711 
L 438.872443 19.988035 
L 446.27017 19.872448 
L 448.119602 17.28 
L 448.119602 17.28 
" clip-path="url(#pe4fb59d9eb)" style="fill: none; stroke: #ee99aa; stroke-width: 3; stroke-linecap: square"/>
   </g>
   <g id="line2d_28">
    <path d="M 100.42642 218.88 
L 102.275852 218.549752 
L 104.125284 217.278296 
L 105.974716 214.83446 
L 107.824148 207.321314 
L 109.67358 203.572997 
L 111.523011 203.572997 
L 113.372443 200.633788 
L 115.221875 200.039341 
L 118.920739 199.791655 
L 120.77017 198.817423 
L 122.619602 198.817423 
L 124.469034 198.421125 
L 137.415057 198.388101 
L 141.11392 198.123902 
L 148.511648 197.661555 
L 150.36108 197.661555 
L 152.210511 197.380844 
L 154.059943 197.347819 
L 159.608239 196.968033 
L 176.253125 196.885471 
L 178.102557 196.687322 
L 179.951989 196.60476 
L 181.80142 196.19195 
L 192.898011 196.158925 
L 196.596875 195.746115 
L 207.693466 195.729603 
L 209.542898 195.597503 
L 224.338352 195.531454 
L 226.187784 193.665552 
L 228.037216 192.476658 
L 235.434943 192.443633 
L 246.531534 192.245484 
L 253.929261 192.195947 
L 257.628125 192.195947 
L 259.477557 191.981286 
L 279.821307 191.618013 
L 281.670739 191.238228 
L 287.219034 191.139153 
L 326.057102 190.825417 
L 327.906534 190.660293 
L 366.744602 190.610756 
L 368.594034 190.330045 
L 394.48608 190.230971 
L 396.335511 190.065847 
L 405.58267 190.016309 
L 412.980398 189.768623 
L 433.324148 189.702574 
L 437.023011 189.620011 
L 438.872443 189.603499 
L 440.721875 189.4714 
L 451.818466 189.40535 
L 455.51733 189.867698 
L 455.51733 189.867698 
" clip-path="url(#pe4fb59d9eb)" style="fill: none; stroke: #004488; stroke-width: 3; stroke-linecap: square"/>
   </g>
   <g id="line2d_29">
    <path d="M 100.42642 218.88 
L 102.275852 163.266207 
L 104.125284 147.761055 
L 105.974716 142.592671 
L 107.824148 134.996963 
L 109.67358 132.817325 
L 111.523011 131.265158 
L 113.372443 129.267157 
L 115.221875 124.429021 
L 117.071307 118.814802 
L 118.920739 115.908618 
L 120.77017 108.494547 
L 122.619602 106.843306 
L 124.469034 102.500542 
L 126.318466 100.419979 
L 128.167898 97.216571 
L 130.01733 94.409462 
L 131.866761 92.527047 
L 133.716193 91.750964 
L 135.565625 91.536303 
L 137.415057 89.059441 
L 139.264489 88.068697 
L 141.11392 87.292614 
L 142.963352 82.801238 
L 144.812784 79.977617 
L 146.662216 77.616342 
L 148.511648 73.950587 
L 150.36108 72.992868 
L 152.210511 72.348884 
L 154.059943 69.954584 
L 155.909375 67.279574 
L 157.758807 65.909044 
L 159.608239 59.171981 
L 161.45767 57.10793 
L 163.307102 52.418406 
L 165.156534 51.229513 
L 167.005966 50.32133 
L 168.855398 49.099412 
L 170.70483 48.653577 
L 172.554261 47.993081 
L 174.403693 46.936286 
L 176.253125 46.143691 
L 179.951989 45.499707 
L 181.80142 45.119921 
L 183.650852 44.541987 
L 187.349716 43.650317 
L 191.04858 42.593523 
L 192.898011 42.494448 
L 196.596875 40.942282 
L 198.446307 40.79367 
L 200.295739 40.760645 
L 202.14517 40.595521 
L 203.994602 40.232248 
L 207.693466 40.215736 
L 209.542898 39.918513 
L 211.39233 39.406628 
L 213.241761 39.208479 
L 216.940625 39.109405 
L 222.48892 37.937024 
L 226.187784 37.903999 
L 231.73608 37.458164 
L 237.284375 37.22699 
L 239.133807 36.500444 
L 240.983239 36.120659 
L 242.83267 35.872972 
L 244.682102 35.806923 
L 246.531534 35.509699 
L 248.380966 35.03084 
L 257.628125 34.766641 
L 259.477557 34.651054 
L 261.326989 34.41988 
L 263.17642 34.386856 
L 265.025852 33.544723 
L 270.574148 32.620028 
L 272.42358 32.454904 
L 276.122443 32.454904 
L 277.971875 31.860457 
L 279.821307 31.513696 
L 305.713352 30.78715 
L 307.562784 29.978042 
L 313.11108 29.911993 
L 314.960511 29.697331 
L 316.809943 29.697331 
L 318.659375 29.532207 
L 329.755966 29.284521 
L 333.45483 29.152422 
L 335.304261 29.119397 
L 340.852557 28.095628 
L 344.55142 27.798404 
L 346.400852 27.501181 
L 350.099716 27.402107 
L 351.949148 27.402107 
L 353.79858 26.114139 
L 355.648011 25.899477 
L 357.497443 25.899477 
L 361.196307 25.486667 
L 363.045739 25.404105 
L 364.89517 24.677559 
L 387.088352 24.396848 
L 388.937784 24.033575 
L 390.787216 23.951013 
L 392.636648 23.637277 
L 401.883807 23.125393 
L 407.432102 22.795145 
L 424.076989 22.464896 
L 425.92642 22.316285 
L 427.775852 22.019061 
L 429.625284 21.903474 
L 435.17358 21.837425 
L 440.721875 21.771375 
L 442.571307 21.358565 
L 444.420739 22.34931 
L 446.27017 23.472153 
L 448.119602 26.857197 
L 448.119602 26.857197 
" clip-path="url(#pe4fb59d9eb)" style="fill: none; stroke: #6699cc; stroke-width: 3; stroke-linecap: square"/>
   </g>
   <g id="line2d_30">
    <path d="M 100.42642 218.88 
L 102.275852 184.170917 
L 104.125284 172.909454 
L 105.974716 170.515154 
L 107.824148 167.113598 
L 109.67358 165.363283 
L 111.523011 163.348769 
L 113.372443 162.110338 
L 115.221875 160.393048 
L 117.071307 160.393048 
L 118.920739 160.178386 
L 120.77017 158.428071 
L 137.415057 158.345509 
L 144.812784 158.246435 
L 163.307102 158.130848 
L 165.156534 156.974979 
L 167.005966 156.628219 
L 170.70483 154.745804 
L 172.554261 153.788084 
L 176.253125 152.516629 
L 178.102557 151.674496 
L 179.951989 151.509372 
L 181.80142 150.617702 
L 183.650852 149.874643 
L 185.500284 149.362759 
L 187.349716 148.504113 
L 189.199148 148.289452 
L 207.693466 148.256427 
L 209.542898 148.157353 
L 211.39233 147.430807 
L 224.338352 147.331732 
L 229.886648 147.24917 
L 231.73608 147.133583 
L 233.585511 146.258426 
L 235.434943 145.994227 
L 237.284375 144.854871 
L 239.133807 144.821846 
L 240.983239 144.326474 
L 242.83267 144.078788 
L 246.531534 143.847614 
L 248.380966 143.13758 
L 250.230398 143.071531 
L 252.07983 142.757795 
L 255.778693 142.444059 
L 257.628125 141.965199 
L 261.326989 141.271678 
L 266.875284 141.00748 
L 268.724716 140.396521 
L 272.42358 139.5709 
L 274.273011 139.521363 
L 276.122443 139.125065 
L 277.971875 138.530618 
L 279.821307 138.514106 
L 281.670739 136.813328 
L 283.52017 135.921658 
L 285.369602 135.492335 
L 287.219034 134.584153 
L 289.068466 134.171342 
L 292.76733 134.072268 
L 296.466193 133.989706 
L 300.165057 132.222878 
L 302.014489 131.82658 
L 303.86392 131.215621 
L 305.713352 130.984448 
L 307.562784 130.340464 
L 309.412216 129.993703 
L 311.261648 129.052496 
L 313.11108 128.590148 
L 314.960511 123.438277 
L 316.809943 122.43102 
L 318.659375 122.100772 
L 320.508807 122.084259 
L 322.358239 121.53935 
L 324.20767 121.423763 
L 326.057102 121.176077 
L 331.605398 121.126539 
L 342.701989 121.126539 
L 344.55142 120.928391 
L 346.400852 120.614655 
L 348.250284 119.409249 
L 350.099716 119.392737 
L 357.497443 118.79829 
L 359.346875 118.187331 
L 361.196307 118.071744 
L 363.045739 117.609396 
L 364.89517 117.543347 
L 366.744602 116.172817 
L 368.594034 115.842569 
L 372.292898 114.802287 
L 390.787216 114.703212 
L 392.636648 113.101509 
L 394.48608 111.846566 
L 396.335511 110.327424 
L 398.184943 107.42124 
L 401.883807 106.380958 
L 403.733239 105.175552 
L 405.58267 102.764741 
L 407.432102 100.882326 
L 409.281534 99.924606 
L 411.130966 99.412722 
L 412.980398 97.877068 
L 416.679261 97.018422 
L 418.528693 94.690173 
L 422.227557 93.897577 
L 424.076989 92.708684 
L 427.775852 92.213311 
L 429.625284 91.750964 
L 431.474716 91.65189 
L 433.324148 91.239079 
L 435.17358 90.611608 
L 437.023011 90.496021 
L 438.872443 87.771474 
L 440.721875 87.226564 
L 442.571307 86.500018 
L 444.420739 86.186282 
L 446.27017 85.75696 
L 448.119602 85.62486 
L 449.969034 66.437441 
L 449.969034 66.437441 
" clip-path="url(#pe4fb59d9eb)" style="fill: none; stroke-dasharray: 3,4.95; stroke-dashoffset: 0; stroke: #808080; stroke-width: 3"/>
   </g>
   <g id="patch_3">
    <path d="M 82.671875 228.96 
L 82.671875 7.2 
" style="fill: none; stroke: #000000; stroke-width: 0.8; stroke-linejoin: miter; stroke-linecap: square"/>
   </g>
   <g id="patch_4">
    <path d="M 473.271875 228.96 
L 473.271875 7.2 
" style="fill: none; stroke: #000000; stroke-width: 0.8; stroke-linejoin: miter; stroke-linecap: square"/>
   </g>
   <g id="patch_5">
    <path d="M 82.671875 228.96 
L 473.271875 228.96 
" style="fill: none; stroke: #000000; stroke-width: 0.8; stroke-linejoin: miter; stroke-linecap: square"/>
   </g>
   <g id="patch_6">
    <path d="M 82.671875 7.2 
L 473.271875 7.2 
" style="fill: none; stroke: #000000; stroke-width: 0.8; stroke-linejoin: miter; stroke-linecap: square"/>
   </g>
   <g id="legend_1">
    <g id="patch_7">
     <path d="M 298.871875 143.119062 
L 466.271875 143.119062 
Q 468.271875 143.119062 468.271875 141.119062 
L 468.271875 95.040937 
Q 468.271875 93.040937 466.271875 93.040937 
L 298.871875 93.040937 
Q 296.871875 93.040937 296.871875 95.040937 
L 296.871875 141.119062 
Q 296.871875 143.119062 298.871875 143.119062 
z
" style="fill: #ffffff; opacity: 0.8; stroke: #cccccc; stroke-linejoin: miter"/>
    </g>
    <g id="line2d_31">
     <path d="M 300.871875 101.840937 
L 310.871875 101.840937 
L 320.871875 101.840937 
" style="fill: none; stroke: #994455; stroke-width: 3; stroke-linecap: square"/>
    </g>
    <g id="text_15">
     <!-- $symcts$ -->
     <g transform="translate(328.871875 105.340937) scale(0.1 -0.1)">
      <defs>
       <path id="DejaVuSans-Oblique-73" d="M 3200 3397 
L 3091 2853 
Q 2863 2978 2609 3040 
Q 2356 3103 2088 3103 
Q 1634 3103 1373 2948 
Q 1113 2794 1113 2528 
Q 1113 2219 1719 2053 
Q 1766 2041 1788 2034 
L 1972 1978 
Q 2547 1819 2739 1644 
Q 2931 1469 2931 1166 
Q 2931 609 2489 259 
Q 2047 -91 1331 -91 
Q 1053 -91 747 -37 
Q 441 16 72 128 
L 184 722 
Q 500 559 806 475 
Q 1113 391 1394 391 
Q 1816 391 2080 572 
Q 2344 753 2344 1031 
Q 2344 1331 1650 1516 
L 1591 1531 
L 1394 1581 
Q 956 1697 753 1886 
Q 550 2075 550 2369 
Q 550 2928 970 3256 
Q 1391 3584 2113 3584 
Q 2397 3584 2667 3537 
Q 2938 3491 3200 3397 
z
" transform="scale(0.015625)"/>
       <path id="DejaVuSans-Oblique-79" d="M 1588 -325 
Q 1188 -997 936 -1164 
Q 684 -1331 294 -1331 
L -159 -1331 
L -63 -850 
L 269 -850 
Q 509 -850 678 -719 
Q 847 -588 1056 -206 
L 1234 128 
L 459 3500 
L 1069 3500 
L 1650 819 
L 3256 3500 
L 3859 3500 
L 1588 -325 
z
" transform="scale(0.015625)"/>
       <path id="DejaVuSans-Oblique-6d" d="M 5747 2113 
L 5338 0 
L 4763 0 
L 5166 2094 
Q 5191 2228 5203 2325 
Q 5216 2422 5216 2491 
Q 5216 2772 5059 2928 
Q 4903 3084 4622 3084 
Q 4203 3084 3875 2770 
Q 3547 2456 3450 1953 
L 3066 0 
L 2491 0 
L 2900 2094 
Q 2925 2209 2937 2307 
Q 2950 2406 2950 2484 
Q 2950 2769 2794 2926 
Q 2638 3084 2363 3084 
Q 1938 3084 1609 2770 
Q 1281 2456 1184 1953 
L 800 0 
L 225 0 
L 909 3500 
L 1484 3500 
L 1375 2956 
Q 1609 3263 1923 3423 
Q 2238 3584 2597 3584 
Q 2978 3584 3223 3384 
Q 3469 3184 3519 2828 
Q 3781 3197 4126 3390 
Q 4472 3584 4856 3584 
Q 5306 3584 5551 3325 
Q 5797 3066 5797 2591 
Q 5797 2488 5784 2364 
Q 5772 2241 5747 2113 
z
" transform="scale(0.015625)"/>
       <path id="DejaVuSans-Oblique-63" d="M 3431 3366 
L 3316 2797 
Q 3109 2947 2876 3022 
Q 2644 3097 2394 3097 
Q 2119 3097 1870 3000 
Q 1622 2903 1453 2725 
Q 1184 2453 1037 2087 
Q 891 1722 891 1331 
Q 891 859 1127 628 
Q 1363 397 1844 397 
Q 2081 397 2348 469 
Q 2616 541 2906 684 
L 2797 116 
Q 2547 13 2283 -39 
Q 2019 -91 1741 -91 
Q 1044 -91 669 257 
Q 294 606 294 1253 
Q 294 1797 489 2255 
Q 684 2713 1069 3078 
Q 1331 3328 1684 3456 
Q 2038 3584 2456 3584 
Q 2700 3584 2940 3529 
Q 3181 3475 3431 3366 
z
" transform="scale(0.015625)"/>
       <path id="DejaVuSans-Oblique-74" d="M 2706 3500 
L 2619 3053 
L 1472 3053 
L 1100 1153 
Q 1081 1047 1072 975 
Q 1063 903 1063 863 
Q 1063 663 1183 572 
Q 1303 481 1569 481 
L 2150 481 
L 2053 0 
L 1503 0 
Q 991 0 739 200 
Q 488 400 488 806 
Q 488 878 497 964 
Q 506 1050 525 1153 
L 897 3053 
L 409 3053 
L 500 3500 
L 978 3500 
L 1172 4494 
L 1747 4494 
L 1556 3500 
L 2706 3500 
z
" transform="scale(0.015625)"/>
      </defs>
      <use xlink:href="#DejaVuSans-Oblique-73" transform="translate(0 0.78125)"/>
      <use xlink:href="#DejaVuSans-Oblique-79" transform="translate(52.099609 0.78125)"/>
      <use xlink:href="#DejaVuSans-Oblique-6d" transform="translate(111.279297 0.78125)"/>
      <use xlink:href="#DejaVuSans-Oblique-63" transform="translate(208.691406 0.78125)"/>
      <use xlink:href="#DejaVuSans-Oblique-74" transform="translate(263.671875 0.78125)"/>
      <use xlink:href="#DejaVuSans-Oblique-73" transform="translate(302.880859 0.78125)"/>
     </g>
    </g>
    <g id="line2d_32">
     <path d="M 300.871875 117.240938 
L 310.871875 117.240938 
L 320.871875 117.240938 
" style="fill: none; stroke: #ee99aa; stroke-width: 3; stroke-linecap: square"/>
    </g>
    <g id="text_16">
     <!-- $symcts^{+}$ -->
     <g transform="translate(328.871875 120.740938) scale(0.1 -0.1)">
      <defs>
       <path id="DejaVuSans-2b" d="M 2944 4013 
L 2944 2272 
L 4684 2272 
L 4684 1741 
L 2944 1741 
L 2944 0 
L 2419 0 
L 2419 1741 
L 678 1741 
L 678 2272 
L 2419 2272 
L 2419 4013 
L 2944 4013 
z
" transform="scale(0.015625)"/>
      </defs>
      <use xlink:href="#DejaVuSans-Oblique-73" transform="translate(0 0.826562)"/>
      <use xlink:href="#DejaVuSans-Oblique-79" transform="translate(52.099609 0.826562)"/>
      <use xlink:href="#DejaVuSans-Oblique-6d" transform="translate(111.279297 0.826562)"/>
      <use xlink:href="#DejaVuSans-Oblique-63" transform="translate(208.691406 0.826562)"/>
      <use xlink:href="#DejaVuSans-Oblique-74" transform="translate(263.671875 0.826562)"/>
      <use xlink:href="#DejaVuSans-Oblique-73" transform="translate(302.880859 0.826562)"/>
      <use xlink:href="#DejaVuSans-2b" transform="translate(359.630365 39.107812) scale(0.7)"/>
     </g>
    </g>
    <g id="line2d_33">
     <path d="M 300.871875 131.939375 
L 310.871875 131.939375 
L 320.871875 131.939375 
" style="fill: none; stroke: #004488; stroke-width: 3; stroke-linecap: square"/>
    </g>
    <g id="text_17">
     <!-- $symcts_{Q}$ -->
     <g transform="translate(328.871875 135.439375) scale(0.1 -0.1)">
      <defs>
       <path id="DejaVuSans-Oblique-51" d="M 2309 -84 
Q 2275 -88 2237 -89 
Q 2200 -91 2125 -91 
Q 1250 -91 756 411 
Q 263 913 263 1797 
Q 263 2319 452 2844 
Q 641 3369 978 3788 
Q 1369 4269 1858 4509 
Q 2347 4750 2938 4750 
Q 3794 4750 4287 4245 
Q 4781 3741 4781 2869 
Q 4781 1928 4265 1147 
Q 3750 366 2919 44 
L 3553 -825 
L 2847 -825 
L 2309 -84 
z
M 2919 4238 
Q 2400 4238 2003 3986 
Q 1606 3734 1313 3219 
Q 1125 2891 1026 2522 
Q 928 2153 928 1778 
Q 928 1128 1239 775 
Q 1550 422 2119 422 
Q 2631 422 3032 676 
Q 3434 931 3719 1434 
Q 3909 1772 4009 2142 
Q 4109 2513 4109 2881 
Q 4109 3528 3796 3883 
Q 3484 4238 2919 4238 
z
" transform="scale(0.015625)"/>
      </defs>
      <use xlink:href="#DejaVuSans-Oblique-73" transform="translate(0 0.78125)"/>
      <use xlink:href="#DejaVuSans-Oblique-79" transform="translate(52.099609 0.78125)"/>
      <use xlink:href="#DejaVuSans-Oblique-6d" transform="translate(111.279297 0.78125)"/>
      <use xlink:href="#DejaVuSans-Oblique-63" transform="translate(208.691406 0.78125)"/>
      <use xlink:href="#DejaVuSans-Oblique-74" transform="translate(263.671875 0.78125)"/>
      <use xlink:href="#DejaVuSans-Oblique-73" transform="translate(302.880859 0.78125)"/>
      <use xlink:href="#DejaVuSans-Oblique-51" transform="translate(354.980469 -15.625) scale(0.7)"/>
     </g>
    </g>
    <g id="line2d_34">
     <path d="M 391.071875 101.840937 
L 401.071875 101.840937 
L 411.071875 101.840937 
" style="fill: none; stroke: #6699cc; stroke-width: 3; stroke-linecap: square"/>
    </g>
    <g id="text_18">
     <!-- $symcts_{Q}^{+}$ -->
     <g transform="translate(419.071875 105.340937) scale(0.1 -0.1)">
      <use xlink:href="#DejaVuSans-Oblique-73" transform="translate(0 0.826562)"/>
      <use xlink:href="#DejaVuSans-Oblique-79" transform="translate(52.099609 0.826562)"/>
      <use xlink:href="#DejaVuSans-Oblique-6d" transform="translate(111.279297 0.826562)"/>
      <use xlink:href="#DejaVuSans-Oblique-63" transform="translate(208.691406 0.826562)"/>
      <use xlink:href="#DejaVuSans-Oblique-74" transform="translate(263.671875 0.826562)"/>
      <use xlink:href="#DejaVuSans-Oblique-73" transform="translate(302.880859 0.826562)"/>
      <use xlink:href="#DejaVuSans-2b" transform="translate(359.630365 39.107813) scale(0.7)"/>
      <use xlink:href="#DejaVuSans-Oblique-51" transform="translate(354.980469 -26.517188) scale(0.7)"/>
     </g>
    </g>
    <g id="line2d_35">
     <path d="M 391.071875 118.139375 
L 401.071875 118.139375 
L 411.071875 118.139375 
" style="fill: none; stroke-dasharray: 3,4.95; stroke-dashoffset: 0; stroke: #ddaa33; stroke-width: 3"/>
    </g>
    <g id="text_19">
     <!-- $afl$++ -->
     <g transform="translate(419.071875 121.639375) scale(0.1 -0.1)">
      <defs>
       <path id="DejaVuSans-Oblique-61" d="M 3438 1997 
L 3047 0 
L 2472 0 
L 2578 531 
Q 2325 219 2001 64 
Q 1678 -91 1281 -91 
Q 834 -91 548 182 
Q 263 456 263 884 
Q 263 1497 752 1853 
Q 1241 2209 2100 2209 
L 2900 2209 
L 2931 2363 
Q 2938 2388 2941 2417 
Q 2944 2447 2944 2509 
Q 2944 2788 2717 2942 
Q 2491 3097 2081 3097 
Q 1800 3097 1504 3025 
Q 1209 2953 897 2809 
L 997 3341 
Q 1322 3463 1633 3523 
Q 1944 3584 2234 3584 
Q 2853 3584 3176 3315 
Q 3500 3047 3500 2534 
Q 3500 2431 3484 2292 
Q 3469 2153 3438 1997 
z
M 2816 1759 
L 2241 1759 
Q 1534 1759 1195 1570 
Q 856 1381 856 984 
Q 856 709 1029 553 
Q 1203 397 1509 397 
Q 1978 397 2328 733 
Q 2678 1069 2791 1631 
L 2816 1759 
z
" transform="scale(0.015625)"/>
       <path id="DejaVuSans-Oblique-66" d="M 3059 4863 
L 2969 4384 
L 2419 4384 
Q 2106 4384 1964 4261 
Q 1822 4138 1753 3809 
L 1691 3500 
L 2638 3500 
L 2553 3053 
L 1606 3053 
L 1013 0 
L 434 0 
L 1031 3053 
L 481 3053 
L 563 3500 
L 1113 3500 
L 1159 3744 
Q 1278 4363 1576 4613 
Q 1875 4863 2516 4863 
L 3059 4863 
z
" transform="scale(0.015625)"/>
       <path id="DejaVuSans-Oblique-6c" d="M 1172 4863 
L 1747 4863 
L 800 0 
L 225 0 
L 1172 4863 
z
" transform="scale(0.015625)"/>
      </defs>
      <use xlink:href="#DejaVuSans-Oblique-61" transform="translate(0 0.015625)"/>
      <use xlink:href="#DejaVuSans-Oblique-66" transform="translate(61.279297 0.015625)"/>
      <use xlink:href="#DejaVuSans-Oblique-6c" transform="translate(96.484375 0.015625)"/>
      <use xlink:href="#DejaVuSans-2b" transform="translate(124.267578 0.015625)"/>
      <use xlink:href="#DejaVuSans-2b" transform="translate(208.056641 0.015625)"/>
     </g>
    </g>
    <g id="line2d_36">
     <path d="M 391.071875 133.519063 
L 401.071875 133.519063 
L 411.071875 133.519063 
" style="fill: none; stroke-dasharray: 3,4.95; stroke-dashoffset: 0; stroke: #808080; stroke-width: 3"/>
    </g>
    <g id="text_20">
     <!-- $symsan^{+}$ -->
     <g transform="translate(419.071875 137.019063) scale(0.1 -0.1)">
      <defs>
       <path id="DejaVuSans-Oblique-6e" d="M 3566 2113 
L 3156 0 
L 2578 0 
L 2988 2091 
Q 3016 2238 3031 2350 
Q 3047 2463 3047 2528 
Q 3047 2791 2881 2937 
Q 2716 3084 2419 3084 
Q 1956 3084 1622 2776 
Q 1288 2469 1184 1941 
L 800 0 
L 225 0 
L 903 3500 
L 1478 3500 
L 1363 2950 
Q 1603 3253 1940 3418 
Q 2278 3584 2650 3584 
Q 3113 3584 3367 3334 
Q 3622 3084 3622 2631 
Q 3622 2519 3608 2391 
Q 3594 2263 3566 2113 
z
" transform="scale(0.015625)"/>
      </defs>
      <use xlink:href="#DejaVuSans-Oblique-73" transform="translate(0 0.826562)"/>
      <use xlink:href="#DejaVuSans-Oblique-79" transform="translate(52.099609 0.826562)"/>
      <use xlink:href="#DejaVuSans-Oblique-6d" transform="translate(111.279297 0.826562)"/>
      <use xlink:href="#DejaVuSans-Oblique-73" transform="translate(208.691406 0.826562)"/>
      <use xlink:href="#DejaVuSans-Oblique-61" transform="translate(260.791016 0.826562)"/>
      <use xlink:href="#DejaVuSans-Oblique-6e" transform="translate(322.070312 0.826562)"/>
      <use xlink:href="#DejaVuSans-2b" transform="translate(390.099115 39.107812) scale(0.7)"/>
     </g>
    </g>
   </g>
  </g>
 </g>
 <defs>
  <clipPath id="pe4fb59d9eb">
   <rect x="82.671875" y="7.2" width="390.6" height="221.76"/>
  </clipPath>
 </defs>
</svg>
