<svg xmlns="http://www.w3.org/2000/svg" xmlns:xlink="http://www.w3.org/1999/xlink" width="2380" height="1080.37"><rect width="2380" height="1080.37" rx="5" ry="5" class="a"/><svg y="0%" x="0%"><circle cx="20" cy="20" r="6" fill="#ff5f58"/><circle cx="40" cy="20" r="6" fill="#ffbd2e"/><circle cx="60" cy="20" r="6" fill="#18c132"/></svg><svg height="1020.37" viewBox="0 0 234 102.037" width="2340" x="15" xmlns="http://www.w3.org/2000/svg" xmlns:xlink="http://www.w3.org/1999/xlink" y="50"><style>@keyframes i{0%{transform:translateX(0)}.06%{transform:translateX(-234px)}3.84%{transform:translateX(-468px)}6.58%{transform:translateX(-702px)}9.96%{transform:translateX(-936px)}9.98%{transform:translateX(-1170px)}72.39%{transform:translateX(-1404px)}72.65%{transform:translateX(-2106px)}88.93%{transform:translateX(-2574px)}89.18%{transform:translateX(-3276px)}90.28%{transform:translateX(-3510px)}to{transform:translateX(-3744px)}}.a{fill:#282d35}.f{fill:#b9c0cb;white-space:pre}</style><g font-family="Monaco,Consolas,Menlo,'Bitstream Vera Sans Mono','Powerline Symbols',monospace" font-size="1.67"><defs><symbol id="1"><text y="1.67" class="f">$</text></symbol><symbol id="2"><text y="1.67" class="f">$</text><text x="2.004" y="1.67" class="f">python3</text><text x="10.02" y="1.67" class="f">tests/test_core.py</text><text x="29.058" y="1.67" class="f">#</text><text x="31.062" y="1.67" class="f">test</text><text x="36.072" y="1.67" class="f">hamlin</text><text x="43.086" y="1.67" class="f">end-to-end</text></symbol><symbol id="3"><text y="1.67" class="f">DEBUG</text><text x="6.012" y="1.67" class="f">|</text><text x="8.016" y="1.67" class="f">2024-04-19</text><text x="19.038" y="1.67" class="f">18:59:07,219</text><text x="32.064" y="1.67" class="f">|</text><text x="34.068" y="1.67" class="f">patchery</text><text x="43.086" y="1.67" class="f">|</text><text x="45.09" y="1.67" class="f">Generating</text><text x="56.112" y="1.67" class="f">patch</text><text x="62.124" y="1.67" class="f">1/1...</text></symbol><symbol id="4"><text y="1.67" class="f">DEBUG</text><text x="6.012" y="1.67" class="f">|</text><text x="8.016" y="1.67" class="f">2024-04-19</text><text x="19.038" y="1.67" class="f">18:59:07,231</text><text x="32.064" y="1.67" class="f">|</text><text x="34.068" y="1.67" class="f">patchery.generator.generator</text><text x="63.126" y="1.67" class="f">|</text><text x="65.13" y="1.67" class="f">💭</text><text x="68.136" y="1.67" class="f">Prompting</text><text x="78.156" y="1.67" class="f">with</text><text x="83.166" y="1.67" class="f">prompt</text><text x="90.18" y="1.67" class="f">len=1432</text></symbol><symbol id="5"><text y="1.67" class="f">DEBUG</text><text x="6.012" y="1.67" class="f">|</text><text x="8.016" y="1.67" class="f">2024-04-19</text><text x="19.038" y="1.67" class="f">18:59:34,617</text><text x="32.064" y="1.67" class="f">|</text><text x="34.068" y="1.67" class="f">patchery.generator.generator</text><text x="63.126" y="1.67" class="f">|</text><text x="65.13" y="1.67" class="f">💭</text><text x="68.136" y="1.67" class="f">Proposed</text><text x="77.154" y="1.67" class="f">patch:</text><text x="84.168" y="1.67" class="f">&lt;Patch:</text><text x="92.184" y="1.67" class="f">T156F04C0140F12425EE17605C6AA7121AA124208752485F157BEF52885FB4867C7B0D52&gt;</text></symbol><symbol id="6"><text y="1.67" class="f">DEBUG</text><text x="6.012" y="1.67" class="f">|</text><text x="8.016" y="1.67" class="f">2024-04-19</text><text x="19.038" y="1.67" class="f">18:59:34,727</text><text x="32.064" y="1.67" class="f">|</text><text x="34.068" y="1.67" class="f">patchery.generator.generator</text><text x="63.126" y="1.67" class="f">|</text><text x="65.13" y="1.67" class="f">✅</text><text x="68.136" y="1.67" class="f">Diff</text><text x="73.146" y="1.67" class="f">successfully</text><text x="86.172" y="1.67" class="f">generated:</text></symbol><symbol id="7"><text y="1.67" class="f">diff</text><text x="5.01" y="1.67" class="f">--git</text><text x="11.022" y="1.67" class="f">a/src/deflate/array_history.cpp</text><text x="43.086" y="1.67" class="f">b/src/deflate/array_history.cpp</text></symbol><symbol id="8"><text y="1.67" class="f">index</text><text x="6.012" y="1.67" class="f">557368c..01aaa62</text><text x="23.046" y="1.67" class="f">100755</text></symbol><symbol id="9"><text y="1.67" class="f">---</text><text x="4.008" y="1.67" class="f">a/src/deflate/array_history.cpp</text></symbol><symbol id="10"><text y="1.67" class="f">+++</text><text x="4.008" y="1.67" class="f">b/src/deflate/array_history.cpp</text></symbol><symbol id="11"><text y="1.67" class="f">@@</text><text x="3.006" y="1.67" class="f">-24,6</text><text x="9.018" y="1.67" class="f">+24,9</text><text x="15.03" y="1.67" class="f">@@</text><text x="18.036" y="1.67" class="f">std::vector&lt;byte&gt;</text><text x="36.072" y="1.67" class="f">ArrayHistory::copy(uint32_t</text><text x="64.128" y="1.67" class="f">dist,</text><text x="70.14" y="1.67" class="f">uint16_t</text><text x="79.158" y="1.67" class="f">count)</text><text x="86.172" y="1.67" class="f">{</text></symbol><symbol id="12"><text x="5.01" y="1.67" class="f">std::ptrdiff_t</text><text x="20.04" y="1.67" class="f">pos</text><text x="24.048" y="1.67" class="f">=</text><text x="26.052" y="1.67" class="f">n</text><text x="28.056" y="1.67" class="f">+</text><text x="30.06" y="1.67" class="f">start_cur;</text></symbol><symbol id="13"><text x="5.01" y="1.67" class="f">if</text><text x="8.016" y="1.67" class="f">(wrapped)</text><text x="18.036" y="1.67" class="f">{</text></symbol><symbol id="14"><text x="7.014" y="1.67" class="f">pos</text><text x="11.022" y="1.67" class="f">=</text><text x="13.026" y="1.67" class="f">pos</text><text x="17.034" y="1.67" class="f">%</text><text x="19.038" y="1.67" class="f">buf.size();</text></symbol><symbol id="15"><text y="1.67" class="f">+</text><text x="7.014" y="1.67" class="f">if</text><text x="10.02" y="1.67" class="f">(pos</text><text x="15.03" y="1.67" class="f">&lt;</text><text x="17.034" y="1.67" class="f">0)</text><text x="20.04" y="1.67" class="f">pos</text><text x="24.048" y="1.67" class="f">+=</text><text x="27.054" y="1.67" class="f">buf.size();</text><text x="39.078" y="1.67" class="f">//</text><text x="42.084" y="1.67" class="f">Ensure</text><text x="49.098" y="1.67" class="f">pos</text><text x="53.106" y="1.67" class="f">is</text><text x="56.112" y="1.67" class="f">non-negative</text></symbol><symbol id="16"><text y="1.67" class="f">+</text><text x="5.01" y="1.67" class="f">}</text><text x="7.014" y="1.67" class="f">else</text><text x="12.024" y="1.67" class="f">{</text></symbol><symbol id="17"><text y="1.67" class="f">+</text><text x="7.014" y="1.67" class="f">if</text><text x="10.02" y="1.67" class="f">(pos</text><text x="15.03" y="1.67" class="f">&lt;</text><text x="17.034" y="1.67" class="f">0</text><text x="19.038" y="1.67" class="f">||</text><text x="22.044" y="1.67" class="f">static_cast&lt;std::size_t&gt;(pos)</text><text x="52.104" y="1.67" class="f">&gt;=</text><text x="55.11" y="1.67" class="f">buf.size())</text><text x="67.134" y="1.67" class="f">break;</text><text x="74.148" y="1.67" class="f">//</text><text x="77.154" y="1.67" class="f">Prevent</text><text x="85.17" y="1.67" class="f">out-of-bounds</text><text x="99.198" y="1.67" class="f">access</text></symbol><symbol id="18"><text x="5.01" y="1.67" class="f">}</text></symbol><symbol id="19"><text x="5.01" y="1.67" class="f">byte</text><text x="10.02" y="1.67" class="f">b</text><text x="12.024" y="1.67" class="f">=</text><text x="14.028" y="1.67" class="f">buf[pos];</text></symbol><symbol id="20"><text x="5.01" y="1.67" class="f">append(b);</text></symbol><symbol id="21"><text y="1.67" class="f">DEBUG</text><text x="6.012" y="1.67" class="f">|</text><text x="8.016" y="1.67" class="f">2024-04-19</text><text x="19.038" y="1.67" class="f">18:59:34,728</text><text x="32.064" y="1.67" class="f">|</text><text x="34.068" y="1.67" class="f">patchery.verifier</text><text x="52.104" y="1.67" class="f">|</text><text x="54.108" y="1.67" class="f">❔</text><text x="56.112" y="1.67" class="f">Verifying</text><text x="66.132" y="1.67" class="f">&lt;Patch:</text><text x="74.148" y="1.67" class="f">T156F04C0140F12425EE17605C6AA7121AA124208752485F157BEF52885FB4867C7B0D52&gt;...</text></symbol><symbol id="22"><text y="1.67" class="f">DEBUG</text><text x="6.012" y="1.67" class="f">|</text><text x="8.016" y="1.67" class="f">2024-04-19</text><text x="19.038" y="1.67" class="f">18:59:34,728</text><text x="32.064" y="1.67" class="f">|</text><text x="34.068" y="1.67" class="f">patchery.verifier.static.compile_check</text><text x="73.146" y="1.67" class="f">|</text><text x="75.15" y="1.67" class="f">❔</text><text x="77.154" y="1.67" class="f">Checking</text><text x="86.172" y="1.67" class="f">if</text><text x="89.178" y="1.67" class="f">the</text><text x="93.186" y="1.67" class="f">patch</text><text x="99.198" y="1.67" class="f">compiles...</text></symbol><symbol id="23"><text y="1.67" class="f">DEBUG</text><text x="6.012" y="1.67" class="f">|</text><text x="8.016" y="1.67" class="f">2024-04-19</text><text x="19.038" y="1.67" class="f">18:59:41,875</text><text x="32.064" y="1.67" class="f">|</text><text x="34.068" y="1.67" class="f">patchery.verifier.static.compile_check</text><text x="73.146" y="1.67" class="f">|</text><text x="75.15" y="1.67" class="f">✅</text><text x="78.156" y="1.67" class="f">Compile</text><text x="86.172" y="1.67" class="f">check</text><text x="92.184" y="1.67" class="f">successful!</text></symbol><symbol id="24"><text y="1.67" class="f">DEBUG</text><text x="6.012" y="1.67" class="f">|</text><text x="8.016" y="1.67" class="f">2024-04-19</text><text x="19.038" y="1.67" class="f">18:59:41,875</text><text x="32.064" y="1.67" class="f">|</text><text x="34.068" y="1.67" class="f">patchery.verifier.dynamic.alert_elim_check</text><text x="77.154" y="1.67" class="f">|</text><text x="79.158" y="1.67" class="f">❔</text><text x="81.162" y="1.67" class="f">Checking</text><text x="90.18" y="1.67" class="f">if</text><text x="93.186" y="1.67" class="f">previous</text><text x="102.204" y="1.67" class="f">alerts</text><text x="109.218" y="1.67" class="f">have</text><text x="114.228" y="1.67" class="f">been</text><text x="119.238" y="1.67" class="f">eliminated...</text></symbol><symbol id="25"><text y="1.67" class="f">DEBUG</text><text x="6.012" y="1.67" class="f">|</text><text x="8.016" y="1.67" class="f">2024-04-19</text><text x="19.038" y="1.67" class="f">18:59:41,875</text><text x="32.064" y="1.67" class="f">|</text><text x="34.068" y="1.67" class="f">patchery.verifier.dynamic.alert_elim_check</text><text x="77.154" y="1.67" class="f">|</text><text x="79.158" y="1.67" class="f">❔</text><text x="81.162" y="1.67" class="f">Checking</text><text x="90.18" y="1.67" class="f">alerting</text><text x="99.198" y="1.67" class="f">input:</text><text x="106.212" y="1.67" class="f">&lt;ProgInput:</text><text x="118.236" y="1.67" class="f">T1E81199E2F280FC38C00280332B00202AC8322A2022A3000A2A20CC3208AAB0880A0BE2&gt;</text></symbol><symbol id="26"><text y="1.67" class="f">DEBUG</text><text x="6.012" y="1.67" class="f">|</text><text x="8.016" y="1.67" class="f">2024-04-19</text><text x="19.038" y="1.67" class="f">18:59:41,982</text><text x="32.064" y="1.67" class="f">|</text><text x="34.068" y="1.67" class="f">patchery.verifier.dynamic.alert_elim_check</text><text x="77.154" y="1.67" class="f">|</text><text x="79.158" y="1.67" class="f">✅</text><text x="82.164" y="1.67" class="f">All</text><text x="86.172" y="1.67" class="f">alerts</text><text x="93.186" y="1.67" class="f">have</text><text x="98.196" y="1.67" class="f">been</text><text x="103.206" y="1.67" class="f">eliminated!</text></symbol><symbol id="27"><text y="1.67" class="f">DEBUG</text><text x="6.012" y="1.67" class="f">|</text><text x="8.016" y="1.67" class="f">2024-04-19</text><text x="19.038" y="1.67" class="f">18:59:41,982</text><text x="32.064" y="1.67" class="f">|</text><text x="34.068" y="1.67" class="f">patchery.verifier.dynamic.trace_inv_check</text><text x="76.152" y="1.67" class="f">|</text><text x="78.156" y="1.67" class="f">🟡</text><text x="82.164" y="1.67" class="f">No</text><text x="85.17" y="1.67" class="f">benign</text><text x="92.184" y="1.67" class="f">inputs</text><text x="99.198" y="1.67" class="f">found.</text><text x="106.212" y="1.67" class="f">Skipping</text><text x="115.23" y="1.67" class="f">trace</text><text x="121.242" y="1.67" class="f">invariant</text><text x="131.262" y="1.67" class="f">check...</text></symbol><symbol id="28"><text y="1.67" class="f">DEBUG</text><text x="6.012" y="1.67" class="f">|</text><text x="8.016" y="1.67" class="f">2024-04-19</text><text x="19.038" y="1.67" class="f">18:59:41,982</text><text x="32.064" y="1.67" class="f">|</text><text x="34.068" y="1.67" class="f">patchery.verifier.static.arwp_check</text><text x="70.14" y="1.67" class="f">|</text><text x="72.144" y="1.67" class="f">🟡</text><text x="76.152" y="1.67" class="f">No</text><text x="79.158" y="1.67" class="f">AWRP</text><text x="84.168" y="1.67" class="f">locations</text><text x="94.188" y="1.67" class="f">found.</text><text x="101.202" y="1.67" class="f">Skipping</text><text x="110.22" y="1.67" class="f">AWRP</text><text x="115.23" y="1.67" class="f">check...</text></symbol><symbol id="29"><text y="1.67" class="f">DEBUG</text><text x="6.012" y="1.67" class="f">|</text><text x="8.016" y="1.67" class="f">2024-04-19</text><text x="19.038" y="1.67" class="f">18:59:41,982</text><text x="32.064" y="1.67" class="f">|</text><text x="34.068" y="1.67" class="f">patchery.verifier</text><text x="52.104" y="1.67" class="f">|</text><text x="54.108" y="1.67" class="f">Patch</text><text x="60.12" y="1.67" class="f">&lt;Patch:</text><text x="68.136" y="1.67" class="f">T156F04C0140F12425EE17605C6AA7121AA124208752485F157BEF52885FB4867C7B0D52&gt;</text><text x="142.284" y="1.67" class="f">is</text><text x="145.29" y="1.67" class="f">VERIFIED!</text></symbol><symbol id="a"><path fill="transparent" d="M0 0h234v47H0z"/></symbol><symbol id="b"><path fill="#6f7683" d="M0 0h1.102v2.171H0z"/></symbol></defs><path class="a" d="M0 0h234v102.037H0z"/><g style="animation-duration:43.879809s;animation-iteration-count:infinite;animation-name:i;animation-timing-function:steps(1,end)"><svg width="3978"><svg><use xlink:href="#a"/><use xlink:href="#b" x="-.004"/></svg><svg x="234"><use xlink:href="#a"/><use xlink:href="#b" x="1.996"/><use xlink:href="#1"/></svg><svg x="468"><use xlink:href="#a"/><use xlink:href="#b" x="52.996"/><use xlink:href="#2"/></svg><svg x="702"><use xlink:href="#a"/><use xlink:href="#b" x="-.004" y="2.146"/><use xlink:href="#2"/></svg><svg x="936"><use xlink:href="#a"/><use xlink:href="#b" x="-.004" y="4.317"/><use xlink:href="#2"/><use xlink:href="#3" y="2.171"/></svg><svg x="1170"><use xlink:href="#a"/><use xlink:href="#b" x="-.004" y="6.488"/><use xlink:href="#2"/><use xlink:href="#3" y="2.171"/><use xlink:href="#4" y="4.342"/></svg><svg x="1404"><use xlink:href="#a"/><use xlink:href="#b" x="-.004" y="8.659"/><use xlink:href="#2"/><use xlink:href="#3" y="2.171"/><use xlink:href="#4" y="4.342"/><use xlink:href="#5" y="6.513"/></svg><svg x="1638"><use xlink:href="#a"/><use xlink:href="#b" x="-.004" y="43.395"/><use xlink:href="#2"/><use xlink:href="#3" y="2.171"/><use xlink:href="#4" y="4.342"/><use xlink:href="#5" y="6.513"/><use xlink:href="#6" y="8.684"/><use xlink:href="#7" y="10.855"/><use xlink:href="#8" y="13.026"/><use xlink:href="#9" y="15.197"/><use xlink:href="#10" y="17.368"/><use xlink:href="#11" y="19.539"/><use xlink:href="#12" y="21.71"/><use xlink:href="#13" y="23.881"/><use xlink:href="#14" y="26.052"/><use xlink:href="#15" y="28.223"/><use xlink:href="#16" y="30.394"/><use xlink:href="#17" y="32.565"/><use xlink:href="#18" y="34.736"/><use xlink:href="#19" y="36.907"/><use xlink:href="#20" y="39.078"/></svg><svg x="1872"><use xlink:href="#a"/><use xlink:href="#b" x="-.004" y="45.566"/><use xlink:href="#2"/><use xlink:href="#3" y="2.171"/><use xlink:href="#4" y="4.342"/><use xlink:href="#5" y="6.513"/><use xlink:href="#6" y="8.684"/><use xlink:href="#7" y="10.855"/><use xlink:href="#8" y="13.026"/><use xlink:href="#9" y="15.197"/><use xlink:href="#10" y="17.368"/><use xlink:href="#11" y="19.539"/><use xlink:href="#12" y="21.71"/><use xlink:href="#13" y="23.881"/><use xlink:href="#14" y="26.052"/><use xlink:href="#15" y="28.223"/><use xlink:href="#16" y="30.394"/><use xlink:href="#17" y="32.565"/><use xlink:href="#18" y="34.736"/><use xlink:href="#19" y="36.907"/><use xlink:href="#20" y="39.078"/><use xlink:href="#21" y="43.42"/></svg><svg x="2106"><use xlink:href="#a"/><use xlink:href="#b" x="-.004" y="47.737"/><use xlink:href="#2"/><use xlink:href="#3" y="2.171"/><use xlink:href="#4" y="4.342"/><use xlink:href="#5" y="6.513"/><use xlink:href="#6" y="8.684"/><use xlink:href="#7" y="10.855"/><use xlink:href="#8" y="13.026"/><use xlink:href="#9" y="15.197"/><use xlink:href="#10" y="17.368"/><use xlink:href="#11" y="19.539"/><use xlink:href="#12" y="21.71"/><use xlink:href="#13" y="23.881"/><use xlink:href="#14" y="26.052"/><use xlink:href="#15" y="28.223"/><use xlink:href="#16" y="30.394"/><use xlink:href="#17" y="32.565"/><use xlink:href="#18" y="34.736"/><use xlink:href="#19" y="36.907"/><use xlink:href="#20" y="39.078"/><use xlink:href="#21" y="43.42"/><use xlink:href="#22" y="45.591"/></svg><svg x="2340"><use xlink:href="#a"/><use xlink:href="#b" x="-.004" y="49.908"/><use xlink:href="#2"/><use xlink:href="#3" y="2.171"/><use xlink:href="#4" y="4.342"/><use xlink:href="#5" y="6.513"/><use xlink:href="#6" y="8.684"/><use xlink:href="#7" y="10.855"/><use xlink:href="#8" y="13.026"/><use xlink:href="#9" y="15.197"/><use xlink:href="#10" y="17.368"/><use xlink:href="#11" y="19.539"/><use xlink:href="#12" y="21.71"/><use xlink:href="#13" y="23.881"/><use xlink:href="#14" y="26.052"/><use xlink:href="#15" y="28.223"/><use xlink:href="#16" y="30.394"/><use xlink:href="#17" y="32.565"/><use xlink:href="#18" y="34.736"/><use xlink:href="#19" y="36.907"/><use xlink:href="#20" y="39.078"/><use xlink:href="#21" y="43.42"/><use xlink:href="#22" y="45.591"/><use xlink:href="#23" y="47.762"/></svg><svg x="2574"><use xlink:href="#a"/><use xlink:href="#b" x="-.004" y="54.25"/><use xlink:href="#2"/><use xlink:href="#3" y="2.171"/><use xlink:href="#4" y="4.342"/><use xlink:href="#5" y="6.513"/><use xlink:href="#6" y="8.684"/><use xlink:href="#7" y="10.855"/><use xlink:href="#8" y="13.026"/><use xlink:href="#9" y="15.197"/><use xlink:href="#10" y="17.368"/><use xlink:href="#11" y="19.539"/><use xlink:href="#12" y="21.71"/><use xlink:href="#13" y="23.881"/><use xlink:href="#14" y="26.052"/><use xlink:href="#15" y="28.223"/><use xlink:href="#16" y="30.394"/><use xlink:href="#17" y="32.565"/><use xlink:href="#18" y="34.736"/><use xlink:href="#19" y="36.907"/><use xlink:href="#20" y="39.078"/><use xlink:href="#21" y="43.42"/><use xlink:href="#22" y="45.591"/><use xlink:href="#23" y="47.762"/><use xlink:href="#24" y="49.933"/><use xlink:href="#25" y="52.104"/></svg><svg x="2808"><use xlink:href="#a"/><use xlink:href="#b" x="-.004" y="56.421"/><use xlink:href="#2"/><use xlink:href="#3" y="2.171"/><use xlink:href="#4" y="4.342"/><use xlink:href="#5" y="6.513"/><use xlink:href="#6" y="8.684"/><use xlink:href="#7" y="10.855"/><use xlink:href="#8" y="13.026"/><use xlink:href="#9" y="15.197"/><use xlink:href="#10" y="17.368"/><use xlink:href="#11" y="19.539"/><use xlink:href="#12" y="21.71"/><use xlink:href="#13" y="23.881"/><use xlink:href="#14" y="26.052"/><use xlink:href="#15" y="28.223"/><use xlink:href="#16" y="30.394"/><use xlink:href="#17" y="32.565"/><use xlink:href="#18" y="34.736"/><use xlink:href="#19" y="36.907"/><use xlink:href="#20" y="39.078"/><use xlink:href="#21" y="43.42"/><use xlink:href="#22" y="45.591"/><use xlink:href="#23" y="47.762"/><use xlink:href="#24" y="49.933"/><use xlink:href="#25" y="52.104"/><use xlink:href="#26" y="54.275"/></svg><svg x="3042"><use xlink:href="#a"/><use xlink:href="#b" x="-.004" y="60.763"/><use xlink:href="#2"/><use xlink:href="#3" y="2.171"/><use xlink:href="#4" y="4.342"/><use xlink:href="#5" y="6.513"/><use xlink:href="#6" y="8.684"/><use xlink:href="#7" y="10.855"/><use xlink:href="#8" y="13.026"/><use xlink:href="#9" y="15.197"/><use xlink:href="#10" y="17.368"/><use xlink:href="#11" y="19.539"/><use xlink:href="#12" y="21.71"/><use xlink:href="#13" y="23.881"/><use xlink:href="#14" y="26.052"/><use xlink:href="#15" y="28.223"/><use xlink:href="#16" y="30.394"/><use xlink:href="#17" y="32.565"/><use xlink:href="#18" y="34.736"/><use xlink:href="#19" y="36.907"/><use xlink:href="#20" y="39.078"/><use xlink:href="#21" y="43.42"/><use xlink:href="#22" y="45.591"/><use xlink:href="#23" y="47.762"/><use xlink:href="#24" y="49.933"/><use xlink:href="#25" y="52.104"/><use xlink:href="#26" y="54.275"/><use xlink:href="#27" y="56.446"/><use xlink:href="#28" y="58.617"/></svg><svg x="3276"><use xlink:href="#a"/><use xlink:href="#b" x="-.004" y="62.934"/><use xlink:href="#2"/><use xlink:href="#3" y="2.171"/><use xlink:href="#4" y="4.342"/><use xlink:href="#5" y="6.513"/><use xlink:href="#6" y="8.684"/><use xlink:href="#7" y="10.855"/><use xlink:href="#8" y="13.026"/><use xlink:href="#9" y="15.197"/><use xlink:href="#10" y="17.368"/><use xlink:href="#11" y="19.539"/><use xlink:href="#12" y="21.71"/><use xlink:href="#13" y="23.881"/><use xlink:href="#14" y="26.052"/><use xlink:href="#15" y="28.223"/><use xlink:href="#16" y="30.394"/><use xlink:href="#17" y="32.565"/><use xlink:href="#18" y="34.736"/><use xlink:href="#19" y="36.907"/><use xlink:href="#20" y="39.078"/><use xlink:href="#21" y="43.42"/><use xlink:href="#22" y="45.591"/><use xlink:href="#23" y="47.762"/><use xlink:href="#24" y="49.933"/><use xlink:href="#25" y="52.104"/><use xlink:href="#26" y="54.275"/><use xlink:href="#27" y="56.446"/><use xlink:href="#28" y="58.617"/><use xlink:href="#29" y="60.788"/></svg><svg x="3510"><use xlink:href="#a"/><use xlink:href="#b" x="1.996" y="62.934"/><use xlink:href="#2"/><use xlink:href="#3" y="2.171"/><use xlink:href="#4" y="4.342"/><use xlink:href="#5" y="6.513"/><use xlink:href="#6" y="8.684"/><use xlink:href="#7" y="10.855"/><use xlink:href="#8" y="13.026"/><use xlink:href="#9" y="15.197"/><use xlink:href="#10" y="17.368"/><use xlink:href="#11" y="19.539"/><use xlink:href="#12" y="21.71"/><use xlink:href="#13" y="23.881"/><use xlink:href="#14" y="26.052"/><use xlink:href="#15" y="28.223"/><use xlink:href="#16" y="30.394"/><use xlink:href="#17" y="32.565"/><use xlink:href="#18" y="34.736"/><use xlink:href="#19" y="36.907"/><use xlink:href="#20" y="39.078"/><use xlink:href="#21" y="43.42"/><use xlink:href="#22" y="45.591"/><use xlink:href="#23" y="47.762"/><use xlink:href="#24" y="49.933"/><use xlink:href="#25" y="52.104"/><use xlink:href="#26" y="54.275"/><use xlink:href="#27" y="56.446"/><use xlink:href="#28" y="58.617"/><use xlink:href="#29" y="60.788"/><use xlink:href="#1" y="62.959"/></svg><svg x="3744"><use xlink:href="#a"/><use xlink:href="#b" x="-.004" y="65.105"/><use xlink:href="#2"/><use xlink:href="#3" y="2.171"/><use xlink:href="#4" y="4.342"/><use xlink:href="#5" y="6.513"/><use xlink:href="#6" y="8.684"/><use xlink:href="#7" y="10.855"/><use xlink:href="#8" y="13.026"/><use xlink:href="#9" y="15.197"/><use xlink:href="#10" y="17.368"/><use xlink:href="#11" y="19.539"/><use xlink:href="#12" y="21.71"/><use xlink:href="#13" y="23.881"/><use xlink:href="#14" y="26.052"/><use xlink:href="#15" y="28.223"/><use xlink:href="#16" y="30.394"/><use xlink:href="#17" y="32.565"/><use xlink:href="#18" y="34.736"/><use xlink:href="#19" y="36.907"/><use xlink:href="#20" y="39.078"/><use xlink:href="#21" y="43.42"/><use xlink:href="#22" y="45.591"/><use xlink:href="#23" y="47.762"/><use xlink:href="#24" y="49.933"/><use xlink:href="#25" y="52.104"/><use xlink:href="#26" y="54.275"/><use xlink:href="#27" y="56.446"/><use xlink:href="#28" y="58.617"/><use xlink:href="#29" y="60.788"/><use xlink:href="#1" y="62.959"/></svg></svg></g></g></svg></svg>