<?xml version="1.0" encoding="utf-8" standalone="no"?>
<!DOCTYPE svg PUBLIC "-//W3C//DTD SVG 1.1//EN"
  "http://www.w3.org/Graphics/SVG/1.1/DTD/svg11.dtd">
<svg xmlns:xlink="http://www.w3.org/1999/xlink" width="471.564375pt" height="276.194375pt" viewBox="0 0 471.564375 276.194375" xmlns="http://www.w3.org/2000/svg" version="1.1">
 <metadata>
  <rdf:RDF xmlns:dc="http://purl.org/dc/elements/1.1/" xmlns:cc="http://creativecommons.org/ns#" xmlns:rdf="http://www.w3.org/1999/02/22-rdf-syntax-ns#">
   <cc:Work>
    <dc:type rdf:resource="http://purl.org/dc/dcmitype/StillImage"/>
    <dc:date>2023-10-07T23:49:50.242920</dc:date>
    <dc:format>image/svg+xml</dc:format>
    <dc:creator>
     <cc:Agent>
      <dc:title>Matplotlib v3.7.1, https://matplotlib.org/</dc:title>
     </cc:Agent>
    </dc:creator>
   </cc:Work>
  </rdf:RDF>
 </metadata>
 <defs>
  <style type="text/css">*{stroke-linejoin: round; stroke-linecap: butt}</style>
 </defs>
 <g id="figure_1">
  <g id="patch_1">
   <path d="M 0 276.194375 
L 471.564375 276.194375 
L 471.564375 0 
L 0 0 
z
" style="fill: #ffffff"/>
  </g>
  <g id="axes_1">
   <g id="patch_2">
    <path d="M 73.764375 228.96 
L 464.364375 228.96 
L 464.364375 7.2 
L 73.764375 7.2 
z
" style="fill: #ffffff"/>
   </g>
   <g id="matplotlib.axis_1">
    <g id="xtick_1">
     <g id="line2d_1">
      <path d="M 91.51892 228.96 
L 91.51892 7.2 
" clip-path="url(#paf2e485e50)" style="fill: none; stroke: #b0b0b0; stroke-opacity: 0.3; stroke-width: 0.8; stroke-linecap: square"/>
     </g>
     <g id="line2d_2">
      <defs>
       <path id="mcf0843f628" d="M 0 0 
L 0 3.5 
" style="stroke: #000000; stroke-width: 0.8"/>
      </defs>
      <g>
       <use xlink:href="#mcf0843f628" x="91.51892" y="228.96" style="stroke: #000000; stroke-width: 0.8"/>
      </g>
     </g>
     <g id="text_1">
      <!-- 0h -->
      <g transform="translate(82.62892 246.597812) scale(0.14 -0.14)">
       <defs>
        <path id="DejaVuSans-30" d="M 2034 4250 
Q 1547 4250 1301 3770 
Q 1056 3291 1056 2328 
Q 1056 1369 1301 889 
Q 1547 409 2034 409 
Q 2525 409 2770 889 
Q 3016 1369 3016 2328 
Q 3016 3291 2770 3770 
Q 2525 4250 2034 4250 
z
M 2034 4750 
Q 2819 4750 3233 4129 
Q 3647 3509 3647 2328 
Q 3647 1150 3233 529 
Q 2819 -91 2034 -91 
Q 1250 -91 836 529 
Q 422 1150 422 2328 
Q 422 3509 836 4129 
Q 1250 4750 2034 4750 
z
" transform="scale(0.015625)"/>
        <path id="DejaVuSans-68" d="M 3513 2113 
L 3513 0 
L 2938 0 
L 2938 2094 
Q 2938 2591 2744 2837 
Q 2550 3084 2163 3084 
Q 1697 3084 1428 2787 
Q 1159 2491 1159 1978 
L 1159 0 
L 581 0 
L 581 4863 
L 1159 4863 
L 1159 2956 
Q 1366 3272 1645 3428 
Q 1925 3584 2291 3584 
Q 2894 3584 3203 3211 
Q 3513 2838 3513 2113 
z
" transform="scale(0.015625)"/>
       </defs>
       <use xlink:href="#DejaVuSans-30"/>
       <use xlink:href="#DejaVuSans-68" x="63.623047"/>
      </g>
     </g>
    </g>
    <g id="xtick_2">
     <g id="line2d_3">
      <path d="M 135.905284 228.96 
L 135.905284 7.2 
" clip-path="url(#paf2e485e50)" style="fill: none; stroke: #b0b0b0; stroke-opacity: 0.3; stroke-width: 0.8; stroke-linecap: square"/>
     </g>
     <g id="line2d_4">
      <g>
       <use xlink:href="#mcf0843f628" x="135.905284" y="228.96" style="stroke: #000000; stroke-width: 0.8"/>
      </g>
     </g>
     <g id="text_2">
      <!-- 12h -->
      <g transform="translate(122.561534 246.597812) scale(0.14 -0.14)">
       <defs>
        <path id="DejaVuSans-31" d="M 794 531 
L 1825 531 
L 1825 4091 
L 703 3866 
L 703 4441 
L 1819 4666 
L 2450 4666 
L 2450 531 
L 3481 531 
L 3481 0 
L 794 0 
L 794 531 
z
" transform="scale(0.015625)"/>
        <path id="DejaVuSans-32" d="M 1228 531 
L 3431 531 
L 3431 0 
L 469 0 
L 469 531 
Q 828 903 1448 1529 
Q 2069 2156 2228 2338 
Q 2531 2678 2651 2914 
Q 2772 3150 2772 3378 
Q 2772 3750 2511 3984 
Q 2250 4219 1831 4219 
Q 1534 4219 1204 4116 
Q 875 4013 500 3803 
L 500 4441 
Q 881 4594 1212 4672 
Q 1544 4750 1819 4750 
Q 2544 4750 2975 4387 
Q 3406 4025 3406 3419 
Q 3406 3131 3298 2873 
Q 3191 2616 2906 2266 
Q 2828 2175 2409 1742 
Q 1991 1309 1228 531 
z
" transform="scale(0.015625)"/>
       </defs>
       <use xlink:href="#DejaVuSans-31"/>
       <use xlink:href="#DejaVuSans-32" x="63.623047"/>
       <use xlink:href="#DejaVuSans-68" x="127.246094"/>
      </g>
     </g>
    </g>
    <g id="xtick_3">
     <g id="line2d_5">
      <path d="M 180.291648 228.96 
L 180.291648 7.2 
" clip-path="url(#paf2e485e50)" style="fill: none; stroke: #b0b0b0; stroke-opacity: 0.3; stroke-width: 0.8; stroke-linecap: square"/>
     </g>
     <g id="line2d_6">
      <g>
       <use xlink:href="#mcf0843f628" x="180.291648" y="228.96" style="stroke: #000000; stroke-width: 0.8"/>
      </g>
     </g>
     <g id="text_3">
      <!-- 24h -->
      <g transform="translate(166.947898 246.597812) scale(0.14 -0.14)">
       <defs>
        <path id="DejaVuSans-34" d="M 2419 4116 
L 825 1625 
L 2419 1625 
L 2419 4116 
z
M 2253 4666 
L 3047 4666 
L 3047 1625 
L 3713 1625 
L 3713 1100 
L 3047 1100 
L 3047 0 
L 2419 0 
L 2419 1100 
L 313 1100 
L 313 1709 
L 2253 4666 
z
" transform="scale(0.015625)"/>
       </defs>
       <use xlink:href="#DejaVuSans-32"/>
       <use xlink:href="#DejaVuSans-34" x="63.623047"/>
       <use xlink:href="#DejaVuSans-68" x="127.246094"/>
      </g>
     </g>
    </g>
    <g id="xtick_4">
     <g id="line2d_7">
      <path d="M 224.678011 228.96 
L 224.678011 7.2 
" clip-path="url(#paf2e485e50)" style="fill: none; stroke: #b0b0b0; stroke-opacity: 0.3; stroke-width: 0.8; stroke-linecap: square"/>
     </g>
     <g id="line2d_8">
      <g>
       <use xlink:href="#mcf0843f628" x="224.678011" y="228.96" style="stroke: #000000; stroke-width: 0.8"/>
      </g>
     </g>
     <g id="text_4">
      <!-- 36h -->
      <g transform="translate(211.334261 246.597812) scale(0.14 -0.14)">
       <defs>
        <path id="DejaVuSans-33" d="M 2597 2516 
Q 3050 2419 3304 2112 
Q 3559 1806 3559 1356 
Q 3559 666 3084 287 
Q 2609 -91 1734 -91 
Q 1441 -91 1130 -33 
Q 819 25 488 141 
L 488 750 
Q 750 597 1062 519 
Q 1375 441 1716 441 
Q 2309 441 2620 675 
Q 2931 909 2931 1356 
Q 2931 1769 2642 2001 
Q 2353 2234 1838 2234 
L 1294 2234 
L 1294 2753 
L 1863 2753 
Q 2328 2753 2575 2939 
Q 2822 3125 2822 3475 
Q 2822 3834 2567 4026 
Q 2313 4219 1838 4219 
Q 1578 4219 1281 4162 
Q 984 4106 628 3988 
L 628 4550 
Q 988 4650 1302 4700 
Q 1616 4750 1894 4750 
Q 2613 4750 3031 4423 
Q 3450 4097 3450 3541 
Q 3450 3153 3228 2886 
Q 3006 2619 2597 2516 
z
" transform="scale(0.015625)"/>
        <path id="DejaVuSans-36" d="M 2113 2584 
Q 1688 2584 1439 2293 
Q 1191 2003 1191 1497 
Q 1191 994 1439 701 
Q 1688 409 2113 409 
Q 2538 409 2786 701 
Q 3034 994 3034 1497 
Q 3034 2003 2786 2293 
Q 2538 2584 2113 2584 
z
M 3366 4563 
L 3366 3988 
Q 3128 4100 2886 4159 
Q 2644 4219 2406 4219 
Q 1781 4219 1451 3797 
Q 1122 3375 1075 2522 
Q 1259 2794 1537 2939 
Q 1816 3084 2150 3084 
Q 2853 3084 3261 2657 
Q 3669 2231 3669 1497 
Q 3669 778 3244 343 
Q 2819 -91 2113 -91 
Q 1303 -91 875 529 
Q 447 1150 447 2328 
Q 447 3434 972 4092 
Q 1497 4750 2381 4750 
Q 2619 4750 2861 4703 
Q 3103 4656 3366 4563 
z
" transform="scale(0.015625)"/>
       </defs>
       <use xlink:href="#DejaVuSans-33"/>
       <use xlink:href="#DejaVuSans-36" x="63.623047"/>
       <use xlink:href="#DejaVuSans-68" x="127.246094"/>
      </g>
     </g>
    </g>
    <g id="xtick_5">
     <g id="line2d_9">
      <path d="M 269.064375 228.96 
L 269.064375 7.2 
" clip-path="url(#paf2e485e50)" style="fill: none; stroke: #b0b0b0; stroke-opacity: 0.3; stroke-width: 0.8; stroke-linecap: square"/>
     </g>
     <g id="line2d_10">
      <g>
       <use xlink:href="#mcf0843f628" x="269.064375" y="228.96" style="stroke: #000000; stroke-width: 0.8"/>
      </g>
     </g>
     <g id="text_5">
      <!-- 48h -->
      <g transform="translate(255.720625 246.597812) scale(0.14 -0.14)">
       <defs>
        <path id="DejaVuSans-38" d="M 2034 2216 
Q 1584 2216 1326 1975 
Q 1069 1734 1069 1313 
Q 1069 891 1326 650 
Q 1584 409 2034 409 
Q 2484 409 2743 651 
Q 3003 894 3003 1313 
Q 3003 1734 2745 1975 
Q 2488 2216 2034 2216 
z
M 1403 2484 
Q 997 2584 770 2862 
Q 544 3141 544 3541 
Q 544 4100 942 4425 
Q 1341 4750 2034 4750 
Q 2731 4750 3128 4425 
Q 3525 4100 3525 3541 
Q 3525 3141 3298 2862 
Q 3072 2584 2669 2484 
Q 3125 2378 3379 2068 
Q 3634 1759 3634 1313 
Q 3634 634 3220 271 
Q 2806 -91 2034 -91 
Q 1263 -91 848 271 
Q 434 634 434 1313 
Q 434 1759 690 2068 
Q 947 2378 1403 2484 
z
M 1172 3481 
Q 1172 3119 1398 2916 
Q 1625 2713 2034 2713 
Q 2441 2713 2670 2916 
Q 2900 3119 2900 3481 
Q 2900 3844 2670 4047 
Q 2441 4250 2034 4250 
Q 1625 4250 1398 4047 
Q 1172 3844 1172 3481 
z
" transform="scale(0.015625)"/>
       </defs>
       <use xlink:href="#DejaVuSans-34"/>
       <use xlink:href="#DejaVuSans-38" x="63.623047"/>
       <use xlink:href="#DejaVuSans-68" x="127.246094"/>
      </g>
     </g>
    </g>
    <g id="xtick_6">
     <g id="line2d_11">
      <path d="M 313.450739 228.96 
L 313.450739 7.2 
" clip-path="url(#paf2e485e50)" style="fill: none; stroke: #b0b0b0; stroke-opacity: 0.3; stroke-width: 0.8; stroke-linecap: square"/>
     </g>
     <g id="line2d_12">
      <g>
       <use xlink:href="#mcf0843f628" x="313.450739" y="228.96" style="stroke: #000000; stroke-width: 0.8"/>
      </g>
     </g>
     <g id="text_6">
      <!-- 60h -->
      <g transform="translate(300.106989 246.597812) scale(0.14 -0.14)">
       <use xlink:href="#DejaVuSans-36"/>
       <use xlink:href="#DejaVuSans-30" x="63.623047"/>
       <use xlink:href="#DejaVuSans-68" x="127.246094"/>
      </g>
     </g>
    </g>
    <g id="xtick_7">
     <g id="line2d_13">
      <path d="M 357.837102 228.96 
L 357.837102 7.2 
" clip-path="url(#paf2e485e50)" style="fill: none; stroke: #b0b0b0; stroke-opacity: 0.3; stroke-width: 0.8; stroke-linecap: square"/>
     </g>
     <g id="line2d_14">
      <g>
       <use xlink:href="#mcf0843f628" x="357.837102" y="228.96" style="stroke: #000000; stroke-width: 0.8"/>
      </g>
     </g>
     <g id="text_7">
      <!-- 72h -->
      <g transform="translate(344.493352 246.597812) scale(0.14 -0.14)">
       <defs>
        <path id="DejaVuSans-37" d="M 525 4666 
L 3525 4666 
L 3525 4397 
L 1831 0 
L 1172 0 
L 2766 4134 
L 525 4134 
L 525 4666 
z
" transform="scale(0.015625)"/>
       </defs>
       <use xlink:href="#DejaVuSans-37"/>
       <use xlink:href="#DejaVuSans-32" x="63.623047"/>
       <use xlink:href="#DejaVuSans-68" x="127.246094"/>
      </g>
     </g>
    </g>
    <g id="xtick_8">
     <g id="line2d_15">
      <path d="M 402.223466 228.96 
L 402.223466 7.2 
" clip-path="url(#paf2e485e50)" style="fill: none; stroke: #b0b0b0; stroke-opacity: 0.3; stroke-width: 0.8; stroke-linecap: square"/>
     </g>
     <g id="line2d_16">
      <g>
       <use xlink:href="#mcf0843f628" x="402.223466" y="228.96" style="stroke: #000000; stroke-width: 0.8"/>
      </g>
     </g>
     <g id="text_8">
      <!-- 84h -->
      <g transform="translate(388.879716 246.597812) scale(0.14 -0.14)">
       <use xlink:href="#DejaVuSans-38"/>
       <use xlink:href="#DejaVuSans-34" x="63.623047"/>
       <use xlink:href="#DejaVuSans-68" x="127.246094"/>
      </g>
     </g>
    </g>
    <g id="xtick_9">
     <g id="line2d_17">
      <path d="M 446.60983 228.96 
L 446.60983 7.2 
" clip-path="url(#paf2e485e50)" style="fill: none; stroke: #b0b0b0; stroke-opacity: 0.3; stroke-width: 0.8; stroke-linecap: square"/>
     </g>
     <g id="line2d_18">
      <g>
       <use xlink:href="#mcf0843f628" x="446.60983" y="228.96" style="stroke: #000000; stroke-width: 0.8"/>
      </g>
     </g>
     <g id="text_9">
      <!-- 96h -->
      <g transform="translate(433.26608 246.597812) scale(0.14 -0.14)">
       <defs>
        <path id="DejaVuSans-39" d="M 703 97 
L 703 672 
Q 941 559 1184 500 
Q 1428 441 1663 441 
Q 2288 441 2617 861 
Q 2947 1281 2994 2138 
Q 2813 1869 2534 1725 
Q 2256 1581 1919 1581 
Q 1219 1581 811 2004 
Q 403 2428 403 3163 
Q 403 3881 828 4315 
Q 1253 4750 1959 4750 
Q 2769 4750 3195 4129 
Q 3622 3509 3622 2328 
Q 3622 1225 3098 567 
Q 2575 -91 1691 -91 
Q 1453 -91 1209 -44 
Q 966 3 703 97 
z
M 1959 2075 
Q 2384 2075 2632 2365 
Q 2881 2656 2881 3163 
Q 2881 3666 2632 3958 
Q 2384 4250 1959 4250 
Q 1534 4250 1286 3958 
Q 1038 3666 1038 3163 
Q 1038 2656 1286 2365 
Q 1534 2075 1959 2075 
z
" transform="scale(0.015625)"/>
       </defs>
       <use xlink:href="#DejaVuSans-39"/>
       <use xlink:href="#DejaVuSans-36" x="63.623047"/>
       <use xlink:href="#DejaVuSans-68" x="127.246094"/>
      </g>
     </g>
    </g>
    <g id="text_10">
     <!-- Time -->
     <g transform="translate(249.490625 265.666875) scale(0.16 -0.16)">
      <defs>
       <path id="DejaVuSans-54" d="M -19 4666 
L 3928 4666 
L 3928 4134 
L 2272 4134 
L 2272 0 
L 1638 0 
L 1638 4134 
L -19 4134 
L -19 4666 
z
" transform="scale(0.015625)"/>
       <path id="DejaVuSans-69" d="M 603 3500 
L 1178 3500 
L 1178 0 
L 603 0 
L 603 3500 
z
M 603 4863 
L 1178 4863 
L 1178 4134 
L 603 4134 
L 603 4863 
z
" transform="scale(0.015625)"/>
       <path id="DejaVuSans-6d" d="M 3328 2828 
Q 3544 3216 3844 3400 
Q 4144 3584 4550 3584 
Q 5097 3584 5394 3201 
Q 5691 2819 5691 2113 
L 5691 0 
L 5113 0 
L 5113 2094 
Q 5113 2597 4934 2840 
Q 4756 3084 4391 3084 
Q 3944 3084 3684 2787 
Q 3425 2491 3425 1978 
L 3425 0 
L 2847 0 
L 2847 2094 
Q 2847 2600 2669 2842 
Q 2491 3084 2119 3084 
Q 1678 3084 1418 2786 
Q 1159 2488 1159 1978 
L 1159 0 
L 581 0 
L 581 3500 
L 1159 3500 
L 1159 2956 
Q 1356 3278 1631 3431 
Q 1906 3584 2284 3584 
Q 2666 3584 2933 3390 
Q 3200 3197 3328 2828 
z
" transform="scale(0.015625)"/>
       <path id="DejaVuSans-65" d="M 3597 1894 
L 3597 1613 
L 953 1613 
Q 991 1019 1311 708 
Q 1631 397 2203 397 
Q 2534 397 2845 478 
Q 3156 559 3463 722 
L 3463 178 
Q 3153 47 2828 -22 
Q 2503 -91 2169 -91 
Q 1331 -91 842 396 
Q 353 884 353 1716 
Q 353 2575 817 3079 
Q 1281 3584 2069 3584 
Q 2775 3584 3186 3129 
Q 3597 2675 3597 1894 
z
M 3022 2063 
Q 3016 2534 2758 2815 
Q 2500 3097 2075 3097 
Q 1594 3097 1305 2825 
Q 1016 2553 972 2059 
L 3022 2063 
z
" transform="scale(0.015625)"/>
      </defs>
      <use xlink:href="#DejaVuSans-54"/>
      <use xlink:href="#DejaVuSans-69" x="57.958984"/>
      <use xlink:href="#DejaVuSans-6d" x="85.742188"/>
      <use xlink:href="#DejaVuSans-65" x="183.154297"/>
     </g>
    </g>
   </g>
   <g id="matplotlib.axis_2">
    <g id="ytick_1">
     <g id="line2d_19">
      <path d="M 73.764375 204.87432 
L 464.364375 204.87432 
" clip-path="url(#paf2e485e50)" style="fill: none; stroke: #b0b0b0; stroke-opacity: 0.3; stroke-width: 0.8; stroke-linecap: square"/>
     </g>
     <g id="line2d_20">
      <defs>
       <path id="mdb25069d6e" d="M 0 0 
L -3.5 0 
" style="stroke: #000000; stroke-width: 0.8"/>
      </defs>
      <g>
       <use xlink:href="#mdb25069d6e" x="73.764375" y="204.87432" style="stroke: #000000; stroke-width: 0.8"/>
      </g>
     </g>
     <g id="text_11">
      <!-- 4,500 -->
      <g transform="translate(26.685 210.193227) scale(0.14 -0.14)">
       <defs>
        <path id="DejaVuSans-2c" d="M 750 794 
L 1409 794 
L 1409 256 
L 897 -744 
L 494 -744 
L 750 256 
L 750 794 
z
" transform="scale(0.015625)"/>
        <path id="DejaVuSans-35" d="M 691 4666 
L 3169 4666 
L 3169 4134 
L 1269 4134 
L 1269 2991 
Q 1406 3038 1543 3061 
Q 1681 3084 1819 3084 
Q 2600 3084 3056 2656 
Q 3513 2228 3513 1497 
Q 3513 744 3044 326 
Q 2575 -91 1722 -91 
Q 1428 -91 1123 -41 
Q 819 9 494 109 
L 494 744 
Q 775 591 1075 516 
Q 1375 441 1709 441 
Q 2250 441 2565 725 
Q 2881 1009 2881 1497 
Q 2881 1984 2565 2268 
Q 2250 2553 1709 2553 
Q 1456 2553 1204 2497 
Q 953 2441 691 2322 
L 691 4666 
z
" transform="scale(0.015625)"/>
       </defs>
       <use xlink:href="#DejaVuSans-34"/>
       <use xlink:href="#DejaVuSans-2c" x="63.623047"/>
       <use xlink:href="#DejaVuSans-35" x="95.410156"/>
       <use xlink:href="#DejaVuSans-30" x="159.033203"/>
       <use xlink:href="#DejaVuSans-30" x="222.65625"/>
      </g>
     </g>
    </g>
    <g id="ytick_2">
     <g id="line2d_21">
      <path d="M 73.764375 179.316511 
L 464.364375 179.316511 
" clip-path="url(#paf2e485e50)" style="fill: none; stroke: #b0b0b0; stroke-opacity: 0.3; stroke-width: 0.8; stroke-linecap: square"/>
     </g>
     <g id="line2d_22">
      <g>
       <use xlink:href="#mdb25069d6e" x="73.764375" y="179.316511" style="stroke: #000000; stroke-width: 0.8"/>
      </g>
     </g>
     <g id="text_12">
      <!-- 4,750 -->
      <g transform="translate(26.685 184.635417) scale(0.14 -0.14)">
       <use xlink:href="#DejaVuSans-34"/>
       <use xlink:href="#DejaVuSans-2c" x="63.623047"/>
       <use xlink:href="#DejaVuSans-37" x="95.410156"/>
       <use xlink:href="#DejaVuSans-35" x="159.033203"/>
       <use xlink:href="#DejaVuSans-30" x="222.65625"/>
      </g>
     </g>
    </g>
    <g id="ytick_3">
     <g id="line2d_23">
      <path d="M 73.764375 153.758702 
L 464.364375 153.758702 
" clip-path="url(#paf2e485e50)" style="fill: none; stroke: #b0b0b0; stroke-opacity: 0.3; stroke-width: 0.8; stroke-linecap: square"/>
     </g>
     <g id="line2d_24">
      <g>
       <use xlink:href="#mdb25069d6e" x="73.764375" y="153.758702" style="stroke: #000000; stroke-width: 0.8"/>
      </g>
     </g>
     <g id="text_13">
      <!-- 5,000 -->
      <g transform="translate(26.685 159.077608) scale(0.14 -0.14)">
       <use xlink:href="#DejaVuSans-35"/>
       <use xlink:href="#DejaVuSans-2c" x="63.623047"/>
       <use xlink:href="#DejaVuSans-30" x="95.410156"/>
       <use xlink:href="#DejaVuSans-30" x="159.033203"/>
       <use xlink:href="#DejaVuSans-30" x="222.65625"/>
      </g>
     </g>
    </g>
    <g id="ytick_4">
     <g id="line2d_25">
      <path d="M 73.764375 128.200892 
L 464.364375 128.200892 
" clip-path="url(#paf2e485e50)" style="fill: none; stroke: #b0b0b0; stroke-opacity: 0.3; stroke-width: 0.8; stroke-linecap: square"/>
     </g>
     <g id="line2d_26">
      <g>
       <use xlink:href="#mdb25069d6e" x="73.764375" y="128.200892" style="stroke: #000000; stroke-width: 0.8"/>
      </g>
     </g>
     <g id="text_14">
      <!-- 5,250 -->
      <g transform="translate(26.685 133.519799) scale(0.14 -0.14)">
       <use xlink:href="#DejaVuSans-35"/>
       <use xlink:href="#DejaVuSans-2c" x="63.623047"/>
       <use xlink:href="#DejaVuSans-32" x="95.410156"/>
       <use xlink:href="#DejaVuSans-35" x="159.033203"/>
       <use xlink:href="#DejaVuSans-30" x="222.65625"/>
      </g>
     </g>
    </g>
    <g id="ytick_5">
     <g id="line2d_27">
      <path d="M 73.764375 102.643083 
L 464.364375 102.643083 
" clip-path="url(#paf2e485e50)" style="fill: none; stroke: #b0b0b0; stroke-opacity: 0.3; stroke-width: 0.8; stroke-linecap: square"/>
     </g>
     <g id="line2d_28">
      <g>
       <use xlink:href="#mdb25069d6e" x="73.764375" y="102.643083" style="stroke: #000000; stroke-width: 0.8"/>
      </g>
     </g>
     <g id="text_15">
      <!-- 5,500 -->
      <g transform="translate(26.685 107.961989) scale(0.14 -0.14)">
       <use xlink:href="#DejaVuSans-35"/>
       <use xlink:href="#DejaVuSans-2c" x="63.623047"/>
       <use xlink:href="#DejaVuSans-35" x="95.410156"/>
       <use xlink:href="#DejaVuSans-30" x="159.033203"/>
       <use xlink:href="#DejaVuSans-30" x="222.65625"/>
      </g>
     </g>
    </g>
    <g id="ytick_6">
     <g id="line2d_29">
      <path d="M 73.764375 77.085274 
L 464.364375 77.085274 
" clip-path="url(#paf2e485e50)" style="fill: none; stroke: #b0b0b0; stroke-opacity: 0.3; stroke-width: 0.8; stroke-linecap: square"/>
     </g>
     <g id="line2d_30">
      <g>
       <use xlink:href="#mdb25069d6e" x="73.764375" y="77.085274" style="stroke: #000000; stroke-width: 0.8"/>
      </g>
     </g>
     <g id="text_16">
      <!-- 5,750 -->
      <g transform="translate(26.685 82.40418) scale(0.14 -0.14)">
       <use xlink:href="#DejaVuSans-35"/>
       <use xlink:href="#DejaVuSans-2c" x="63.623047"/>
       <use xlink:href="#DejaVuSans-37" x="95.410156"/>
       <use xlink:href="#DejaVuSans-35" x="159.033203"/>
       <use xlink:href="#DejaVuSans-30" x="222.65625"/>
      </g>
     </g>
    </g>
    <g id="ytick_7">
     <g id="line2d_31">
      <path d="M 73.764375 51.527465 
L 464.364375 51.527465 
" clip-path="url(#paf2e485e50)" style="fill: none; stroke: #b0b0b0; stroke-opacity: 0.3; stroke-width: 0.8; stroke-linecap: square"/>
     </g>
     <g id="line2d_32">
      <g>
       <use xlink:href="#mdb25069d6e" x="73.764375" y="51.527465" style="stroke: #000000; stroke-width: 0.8"/>
      </g>
     </g>
     <g id="text_17">
      <!-- 6,000 -->
      <g transform="translate(26.685 56.846371) scale(0.14 -0.14)">
       <use xlink:href="#DejaVuSans-36"/>
       <use xlink:href="#DejaVuSans-2c" x="63.623047"/>
       <use xlink:href="#DejaVuSans-30" x="95.410156"/>
       <use xlink:href="#DejaVuSans-30" x="159.033203"/>
       <use xlink:href="#DejaVuSans-30" x="222.65625"/>
      </g>
     </g>
    </g>
    <g id="ytick_8">
     <g id="line2d_33">
      <path d="M 73.764375 25.969655 
L 464.364375 25.969655 
" clip-path="url(#paf2e485e50)" style="fill: none; stroke: #b0b0b0; stroke-opacity: 0.3; stroke-width: 0.8; stroke-linecap: square"/>
     </g>
     <g id="line2d_34">
      <g>
       <use xlink:href="#mdb25069d6e" x="73.764375" y="25.969655" style="stroke: #000000; stroke-width: 0.8"/>
      </g>
     </g>
     <g id="text_18">
      <!-- 6,250 -->
      <g transform="translate(26.685 31.288561) scale(0.14 -0.14)">
       <use xlink:href="#DejaVuSans-36"/>
       <use xlink:href="#DejaVuSans-2c" x="63.623047"/>
       <use xlink:href="#DejaVuSans-32" x="95.410156"/>
       <use xlink:href="#DejaVuSans-35" x="159.033203"/>
       <use xlink:href="#DejaVuSans-30" x="222.65625"/>
      </g>
     </g>
    </g>
    <g id="text_19">
     <!-- Edges -->
     <g transform="translate(19.3575 142.3825) rotate(-90) scale(0.16 -0.16)">
      <defs>
       <path id="DejaVuSans-45" d="M 628 4666 
L 3578 4666 
L 3578 4134 
L 1259 4134 
L 1259 2753 
L 3481 2753 
L 3481 2222 
L 1259 2222 
L 1259 531 
L 3634 531 
L 3634 0 
L 628 0 
L 628 4666 
z
" transform="scale(0.015625)"/>
       <path id="DejaVuSans-64" d="M 2906 2969 
L 2906 4863 
L 3481 4863 
L 3481 0 
L 2906 0 
L 2906 525 
Q 2725 213 2448 61 
Q 2172 -91 1784 -91 
Q 1150 -91 751 415 
Q 353 922 353 1747 
Q 353 2572 751 3078 
Q 1150 3584 1784 3584 
Q 2172 3584 2448 3432 
Q 2725 3281 2906 2969 
z
M 947 1747 
Q 947 1113 1208 752 
Q 1469 391 1925 391 
Q 2381 391 2643 752 
Q 2906 1113 2906 1747 
Q 2906 2381 2643 2742 
Q 2381 3103 1925 3103 
Q 1469 3103 1208 2742 
Q 947 2381 947 1747 
z
" transform="scale(0.015625)"/>
       <path id="DejaVuSans-67" d="M 2906 1791 
Q 2906 2416 2648 2759 
Q 2391 3103 1925 3103 
Q 1463 3103 1205 2759 
Q 947 2416 947 1791 
Q 947 1169 1205 825 
Q 1463 481 1925 481 
Q 2391 481 2648 825 
Q 2906 1169 2906 1791 
z
M 3481 434 
Q 3481 -459 3084 -895 
Q 2688 -1331 1869 -1331 
Q 1566 -1331 1297 -1286 
Q 1028 -1241 775 -1147 
L 775 -588 
Q 1028 -725 1275 -790 
Q 1522 -856 1778 -856 
Q 2344 -856 2625 -561 
Q 2906 -266 2906 331 
L 2906 616 
Q 2728 306 2450 153 
Q 2172 0 1784 0 
Q 1141 0 747 490 
Q 353 981 353 1791 
Q 353 2603 747 3093 
Q 1141 3584 1784 3584 
Q 2172 3584 2450 3431 
Q 2728 3278 2906 2969 
L 2906 3500 
L 3481 3500 
L 3481 434 
z
" transform="scale(0.015625)"/>
       <path id="DejaVuSans-73" d="M 2834 3397 
L 2834 2853 
Q 2591 2978 2328 3040 
Q 2066 3103 1784 3103 
Q 1356 3103 1142 2972 
Q 928 2841 928 2578 
Q 928 2378 1081 2264 
Q 1234 2150 1697 2047 
L 1894 2003 
Q 2506 1872 2764 1633 
Q 3022 1394 3022 966 
Q 3022 478 2636 193 
Q 2250 -91 1575 -91 
Q 1294 -91 989 -36 
Q 684 19 347 128 
L 347 722 
Q 666 556 975 473 
Q 1284 391 1588 391 
Q 1994 391 2212 530 
Q 2431 669 2431 922 
Q 2431 1156 2273 1281 
Q 2116 1406 1581 1522 
L 1381 1569 
Q 847 1681 609 1914 
Q 372 2147 372 2553 
Q 372 3047 722 3315 
Q 1072 3584 1716 3584 
Q 2034 3584 2315 3537 
Q 2597 3491 2834 3397 
z
" transform="scale(0.015625)"/>
      </defs>
      <use xlink:href="#DejaVuSans-45"/>
      <use xlink:href="#DejaVuSans-64" x="63.183594"/>
      <use xlink:href="#DejaVuSans-67" x="126.660156"/>
      <use xlink:href="#DejaVuSans-65" x="190.136719"/>
      <use xlink:href="#DejaVuSans-73" x="251.660156"/>
     </g>
    </g>
   </g>
   <g id="line2d_35">
    <path d="M 91.51892 218.88 
L 92.443636 207.021176 
L 112.787386 206.918945 
L 113.712102 206.714483 
L 119.260398 206.714483 
L 120.185114 197.002515 
L 124.808693 197.002515 
L 125.733409 196.798053 
L 138.679432 196.695822 
L 140.528864 196.59359 
L 150.700739 196.59359 
L 151.625455 195.469047 
L 159.947898 195.469047 
L 160.872614 192.708803 
L 161.79733 180.441055 
L 162.722045 179.623205 
L 269.064375 179.520974 
L 269.989091 177.476349 
L 404.997614 177.476349 
L 405.92233 175.022799 
L 443.835682 175.022799 
L 444.760398 174.307181 
L 446.60983 174.307181 
L 446.60983 174.307181 
" clip-path="url(#paf2e485e50)" style="fill: none; stroke-dasharray: 3,4.95; stroke-dashoffset: 0; stroke: #ddaa33; stroke-width: 3"/>
   </g>
   <g id="line2d_36">
    <path d="M 91.51892 218.88 
L 92.443636 200.785071 
L 94.293068 200.68284 
L 95.217784 193.117728 
L 96.1425 188.721785 
L 97.067216 185.348154 
L 97.991932 182.792373 
L 99.841364 182.792373 
L 100.76608 181.770061 
L 110.937955 181.770061 
L 111.86267 181.565598 
L 115.561534 181.565598 
L 116.48625 178.089736 
L 117.410966 177.57858 
L 120.185114 177.57858 
L 121.10983 177.271886 
L 122.034545 175.94288 
L 123.883977 175.94288 
L 124.808693 175.533955 
L 125.733409 175.533955 
L 126.658125 175.329493 
L 128.507557 175.329493 
L 129.432273 172.875943 
L 133.131136 172.875943 
L 134.055852 172.160325 
L 135.905284 172.058093 
L 137.754716 171.955862 
L 138.679432 170.93355 
L 141.45358 170.831318 
L 142.378295 170.524625 
L 161.79733 170.422394 
L 162.722045 167.457688 
L 163.646761 166.230913 
L 178.442216 166.128682 
L 180.291648 166.02645 
L 191.388239 166.02645 
L 192.312955 165.413063 
L 233.92517 165.413063 
L 234.849886 160.19927 
L 307.902443 160.097039 
L 309.751875 159.994807 
L 356.912386 159.994807 
L 357.837102 159.790345 
L 379.105568 159.790345 
L 380.030284 159.585882 
L 409.621193 159.483651 
L 410.545909 155.496633 
L 432.739091 155.496633 
L 433.663807 154.678783 
L 435.513239 154.576552 
L 446.60983 154.576552 
L 446.60983 154.576552 
" clip-path="url(#paf2e485e50)" style="fill: none; stroke-dasharray: 3,4.95; stroke-dashoffset: 0; stroke: #000000; stroke-width: 3"/>
   </g>
   <g id="line2d_37">
    <path d="M 91.51892 218.88 
L 92.443636 205.69217 
L 93.368352 203.954239 
L 94.293068 203.545314 
L 95.217784 201.296227 
L 96.1425 201.091765 
L 97.067216 201.091765 
L 97.991932 200.785071 
L 103.540227 200.785071 
L 104.464943 199.762759 
L 115.561534 199.660527 
L 116.48625 198.433753 
L 189.538807 198.331521 
L 191.388239 198.22929 
L 244.097045 198.178174 
L 245.946477 198.075943 
L 446.60983 198.024828 
L 446.60983 198.024828 
" clip-path="url(#paf2e485e50)" style="fill: none; stroke: #994455; stroke-width: 3; stroke-linecap: square"/>
   </g>
   <g id="line2d_38">
    <path d="M 91.51892 218.88 
L 92.443636 178.703124 
L 93.368352 175.636187 
L 94.293068 172.160325 
L 95.217784 168.173306 
L 96.1425 166.946531 
L 97.067216 164.288519 
L 98.916648 161.630507 
L 100.76608 161.528276 
L 101.690795 161.528276 
L 102.615511 160.403732 
L 107.239091 160.403732 
L 108.163807 158.665801 
L 109.088523 158.665801 
L 110.013239 157.74572 
L 110.937955 154.167627 
L 111.86267 154.065396 
L 112.787386 152.225233 
L 114.636818 152.225233 
L 115.561534 151.611846 
L 116.48625 151.611846 
L 117.410966 148.64714 
L 120.185114 148.64714 
L 121.10983 145.477972 
L 129.432273 145.477972 
L 130.356989 145.273509 
L 136.83 145.273509 
L 137.754716 144.455659 
L 138.679432 144.251197 
L 139.604148 143.842272 
L 143.303011 143.740041 
L 144.227727 143.433347 
L 145.152443 142.513266 
L 150.700739 142.513266 
L 151.625455 141.490953 
L 152.55017 141.490953 
L 153.474886 140.877566 
L 156.249034 140.775335 
L 158.098466 140.673103 
L 159.023182 140.059716 
L 160.872614 140.059716 
L 162.722045 139.54856 
L 163.646761 137.810629 
L 164.571477 122.884868 
L 165.496193 118.386694 
L 166.420909 115.421988 
L 167.345625 114.604138 
L 168.270341 112.559513 
L 169.195057 111.230507 
L 170.119773 110.923813 
L 171.044489 109.288114 
L 171.969205 104.994402 
L 172.89392 104.585477 
L 174.743352 103.256471 
L 175.668068 102.029696 
L 176.592784 101.723002 
L 178.442216 101.620771 
L 180.291648 101.620771 
L 181.216364 100.905152 
L 182.14108 100.905152 
L 183.065795 99.780609 
L 185.839943 99.167221 
L 188.614091 99.06499 
L 189.538807 98.656065 
L 195.087102 98.144909 
L 196.011818 98.144909 
L 196.936534 97.633753 
L 197.86125 93.135578 
L 198.785966 76.165193 
L 199.710682 74.938418 
L 202.48483 74.32503 
L 203.409545 73.813874 
L 204.334261 59.603732 
L 208.957841 58.070264 
L 210.807273 57.76357 
L 211.731989 56.94572 
L 212.656705 56.639026 
L 217.280284 56.536795 
L 218.205 56.332333 
L 219.129716 56.332333 
L 220.979148 56.025639 
L 224.678011 55.923408 
L 225.602727 55.718945 
L 226.527443 52.652008 
L 227.452159 51.834158 
L 230.226307 51.834158 
L 231.151023 51.425233 
L 233.000455 51.323002 
L 234.849886 51.220771 
L 235.774602 51.11854 
L 236.699318 50.709615 
L 237.624034 50.096227 
L 238.54875 50.096227 
L 239.473466 49.687302 
L 241.322898 49.48284 
L 242.247614 49.176146 
L 243.17233 48.256065 
L 244.097045 48.051602 
L 246.871193 47.949371 
L 247.795909 47.642677 
L 248.720625 46.518134 
L 254.26892 46.518134 
L 255.193636 46.21144 
L 256.118352 44.677972 
L 257.043068 43.962353 
L 257.967784 39.464178 
L 258.8925 37.93071 
L 259.817216 34.761542 
L 260.741932 34.352617 
L 261.666648 34.250385 
L 262.591364 33.432535 
L 263.51608 32.921379 
L 266.290227 32.103529 
L 268.139659 31.796836 
L 271.838523 31.490142 
L 272.763239 30.978986 
L 273.687955 30.876755 
L 274.61267 30.365598 
L 277.386818 29.854442 
L 280.160966 29.64998 
L 281.085682 29.036592 
L 283.85983 29.036592 
L 284.784545 28.218742 
L 286.633977 28.218742 
L 287.558693 27.707586 
L 291.257557 27.605355 
L 292.182273 27.503124 
L 293.106989 26.480811 
L 294.031705 25.765193 
L 298.655284 25.151805 
L 299.58 24.74288 
L 302.354148 24.640649 
L 303.278864 23.92503 
L 304.20358 23.92503 
L 306.053011 23.618337 
L 312.526023 23.516105 
L 313.450739 23.311643 
L 314.375455 23.311643 
L 315.30017 23.107181 
L 316.224886 23.107181 
L 317.149602 22.493793 
L 318.999034 22.391562 
L 320.848466 22.289331 
L 324.54733 21.982637 
L 331.020341 21.880406 
L 332.869773 21.778174 
L 341.192216 21.675943 
L 345.815795 21.267018 
L 351.364091 21.164787 
L 353.213523 21.062556 
L 356.912386 20.960325 
L 358.761818 20.858093 
L 362.460682 20.755862 
L 365.23483 20.5514 
L 370.783125 20.449168 
L 372.632557 20.346937 
L 376.33142 20.346937 
L 378.180852 19.938012 
L 379.105568 19.938012 
L 380.030284 19.73355 
L 388.352727 19.73355 
L 389.277443 19.529087 
L 393.901023 19.426856 
L 394.825739 19.324625 
L 395.750455 18.813469 
L 398.524602 18.813469 
L 400.374034 18.09785 
L 406.847045 17.995619 
L 407.771761 17.791156 
L 415.169489 17.688925 
L 417.01892 17.586694 
L 420.717784 17.484462 
L 422.567216 17.382231 
L 446.60983 17.28 
L 446.60983 17.28 
" clip-path="url(#paf2e485e50)" style="fill: none; stroke: #ee99aa; stroke-width: 3; stroke-linecap: square"/>
   </g>
   <g id="line2d_39">
    <path d="M 91.51892 218.88 
L 92.443636 214.484057 
L 93.368352 213.359513 
L 94.293068 209.474726 
L 95.217784 209.372495 
L 96.1425 204.87432 
L 97.067216 204.158702 
L 97.991932 204.158702 
L 98.916648 203.852008 
L 100.76608 201.807383 
L 102.615511 200.273915 
L 103.540227 199.660527 
L 104.464943 199.660527 
L 105.389659 199.251602 
L 112.787386 199.149371 
L 113.712102 196.286897 
L 114.636818 195.571278 
L 115.561534 195.571278 
L 116.48625 193.731116 
L 117.410966 193.731116 
L 119.260398 188.006166 
L 120.185114 182.281217 
L 121.10983 182.281217 
L 122.034545 179.316511 
L 122.959261 178.805355 
L 123.883977 176.862961 
L 124.808693 176.862961 
L 125.733409 174.307181 
L 126.658125 172.671481 
L 127.582841 172.058093 
L 128.507557 172.058093 
L 129.432273 171.546937 
L 130.356989 171.546937 
L 131.281705 170.831318 
L 132.20642 170.831318 
L 133.131136 170.422394 
L 134.980568 170.320162 
L 135.905284 170.320162 
L 136.83 162.959513 
L 137.754716 161.01712 
L 138.679432 160.403732 
L 139.604148 160.403732 
L 140.528864 159.279189 
L 141.45358 158.768032 
L 142.378295 156.825639 
L 143.303011 154.372089 
L 144.227727 154.372089 
L 145.152443 153.860933 
L 146.077159 152.685274 
L 147.001875 152.480811 
L 147.926591 152.480811 
L 148.851307 152.071886 
L 149.776023 151.458499 
L 150.700739 151.10069 
L 151.625455 149.46499 
L 152.55017 149.209412 
L 153.474886 149.209412 
L 154.399602 148.953834 
L 157.17375 148.851602 
L 158.098466 148.442677 
L 159.023182 148.442677 
L 159.947898 147.982637 
L 162.722045 147.573712 
L 164.571477 147.573712 
L 165.496193 147.164787 
L 166.420909 147.062556 
L 167.345625 146.091359 
L 168.270341 146.091359 
L 169.195057 144.762353 
L 170.119773 144.711237 
L 171.044489 144.09785 
L 171.969205 144.09785 
L 172.89392 143.688925 
L 174.743352 143.331116 
L 175.668068 143.331116 
L 178.442216 142.819959 
L 179.366932 142.564381 
L 180.291648 141.593185 
L 181.216364 141.593185 
L 182.14108 141.082028 
L 183.065795 139.139635 
L 183.990511 139.139635 
L 184.915227 138.986288 
L 185.839943 138.679594 
L 186.764659 138.679594 
L 189.538807 137.657282 
L 194.162386 137.555051 
L 195.087102 137.503935 
L 196.936534 136.686085 
L 198.785966 136.379391 
L 201.560114 136.123813 
L 202.48483 134.692576 
L 203.409545 134.385882 
L 204.334261 134.385882 
L 205.258977 134.028073 
L 208.033125 133.721379 
L 209.882557 133.261339 
L 210.807273 133.261339 
L 211.731989 132.852414 
L 212.656705 132.801298 
L 214.506136 132.239026 
L 216.355568 132.239026 
L 219.129716 131.523408 
L 220.054432 131.370061 
L 220.979148 131.370061 
L 221.903864 131.114483 
L 226.527443 131.114483 
L 227.452159 130.91002 
L 229.301591 130.705558 
L 230.226307 130.44998 
L 231.151023 130.44998 
L 232.075739 125.747343 
L 234.849886 125.54288 
L 235.774602 124.878377 
L 237.624034 124.776146 
L 238.54875 124.622799 
L 239.473466 124.622799 
L 240.398182 124.367221 
L 245.021761 123.753834 
L 245.946477 123.344909 
L 247.795909 123.344909 
L 248.720625 122.935984 
L 250.570057 122.833753 
L 251.494773 122.424828 
L 252.419489 122.169249 
L 256.118352 122.067018 
L 269.064375 121.3514 
L 269.989091 120.99359 
L 273.687955 120.891359 
L 277.386818 120.584665 
L 279.23625 120.482434 
L 285.709261 120.431318 
L 287.558693 120.277972 
L 289.408125 120.277972 
L 290.332841 119.766815 
L 292.182273 119.664584 
L 293.106989 119.664584 
L 294.031705 119.460122 
L 297.730568 119.255659 
L 298.655284 118.89785 
L 301.429432 118.89785 
L 303.278864 117.926653 
L 304.20358 117.773306 
L 306.053011 117.773306 
L 307.902443 117.466613 
L 311.601307 117.364381 
L 315.30017 117.364381 
L 316.224886 116.750994 
L 318.074318 116.699878 
L 318.999034 116.495416 
L 323.622614 116.239838 
L 324.54733 115.421988 
L 328.246193 115.16641 
L 329.170909 114.961947 
L 331.020341 114.859716 
L 331.945057 114.706369 
L 336.568636 114.655254 
L 337.493352 114.144097 
L 338.418068 113.990751 
L 340.2675 113.939635 
L 342.116932 113.786288 
L 343.041648 113.019554 
L 343.966364 112.763976 
L 344.89108 112.661744 
L 345.815795 111.741663 
L 347.665227 111.281623 
L 348.589943 111.281623 
L 349.514659 111.07716 
L 356.912386 110.974929 
L 360.61125 110.668235 
L 361.535966 110.668235 
L 362.460682 110.514888 
L 364.310114 110.412657 
L 365.23483 110.208195 
L 370.783125 110.003732 
L 374.481989 109.901501 
L 375.406705 109.645923 
L 384.653864 109.543692 
L 392.976307 109.083651 
L 393.901023 108.828073 
L 397.599886 108.725842 
L 411.470625 108.674726 
L 412.395341 108.419148 
L 416.094205 108.419148 
L 417.01892 108.265801 
L 421.6425 108.16357 
L 423.491932 108.010223 
L 424.416648 107.499067 
L 425.341364 105.761136 
L 426.26608 105.607789 
L 427.190795 105.607789 
L 429.040227 105.403327 
L 432.739091 105.403327 
L 433.663807 105.147748 
L 439.212102 104.943286 
L 444.760398 104.89217 
L 446.60983 104.789939 
L 446.60983 104.789939 
" clip-path="url(#paf2e485e50)" style="fill: none; stroke: #004488; stroke-width: 3; stroke-linecap: square"/>
   </g>
   <g id="line2d_40">
    <path d="M 91.51892 218.88 
L 92.443636 185.654848 
L 93.368352 181.974523 
L 94.293068 177.476349 
L 95.217784 168.888925 
L 97.991932 168.888925 
L 98.916648 167.866613 
L 99.841364 167.866613 
L 100.76608 156.007789 
L 101.690795 156.007789 
L 103.540227 155.087708 
L 104.464943 154.47432 
L 107.239091 154.47432 
L 108.163807 153.860933 
L 110.013239 153.860933 
L 110.937955 148.135984 
L 111.86267 148.135984 
L 112.787386 145.784665 
L 113.712102 145.784665 
L 114.636818 141.18426 
L 115.561534 141.18426 
L 116.48625 140.36641 
L 117.410966 138.935172 
L 118.335682 134.232535 
L 119.260398 134.232535 
L 121.10983 133.823611 
L 126.658125 133.721379 
L 127.582841 132.699067 
L 128.507557 131.881217 
L 129.432273 128.609817 
L 130.356989 126.054037 
L 132.20642 126.054037 
L 133.131136 125.747343 
L 134.055852 124.316105 
L 135.905284 124.213874 
L 136.83 123.702718 
L 139.604148 123.600487 
L 140.528864 122.067018 
L 143.303011 122.067018 
L 144.227727 120.329087 
L 147.001875 120.329087 
L 147.926591 119.920162 
L 148.851307 119.920162 
L 149.776023 119.409006 
L 150.700739 119.409006 
L 151.625455 118.795619 
L 152.55017 118.795619 
L 153.474886 116.342069 
L 157.17375 115.933144 
L 158.098466 115.62645 
L 159.947898 115.62645 
L 160.872614 115.319757 
L 162.722045 115.319757 
L 163.646761 114.8086 
L 165.496193 114.8086 
L 166.420909 114.195213 
L 167.345625 114.195213 
L 168.270341 113.888519 
L 169.195057 110.719351 
L 170.119773 108.265801 
L 171.969205 108.265801 
L 172.89392 106.425639 
L 174.743352 106.323408 
L 175.668068 105.198864 
L 177.5175 105.096633 
L 179.366932 105.096633 
L 181.216364 104.585477 
L 182.14108 103.972089 
L 183.065795 103.972089 
L 183.990511 97.735984 
L 185.839943 97.735984 
L 186.764659 97.327059 
L 187.689375 97.327059 
L 188.614091 96.509209 
L 190.463523 96.509209 
L 191.388239 96.304746 
L 193.23767 95.282434 
L 196.011818 95.282434 
L 196.936534 94.669047 
L 197.86125 94.669047 
L 198.785966 94.362353 
L 199.710682 94.362353 
L 200.635398 94.055659 
L 215.430852 94.055659 
L 216.355568 93.237809 
L 219.129716 93.237809 
L 220.054432 93.033347 
L 221.903864 93.033347 
L 222.82858 92.828884 
L 223.753295 91.295416 
L 224.678011 90.477566 
L 227.452159 90.477566 
L 228.376875 89.659716 
L 233.000455 89.659716 
L 233.92517 88.637404 
L 234.849886 88.228479 
L 236.699318 88.228479 
L 237.624034 88.024016 
L 238.54875 88.024016 
L 239.473466 87.615091 
L 240.398182 87.615091 
L 241.322898 87.001704 
L 242.247614 86.797241 
L 244.097045 86.797241 
L 245.946477 86.286085 
L 246.871193 85.468235 
L 247.795909 79.129899 
L 249.645341 78.823205 
L 252.419489 78.823205 
L 253.344205 77.903124 
L 254.26892 77.903124 
L 255.193636 76.676349 
L 257.043068 76.165193 
L 257.967784 75.96073 
L 261.666648 75.858499 
L 262.591364 75.756268 
L 263.51608 75.347343 
L 271.838523 75.245112 
L 272.763239 74.222799 
L 275.537386 74.120568 
L 278.311534 73.916105 
L 280.160966 73.813874 
L 283.85983 73.507181 
L 284.784545 73.507181 
L 285.709261 73.302718 
L 292.182273 73.302718 
L 293.106989 73.098256 
L 300.504716 72.996024 
L 303.278864 72.791562 
L 304.20358 53.265396 
L 314.375455 53.163164 
L 315.30017 52.958702 
L 319.92375 52.958702 
L 320.848466 52.652008 
L 322.697898 52.652008 
L 323.622614 52.447546 
L 325.472045 52.345314 
L 327.321477 51.629696 
L 328.246193 48.562759 
L 329.170909 47.84714 
L 330.095625 47.84714 
L 331.020341 47.233753 
L 332.869773 46.722596 
L 343.041648 46.620365 
L 344.89108 46.518134 
L 352.288807 46.518134 
L 353.213523 46.21144 
L 361.535966 46.21144 
L 362.460682 45.904746 
L 363.385398 45.904746 
L 364.310114 45.291359 
L 372.632557 45.189128 
L 373.557273 44.677972 
L 389.277443 44.57574 
L 391.126875 44.473509 
L 398.524602 44.371278 
L 401.29875 43.860122 
L 406.847045 43.75789 
L 408.696477 43.348966 
L 412.395341 43.246734 
L 413.320057 42.940041 
L 417.943636 42.940041 
L 418.868352 42.531116 
L 434.588523 42.428884 
L 435.513239 42.224422 
L 438.287386 42.224422 
L 439.212102 41.815497 
L 444.760398 41.713266 
L 445.685114 41.508803 
L 446.60983 41.508803 
L 446.60983 41.508803 
" clip-path="url(#paf2e485e50)" style="fill: none; stroke: #6699cc; stroke-width: 3; stroke-linecap: square"/>
   </g>
   <g id="line2d_41">
    <path d="M 91.51892 218.88 
L 92.443636 199.762759 
L 93.368352 196.184665 
L 94.293068 195.264584 
L 95.217784 189.846329 
L 96.1425 189.13071 
L 97.067216 169.093387 
L 97.991932 166.742069 
L 98.916648 163.675132 
L 99.841364 158.256876 
L 100.76608 151.10069 
L 101.690795 136.174929 
L 102.615511 133.107992 
L 103.540227 130.654442 
L 104.464943 129.427667 
L 105.389659 119.102312 
L 106.314375 117.159919 
L 108.163807 114.706369 
L 109.088523 110.208195 
L 110.013239 110.105963 
L 111.86267 108.98142 
L 112.787386 106.323408 
L 113.712102 106.221176 
L 114.636818 105.607789 
L 116.48625 105.403327 
L 117.410966 104.89217 
L 118.335682 104.176552 
L 119.260398 102.847546 
L 120.185114 102.643083 
L 121.10983 97.42929 
L 122.034545 95.998053 
L 122.959261 95.998053 
L 123.883977 95.691359 
L 124.808693 93.340041 
L 125.733409 93.340041 
L 126.658125 91.806572 
L 128.507557 91.397647 
L 130.356989 91.295416 
L 131.281705 90.068641 
L 133.131136 90.068641 
L 134.055852 89.864178 
L 137.754716 89.864178 
L 138.679432 85.570467 
L 140.528864 83.628073 
L 141.45358 79.23213 
L 142.378295 78.720974 
L 143.303011 78.618742 
L 144.227727 78.005355 
L 147.926591 77.903124 
L 148.851307 77.59643 
L 150.700739 77.391968 
L 151.625455 76.676349 
L 152.55017 75.245112 
L 154.399602 75.14288 
L 158.098466 75.040649 
L 159.023182 74.427262 
L 160.872614 74.427262 
L 161.79733 73.507181 
L 162.722045 73.302718 
L 163.646761 73.302718 
L 164.571477 73.098256 
L 170.119773 72.996024 
L 171.969205 72.893793 
L 173.818636 72.791562 
L 175.668068 72.689331 
L 180.291648 72.587099 
L 182.14108 72.382637 
L 183.065795 72.075943 
L 184.915227 71.155862 
L 185.839943 70.849168 
L 186.764659 70.338012 
L 187.689375 70.338012 
L 189.538807 69.724625 
L 192.312955 69.3157 
L 194.162386 69.009006 
L 195.087102 68.191156 
L 196.936534 68.088925 
L 197.86125 67.271075 
L 311.601307 67.168844 
L 313.450739 67.066613 
L 446.60983 66.964381 
L 446.60983 66.964381 
" clip-path="url(#paf2e485e50)" style="fill: none; stroke-dasharray: 3,4.95; stroke-dashoffset: 0; stroke: #808080; stroke-width: 3"/>
   </g>
   <g id="patch_3">
    <path d="M 73.764375 228.96 
L 73.764375 7.2 
" style="fill: none; stroke: #000000; stroke-width: 0.8; stroke-linejoin: miter; stroke-linecap: square"/>
   </g>
   <g id="patch_4">
    <path d="M 464.364375 228.96 
L 464.364375 7.2 
" style="fill: none; stroke: #000000; stroke-width: 0.8; stroke-linejoin: miter; stroke-linecap: square"/>
   </g>
   <g id="patch_5">
    <path d="M 73.764375 228.96 
L 464.364375 228.96 
" style="fill: none; stroke: #000000; stroke-width: 0.8; stroke-linejoin: miter; stroke-linecap: square"/>
   </g>
   <g id="patch_6">
    <path d="M 73.764375 7.2 
L 464.364375 7.2 
" style="fill: none; stroke: #000000; stroke-width: 0.8; stroke-linejoin: miter; stroke-linecap: square"/>
   </g>
   <g id="legend_1">
    <g id="patch_7">
     <path d="M 80.764375 77.496875 
L 248.164375 77.496875 
Q 250.164375 77.496875 250.164375 75.496875 
L 250.164375 14.2 
Q 250.164375 12.2 248.164375 12.2 
L 80.764375 12.2 
Q 78.764375 12.2 78.764375 14.2 
L 78.764375 75.496875 
Q 78.764375 77.496875 80.764375 77.496875 
z
" style="fill: #ffffff; opacity: 0.8; stroke: #cccccc; stroke-linejoin: miter"/>
    </g>
    <g id="line2d_42">
     <path d="M 82.764375 20.298437 
L 92.764375 20.298437 
L 102.764375 20.298437 
" style="fill: none; stroke: #994455; stroke-width: 3; stroke-linecap: square"/>
    </g>
    <g id="text_20">
     <!-- $symcts$ -->
     <g transform="translate(110.764375 23.798437) scale(0.1 -0.1)">
      <defs>
       <path id="DejaVuSans-Oblique-73" d="M 3200 3397 
L 3091 2853 
Q 2863 2978 2609 3040 
Q 2356 3103 2088 3103 
Q 1634 3103 1373 2948 
Q 1113 2794 1113 2528 
Q 1113 2219 1719 2053 
Q 1766 2041 1788 2034 
L 1972 1978 
Q 2547 1819 2739 1644 
Q 2931 1469 2931 1166 
Q 2931 609 2489 259 
Q 2047 -91 1331 -91 
Q 1053 -91 747 -37 
Q 441 16 72 128 
L 184 722 
Q 500 559 806 475 
Q 1113 391 1394 391 
Q 1816 391 2080 572 
Q 2344 753 2344 1031 
Q 2344 1331 1650 1516 
L 1591 1531 
L 1394 1581 
Q 956 1697 753 1886 
Q 550 2075 550 2369 
Q 550 2928 970 3256 
Q 1391 3584 2113 3584 
Q 2397 3584 2667 3537 
Q 2938 3491 3200 3397 
z
" transform="scale(0.015625)"/>
       <path id="DejaVuSans-Oblique-79" d="M 1588 -325 
Q 1188 -997 936 -1164 
Q 684 -1331 294 -1331 
L -159 -1331 
L -63 -850 
L 269 -850 
Q 509 -850 678 -719 
Q 847 -588 1056 -206 
L 1234 128 
L 459 3500 
L 1069 3500 
L 1650 819 
L 3256 3500 
L 3859 3500 
L 1588 -325 
z
" transform="scale(0.015625)"/>
       <path id="DejaVuSans-Oblique-6d" d="M 5747 2113 
L 5338 0 
L 4763 0 
L 5166 2094 
Q 5191 2228 5203 2325 
Q 5216 2422 5216 2491 
Q 5216 2772 5059 2928 
Q 4903 3084 4622 3084 
Q 4203 3084 3875 2770 
Q 3547 2456 3450 1953 
L 3066 0 
L 2491 0 
L 2900 2094 
Q 2925 2209 2937 2307 
Q 2950 2406 2950 2484 
Q 2950 2769 2794 2926 
Q 2638 3084 2363 3084 
Q 1938 3084 1609 2770 
Q 1281 2456 1184 1953 
L 800 0 
L 225 0 
L 909 3500 
L 1484 3500 
L 1375 2956 
Q 1609 3263 1923 3423 
Q 2238 3584 2597 3584 
Q 2978 3584 3223 3384 
Q 3469 3184 3519 2828 
Q 3781 3197 4126 3390 
Q 4472 3584 4856 3584 
Q 5306 3584 5551 3325 
Q 5797 3066 5797 2591 
Q 5797 2488 5784 2364 
Q 5772 2241 5747 2113 
z
" transform="scale(0.015625)"/>
       <path id="DejaVuSans-Oblique-63" d="M 3431 3366 
L 3316 2797 
Q 3109 2947 2876 3022 
Q 2644 3097 2394 3097 
Q 2119 3097 1870 3000 
Q 1622 2903 1453 2725 
Q 1184 2453 1037 2087 
Q 891 1722 891 1331 
Q 891 859 1127 628 
Q 1363 397 1844 397 
Q 2081 397 2348 469 
Q 2616 541 2906 684 
L 2797 116 
Q 2547 13 2283 -39 
Q 2019 -91 1741 -91 
Q 1044 -91 669 257 
Q 294 606 294 1253 
Q 294 1797 489 2255 
Q 684 2713 1069 3078 
Q 1331 3328 1684 3456 
Q 2038 3584 2456 3584 
Q 2700 3584 2940 3529 
Q 3181 3475 3431 3366 
z
" transform="scale(0.015625)"/>
       <path id="DejaVuSans-Oblique-74" d="M 2706 3500 
L 2619 3053 
L 1472 3053 
L 1100 1153 
Q 1081 1047 1072 975 
Q 1063 903 1063 863 
Q 1063 663 1183 572 
Q 1303 481 1569 481 
L 2150 481 
L 2053 0 
L 1503 0 
Q 991 0 739 200 
Q 488 400 488 806 
Q 488 878 497 964 
Q 506 1050 525 1153 
L 897 3053 
L 409 3053 
L 500 3500 
L 978 3500 
L 1172 4494 
L 1747 4494 
L 1556 3500 
L 2706 3500 
z
" transform="scale(0.015625)"/>
      </defs>
      <use xlink:href="#DejaVuSans-Oblique-73" transform="translate(0 0.78125)"/>
      <use xlink:href="#DejaVuSans-Oblique-79" transform="translate(52.099609 0.78125)"/>
      <use xlink:href="#DejaVuSans-Oblique-6d" transform="translate(111.279297 0.78125)"/>
      <use xlink:href="#DejaVuSans-Oblique-63" transform="translate(208.691406 0.78125)"/>
      <use xlink:href="#DejaVuSans-Oblique-74" transform="translate(263.671875 0.78125)"/>
      <use xlink:href="#DejaVuSans-Oblique-73" transform="translate(302.880859 0.78125)"/>
     </g>
    </g>
    <g id="line2d_43">
     <path d="M 82.764375 35.698437 
L 92.764375 35.698437 
L 102.764375 35.698437 
" style="fill: none; stroke: #ee99aa; stroke-width: 3; stroke-linecap: square"/>
    </g>
    <g id="text_21">
     <!-- $symcts^{+}$ -->
     <g transform="translate(110.764375 39.198437) scale(0.1 -0.1)">
      <defs>
       <path id="DejaVuSans-2b" d="M 2944 4013 
L 2944 2272 
L 4684 2272 
L 4684 1741 
L 2944 1741 
L 2944 0 
L 2419 0 
L 2419 1741 
L 678 1741 
L 678 2272 
L 2419 2272 
L 2419 4013 
L 2944 4013 
z
" transform="scale(0.015625)"/>
      </defs>
      <use xlink:href="#DejaVuSans-Oblique-73" transform="translate(0 0.826562)"/>
      <use xlink:href="#DejaVuSans-Oblique-79" transform="translate(52.099609 0.826562)"/>
      <use xlink:href="#DejaVuSans-Oblique-6d" transform="translate(111.279297 0.826562)"/>
      <use xlink:href="#DejaVuSans-Oblique-63" transform="translate(208.691406 0.826562)"/>
      <use xlink:href="#DejaVuSans-Oblique-74" transform="translate(263.671875 0.826562)"/>
      <use xlink:href="#DejaVuSans-Oblique-73" transform="translate(302.880859 0.826562)"/>
      <use xlink:href="#DejaVuSans-2b" transform="translate(359.630365 39.107812) scale(0.7)"/>
     </g>
    </g>
    <g id="line2d_44">
     <path d="M 82.764375 50.396875 
L 92.764375 50.396875 
L 102.764375 50.396875 
" style="fill: none; stroke: #004488; stroke-width: 3; stroke-linecap: square"/>
    </g>
    <g id="text_22">
     <!-- $symcts_{Q}$ -->
     <g transform="translate(110.764375 53.896875) scale(0.1 -0.1)">
      <defs>
       <path id="DejaVuSans-Oblique-51" d="M 2309 -84 
Q 2275 -88 2237 -89 
Q 2200 -91 2125 -91 
Q 1250 -91 756 411 
Q 263 913 263 1797 
Q 263 2319 452 2844 
Q 641 3369 978 3788 
Q 1369 4269 1858 4509 
Q 2347 4750 2938 4750 
Q 3794 4750 4287 4245 
Q 4781 3741 4781 2869 
Q 4781 1928 4265 1147 
Q 3750 366 2919 44 
L 3553 -825 
L 2847 -825 
L 2309 -84 
z
M 2919 4238 
Q 2400 4238 2003 3986 
Q 1606 3734 1313 3219 
Q 1125 2891 1026 2522 
Q 928 2153 928 1778 
Q 928 1128 1239 775 
Q 1550 422 2119 422 
Q 2631 422 3032 676 
Q 3434 931 3719 1434 
Q 3909 1772 4009 2142 
Q 4109 2513 4109 2881 
Q 4109 3528 3796 3883 
Q 3484 4238 2919 4238 
z
" transform="scale(0.015625)"/>
      </defs>
      <use xlink:href="#DejaVuSans-Oblique-73" transform="translate(0 0.78125)"/>
      <use xlink:href="#DejaVuSans-Oblique-79" transform="translate(52.099609 0.78125)"/>
      <use xlink:href="#DejaVuSans-Oblique-6d" transform="translate(111.279297 0.78125)"/>
      <use xlink:href="#DejaVuSans-Oblique-63" transform="translate(208.691406 0.78125)"/>
      <use xlink:href="#DejaVuSans-Oblique-74" transform="translate(263.671875 0.78125)"/>
      <use xlink:href="#DejaVuSans-Oblique-73" transform="translate(302.880859 0.78125)"/>
      <use xlink:href="#DejaVuSans-Oblique-51" transform="translate(354.980469 -15.625) scale(0.7)"/>
     </g>
    </g>
    <g id="line2d_45">
     <path d="M 82.764375 66.296875 
L 92.764375 66.296875 
L 102.764375 66.296875 
" style="fill: none; stroke: #6699cc; stroke-width: 3; stroke-linecap: square"/>
    </g>
    <g id="text_23">
     <!-- $symcts_{Q}^{+}$ -->
     <g transform="translate(110.764375 69.796875) scale(0.1 -0.1)">
      <use xlink:href="#DejaVuSans-Oblique-73" transform="translate(0 0.826562)"/>
      <use xlink:href="#DejaVuSans-Oblique-79" transform="translate(52.099609 0.826562)"/>
      <use xlink:href="#DejaVuSans-Oblique-6d" transform="translate(111.279297 0.826562)"/>
      <use xlink:href="#DejaVuSans-Oblique-63" transform="translate(208.691406 0.826562)"/>
      <use xlink:href="#DejaVuSans-Oblique-74" transform="translate(263.671875 0.826562)"/>
      <use xlink:href="#DejaVuSans-Oblique-73" transform="translate(302.880859 0.826562)"/>
      <use xlink:href="#DejaVuSans-2b" transform="translate(359.630365 39.107813) scale(0.7)"/>
      <use xlink:href="#DejaVuSans-Oblique-51" transform="translate(354.980469 -26.517188) scale(0.7)"/>
     </g>
    </g>
    <g id="line2d_46">
     <path d="M 172.964375 20.298437 
L 182.964375 20.298437 
L 192.964375 20.298437 
" style="fill: none; stroke-dasharray: 3,4.95; stroke-dashoffset: 0; stroke: #ddaa33; stroke-width: 3"/>
    </g>
    <g id="text_24">
     <!-- $afl$++ -->
     <g transform="translate(200.964375 23.798437) scale(0.1 -0.1)">
      <defs>
       <path id="DejaVuSans-Oblique-61" d="M 3438 1997 
L 3047 0 
L 2472 0 
L 2578 531 
Q 2325 219 2001 64 
Q 1678 -91 1281 -91 
Q 834 -91 548 182 
Q 263 456 263 884 
Q 263 1497 752 1853 
Q 1241 2209 2100 2209 
L 2900 2209 
L 2931 2363 
Q 2938 2388 2941 2417 
Q 2944 2447 2944 2509 
Q 2944 2788 2717 2942 
Q 2491 3097 2081 3097 
Q 1800 3097 1504 3025 
Q 1209 2953 897 2809 
L 997 3341 
Q 1322 3463 1633 3523 
Q 1944 3584 2234 3584 
Q 2853 3584 3176 3315 
Q 3500 3047 3500 2534 
Q 3500 2431 3484 2292 
Q 3469 2153 3438 1997 
z
M 2816 1759 
L 2241 1759 
Q 1534 1759 1195 1570 
Q 856 1381 856 984 
Q 856 709 1029 553 
Q 1203 397 1509 397 
Q 1978 397 2328 733 
Q 2678 1069 2791 1631 
L 2816 1759 
z
" transform="scale(0.015625)"/>
       <path id="DejaVuSans-Oblique-66" d="M 3059 4863 
L 2969 4384 
L 2419 4384 
Q 2106 4384 1964 4261 
Q 1822 4138 1753 3809 
L 1691 3500 
L 2638 3500 
L 2553 3053 
L 1606 3053 
L 1013 0 
L 434 0 
L 1031 3053 
L 481 3053 
L 563 3500 
L 1113 3500 
L 1159 3744 
Q 1278 4363 1576 4613 
Q 1875 4863 2516 4863 
L 3059 4863 
z
" transform="scale(0.015625)"/>
       <path id="DejaVuSans-Oblique-6c" d="M 1172 4863 
L 1747 4863 
L 800 0 
L 225 0 
L 1172 4863 
z
" transform="scale(0.015625)"/>
      </defs>
      <use xlink:href="#DejaVuSans-Oblique-61" transform="translate(0 0.015625)"/>
      <use xlink:href="#DejaVuSans-Oblique-66" transform="translate(61.279297 0.015625)"/>
      <use xlink:href="#DejaVuSans-Oblique-6c" transform="translate(96.484375 0.015625)"/>
      <use xlink:href="#DejaVuSans-2b" transform="translate(124.267578 0.015625)"/>
      <use xlink:href="#DejaVuSans-2b" transform="translate(208.056641 0.015625)"/>
     </g>
    </g>
    <g id="line2d_47">
     <path d="M 172.964375 35.678125 
L 182.964375 35.678125 
L 192.964375 35.678125 
" style="fill: none; stroke-dasharray: 3,4.95; stroke-dashoffset: 0; stroke: #000000; stroke-width: 3"/>
    </g>
    <g id="text_25">
     <!-- $symcc^{+}$ -->
     <g transform="translate(200.964375 39.178125) scale(0.1 -0.1)">
      <use xlink:href="#DejaVuSans-Oblique-73" transform="translate(0 0.826562)"/>
      <use xlink:href="#DejaVuSans-Oblique-79" transform="translate(52.099609 0.826562)"/>
      <use xlink:href="#DejaVuSans-Oblique-6d" transform="translate(111.279297 0.826562)"/>
      <use xlink:href="#DejaVuSans-Oblique-63" transform="translate(208.691406 0.826562)"/>
      <use xlink:href="#DejaVuSans-Oblique-63" transform="translate(263.671875 0.826562)"/>
      <use xlink:href="#DejaVuSans-2b" transform="translate(323.30224 39.107812) scale(0.7)"/>
     </g>
    </g>
    <g id="line2d_48">
     <path d="M 172.964375 51.078125 
L 182.964375 51.078125 
L 192.964375 51.078125 
" style="fill: none; stroke-dasharray: 3,4.95; stroke-dashoffset: 0; stroke: #808080; stroke-width: 3"/>
    </g>
    <g id="text_26">
     <!-- $symsan^{+}$ -->
     <g transform="translate(200.964375 54.578125) scale(0.1 -0.1)">
      <defs>
       <path id="DejaVuSans-Oblique-6e" d="M 3566 2113 
L 3156 0 
L 2578 0 
L 2988 2091 
Q 3016 2238 3031 2350 
Q 3047 2463 3047 2528 
Q 3047 2791 2881 2937 
Q 2716 3084 2419 3084 
Q 1956 3084 1622 2776 
Q 1288 2469 1184 1941 
L 800 0 
L 225 0 
L 903 3500 
L 1478 3500 
L 1363 2950 
Q 1603 3253 1940 3418 
Q 2278 3584 2650 3584 
Q 3113 3584 3367 3334 
Q 3622 3084 3622 2631 
Q 3622 2519 3608 2391 
Q 3594 2263 3566 2113 
z
" transform="scale(0.015625)"/>
      </defs>
      <use xlink:href="#DejaVuSans-Oblique-73" transform="translate(0 0.826562)"/>
      <use xlink:href="#DejaVuSans-Oblique-79" transform="translate(52.099609 0.826562)"/>
      <use xlink:href="#DejaVuSans-Oblique-6d" transform="translate(111.279297 0.826562)"/>
      <use xlink:href="#DejaVuSans-Oblique-73" transform="translate(208.691406 0.826562)"/>
      <use xlink:href="#DejaVuSans-Oblique-61" transform="translate(260.791016 0.826562)"/>
      <use xlink:href="#DejaVuSans-Oblique-6e" transform="translate(322.070312 0.826562)"/>
      <use xlink:href="#DejaVuSans-2b" transform="translate(390.099115 39.107812) scale(0.7)"/>
     </g>
    </g>
   </g>
  </g>
 </g>
 <defs>
  <clipPath id="paf2e485e50">
   <rect x="73.764375" y="7.2" width="390.6" height="221.76"/>
  </clipPath>
 </defs>
</svg>
