<?xml version="1.0" encoding="utf-8" standalone="no"?>
<!DOCTYPE svg PUBLIC "-//W3C//DTD SVG 1.1//EN"
  "http://www.w3.org/Graphics/SVG/1.1/DTD/svg11.dtd">
<svg xmlns:xlink="http://www.w3.org/1999/xlink" width="480.471875pt" height="276.194375pt" viewBox="0 0 480.471875 276.194375" xmlns="http://www.w3.org/2000/svg" version="1.1">
 <metadata>
  <rdf:RDF xmlns:dc="http://purl.org/dc/elements/1.1/" xmlns:cc="http://creativecommons.org/ns#" xmlns:rdf="http://www.w3.org/1999/02/22-rdf-syntax-ns#">
   <cc:Work>
    <dc:type rdf:resource="http://purl.org/dc/dcmitype/StillImage"/>
    <dc:date>2023-10-07T23:50:32.386517</dc:date>
    <dc:format>image/svg+xml</dc:format>
    <dc:creator>
     <cc:Agent>
      <dc:title>Matplotlib v3.7.1, https://matplotlib.org/</dc:title>
     </cc:Agent>
    </dc:creator>
   </cc:Work>
  </rdf:RDF>
 </metadata>
 <defs>
  <style type="text/css">*{stroke-linejoin: round; stroke-linecap: butt}</style>
 </defs>
 <g id="figure_1">
  <g id="patch_1">
   <path d="M 0 276.194375 
L 480.471875 276.194375 
L 480.471875 0 
L 0 0 
z
" style="fill: #ffffff"/>
  </g>
  <g id="axes_1">
   <g id="patch_2">
    <path d="M 82.671875 228.96 
L 473.271875 228.96 
L 473.271875 7.2 
L 82.671875 7.2 
z
" style="fill: #ffffff"/>
   </g>
   <g id="matplotlib.axis_1">
    <g id="xtick_1">
     <g id="line2d_1">
      <path d="M 100.42642 228.96 
L 100.42642 7.2 
" clip-path="url(#p6862bc5644)" style="fill: none; stroke: #b0b0b0; stroke-opacity: 0.3; stroke-width: 0.8; stroke-linecap: square"/>
     </g>
     <g id="line2d_2">
      <defs>
       <path id="mf597d7f786" d="M 0 0 
L 0 3.5 
" style="stroke: #000000; stroke-width: 0.8"/>
      </defs>
      <g>
       <use xlink:href="#mf597d7f786" x="100.42642" y="228.96" style="stroke: #000000; stroke-width: 0.8"/>
      </g>
     </g>
     <g id="text_1">
      <!-- 0h -->
      <g transform="translate(91.53642 246.597813) scale(0.14 -0.14)">
       <defs>
        <path id="DejaVuSans-30" d="M 2034 4250 
Q 1547 4250 1301 3770 
Q 1056 3291 1056 2328 
Q 1056 1369 1301 889 
Q 1547 409 2034 409 
Q 2525 409 2770 889 
Q 3016 1369 3016 2328 
Q 3016 3291 2770 3770 
Q 2525 4250 2034 4250 
z
M 2034 4750 
Q 2819 4750 3233 4129 
Q 3647 3509 3647 2328 
Q 3647 1150 3233 529 
Q 2819 -91 2034 -91 
Q 1250 -91 836 529 
Q 422 1150 422 2328 
Q 422 3509 836 4129 
Q 1250 4750 2034 4750 
z
" transform="scale(0.015625)"/>
        <path id="DejaVuSans-68" d="M 3513 2113 
L 3513 0 
L 2938 0 
L 2938 2094 
Q 2938 2591 2744 2837 
Q 2550 3084 2163 3084 
Q 1697 3084 1428 2787 
Q 1159 2491 1159 1978 
L 1159 0 
L 581 0 
L 581 4863 
L 1159 4863 
L 1159 2956 
Q 1366 3272 1645 3428 
Q 1925 3584 2291 3584 
Q 2894 3584 3203 3211 
Q 3513 2838 3513 2113 
z
" transform="scale(0.015625)"/>
       </defs>
       <use xlink:href="#DejaVuSans-30"/>
       <use xlink:href="#DejaVuSans-68" x="63.623047"/>
      </g>
     </g>
    </g>
    <g id="xtick_2">
     <g id="line2d_3">
      <path d="M 144.812784 228.96 
L 144.812784 7.2 
" clip-path="url(#p6862bc5644)" style="fill: none; stroke: #b0b0b0; stroke-opacity: 0.3; stroke-width: 0.8; stroke-linecap: square"/>
     </g>
     <g id="line2d_4">
      <g>
       <use xlink:href="#mf597d7f786" x="144.812784" y="228.96" style="stroke: #000000; stroke-width: 0.8"/>
      </g>
     </g>
     <g id="text_2">
      <!-- 12h -->
      <g transform="translate(131.469034 246.597813) scale(0.14 -0.14)">
       <defs>
        <path id="DejaVuSans-31" d="M 794 531 
L 1825 531 
L 1825 4091 
L 703 3866 
L 703 4441 
L 1819 4666 
L 2450 4666 
L 2450 531 
L 3481 531 
L 3481 0 
L 794 0 
L 794 531 
z
" transform="scale(0.015625)"/>
        <path id="DejaVuSans-32" d="M 1228 531 
L 3431 531 
L 3431 0 
L 469 0 
L 469 531 
Q 828 903 1448 1529 
Q 2069 2156 2228 2338 
Q 2531 2678 2651 2914 
Q 2772 3150 2772 3378 
Q 2772 3750 2511 3984 
Q 2250 4219 1831 4219 
Q 1534 4219 1204 4116 
Q 875 4013 500 3803 
L 500 4441 
Q 881 4594 1212 4672 
Q 1544 4750 1819 4750 
Q 2544 4750 2975 4387 
Q 3406 4025 3406 3419 
Q 3406 3131 3298 2873 
Q 3191 2616 2906 2266 
Q 2828 2175 2409 1742 
Q 1991 1309 1228 531 
z
" transform="scale(0.015625)"/>
       </defs>
       <use xlink:href="#DejaVuSans-31"/>
       <use xlink:href="#DejaVuSans-32" x="63.623047"/>
       <use xlink:href="#DejaVuSans-68" x="127.246094"/>
      </g>
     </g>
    </g>
    <g id="xtick_3">
     <g id="line2d_5">
      <path d="M 189.199148 228.96 
L 189.199148 7.2 
" clip-path="url(#p6862bc5644)" style="fill: none; stroke: #b0b0b0; stroke-opacity: 0.3; stroke-width: 0.8; stroke-linecap: square"/>
     </g>
     <g id="line2d_6">
      <g>
       <use xlink:href="#mf597d7f786" x="189.199148" y="228.96" style="stroke: #000000; stroke-width: 0.8"/>
      </g>
     </g>
     <g id="text_3">
      <!-- 24h -->
      <g transform="translate(175.855398 246.597813) scale(0.14 -0.14)">
       <defs>
        <path id="DejaVuSans-34" d="M 2419 4116 
L 825 1625 
L 2419 1625 
L 2419 4116 
z
M 2253 4666 
L 3047 4666 
L 3047 1625 
L 3713 1625 
L 3713 1100 
L 3047 1100 
L 3047 0 
L 2419 0 
L 2419 1100 
L 313 1100 
L 313 1709 
L 2253 4666 
z
" transform="scale(0.015625)"/>
       </defs>
       <use xlink:href="#DejaVuSans-32"/>
       <use xlink:href="#DejaVuSans-34" x="63.623047"/>
       <use xlink:href="#DejaVuSans-68" x="127.246094"/>
      </g>
     </g>
    </g>
    <g id="xtick_4">
     <g id="line2d_7">
      <path d="M 233.585511 228.96 
L 233.585511 7.2 
" clip-path="url(#p6862bc5644)" style="fill: none; stroke: #b0b0b0; stroke-opacity: 0.3; stroke-width: 0.8; stroke-linecap: square"/>
     </g>
     <g id="line2d_8">
      <g>
       <use xlink:href="#mf597d7f786" x="233.585511" y="228.96" style="stroke: #000000; stroke-width: 0.8"/>
      </g>
     </g>
     <g id="text_4">
      <!-- 36h -->
      <g transform="translate(220.241761 246.597813) scale(0.14 -0.14)">
       <defs>
        <path id="DejaVuSans-33" d="M 2597 2516 
Q 3050 2419 3304 2112 
Q 3559 1806 3559 1356 
Q 3559 666 3084 287 
Q 2609 -91 1734 -91 
Q 1441 -91 1130 -33 
Q 819 25 488 141 
L 488 750 
Q 750 597 1062 519 
Q 1375 441 1716 441 
Q 2309 441 2620 675 
Q 2931 909 2931 1356 
Q 2931 1769 2642 2001 
Q 2353 2234 1838 2234 
L 1294 2234 
L 1294 2753 
L 1863 2753 
Q 2328 2753 2575 2939 
Q 2822 3125 2822 3475 
Q 2822 3834 2567 4026 
Q 2313 4219 1838 4219 
Q 1578 4219 1281 4162 
Q 984 4106 628 3988 
L 628 4550 
Q 988 4650 1302 4700 
Q 1616 4750 1894 4750 
Q 2613 4750 3031 4423 
Q 3450 4097 3450 3541 
Q 3450 3153 3228 2886 
Q 3006 2619 2597 2516 
z
" transform="scale(0.015625)"/>
        <path id="DejaVuSans-36" d="M 2113 2584 
Q 1688 2584 1439 2293 
Q 1191 2003 1191 1497 
Q 1191 994 1439 701 
Q 1688 409 2113 409 
Q 2538 409 2786 701 
Q 3034 994 3034 1497 
Q 3034 2003 2786 2293 
Q 2538 2584 2113 2584 
z
M 3366 4563 
L 3366 3988 
Q 3128 4100 2886 4159 
Q 2644 4219 2406 4219 
Q 1781 4219 1451 3797 
Q 1122 3375 1075 2522 
Q 1259 2794 1537 2939 
Q 1816 3084 2150 3084 
Q 2853 3084 3261 2657 
Q 3669 2231 3669 1497 
Q 3669 778 3244 343 
Q 2819 -91 2113 -91 
Q 1303 -91 875 529 
Q 447 1150 447 2328 
Q 447 3434 972 4092 
Q 1497 4750 2381 4750 
Q 2619 4750 2861 4703 
Q 3103 4656 3366 4563 
z
" transform="scale(0.015625)"/>
       </defs>
       <use xlink:href="#DejaVuSans-33"/>
       <use xlink:href="#DejaVuSans-36" x="63.623047"/>
       <use xlink:href="#DejaVuSans-68" x="127.246094"/>
      </g>
     </g>
    </g>
    <g id="xtick_5">
     <g id="line2d_9">
      <path d="M 277.971875 228.96 
L 277.971875 7.2 
" clip-path="url(#p6862bc5644)" style="fill: none; stroke: #b0b0b0; stroke-opacity: 0.3; stroke-width: 0.8; stroke-linecap: square"/>
     </g>
     <g id="line2d_10">
      <g>
       <use xlink:href="#mf597d7f786" x="277.971875" y="228.96" style="stroke: #000000; stroke-width: 0.8"/>
      </g>
     </g>
     <g id="text_5">
      <!-- 48h -->
      <g transform="translate(264.628125 246.597813) scale(0.14 -0.14)">
       <defs>
        <path id="DejaVuSans-38" d="M 2034 2216 
Q 1584 2216 1326 1975 
Q 1069 1734 1069 1313 
Q 1069 891 1326 650 
Q 1584 409 2034 409 
Q 2484 409 2743 651 
Q 3003 894 3003 1313 
Q 3003 1734 2745 1975 
Q 2488 2216 2034 2216 
z
M 1403 2484 
Q 997 2584 770 2862 
Q 544 3141 544 3541 
Q 544 4100 942 4425 
Q 1341 4750 2034 4750 
Q 2731 4750 3128 4425 
Q 3525 4100 3525 3541 
Q 3525 3141 3298 2862 
Q 3072 2584 2669 2484 
Q 3125 2378 3379 2068 
Q 3634 1759 3634 1313 
Q 3634 634 3220 271 
Q 2806 -91 2034 -91 
Q 1263 -91 848 271 
Q 434 634 434 1313 
Q 434 1759 690 2068 
Q 947 2378 1403 2484 
z
M 1172 3481 
Q 1172 3119 1398 2916 
Q 1625 2713 2034 2713 
Q 2441 2713 2670 2916 
Q 2900 3119 2900 3481 
Q 2900 3844 2670 4047 
Q 2441 4250 2034 4250 
Q 1625 4250 1398 4047 
Q 1172 3844 1172 3481 
z
" transform="scale(0.015625)"/>
       </defs>
       <use xlink:href="#DejaVuSans-34"/>
       <use xlink:href="#DejaVuSans-38" x="63.623047"/>
       <use xlink:href="#DejaVuSans-68" x="127.246094"/>
      </g>
     </g>
    </g>
    <g id="xtick_6">
     <g id="line2d_11">
      <path d="M 322.358239 228.96 
L 322.358239 7.2 
" clip-path="url(#p6862bc5644)" style="fill: none; stroke: #b0b0b0; stroke-opacity: 0.3; stroke-width: 0.8; stroke-linecap: square"/>
     </g>
     <g id="line2d_12">
      <g>
       <use xlink:href="#mf597d7f786" x="322.358239" y="228.96" style="stroke: #000000; stroke-width: 0.8"/>
      </g>
     </g>
     <g id="text_6">
      <!-- 60h -->
      <g transform="translate(309.014489 246.597813) scale(0.14 -0.14)">
       <use xlink:href="#DejaVuSans-36"/>
       <use xlink:href="#DejaVuSans-30" x="63.623047"/>
       <use xlink:href="#DejaVuSans-68" x="127.246094"/>
      </g>
     </g>
    </g>
    <g id="xtick_7">
     <g id="line2d_13">
      <path d="M 366.744602 228.96 
L 366.744602 7.2 
" clip-path="url(#p6862bc5644)" style="fill: none; stroke: #b0b0b0; stroke-opacity: 0.3; stroke-width: 0.8; stroke-linecap: square"/>
     </g>
     <g id="line2d_14">
      <g>
       <use xlink:href="#mf597d7f786" x="366.744602" y="228.96" style="stroke: #000000; stroke-width: 0.8"/>
      </g>
     </g>
     <g id="text_7">
      <!-- 72h -->
      <g transform="translate(353.400852 246.597813) scale(0.14 -0.14)">
       <defs>
        <path id="DejaVuSans-37" d="M 525 4666 
L 3525 4666 
L 3525 4397 
L 1831 0 
L 1172 0 
L 2766 4134 
L 525 4134 
L 525 4666 
z
" transform="scale(0.015625)"/>
       </defs>
       <use xlink:href="#DejaVuSans-37"/>
       <use xlink:href="#DejaVuSans-32" x="63.623047"/>
       <use xlink:href="#DejaVuSans-68" x="127.246094"/>
      </g>
     </g>
    </g>
    <g id="xtick_8">
     <g id="line2d_15">
      <path d="M 411.130966 228.96 
L 411.130966 7.2 
" clip-path="url(#p6862bc5644)" style="fill: none; stroke: #b0b0b0; stroke-opacity: 0.3; stroke-width: 0.8; stroke-linecap: square"/>
     </g>
     <g id="line2d_16">
      <g>
       <use xlink:href="#mf597d7f786" x="411.130966" y="228.96" style="stroke: #000000; stroke-width: 0.8"/>
      </g>
     </g>
     <g id="text_8">
      <!-- 84h -->
      <g transform="translate(397.787216 246.597813) scale(0.14 -0.14)">
       <use xlink:href="#DejaVuSans-38"/>
       <use xlink:href="#DejaVuSans-34" x="63.623047"/>
       <use xlink:href="#DejaVuSans-68" x="127.246094"/>
      </g>
     </g>
    </g>
    <g id="xtick_9">
     <g id="line2d_17">
      <path d="M 455.51733 228.96 
L 455.51733 7.2 
" clip-path="url(#p6862bc5644)" style="fill: none; stroke: #b0b0b0; stroke-opacity: 0.3; stroke-width: 0.8; stroke-linecap: square"/>
     </g>
     <g id="line2d_18">
      <g>
       <use xlink:href="#mf597d7f786" x="455.51733" y="228.96" style="stroke: #000000; stroke-width: 0.8"/>
      </g>
     </g>
     <g id="text_9">
      <!-- 96h -->
      <g transform="translate(442.17358 246.597813) scale(0.14 -0.14)">
       <defs>
        <path id="DejaVuSans-39" d="M 703 97 
L 703 672 
Q 941 559 1184 500 
Q 1428 441 1663 441 
Q 2288 441 2617 861 
Q 2947 1281 2994 2138 
Q 2813 1869 2534 1725 
Q 2256 1581 1919 1581 
Q 1219 1581 811 2004 
Q 403 2428 403 3163 
Q 403 3881 828 4315 
Q 1253 4750 1959 4750 
Q 2769 4750 3195 4129 
Q 3622 3509 3622 2328 
Q 3622 1225 3098 567 
Q 2575 -91 1691 -91 
Q 1453 -91 1209 -44 
Q 966 3 703 97 
z
M 1959 2075 
Q 2384 2075 2632 2365 
Q 2881 2656 2881 3163 
Q 2881 3666 2632 3958 
Q 2384 4250 1959 4250 
Q 1534 4250 1286 3958 
Q 1038 3666 1038 3163 
Q 1038 2656 1286 2365 
Q 1534 2075 1959 2075 
z
" transform="scale(0.015625)"/>
       </defs>
       <use xlink:href="#DejaVuSans-39"/>
       <use xlink:href="#DejaVuSans-36" x="63.623047"/>
       <use xlink:href="#DejaVuSans-68" x="127.246094"/>
      </g>
     </g>
    </g>
    <g id="text_10">
     <!-- Time -->
     <g transform="translate(258.398125 265.666875) scale(0.16 -0.16)">
      <defs>
       <path id="DejaVuSans-54" d="M -19 4666 
L 3928 4666 
L 3928 4134 
L 2272 4134 
L 2272 0 
L 1638 0 
L 1638 4134 
L -19 4134 
L -19 4666 
z
" transform="scale(0.015625)"/>
       <path id="DejaVuSans-69" d="M 603 3500 
L 1178 3500 
L 1178 0 
L 603 0 
L 603 3500 
z
M 603 4863 
L 1178 4863 
L 1178 4134 
L 603 4134 
L 603 4863 
z
" transform="scale(0.015625)"/>
       <path id="DejaVuSans-6d" d="M 3328 2828 
Q 3544 3216 3844 3400 
Q 4144 3584 4550 3584 
Q 5097 3584 5394 3201 
Q 5691 2819 5691 2113 
L 5691 0 
L 5113 0 
L 5113 2094 
Q 5113 2597 4934 2840 
Q 4756 3084 4391 3084 
Q 3944 3084 3684 2787 
Q 3425 2491 3425 1978 
L 3425 0 
L 2847 0 
L 2847 2094 
Q 2847 2600 2669 2842 
Q 2491 3084 2119 3084 
Q 1678 3084 1418 2786 
Q 1159 2488 1159 1978 
L 1159 0 
L 581 0 
L 581 3500 
L 1159 3500 
L 1159 2956 
Q 1356 3278 1631 3431 
Q 1906 3584 2284 3584 
Q 2666 3584 2933 3390 
Q 3200 3197 3328 2828 
z
" transform="scale(0.015625)"/>
       <path id="DejaVuSans-65" d="M 3597 1894 
L 3597 1613 
L 953 1613 
Q 991 1019 1311 708 
Q 1631 397 2203 397 
Q 2534 397 2845 478 
Q 3156 559 3463 722 
L 3463 178 
Q 3153 47 2828 -22 
Q 2503 -91 2169 -91 
Q 1331 -91 842 396 
Q 353 884 353 1716 
Q 353 2575 817 3079 
Q 1281 3584 2069 3584 
Q 2775 3584 3186 3129 
Q 3597 2675 3597 1894 
z
M 3022 2063 
Q 3016 2534 2758 2815 
Q 2500 3097 2075 3097 
Q 1594 3097 1305 2825 
Q 1016 2553 972 2059 
L 3022 2063 
z
" transform="scale(0.015625)"/>
      </defs>
      <use xlink:href="#DejaVuSans-54"/>
      <use xlink:href="#DejaVuSans-69" x="57.958984"/>
      <use xlink:href="#DejaVuSans-6d" x="85.742188"/>
      <use xlink:href="#DejaVuSans-65" x="183.154297"/>
     </g>
    </g>
   </g>
   <g id="matplotlib.axis_2">
    <g id="ytick_1">
     <g id="line2d_19">
      <path d="M 82.671875 206.597269 
L 473.271875 206.597269 
" clip-path="url(#p6862bc5644)" style="fill: none; stroke: #b0b0b0; stroke-opacity: 0.3; stroke-width: 0.8; stroke-linecap: square"/>
     </g>
     <g id="line2d_20">
      <defs>
       <path id="mcf3561e1b8" d="M 0 0 
L -3.5 0 
" style="stroke: #000000; stroke-width: 0.8"/>
      </defs>
      <g>
       <use xlink:href="#mcf3561e1b8" x="82.671875" y="206.597269" style="stroke: #000000; stroke-width: 0.8"/>
      </g>
     </g>
     <g id="text_11">
      <!-- 9,000 -->
      <g transform="translate(35.5925 211.916176) scale(0.14 -0.14)">
       <defs>
        <path id="DejaVuSans-2c" d="M 750 794 
L 1409 794 
L 1409 256 
L 897 -744 
L 494 -744 
L 750 256 
L 750 794 
z
" transform="scale(0.015625)"/>
       </defs>
       <use xlink:href="#DejaVuSans-39"/>
       <use xlink:href="#DejaVuSans-2c" x="63.623047"/>
       <use xlink:href="#DejaVuSans-30" x="95.410156"/>
       <use xlink:href="#DejaVuSans-30" x="159.033203"/>
       <use xlink:href="#DejaVuSans-30" x="222.65625"/>
      </g>
     </g>
    </g>
    <g id="ytick_2">
     <g id="line2d_21">
      <path d="M 82.671875 178.933461 
L 473.271875 178.933461 
" clip-path="url(#p6862bc5644)" style="fill: none; stroke: #b0b0b0; stroke-opacity: 0.3; stroke-width: 0.8; stroke-linecap: square"/>
     </g>
     <g id="line2d_22">
      <g>
       <use xlink:href="#mcf3561e1b8" x="82.671875" y="178.933461" style="stroke: #000000; stroke-width: 0.8"/>
      </g>
     </g>
     <g id="text_12">
      <!-- 10,000 -->
      <g transform="translate(26.685 184.252368) scale(0.14 -0.14)">
       <use xlink:href="#DejaVuSans-31"/>
       <use xlink:href="#DejaVuSans-30" x="63.623047"/>
       <use xlink:href="#DejaVuSans-2c" x="127.246094"/>
       <use xlink:href="#DejaVuSans-30" x="159.033203"/>
       <use xlink:href="#DejaVuSans-30" x="222.65625"/>
       <use xlink:href="#DejaVuSans-30" x="286.279297"/>
      </g>
     </g>
    </g>
    <g id="ytick_3">
     <g id="line2d_23">
      <path d="M 82.671875 151.269654 
L 473.271875 151.269654 
" clip-path="url(#p6862bc5644)" style="fill: none; stroke: #b0b0b0; stroke-opacity: 0.3; stroke-width: 0.8; stroke-linecap: square"/>
     </g>
     <g id="line2d_24">
      <g>
       <use xlink:href="#mcf3561e1b8" x="82.671875" y="151.269654" style="stroke: #000000; stroke-width: 0.8"/>
      </g>
     </g>
     <g id="text_13">
      <!-- 11,000 -->
      <g transform="translate(26.685 156.58856) scale(0.14 -0.14)">
       <use xlink:href="#DejaVuSans-31"/>
       <use xlink:href="#DejaVuSans-31" x="63.623047"/>
       <use xlink:href="#DejaVuSans-2c" x="127.246094"/>
       <use xlink:href="#DejaVuSans-30" x="159.033203"/>
       <use xlink:href="#DejaVuSans-30" x="222.65625"/>
       <use xlink:href="#DejaVuSans-30" x="286.279297"/>
      </g>
     </g>
    </g>
    <g id="ytick_4">
     <g id="line2d_25">
      <path d="M 82.671875 123.605846 
L 473.271875 123.605846 
" clip-path="url(#p6862bc5644)" style="fill: none; stroke: #b0b0b0; stroke-opacity: 0.3; stroke-width: 0.8; stroke-linecap: square"/>
     </g>
     <g id="line2d_26">
      <g>
       <use xlink:href="#mcf3561e1b8" x="82.671875" y="123.605846" style="stroke: #000000; stroke-width: 0.8"/>
      </g>
     </g>
     <g id="text_14">
      <!-- 12,000 -->
      <g transform="translate(26.685 128.924752) scale(0.14 -0.14)">
       <use xlink:href="#DejaVuSans-31"/>
       <use xlink:href="#DejaVuSans-32" x="63.623047"/>
       <use xlink:href="#DejaVuSans-2c" x="127.246094"/>
       <use xlink:href="#DejaVuSans-30" x="159.033203"/>
       <use xlink:href="#DejaVuSans-30" x="222.65625"/>
       <use xlink:href="#DejaVuSans-30" x="286.279297"/>
      </g>
     </g>
    </g>
    <g id="ytick_5">
     <g id="line2d_27">
      <path d="M 82.671875 95.942038 
L 473.271875 95.942038 
" clip-path="url(#p6862bc5644)" style="fill: none; stroke: #b0b0b0; stroke-opacity: 0.3; stroke-width: 0.8; stroke-linecap: square"/>
     </g>
     <g id="line2d_28">
      <g>
       <use xlink:href="#mcf3561e1b8" x="82.671875" y="95.942038" style="stroke: #000000; stroke-width: 0.8"/>
      </g>
     </g>
     <g id="text_15">
      <!-- 13,000 -->
      <g transform="translate(26.685 101.260944) scale(0.14 -0.14)">
       <use xlink:href="#DejaVuSans-31"/>
       <use xlink:href="#DejaVuSans-33" x="63.623047"/>
       <use xlink:href="#DejaVuSans-2c" x="127.246094"/>
       <use xlink:href="#DejaVuSans-30" x="159.033203"/>
       <use xlink:href="#DejaVuSans-30" x="222.65625"/>
       <use xlink:href="#DejaVuSans-30" x="286.279297"/>
      </g>
     </g>
    </g>
    <g id="ytick_6">
     <g id="line2d_29">
      <path d="M 82.671875 68.27823 
L 473.271875 68.27823 
" clip-path="url(#p6862bc5644)" style="fill: none; stroke: #b0b0b0; stroke-opacity: 0.3; stroke-width: 0.8; stroke-linecap: square"/>
     </g>
     <g id="line2d_30">
      <g>
       <use xlink:href="#mcf3561e1b8" x="82.671875" y="68.27823" style="stroke: #000000; stroke-width: 0.8"/>
      </g>
     </g>
     <g id="text_16">
      <!-- 14,000 -->
      <g transform="translate(26.685 73.597136) scale(0.14 -0.14)">
       <use xlink:href="#DejaVuSans-31"/>
       <use xlink:href="#DejaVuSans-34" x="63.623047"/>
       <use xlink:href="#DejaVuSans-2c" x="127.246094"/>
       <use xlink:href="#DejaVuSans-30" x="159.033203"/>
       <use xlink:href="#DejaVuSans-30" x="222.65625"/>
       <use xlink:href="#DejaVuSans-30" x="286.279297"/>
      </g>
     </g>
    </g>
    <g id="ytick_7">
     <g id="line2d_31">
      <path d="M 82.671875 40.614422 
L 473.271875 40.614422 
" clip-path="url(#p6862bc5644)" style="fill: none; stroke: #b0b0b0; stroke-opacity: 0.3; stroke-width: 0.8; stroke-linecap: square"/>
     </g>
     <g id="line2d_32">
      <g>
       <use xlink:href="#mcf3561e1b8" x="82.671875" y="40.614422" style="stroke: #000000; stroke-width: 0.8"/>
      </g>
     </g>
     <g id="text_17">
      <!-- 15,000 -->
      <g transform="translate(26.685 45.933328) scale(0.14 -0.14)">
       <defs>
        <path id="DejaVuSans-35" d="M 691 4666 
L 3169 4666 
L 3169 4134 
L 1269 4134 
L 1269 2991 
Q 1406 3038 1543 3061 
Q 1681 3084 1819 3084 
Q 2600 3084 3056 2656 
Q 3513 2228 3513 1497 
Q 3513 744 3044 326 
Q 2575 -91 1722 -91 
Q 1428 -91 1123 -41 
Q 819 9 494 109 
L 494 744 
Q 775 591 1075 516 
Q 1375 441 1709 441 
Q 2250 441 2565 725 
Q 2881 1009 2881 1497 
Q 2881 1984 2565 2268 
Q 2250 2553 1709 2553 
Q 1456 2553 1204 2497 
Q 953 2441 691 2322 
L 691 4666 
z
" transform="scale(0.015625)"/>
       </defs>
       <use xlink:href="#DejaVuSans-31"/>
       <use xlink:href="#DejaVuSans-35" x="63.623047"/>
       <use xlink:href="#DejaVuSans-2c" x="127.246094"/>
       <use xlink:href="#DejaVuSans-30" x="159.033203"/>
       <use xlink:href="#DejaVuSans-30" x="222.65625"/>
       <use xlink:href="#DejaVuSans-30" x="286.279297"/>
      </g>
     </g>
    </g>
    <g id="ytick_8">
     <g id="line2d_33">
      <path d="M 82.671875 12.950614 
L 473.271875 12.950614 
" clip-path="url(#p6862bc5644)" style="fill: none; stroke: #b0b0b0; stroke-opacity: 0.3; stroke-width: 0.8; stroke-linecap: square"/>
     </g>
     <g id="line2d_34">
      <g>
       <use xlink:href="#mcf3561e1b8" x="82.671875" y="12.950614" style="stroke: #000000; stroke-width: 0.8"/>
      </g>
     </g>
     <g id="text_18">
      <!-- 16,000 -->
      <g transform="translate(26.685 18.26952) scale(0.14 -0.14)">
       <use xlink:href="#DejaVuSans-31"/>
       <use xlink:href="#DejaVuSans-36" x="63.623047"/>
       <use xlink:href="#DejaVuSans-2c" x="127.246094"/>
       <use xlink:href="#DejaVuSans-30" x="159.033203"/>
       <use xlink:href="#DejaVuSans-30" x="222.65625"/>
       <use xlink:href="#DejaVuSans-30" x="286.279297"/>
      </g>
     </g>
    </g>
    <g id="text_19">
     <!-- Edges -->
     <g transform="translate(19.3575 142.3825) rotate(-90) scale(0.16 -0.16)">
      <defs>
       <path id="DejaVuSans-45" d="M 628 4666 
L 3578 4666 
L 3578 4134 
L 1259 4134 
L 1259 2753 
L 3481 2753 
L 3481 2222 
L 1259 2222 
L 1259 531 
L 3634 531 
L 3634 0 
L 628 0 
L 628 4666 
z
" transform="scale(0.015625)"/>
       <path id="DejaVuSans-64" d="M 2906 2969 
L 2906 4863 
L 3481 4863 
L 3481 0 
L 2906 0 
L 2906 525 
Q 2725 213 2448 61 
Q 2172 -91 1784 -91 
Q 1150 -91 751 415 
Q 353 922 353 1747 
Q 353 2572 751 3078 
Q 1150 3584 1784 3584 
Q 2172 3584 2448 3432 
Q 2725 3281 2906 2969 
z
M 947 1747 
Q 947 1113 1208 752 
Q 1469 391 1925 391 
Q 2381 391 2643 752 
Q 2906 1113 2906 1747 
Q 2906 2381 2643 2742 
Q 2381 3103 1925 3103 
Q 1469 3103 1208 2742 
Q 947 2381 947 1747 
z
" transform="scale(0.015625)"/>
       <path id="DejaVuSans-67" d="M 2906 1791 
Q 2906 2416 2648 2759 
Q 2391 3103 1925 3103 
Q 1463 3103 1205 2759 
Q 947 2416 947 1791 
Q 947 1169 1205 825 
Q 1463 481 1925 481 
Q 2391 481 2648 825 
Q 2906 1169 2906 1791 
z
M 3481 434 
Q 3481 -459 3084 -895 
Q 2688 -1331 1869 -1331 
Q 1566 -1331 1297 -1286 
Q 1028 -1241 775 -1147 
L 775 -588 
Q 1028 -725 1275 -790 
Q 1522 -856 1778 -856 
Q 2344 -856 2625 -561 
Q 2906 -266 2906 331 
L 2906 616 
Q 2728 306 2450 153 
Q 2172 0 1784 0 
Q 1141 0 747 490 
Q 353 981 353 1791 
Q 353 2603 747 3093 
Q 1141 3584 1784 3584 
Q 2172 3584 2450 3431 
Q 2728 3278 2906 2969 
L 2906 3500 
L 3481 3500 
L 3481 434 
z
" transform="scale(0.015625)"/>
       <path id="DejaVuSans-73" d="M 2834 3397 
L 2834 2853 
Q 2591 2978 2328 3040 
Q 2066 3103 1784 3103 
Q 1356 3103 1142 2972 
Q 928 2841 928 2578 
Q 928 2378 1081 2264 
Q 1234 2150 1697 2047 
L 1894 2003 
Q 2506 1872 2764 1633 
Q 3022 1394 3022 966 
Q 3022 478 2636 193 
Q 2250 -91 1575 -91 
Q 1294 -91 989 -36 
Q 684 19 347 128 
L 347 722 
Q 666 556 975 473 
Q 1284 391 1588 391 
Q 1994 391 2212 530 
Q 2431 669 2431 922 
Q 2431 1156 2273 1281 
Q 2116 1406 1581 1522 
L 1381 1569 
Q 847 1681 609 1914 
Q 372 2147 372 2553 
Q 372 3047 722 3315 
Q 1072 3584 1716 3584 
Q 2034 3584 2315 3537 
Q 2597 3491 2834 3397 
z
" transform="scale(0.015625)"/>
      </defs>
      <use xlink:href="#DejaVuSans-45"/>
      <use xlink:href="#DejaVuSans-64" x="63.183594"/>
      <use xlink:href="#DejaVuSans-67" x="126.660156"/>
      <use xlink:href="#DejaVuSans-65" x="190.136719"/>
      <use xlink:href="#DejaVuSans-73" x="251.660156"/>
     </g>
    </g>
   </g>
   <g id="line2d_35">
    <path d="M 100.42642 218.88 
L 101.351136 60.698346 
L 102.275852 53.561084 
L 103.200568 53.561084 
L 104.125284 52.067238 
L 105.05 49.577496 
L 105.974716 49.439177 
L 107.824148 49.411513 
L 109.67358 49.107211 
L 110.598295 47.364391 
L 114.297159 47.364391 
L 115.221875 45.621571 
L 117.071307 45.53858 
L 124.469034 45.483252 
L 125.39375 45.400261 
L 126.318466 44.95764 
L 130.01733 44.625674 
L 130.942045 44.266045 
L 135.565625 44.266045 
L 136.490341 43.934079 
L 148.511648 43.934079 
L 149.436364 43.79576 
L 155.909375 43.712768 
L 156.834091 43.629777 
L 157.758807 43.131828 
L 163.307102 43.104165 
L 164.231818 42.965846 
L 166.08125 42.965846 
L 167.005966 42.716871 
L 167.930682 42.63388 
L 168.855398 42.329578 
L 171.629545 42.218923 
L 172.554261 42.135931 
L 173.478977 41.167698 
L 175.328409 41.057043 
L 190.123864 40.946388 
L 191.04858 40.476103 
L 197.521591 40.476103 
L 198.446307 40.282456 
L 201.220455 40.282456 
L 203.069886 39.756844 
L 213.241761 39.646189 
L 214.166477 39.50787 
L 224.338352 39.397214 
L 225.263068 39.120576 
L 240.983239 39.037585 
L 241.907955 38.733283 
L 247.45625 38.677955 
L 248.380966 38.511973 
L 256.703409 38.484309 
L 257.628125 37.792714 
L 272.42358 37.682058 
L 275.197727 37.626731 
L 284.444886 37.626731 
L 285.369602 37.294765 
L 286.294318 36.713825 
L 287.219034 36.520178 
L 318.659375 36.437187 
L 319.584091 36.24354 
L 378.765909 36.215877 
L 380.615341 35.828583 
L 388.013068 35.468954 
L 394.48608 35.358298 
L 396.335511 35.247643 
L 397.260227 35.053997 
L 402.808523 35.053997 
L 403.733239 34.528384 
L 424.076989 34.528384 
L 425.001705 34.251746 
L 429.625284 34.224082 
L 445.345455 34.141091 
L 446.27017 33.947444 
L 447.194886 33.947444 
L 448.119602 33.781461 
L 455.51733 33.670806 
L 455.51733 33.670806 
" clip-path="url(#p6862bc5644)" style="fill: none; stroke-dasharray: 3,4.95; stroke-dashoffset: 0; stroke: #ddaa33; stroke-width: 3"/>
   </g>
   <g id="line2d_36">
    <path d="M 100.42642 218.88 
L 101.351136 60.643019 
L 102.275852 52.841825 
L 103.200568 48.581599 
L 104.125284 48.498607 
L 105.05 47.50271 
L 105.974716 46.11952 
L 106.899432 45.427925 
L 107.824148 43.43613 
L 108.748864 43.131828 
L 109.67358 42.108268 
L 111.523011 42.025276 
L 112.447727 40.559094 
L 113.372443 39.922827 
L 115.221875 38.235334 
L 117.071307 38.097015 
L 119.845455 37.792714 
L 122.619602 37.682058 
L 126.318466 37.350093 
L 127.243182 36.990463 
L 136.490341 36.879808 
L 140.189205 36.741489 
L 142.038636 36.741489 
L 142.963352 35.164652 
L 148.511648 35.053997 
L 156.834091 34.832686 
L 157.758807 34.611376 
L 159.608239 34.528384 
L 160.532955 34.528384 
L 161.45767 34.362401 
L 163.307102 34.334738 
L 164.231818 34.168755 
L 170.70483 34.058099 
L 173.478977 33.781461 
L 192.898011 33.726134 
L 193.822727 33.587815 
L 199.371023 33.532487 
L 200.295739 33.089866 
L 201.220455 33.089866 
L 203.069886 32.923883 
L 220.639489 32.813228 
L 226.187784 32.757901 
L 231.73608 32.674909 
L 233.585511 32.564254 
L 247.45625 32.53659 
L 248.380966 32.31528 
L 274.273011 32.259952 
L 275.197727 31.430038 
L 298.315625 31.347046 
L 301.089773 31.291719 
L 303.86392 31.181063 
L 308.4875 31.1534 
L 309.412216 31.1534 
L 310.336932 31.015081 
L 314.035795 31.015081 
L 314.960511 30.876762 
L 322.358239 30.821434 
L 324.20767 30.710779 
L 333.45483 30.544796 
L 340.852557 30.544796 
L 341.777273 30.351149 
L 343.626705 30.268158 
L 344.55142 29.63189 
L 346.400852 29.521235 
L 349.175 29.465907 
L 351.024432 29.355252 
L 351.949148 29.106278 
L 353.79858 29.023286 
L 362.121023 29.023286 
L 363.045739 28.884967 
L 365.819886 28.801976 
L 367.669318 28.691321 
L 369.51875 28.691321 
L 371.368182 28.497674 
L 388.937784 28.47001 
L 391.711932 28.2487 
L 403.733239 28.138045 
L 408.356818 28.110381 
L 454.592614 27.999726 
L 455.51733 28.304027 
L 455.51733 28.304027 
" clip-path="url(#p6862bc5644)" style="fill: none; stroke-dasharray: 3,4.95; stroke-dashoffset: 0; stroke: #000000; stroke-width: 3"/>
   </g>
   <g id="line2d_37">
    <path d="M 100.42642 218.88 
L 101.351136 156.581105 
L 102.275852 140.20413 
L 103.200568 130.853763 
L 105.05 123.661173 
L 105.974716 117.326161 
L 106.899432 112.402003 
L 107.824148 110.659184 
L 108.748864 109.497304 
L 109.67358 106.979897 
L 110.598295 103.466593 
L 111.523011 101.640782 
L 113.372443 97.242237 
L 114.297159 95.997365 
L 115.221875 93.258648 
L 116.146591 93.147993 
L 117.071307 92.843691 
L 117.996023 91.737139 
L 118.920739 90.879561 
L 119.845455 89.247396 
L 120.77017 88.804775 
L 122.619602 86.425688 
L 123.544318 86.232041 
L 127.243182 84.793523 
L 128.167898 84.184919 
L 129.092614 84.074264 
L 130.942045 83.548652 
L 131.866761 83.520988 
L 133.716193 83.24435 
L 134.640909 82.442099 
L 136.490341 81.72284 
L 137.415057 81.307883 
L 141.11392 80.173667 
L 142.038636 80.090676 
L 143.888068 78.818141 
L 144.812784 78.790477 
L 148.511648 78.01589 
L 151.285795 77.766916 
L 153.135227 77.656261 
L 154.059943 77.628597 
L 154.984659 77.241304 
L 155.909375 76.605036 
L 157.758807 75.968768 
L 161.45767 75.913441 
L 162.382386 75.498484 
L 164.231818 75.083527 
L 167.005966 75.055863 
L 167.930682 74.917544 
L 169.780114 74.834552 
L 172.554261 74.779225 
L 173.478977 73.976974 
L 182.726136 73.893983 
L 185.500284 73.755664 
L 195.672159 73.562017 
L 199.371023 73.562017 
L 200.295739 73.340707 
L 202.14517 73.285379 
L 203.994602 73.202388 
L 205.844034 73.174724 
L 206.76875 72.898086 
L 218.790057 72.787431 
L 222.48892 72.34481 
L 223.413636 71.98518 
L 226.187784 71.902189 
L 227.1125 71.625551 
L 228.037216 71.570223 
L 228.961932 70.989283 
L 230.811364 70.767973 
L 237.284375 70.740309 
L 239.133807 70.629654 
L 244.682102 70.518998 
L 247.45625 70.463671 
L 255.778693 70.353015 
L 266.875284 70.297688 
L 267.8 70.297688 
L 268.724716 70.173201 
L 270.574148 70.076377 
L 272.42358 69.993386 
L 274.273011 69.993386 
L 275.197727 69.619925 
L 291.842614 69.232631 
L 300.165057 69.177304 
L 304.788636 68.845338 
L 314.035795 68.679355 
L 314.960511 68.679355 
L 315.885227 68.416549 
L 346.400852 68.333557 
L 347.325568 68.112247 
L 351.949148 68.070751 
L 353.79858 67.932432 
L 355.648011 67.890937 
L 356.572727 67.434484 
L 369.51875 67.379156 
L 370.443466 67.005695 
L 380.615341 66.798216 
L 396.335511 66.687561 
L 399.109659 66.632233 
L 411.130966 66.563074 
L 412.055682 66.231108 
L 422.227557 66.120453 
L 423.152273 66.106621 
L 424.076989 65.857647 
L 428.700568 65.829983 
L 431.474716 65.581009 
L 444.420739 65.470353 
L 445.345455 65.345866 
L 449.969034 65.332034 
L 450.89375 64.778758 
L 451.818466 64.57128 
L 452.743182 64.930909 
L 453.667898 64.930909 
L 454.592614 66.452419 
L 454.592614 66.452419 
" clip-path="url(#p6862bc5644)" style="fill: none; stroke: #994455; stroke-width: 3; stroke-linecap: square"/>
   </g>
   <g id="line2d_38">
    <path d="M 100.42642 218.88 
L 101.351136 62.358175 
L 103.200568 51.486298 
L 104.125284 45.317269 
L 105.05 43.048837 
L 105.974716 40.31012 
L 106.899432 39.563197 
L 107.824148 37.958696 
L 108.748864 36.049894 
L 109.67358 35.800919 
L 110.598295 35.330635 
L 112.447727 34.722031 
L 113.372443 33.809125 
L 115.221875 32.923883 
L 117.071307 32.785564 
L 117.996023 32.149297 
L 120.77017 31.762003 
L 122.619602 30.019184 
L 123.544318 29.908528 
L 124.469034 29.521235 
L 125.39375 29.299925 
L 126.318466 29.299925 
L 127.243182 28.857304 
L 130.01733 28.553002 
L 131.866761 28.387019 
L 137.415057 27.640096 
L 138.339773 27.252803 
L 139.264489 27.08682 
L 142.963352 27.059156 
L 143.888068 26.616535 
L 145.7375 26.50588 
L 146.662216 26.063259 
L 149.436364 25.814285 
L 151.285795 25.620638 
L 154.984659 25.344 
L 159.608239 25.233345 
L 160.532955 24.873715 
L 163.307102 24.790724 
L 164.231818 24.514086 
L 170.70483 24.431094 
L 178.102557 24.099129 
L 186.425 23.988473 
L 188.274432 23.905482 
L 191.973295 23.905482 
L 192.898011 23.352206 
L 196.596875 23.241551 
L 202.14517 23.158559 
L 212.317045 22.660611 
L 221.564205 22.632947 
L 223.413636 22.466964 
L 228.037216 22.383973 
L 230.811364 22.328645 
L 237.284375 22.300981 
L 238.209091 22.134998 
L 248.380966 22.024343 
L 251.155114 21.969015 
L 269.649432 21.85836 
L 270.574148 21.471067 
L 271.498864 20.779472 
L 285.369602 20.668816 
L 289.993182 20.641153 
L 292.76733 20.641153 
L 293.692045 20.392178 
L 295.541477 20.309187 
L 318.659375 20.198532 
L 319.584091 19.811238 
L 320.508807 19.811238 
L 321.433523 19.672919 
L 329.755966 19.562264 
L 332.530114 19.506937 
L 375.067045 19.423945 
L 377.841193 19.368617 
L 400.034375 19.257962 
L 400.959091 18.317393 
L 402.808523 18.179074 
L 403.733239 18.179074 
L 404.657955 17.79178 
L 410.20625 17.736453 
L 432.399432 17.625798 
L 435.17358 17.57047 
L 444.420739 17.404487 
L 454.592614 17.321496 
L 454.592614 17.321496 
" clip-path="url(#p6862bc5644)" style="fill: none; stroke: #ee99aa; stroke-width: 3; stroke-linecap: square"/>
   </g>
   <g id="line2d_39">
    <path d="M 100.42642 218.88 
L 101.351136 179.874031 
L 102.275852 172.736768 
L 103.200568 162.279849 
L 104.125284 158.268597 
L 105.05 155.75119 
L 105.974716 148.973557 
L 106.899432 148.973557 
L 107.824148 145.349599 
L 108.748864 139.235897 
L 109.67358 138.516638 
L 110.598295 134.643705 
L 111.523011 133.869118 
L 112.447727 132.098635 
L 113.372443 128.889633 
L 114.297159 128.889633 
L 116.146591 126.704192 
L 117.071307 126.704192 
L 117.996023 125.680631 
L 118.920739 123.827156 
L 120.77017 122.997242 
L 121.694886 122.941914 
L 122.619602 121.89069 
L 123.544318 121.448069 
L 124.469034 121.365077 
L 127.243182 116.66223 
L 129.092614 116.164281 
L 130.01733 115.223712 
L 130.942045 114.974738 
L 131.866761 112.733969 
L 133.716193 111.295451 
L 134.640909 111.295451 
L 136.490341 110.908158 
L 137.415057 109.386648 
L 140.189205 106.952233 
L 141.11392 106.896906 
L 142.038636 105.956336 
L 143.888068 105.845681 
L 144.812784 105.707362 
L 146.662216 103.411266 
L 147.586932 102.692007 
L 149.436364 102.27705 
L 150.36108 101.059842 
L 151.285795 100.949187 
L 152.210511 100.53423 
L 153.135227 99.206367 
L 155.909375 98.653091 
L 156.834091 97.020926 
L 157.758807 94.448192 
L 158.683523 94.116226 
L 160.532955 93.977907 
L 161.45767 92.069105 
L 162.382386 92.069105 
L 163.307102 91.847794 
L 164.231818 91.460501 
L 165.156534 90.602923 
L 167.005966 90.519931 
L 169.780114 90.21563 
L 171.629545 90.21563 
L 174.403693 89.413379 
L 175.328409 88.887767 
L 176.253125 88.721784 
L 177.177841 87.642895 
L 178.102557 87.559904 
L 179.027273 87.061955 
L 179.951989 86.757654 
L 181.80142 86.757654 
L 184.575568 86.453352 
L 188.274432 86.425688 
L 189.199148 86.176714 
L 192.898011 86.14905 
L 193.822727 85.844748 
L 196.596875 85.734093 
L 197.521591 84.682868 
L 198.446307 84.682868 
L 199.371023 84.433894 
L 201.220455 84.350902 
L 203.069886 84.240247 
L 208.618182 84.212583 
L 209.542898 84.074264 
L 213.241761 84.018937 
L 214.166477 83.852954 
L 216.015909 83.852954 
L 216.940625 83.299678 
L 221.564205 83.272014 
L 223.413636 83.133695 
L 226.187784 83.078367 
L 239.133807 82.995376 
L 240.058523 82.801729 
L 241.907955 82.801729 
L 243.757386 82.193125 
L 244.682102 82.193125 
L 245.606818 83.106031 
L 246.531534 82.88472 
L 252.07983 82.718738 
L 253.929261 82.649578 
L 254.853977 82.345276 
L 257.628125 82.276117 
L 261.326989 82.234621 
L 262.251705 82.054806 
L 269.649432 82.040974 
L 270.574148 80.270491 
L 272.42358 80.076844 
L 276.122443 80.035348 
L 277.047159 79.800206 
L 283.52017 79.689551 
L 291.842614 79.46824 
L 292.76733 80.367314 
L 293.692045 79.980021 
L 303.86392 79.869365 
L 309.412216 79.620391 
L 323.282955 79.565063 
L 324.20767 79.17777 
L 326.981818 79.150106 
L 327.906534 78.95646 
L 329.755966 78.845804 
L 330.680682 78.237201 
L 335.304261 78.209537 
L 348.250284 78.126545 
L 349.175 77.683925 
L 350.099716 77.545605 
L 363.045739 77.43495 
L 368.594034 77.379623 
L 392.636648 77.268967 
L 397.260227 77.241304 
L 412.055682 77.130648 
L 412.980398 76.909338 
L 449.969034 76.798683 
L 454.592614 76.771019 
L 454.592614 76.771019 
" clip-path="url(#p6862bc5644)" style="fill: none; stroke: #004488; stroke-width: 3; stroke-linecap: square"/>
   </g>
   <g id="line2d_40">
    <path d="M 100.42642 218.88 
L 101.351136 52.537523 
L 102.275852 44.487355 
L 103.200568 40.171801 
L 104.125284 37.599067 
L 105.05 37.322429 
L 105.974716 36.741489 
L 106.899432 36.437187 
L 107.824148 35.44129 
L 108.748864 34.168755 
L 109.67358 33.449496 
L 111.523011 32.923883 
L 112.447727 32.481262 
L 114.297159 32.204624 
L 115.221875 32.149297 
L 117.071307 31.817331 
L 118.920739 31.402374 
L 119.845455 31.125736 
L 120.77017 30.489468 
L 121.694886 30.351149 
L 123.544318 29.825537 
L 125.39375 29.493571 
L 126.318466 29.272261 
L 128.167898 29.244597 
L 130.942045 28.746648 
L 131.866761 28.691321 
L 132.791477 28.497674 
L 133.716193 28.138045 
L 136.490341 27.750751 
L 142.963352 27.30813 
L 144.812784 26.312233 
L 147.586932 25.786621 
L 150.36108 25.648302 
L 151.285795 25.426991 
L 153.135227 25.399328 
L 154.059943 25.178017 
L 159.608239 24.929043 
L 163.307102 24.846051 
L 167.005966 24.569413 
L 167.930682 24.431094 
L 170.70483 24.431094 
L 171.629545 23.96081 
L 174.403693 23.850154 
L 177.177841 23.684172 
L 179.027273 23.684172 
L 179.951989 23.462861 
L 191.973295 23.213887 
L 194.747443 23.186223 
L 195.672159 23.02024 
L 203.994602 22.909585 
L 227.1125 22.328645 
L 228.961932 22.328645 
L 229.886648 22.134998 
L 236.359659 21.886024 
L 238.209091 21.775369 
L 255.778693 21.720041 
L 258.552841 21.581722 
L 266.875284 21.443403 
L 274.273011 21.388075 
L 275.197727 21.249756 
L 278.896591 21.249756 
L 279.821307 20.973118 
L 290.917898 20.862463 
L 291.842614 20.641153 
L 295.541477 20.641153 
L 296.466193 20.309187 
L 312.186364 20.226196 
L 313.11108 19.921894 
L 345.476136 19.811238 
L 347.325568 19.700583 
L 359.346875 19.589928 
L 361.196307 19.562264 
L 362.121023 18.704686 
L 374.14233 18.594031 
L 375.067045 18.289729 
L 375.991761 18.123746 
L 393.561364 18.013091 
L 398.184943 17.985427 
L 415.754545 17.874772 
L 416.679261 17.653461 
L 426.851136 17.625798 
L 428.700568 17.515142 
L 454.592614 17.404487 
L 455.51733 17.28 
L 455.51733 17.28 
" clip-path="url(#p6862bc5644)" style="fill: none; stroke: #6699cc; stroke-width: 3; stroke-linecap: square"/>
   </g>
   <g id="line2d_41">
    <path d="M 100.42642 218.88 
L 101.351136 70.187033 
L 102.275852 61.804899 
L 103.200568 55.414559 
L 104.125284 53.007808 
L 105.05 49.632823 
L 105.974716 47.530374 
L 106.899432 47.475046 
L 108.748864 46.811115 
L 110.598295 46.70046 
L 111.523011 46.174847 
L 112.447727 44.791657 
L 113.372443 43.823424 
L 114.297159 43.823424 
L 115.221875 43.491458 
L 117.071307 42.163595 
L 117.996023 41.637983 
L 119.845455 41.637983 
L 120.77017 39.978154 
L 123.544318 39.978154 
L 124.469034 39.812172 
L 126.318466 39.812172 
L 128.167898 39.646189 
L 131.866761 39.590861 
L 133.716193 39.452542 
L 138.339773 39.397214 
L 141.11392 39.231232 
L 144.812784 39.175904 
L 147.586932 38.788611 
L 151.285795 38.733283 
L 152.210511 37.792714 
L 157.758807 37.792714 
L 158.683523 37.211774 
L 161.45767 36.907472 
L 167.005966 36.852144 
L 167.930682 36.354196 
L 186.425 36.298868 
L 187.349716 36.105221 
L 194.747443 36.077557 
L 195.672159 35.939238 
L 198.446307 35.939238 
L 199.371023 35.247643 
L 206.76875 35.164652 
L 208.618182 35.053997 
L 213.241761 34.971005 
L 216.015909 34.888014 
L 225.263068 34.777358 
L 226.187784 34.722031 
L 227.1125 34.002772 
L 265.025852 33.91978 
L 266.875284 33.809125 
L 268.724716 33.809125 
L 269.649432 33.587815 
L 289.993182 33.47716 
L 290.917898 33.33884 
L 292.76733 33.33884 
L 293.692045 33.200521 
L 294.616761 33.200521 
L 295.541477 32.757901 
L 297.390909 32.757901 
L 298.315625 32.564254 
L 307.562784 32.508926 
L 308.4875 32.121633 
L 316.809943 32.010978 
L 321.433523 31.983314 
L 339.927841 31.872659 
L 341.777273 31.789667 
L 356.572727 31.73434 
L 357.497443 31.596021 
L 358.422159 31.596021 
L 359.346875 31.347046 
L 365.819886 31.236391 
L 370.443466 31.208727 
L 391.711932 31.125736 
L 392.636648 30.710779 
L 401.883807 30.710779 
L 402.808523 30.57246 
L 412.055682 30.517132 
L 413.905114 30.378813 
L 454.592614 30.378813 
L 455.51733 36.492515 
L 455.51733 36.492515 
" clip-path="url(#p6862bc5644)" style="fill: none; stroke-dasharray: 3,4.95; stroke-dashoffset: 0; stroke: #808080; stroke-width: 3"/>
   </g>
   <g id="patch_3">
    <path d="M 82.671875 228.96 
L 82.671875 7.2 
" style="fill: none; stroke: #000000; stroke-width: 0.8; stroke-linejoin: miter; stroke-linecap: square"/>
   </g>
   <g id="patch_4">
    <path d="M 473.271875 228.96 
L 473.271875 7.2 
" style="fill: none; stroke: #000000; stroke-width: 0.8; stroke-linejoin: miter; stroke-linecap: square"/>
   </g>
   <g id="patch_5">
    <path d="M 82.671875 228.96 
L 473.271875 228.96 
" style="fill: none; stroke: #000000; stroke-width: 0.8; stroke-linejoin: miter; stroke-linecap: square"/>
   </g>
   <g id="patch_6">
    <path d="M 82.671875 7.2 
L 473.271875 7.2 
" style="fill: none; stroke: #000000; stroke-width: 0.8; stroke-linejoin: miter; stroke-linecap: square"/>
   </g>
   <g id="legend_1">
    <g id="patch_7">
     <path d="M 298.871875 223.96 
L 466.271875 223.96 
Q 468.271875 223.96 468.271875 221.96 
L 468.271875 160.663125 
Q 468.271875 158.663125 466.271875 158.663125 
L 298.871875 158.663125 
Q 296.871875 158.663125 296.871875 160.663125 
L 296.871875 221.96 
Q 296.871875 223.96 298.871875 223.96 
z
" style="fill: #ffffff; opacity: 0.8; stroke: #cccccc; stroke-linejoin: miter"/>
    </g>
    <g id="line2d_42">
     <path d="M 300.871875 166.761563 
L 310.871875 166.761563 
L 320.871875 166.761563 
" style="fill: none; stroke: #994455; stroke-width: 3; stroke-linecap: square"/>
    </g>
    <g id="text_20">
     <!-- $symcts$ -->
     <g transform="translate(328.871875 170.261563) scale(0.1 -0.1)">
      <defs>
       <path id="DejaVuSans-Oblique-73" d="M 3200 3397 
L 3091 2853 
Q 2863 2978 2609 3040 
Q 2356 3103 2088 3103 
Q 1634 3103 1373 2948 
Q 1113 2794 1113 2528 
Q 1113 2219 1719 2053 
Q 1766 2041 1788 2034 
L 1972 1978 
Q 2547 1819 2739 1644 
Q 2931 1469 2931 1166 
Q 2931 609 2489 259 
Q 2047 -91 1331 -91 
Q 1053 -91 747 -37 
Q 441 16 72 128 
L 184 722 
Q 500 559 806 475 
Q 1113 391 1394 391 
Q 1816 391 2080 572 
Q 2344 753 2344 1031 
Q 2344 1331 1650 1516 
L 1591 1531 
L 1394 1581 
Q 956 1697 753 1886 
Q 550 2075 550 2369 
Q 550 2928 970 3256 
Q 1391 3584 2113 3584 
Q 2397 3584 2667 3537 
Q 2938 3491 3200 3397 
z
" transform="scale(0.015625)"/>
       <path id="DejaVuSans-Oblique-79" d="M 1588 -325 
Q 1188 -997 936 -1164 
Q 684 -1331 294 -1331 
L -159 -1331 
L -63 -850 
L 269 -850 
Q 509 -850 678 -719 
Q 847 -588 1056 -206 
L 1234 128 
L 459 3500 
L 1069 3500 
L 1650 819 
L 3256 3500 
L 3859 3500 
L 1588 -325 
z
" transform="scale(0.015625)"/>
       <path id="DejaVuSans-Oblique-6d" d="M 5747 2113 
L 5338 0 
L 4763 0 
L 5166 2094 
Q 5191 2228 5203 2325 
Q 5216 2422 5216 2491 
Q 5216 2772 5059 2928 
Q 4903 3084 4622 3084 
Q 4203 3084 3875 2770 
Q 3547 2456 3450 1953 
L 3066 0 
L 2491 0 
L 2900 2094 
Q 2925 2209 2937 2307 
Q 2950 2406 2950 2484 
Q 2950 2769 2794 2926 
Q 2638 3084 2363 3084 
Q 1938 3084 1609 2770 
Q 1281 2456 1184 1953 
L 800 0 
L 225 0 
L 909 3500 
L 1484 3500 
L 1375 2956 
Q 1609 3263 1923 3423 
Q 2238 3584 2597 3584 
Q 2978 3584 3223 3384 
Q 3469 3184 3519 2828 
Q 3781 3197 4126 3390 
Q 4472 3584 4856 3584 
Q 5306 3584 5551 3325 
Q 5797 3066 5797 2591 
Q 5797 2488 5784 2364 
Q 5772 2241 5747 2113 
z
" transform="scale(0.015625)"/>
       <path id="DejaVuSans-Oblique-63" d="M 3431 3366 
L 3316 2797 
Q 3109 2947 2876 3022 
Q 2644 3097 2394 3097 
Q 2119 3097 1870 3000 
Q 1622 2903 1453 2725 
Q 1184 2453 1037 2087 
Q 891 1722 891 1331 
Q 891 859 1127 628 
Q 1363 397 1844 397 
Q 2081 397 2348 469 
Q 2616 541 2906 684 
L 2797 116 
Q 2547 13 2283 -39 
Q 2019 -91 1741 -91 
Q 1044 -91 669 257 
Q 294 606 294 1253 
Q 294 1797 489 2255 
Q 684 2713 1069 3078 
Q 1331 3328 1684 3456 
Q 2038 3584 2456 3584 
Q 2700 3584 2940 3529 
Q 3181 3475 3431 3366 
z
" transform="scale(0.015625)"/>
       <path id="DejaVuSans-Oblique-74" d="M 2706 3500 
L 2619 3053 
L 1472 3053 
L 1100 1153 
Q 1081 1047 1072 975 
Q 1063 903 1063 863 
Q 1063 663 1183 572 
Q 1303 481 1569 481 
L 2150 481 
L 2053 0 
L 1503 0 
Q 991 0 739 200 
Q 488 400 488 806 
Q 488 878 497 964 
Q 506 1050 525 1153 
L 897 3053 
L 409 3053 
L 500 3500 
L 978 3500 
L 1172 4494 
L 1747 4494 
L 1556 3500 
L 2706 3500 
z
" transform="scale(0.015625)"/>
      </defs>
      <use xlink:href="#DejaVuSans-Oblique-73" transform="translate(0 0.78125)"/>
      <use xlink:href="#DejaVuSans-Oblique-79" transform="translate(52.099609 0.78125)"/>
      <use xlink:href="#DejaVuSans-Oblique-6d" transform="translate(111.279297 0.78125)"/>
      <use xlink:href="#DejaVuSans-Oblique-63" transform="translate(208.691406 0.78125)"/>
      <use xlink:href="#DejaVuSans-Oblique-74" transform="translate(263.671875 0.78125)"/>
      <use xlink:href="#DejaVuSans-Oblique-73" transform="translate(302.880859 0.78125)"/>
     </g>
    </g>
    <g id="line2d_43">
     <path d="M 300.871875 182.161563 
L 310.871875 182.161563 
L 320.871875 182.161563 
" style="fill: none; stroke: #ee99aa; stroke-width: 3; stroke-linecap: square"/>
    </g>
    <g id="text_21">
     <!-- $symcts^{+}$ -->
     <g transform="translate(328.871875 185.661563) scale(0.1 -0.1)">
      <defs>
       <path id="DejaVuSans-2b" d="M 2944 4013 
L 2944 2272 
L 4684 2272 
L 4684 1741 
L 2944 1741 
L 2944 0 
L 2419 0 
L 2419 1741 
L 678 1741 
L 678 2272 
L 2419 2272 
L 2419 4013 
L 2944 4013 
z
" transform="scale(0.015625)"/>
      </defs>
      <use xlink:href="#DejaVuSans-Oblique-73" transform="translate(0 0.826562)"/>
      <use xlink:href="#DejaVuSans-Oblique-79" transform="translate(52.099609 0.826562)"/>
      <use xlink:href="#DejaVuSans-Oblique-6d" transform="translate(111.279297 0.826562)"/>
      <use xlink:href="#DejaVuSans-Oblique-63" transform="translate(208.691406 0.826562)"/>
      <use xlink:href="#DejaVuSans-Oblique-74" transform="translate(263.671875 0.826562)"/>
      <use xlink:href="#DejaVuSans-Oblique-73" transform="translate(302.880859 0.826562)"/>
      <use xlink:href="#DejaVuSans-2b" transform="translate(359.630365 39.107812) scale(0.7)"/>
     </g>
    </g>
    <g id="line2d_44">
     <path d="M 300.871875 196.86 
L 310.871875 196.86 
L 320.871875 196.86 
" style="fill: none; stroke: #004488; stroke-width: 3; stroke-linecap: square"/>
    </g>
    <g id="text_22">
     <!-- $symcts_{Q}$ -->
     <g transform="translate(328.871875 200.36) scale(0.1 -0.1)">
      <defs>
       <path id="DejaVuSans-Oblique-51" d="M 2309 -84 
Q 2275 -88 2237 -89 
Q 2200 -91 2125 -91 
Q 1250 -91 756 411 
Q 263 913 263 1797 
Q 263 2319 452 2844 
Q 641 3369 978 3788 
Q 1369 4269 1858 4509 
Q 2347 4750 2938 4750 
Q 3794 4750 4287 4245 
Q 4781 3741 4781 2869 
Q 4781 1928 4265 1147 
Q 3750 366 2919 44 
L 3553 -825 
L 2847 -825 
L 2309 -84 
z
M 2919 4238 
Q 2400 4238 2003 3986 
Q 1606 3734 1313 3219 
Q 1125 2891 1026 2522 
Q 928 2153 928 1778 
Q 928 1128 1239 775 
Q 1550 422 2119 422 
Q 2631 422 3032 676 
Q 3434 931 3719 1434 
Q 3909 1772 4009 2142 
Q 4109 2513 4109 2881 
Q 4109 3528 3796 3883 
Q 3484 4238 2919 4238 
z
" transform="scale(0.015625)"/>
      </defs>
      <use xlink:href="#DejaVuSans-Oblique-73" transform="translate(0 0.78125)"/>
      <use xlink:href="#DejaVuSans-Oblique-79" transform="translate(52.099609 0.78125)"/>
      <use xlink:href="#DejaVuSans-Oblique-6d" transform="translate(111.279297 0.78125)"/>
      <use xlink:href="#DejaVuSans-Oblique-63" transform="translate(208.691406 0.78125)"/>
      <use xlink:href="#DejaVuSans-Oblique-74" transform="translate(263.671875 0.78125)"/>
      <use xlink:href="#DejaVuSans-Oblique-73" transform="translate(302.880859 0.78125)"/>
      <use xlink:href="#DejaVuSans-Oblique-51" transform="translate(354.980469 -15.625) scale(0.7)"/>
     </g>
    </g>
    <g id="line2d_45">
     <path d="M 300.871875 212.76 
L 310.871875 212.76 
L 320.871875 212.76 
" style="fill: none; stroke: #6699cc; stroke-width: 3; stroke-linecap: square"/>
    </g>
    <g id="text_23">
     <!-- $symcts_{Q}^{+}$ -->
     <g transform="translate(328.871875 216.26) scale(0.1 -0.1)">
      <use xlink:href="#DejaVuSans-Oblique-73" transform="translate(0 0.826562)"/>
      <use xlink:href="#DejaVuSans-Oblique-79" transform="translate(52.099609 0.826562)"/>
      <use xlink:href="#DejaVuSans-Oblique-6d" transform="translate(111.279297 0.826562)"/>
      <use xlink:href="#DejaVuSans-Oblique-63" transform="translate(208.691406 0.826562)"/>
      <use xlink:href="#DejaVuSans-Oblique-74" transform="translate(263.671875 0.826562)"/>
      <use xlink:href="#DejaVuSans-Oblique-73" transform="translate(302.880859 0.826562)"/>
      <use xlink:href="#DejaVuSans-2b" transform="translate(359.630365 39.107813) scale(0.7)"/>
      <use xlink:href="#DejaVuSans-Oblique-51" transform="translate(354.980469 -26.517188) scale(0.7)"/>
     </g>
    </g>
    <g id="line2d_46">
     <path d="M 391.071875 166.761563 
L 401.071875 166.761563 
L 411.071875 166.761563 
" style="fill: none; stroke-dasharray: 3,4.95; stroke-dashoffset: 0; stroke: #ddaa33; stroke-width: 3"/>
    </g>
    <g id="text_24">
     <!-- $afl$++ -->
     <g transform="translate(419.071875 170.261563) scale(0.1 -0.1)">
      <defs>
       <path id="DejaVuSans-Oblique-61" d="M 3438 1997 
L 3047 0 
L 2472 0 
L 2578 531 
Q 2325 219 2001 64 
Q 1678 -91 1281 -91 
Q 834 -91 548 182 
Q 263 456 263 884 
Q 263 1497 752 1853 
Q 1241 2209 2100 2209 
L 2900 2209 
L 2931 2363 
Q 2938 2388 2941 2417 
Q 2944 2447 2944 2509 
Q 2944 2788 2717 2942 
Q 2491 3097 2081 3097 
Q 1800 3097 1504 3025 
Q 1209 2953 897 2809 
L 997 3341 
Q 1322 3463 1633 3523 
Q 1944 3584 2234 3584 
Q 2853 3584 3176 3315 
Q 3500 3047 3500 2534 
Q 3500 2431 3484 2292 
Q 3469 2153 3438 1997 
z
M 2816 1759 
L 2241 1759 
Q 1534 1759 1195 1570 
Q 856 1381 856 984 
Q 856 709 1029 553 
Q 1203 397 1509 397 
Q 1978 397 2328 733 
Q 2678 1069 2791 1631 
L 2816 1759 
z
" transform="scale(0.015625)"/>
       <path id="DejaVuSans-Oblique-66" d="M 3059 4863 
L 2969 4384 
L 2419 4384 
Q 2106 4384 1964 4261 
Q 1822 4138 1753 3809 
L 1691 3500 
L 2638 3500 
L 2553 3053 
L 1606 3053 
L 1013 0 
L 434 0 
L 1031 3053 
L 481 3053 
L 563 3500 
L 1113 3500 
L 1159 3744 
Q 1278 4363 1576 4613 
Q 1875 4863 2516 4863 
L 3059 4863 
z
" transform="scale(0.015625)"/>
       <path id="DejaVuSans-Oblique-6c" d="M 1172 4863 
L 1747 4863 
L 800 0 
L 225 0 
L 1172 4863 
z
" transform="scale(0.015625)"/>
      </defs>
      <use xlink:href="#DejaVuSans-Oblique-61" transform="translate(0 0.015625)"/>
      <use xlink:href="#DejaVuSans-Oblique-66" transform="translate(61.279297 0.015625)"/>
      <use xlink:href="#DejaVuSans-Oblique-6c" transform="translate(96.484375 0.015625)"/>
      <use xlink:href="#DejaVuSans-2b" transform="translate(124.267578 0.015625)"/>
      <use xlink:href="#DejaVuSans-2b" transform="translate(208.056641 0.015625)"/>
     </g>
    </g>
    <g id="line2d_47">
     <path d="M 391.071875 182.14125 
L 401.071875 182.14125 
L 411.071875 182.14125 
" style="fill: none; stroke-dasharray: 3,4.95; stroke-dashoffset: 0; stroke: #000000; stroke-width: 3"/>
    </g>
    <g id="text_25">
     <!-- $symcc^{+}$ -->
     <g transform="translate(419.071875 185.64125) scale(0.1 -0.1)">
      <use xlink:href="#DejaVuSans-Oblique-73" transform="translate(0 0.826562)"/>
      <use xlink:href="#DejaVuSans-Oblique-79" transform="translate(52.099609 0.826562)"/>
      <use xlink:href="#DejaVuSans-Oblique-6d" transform="translate(111.279297 0.826562)"/>
      <use xlink:href="#DejaVuSans-Oblique-63" transform="translate(208.691406 0.826562)"/>
      <use xlink:href="#DejaVuSans-Oblique-63" transform="translate(263.671875 0.826562)"/>
      <use xlink:href="#DejaVuSans-2b" transform="translate(323.30224 39.107812) scale(0.7)"/>
     </g>
    </g>
    <g id="line2d_48">
     <path d="M 391.071875 197.54125 
L 401.071875 197.54125 
L 411.071875 197.54125 
" style="fill: none; stroke-dasharray: 3,4.95; stroke-dashoffset: 0; stroke: #808080; stroke-width: 3"/>
    </g>
    <g id="text_26">
     <!-- $symsan^{+}$ -->
     <g transform="translate(419.071875 201.04125) scale(0.1 -0.1)">
      <defs>
       <path id="DejaVuSans-Oblique-6e" d="M 3566 2113 
L 3156 0 
L 2578 0 
L 2988 2091 
Q 3016 2238 3031 2350 
Q 3047 2463 3047 2528 
Q 3047 2791 2881 2937 
Q 2716 3084 2419 3084 
Q 1956 3084 1622 2776 
Q 1288 2469 1184 1941 
L 800 0 
L 225 0 
L 903 3500 
L 1478 3500 
L 1363 2950 
Q 1603 3253 1940 3418 
Q 2278 3584 2650 3584 
Q 3113 3584 3367 3334 
Q 3622 3084 3622 2631 
Q 3622 2519 3608 2391 
Q 3594 2263 3566 2113 
z
" transform="scale(0.015625)"/>
      </defs>
      <use xlink:href="#DejaVuSans-Oblique-73" transform="translate(0 0.826562)"/>
      <use xlink:href="#DejaVuSans-Oblique-79" transform="translate(52.099609 0.826562)"/>
      <use xlink:href="#DejaVuSans-Oblique-6d" transform="translate(111.279297 0.826562)"/>
      <use xlink:href="#DejaVuSans-Oblique-73" transform="translate(208.691406 0.826562)"/>
      <use xlink:href="#DejaVuSans-Oblique-61" transform="translate(260.791016 0.826562)"/>
      <use xlink:href="#DejaVuSans-Oblique-6e" transform="translate(322.070312 0.826562)"/>
      <use xlink:href="#DejaVuSans-2b" transform="translate(390.099115 39.107812) scale(0.7)"/>
     </g>
    </g>
   </g>
  </g>
 </g>
 <defs>
  <clipPath id="p6862bc5644">
   <rect x="82.671875" y="7.2" width="390.6" height="221.76"/>
  </clipPath>
 </defs>
</svg>
