<?xml version="1.0" encoding="utf-8" standalone="no"?>
<!DOCTYPE svg PUBLIC "-//W3C//DTD SVG 1.1//EN"
  "http://www.w3.org/Graphics/SVG/1.1/DTD/svg11.dtd">
<svg xmlns:xlink="http://www.w3.org/1999/xlink" width="480.471875pt" height="280.344565pt" viewBox="0 0 480.471875 280.344565" xmlns="http://www.w3.org/2000/svg" version="1.1">
 <metadata>
  <rdf:RDF xmlns:dc="http://purl.org/dc/elements/1.1/" xmlns:cc="http://creativecommons.org/ns#" xmlns:rdf="http://www.w3.org/1999/02/22-rdf-syntax-ns#">
   <cc:Work>
    <dc:type rdf:resource="http://purl.org/dc/dcmitype/StillImage"/>
    <dc:date>2023-10-07T23:50:33.398968</dc:date>
    <dc:format>image/svg+xml</dc:format>
    <dc:creator>
     <cc:Agent>
      <dc:title>Matplotlib v3.7.1, https://matplotlib.org/</dc:title>
     </cc:Agent>
    </dc:creator>
   </cc:Work>
  </rdf:RDF>
 </metadata>
 <defs>
  <style type="text/css">*{stroke-linejoin: round; stroke-linecap: butt}</style>
 </defs>
 <g id="figure_1">
  <g id="patch_1">
   <path d="M 0 280.344565 
L 480.471875 280.344565 
L 480.471875 0 
L 0 0 
z
" style="fill: #ffffff"/>
  </g>
  <g id="axes_1">
   <g id="patch_2">
    <path d="M 82.671875 233.11019 
L 473.271875 233.11019 
L 473.271875 11.35019 
L 82.671875 11.35019 
z
" style="fill: #ffffff"/>
   </g>
   <g id="matplotlib.axis_1">
    <g id="xtick_1">
     <g id="line2d_1">
      <path d="M 116.566916 233.11019 
L 116.566916 11.35019 
" clip-path="url(#p016821aed8)" style="fill: none; stroke: #b0b0b0; stroke-opacity: 0.3; stroke-width: 0.8; stroke-linecap: square"/>
     </g>
     <g id="line2d_2">
      <defs>
       <path id="mc99b1639d5" d="M 0 0 
L 0 3.5 
" style="stroke: #000000; stroke-width: 0.8"/>
      </defs>
      <g>
       <use xlink:href="#mc99b1639d5" x="116.566916" y="233.11019" style="stroke: #000000; stroke-width: 0.8"/>
      </g>
     </g>
     <g id="text_1">
      <!-- 12h -->
      <g transform="translate(103.223166 250.748002) scale(0.14 -0.14)">
       <defs>
        <path id="DejaVuSans-31" d="M 794 531 
L 1825 531 
L 1825 4091 
L 703 3866 
L 703 4441 
L 1819 4666 
L 2450 4666 
L 2450 531 
L 3481 531 
L 3481 0 
L 794 0 
L 794 531 
z
" transform="scale(0.015625)"/>
        <path id="DejaVuSans-32" d="M 1228 531 
L 3431 531 
L 3431 0 
L 469 0 
L 469 531 
Q 828 903 1448 1529 
Q 2069 2156 2228 2338 
Q 2531 2678 2651 2914 
Q 2772 3150 2772 3378 
Q 2772 3750 2511 3984 
Q 2250 4219 1831 4219 
Q 1534 4219 1204 4116 
Q 875 4013 500 3803 
L 500 4441 
Q 881 4594 1212 4672 
Q 1544 4750 1819 4750 
Q 2544 4750 2975 4387 
Q 3406 4025 3406 3419 
Q 3406 3131 3298 2873 
Q 3191 2616 2906 2266 
Q 2828 2175 2409 1742 
Q 1991 1309 1228 531 
z
" transform="scale(0.015625)"/>
        <path id="DejaVuSans-68" d="M 3513 2113 
L 3513 0 
L 2938 0 
L 2938 2094 
Q 2938 2591 2744 2837 
Q 2550 3084 2163 3084 
Q 1697 3084 1428 2787 
Q 1159 2491 1159 1978 
L 1159 0 
L 581 0 
L 581 4863 
L 1159 4863 
L 1159 2956 
Q 1366 3272 1645 3428 
Q 1925 3584 2291 3584 
Q 2894 3584 3203 3211 
Q 3513 2838 3513 2113 
z
" transform="scale(0.015625)"/>
       </defs>
       <use xlink:href="#DejaVuSans-31"/>
       <use xlink:href="#DejaVuSans-32" x="63.623047"/>
       <use xlink:href="#DejaVuSans-68" x="127.246094"/>
      </g>
     </g>
    </g>
    <g id="xtick_2">
     <g id="line2d_3">
      <path d="M 164.988404 233.11019 
L 164.988404 11.35019 
" clip-path="url(#p016821aed8)" style="fill: none; stroke: #b0b0b0; stroke-opacity: 0.3; stroke-width: 0.8; stroke-linecap: square"/>
     </g>
     <g id="line2d_4">
      <g>
       <use xlink:href="#mc99b1639d5" x="164.988404" y="233.11019" style="stroke: #000000; stroke-width: 0.8"/>
      </g>
     </g>
     <g id="text_2">
      <!-- 24h -->
      <g transform="translate(151.644654 250.748002) scale(0.14 -0.14)">
       <defs>
        <path id="DejaVuSans-34" d="M 2419 4116 
L 825 1625 
L 2419 1625 
L 2419 4116 
z
M 2253 4666 
L 3047 4666 
L 3047 1625 
L 3713 1625 
L 3713 1100 
L 3047 1100 
L 3047 0 
L 2419 0 
L 2419 1100 
L 313 1100 
L 313 1709 
L 2253 4666 
z
" transform="scale(0.015625)"/>
       </defs>
       <use xlink:href="#DejaVuSans-32"/>
       <use xlink:href="#DejaVuSans-34" x="63.623047"/>
       <use xlink:href="#DejaVuSans-68" x="127.246094"/>
      </g>
     </g>
    </g>
    <g id="xtick_3">
     <g id="line2d_5">
      <path d="M 213.409892 233.11019 
L 213.409892 11.35019 
" clip-path="url(#p016821aed8)" style="fill: none; stroke: #b0b0b0; stroke-opacity: 0.3; stroke-width: 0.8; stroke-linecap: square"/>
     </g>
     <g id="line2d_6">
      <g>
       <use xlink:href="#mc99b1639d5" x="213.409892" y="233.11019" style="stroke: #000000; stroke-width: 0.8"/>
      </g>
     </g>
     <g id="text_3">
      <!-- 36h -->
      <g transform="translate(200.066142 250.748002) scale(0.14 -0.14)">
       <defs>
        <path id="DejaVuSans-33" d="M 2597 2516 
Q 3050 2419 3304 2112 
Q 3559 1806 3559 1356 
Q 3559 666 3084 287 
Q 2609 -91 1734 -91 
Q 1441 -91 1130 -33 
Q 819 25 488 141 
L 488 750 
Q 750 597 1062 519 
Q 1375 441 1716 441 
Q 2309 441 2620 675 
Q 2931 909 2931 1356 
Q 2931 1769 2642 2001 
Q 2353 2234 1838 2234 
L 1294 2234 
L 1294 2753 
L 1863 2753 
Q 2328 2753 2575 2939 
Q 2822 3125 2822 3475 
Q 2822 3834 2567 4026 
Q 2313 4219 1838 4219 
Q 1578 4219 1281 4162 
Q 984 4106 628 3988 
L 628 4550 
Q 988 4650 1302 4700 
Q 1616 4750 1894 4750 
Q 2613 4750 3031 4423 
Q 3450 4097 3450 3541 
Q 3450 3153 3228 2886 
Q 3006 2619 2597 2516 
z
" transform="scale(0.015625)"/>
        <path id="DejaVuSans-36" d="M 2113 2584 
Q 1688 2584 1439 2293 
Q 1191 2003 1191 1497 
Q 1191 994 1439 701 
Q 1688 409 2113 409 
Q 2538 409 2786 701 
Q 3034 994 3034 1497 
Q 3034 2003 2786 2293 
Q 2538 2584 2113 2584 
z
M 3366 4563 
L 3366 3988 
Q 3128 4100 2886 4159 
Q 2644 4219 2406 4219 
Q 1781 4219 1451 3797 
Q 1122 3375 1075 2522 
Q 1259 2794 1537 2939 
Q 1816 3084 2150 3084 
Q 2853 3084 3261 2657 
Q 3669 2231 3669 1497 
Q 3669 778 3244 343 
Q 2819 -91 2113 -91 
Q 1303 -91 875 529 
Q 447 1150 447 2328 
Q 447 3434 972 4092 
Q 1497 4750 2381 4750 
Q 2619 4750 2861 4703 
Q 3103 4656 3366 4563 
z
" transform="scale(0.015625)"/>
       </defs>
       <use xlink:href="#DejaVuSans-33"/>
       <use xlink:href="#DejaVuSans-36" x="63.623047"/>
       <use xlink:href="#DejaVuSans-68" x="127.246094"/>
      </g>
     </g>
    </g>
    <g id="xtick_4">
     <g id="line2d_7">
      <path d="M 261.831379 233.11019 
L 261.831379 11.35019 
" clip-path="url(#p016821aed8)" style="fill: none; stroke: #b0b0b0; stroke-opacity: 0.3; stroke-width: 0.8; stroke-linecap: square"/>
     </g>
     <g id="line2d_8">
      <g>
       <use xlink:href="#mc99b1639d5" x="261.831379" y="233.11019" style="stroke: #000000; stroke-width: 0.8"/>
      </g>
     </g>
     <g id="text_4">
      <!-- 48h -->
      <g transform="translate(248.487629 250.748002) scale(0.14 -0.14)">
       <defs>
        <path id="DejaVuSans-38" d="M 2034 2216 
Q 1584 2216 1326 1975 
Q 1069 1734 1069 1313 
Q 1069 891 1326 650 
Q 1584 409 2034 409 
Q 2484 409 2743 651 
Q 3003 894 3003 1313 
Q 3003 1734 2745 1975 
Q 2488 2216 2034 2216 
z
M 1403 2484 
Q 997 2584 770 2862 
Q 544 3141 544 3541 
Q 544 4100 942 4425 
Q 1341 4750 2034 4750 
Q 2731 4750 3128 4425 
Q 3525 4100 3525 3541 
Q 3525 3141 3298 2862 
Q 3072 2584 2669 2484 
Q 3125 2378 3379 2068 
Q 3634 1759 3634 1313 
Q 3634 634 3220 271 
Q 2806 -91 2034 -91 
Q 1263 -91 848 271 
Q 434 634 434 1313 
Q 434 1759 690 2068 
Q 947 2378 1403 2484 
z
M 1172 3481 
Q 1172 3119 1398 2916 
Q 1625 2713 2034 2713 
Q 2441 2713 2670 2916 
Q 2900 3119 2900 3481 
Q 2900 3844 2670 4047 
Q 2441 4250 2034 4250 
Q 1625 4250 1398 4047 
Q 1172 3844 1172 3481 
z
" transform="scale(0.015625)"/>
       </defs>
       <use xlink:href="#DejaVuSans-34"/>
       <use xlink:href="#DejaVuSans-38" x="63.623047"/>
       <use xlink:href="#DejaVuSans-68" x="127.246094"/>
      </g>
     </g>
    </g>
    <g id="xtick_5">
     <g id="line2d_9">
      <path d="M 310.252867 233.11019 
L 310.252867 11.35019 
" clip-path="url(#p016821aed8)" style="fill: none; stroke: #b0b0b0; stroke-opacity: 0.3; stroke-width: 0.8; stroke-linecap: square"/>
     </g>
     <g id="line2d_10">
      <g>
       <use xlink:href="#mc99b1639d5" x="310.252867" y="233.11019" style="stroke: #000000; stroke-width: 0.8"/>
      </g>
     </g>
     <g id="text_5">
      <!-- 60h -->
      <g transform="translate(296.909117 250.748002) scale(0.14 -0.14)">
       <defs>
        <path id="DejaVuSans-30" d="M 2034 4250 
Q 1547 4250 1301 3770 
Q 1056 3291 1056 2328 
Q 1056 1369 1301 889 
Q 1547 409 2034 409 
Q 2525 409 2770 889 
Q 3016 1369 3016 2328 
Q 3016 3291 2770 3770 
Q 2525 4250 2034 4250 
z
M 2034 4750 
Q 2819 4750 3233 4129 
Q 3647 3509 3647 2328 
Q 3647 1150 3233 529 
Q 2819 -91 2034 -91 
Q 1250 -91 836 529 
Q 422 1150 422 2328 
Q 422 3509 836 4129 
Q 1250 4750 2034 4750 
z
" transform="scale(0.015625)"/>
       </defs>
       <use xlink:href="#DejaVuSans-36"/>
       <use xlink:href="#DejaVuSans-30" x="63.623047"/>
       <use xlink:href="#DejaVuSans-68" x="127.246094"/>
      </g>
     </g>
    </g>
    <g id="xtick_6">
     <g id="line2d_11">
      <path d="M 358.674354 233.11019 
L 358.674354 11.35019 
" clip-path="url(#p016821aed8)" style="fill: none; stroke: #b0b0b0; stroke-opacity: 0.3; stroke-width: 0.8; stroke-linecap: square"/>
     </g>
     <g id="line2d_12">
      <g>
       <use xlink:href="#mc99b1639d5" x="358.674354" y="233.11019" style="stroke: #000000; stroke-width: 0.8"/>
      </g>
     </g>
     <g id="text_6">
      <!-- 72h -->
      <g transform="translate(345.330604 250.748002) scale(0.14 -0.14)">
       <defs>
        <path id="DejaVuSans-37" d="M 525 4666 
L 3525 4666 
L 3525 4397 
L 1831 0 
L 1172 0 
L 2766 4134 
L 525 4134 
L 525 4666 
z
" transform="scale(0.015625)"/>
       </defs>
       <use xlink:href="#DejaVuSans-37"/>
       <use xlink:href="#DejaVuSans-32" x="63.623047"/>
       <use xlink:href="#DejaVuSans-68" x="127.246094"/>
      </g>
     </g>
    </g>
    <g id="xtick_7">
     <g id="line2d_13">
      <path d="M 407.095842 233.11019 
L 407.095842 11.35019 
" clip-path="url(#p016821aed8)" style="fill: none; stroke: #b0b0b0; stroke-opacity: 0.3; stroke-width: 0.8; stroke-linecap: square"/>
     </g>
     <g id="line2d_14">
      <g>
       <use xlink:href="#mc99b1639d5" x="407.095842" y="233.11019" style="stroke: #000000; stroke-width: 0.8"/>
      </g>
     </g>
     <g id="text_7">
      <!-- 84h -->
      <g transform="translate(393.752092 250.748002) scale(0.14 -0.14)">
       <use xlink:href="#DejaVuSans-38"/>
       <use xlink:href="#DejaVuSans-34" x="63.623047"/>
       <use xlink:href="#DejaVuSans-68" x="127.246094"/>
      </g>
     </g>
    </g>
    <g id="xtick_8">
     <g id="line2d_15">
      <path d="M 455.51733 233.11019 
L 455.51733 11.35019 
" clip-path="url(#p016821aed8)" style="fill: none; stroke: #b0b0b0; stroke-opacity: 0.3; stroke-width: 0.8; stroke-linecap: square"/>
     </g>
     <g id="line2d_16">
      <g>
       <use xlink:href="#mc99b1639d5" x="455.51733" y="233.11019" style="stroke: #000000; stroke-width: 0.8"/>
      </g>
     </g>
     <g id="text_8">
      <!-- 96h -->
      <g transform="translate(442.17358 250.748002) scale(0.14 -0.14)">
       <defs>
        <path id="DejaVuSans-39" d="M 703 97 
L 703 672 
Q 941 559 1184 500 
Q 1428 441 1663 441 
Q 2288 441 2617 861 
Q 2947 1281 2994 2138 
Q 2813 1869 2534 1725 
Q 2256 1581 1919 1581 
Q 1219 1581 811 2004 
Q 403 2428 403 3163 
Q 403 3881 828 4315 
Q 1253 4750 1959 4750 
Q 2769 4750 3195 4129 
Q 3622 3509 3622 2328 
Q 3622 1225 3098 567 
Q 2575 -91 1691 -91 
Q 1453 -91 1209 -44 
Q 966 3 703 97 
z
M 1959 2075 
Q 2384 2075 2632 2365 
Q 2881 2656 2881 3163 
Q 2881 3666 2632 3958 
Q 2384 4250 1959 4250 
Q 1534 4250 1286 3958 
Q 1038 3666 1038 3163 
Q 1038 2656 1286 2365 
Q 1534 2075 1959 2075 
z
" transform="scale(0.015625)"/>
       </defs>
       <use xlink:href="#DejaVuSans-39"/>
       <use xlink:href="#DejaVuSans-36" x="63.623047"/>
       <use xlink:href="#DejaVuSans-68" x="127.246094"/>
      </g>
     </g>
    </g>
    <g id="text_9">
     <!-- Time -->
     <g transform="translate(258.398125 269.817065) scale(0.16 -0.16)">
      <defs>
       <path id="DejaVuSans-54" d="M -19 4666 
L 3928 4666 
L 3928 4134 
L 2272 4134 
L 2272 0 
L 1638 0 
L 1638 4134 
L -19 4134 
L -19 4666 
z
" transform="scale(0.015625)"/>
       <path id="DejaVuSans-69" d="M 603 3500 
L 1178 3500 
L 1178 0 
L 603 0 
L 603 3500 
z
M 603 4863 
L 1178 4863 
L 1178 4134 
L 603 4134 
L 603 4863 
z
" transform="scale(0.015625)"/>
       <path id="DejaVuSans-6d" d="M 3328 2828 
Q 3544 3216 3844 3400 
Q 4144 3584 4550 3584 
Q 5097 3584 5394 3201 
Q 5691 2819 5691 2113 
L 5691 0 
L 5113 0 
L 5113 2094 
Q 5113 2597 4934 2840 
Q 4756 3084 4391 3084 
Q 3944 3084 3684 2787 
Q 3425 2491 3425 1978 
L 3425 0 
L 2847 0 
L 2847 2094 
Q 2847 2600 2669 2842 
Q 2491 3084 2119 3084 
Q 1678 3084 1418 2786 
Q 1159 2488 1159 1978 
L 1159 0 
L 581 0 
L 581 3500 
L 1159 3500 
L 1159 2956 
Q 1356 3278 1631 3431 
Q 1906 3584 2284 3584 
Q 2666 3584 2933 3390 
Q 3200 3197 3328 2828 
z
" transform="scale(0.015625)"/>
       <path id="DejaVuSans-65" d="M 3597 1894 
L 3597 1613 
L 953 1613 
Q 991 1019 1311 708 
Q 1631 397 2203 397 
Q 2534 397 2845 478 
Q 3156 559 3463 722 
L 3463 178 
Q 3153 47 2828 -22 
Q 2503 -91 2169 -91 
Q 1331 -91 842 396 
Q 353 884 353 1716 
Q 353 2575 817 3079 
Q 1281 3584 2069 3584 
Q 2775 3584 3186 3129 
Q 3597 2675 3597 1894 
z
M 3022 2063 
Q 3016 2534 2758 2815 
Q 2500 3097 2075 3097 
Q 1594 3097 1305 2825 
Q 1016 2553 972 2059 
L 3022 2063 
z
" transform="scale(0.015625)"/>
      </defs>
      <use xlink:href="#DejaVuSans-54"/>
      <use xlink:href="#DejaVuSans-69" x="57.958984"/>
      <use xlink:href="#DejaVuSans-6d" x="85.742188"/>
      <use xlink:href="#DejaVuSans-65" x="183.154297"/>
     </g>
    </g>
   </g>
   <g id="matplotlib.axis_2">
    <g id="ytick_1">
     <g id="line2d_17">
      <path d="M 82.671875 211.812791 
L 473.271875 211.812791 
" clip-path="url(#p016821aed8)" style="fill: none; stroke: #b0b0b0; stroke-opacity: 0.3; stroke-width: 0.8; stroke-linecap: square"/>
     </g>
     <g id="line2d_18">
      <defs>
       <path id="m843e7fa2fa" d="M 0 0 
L -3.5 0 
" style="stroke: #000000; stroke-width: 0.8"/>
      </defs>
      <g>
       <use xlink:href="#m843e7fa2fa" x="82.671875" y="211.812791" style="stroke: #000000; stroke-width: 0.8"/>
      </g>
     </g>
     <g id="text_10">
      <!-- 12,500 -->
      <g transform="translate(26.685 217.131698) scale(0.14 -0.14)">
       <defs>
        <path id="DejaVuSans-2c" d="M 750 794 
L 1409 794 
L 1409 256 
L 897 -744 
L 494 -744 
L 750 256 
L 750 794 
z
" transform="scale(0.015625)"/>
        <path id="DejaVuSans-35" d="M 691 4666 
L 3169 4666 
L 3169 4134 
L 1269 4134 
L 1269 2991 
Q 1406 3038 1543 3061 
Q 1681 3084 1819 3084 
Q 2600 3084 3056 2656 
Q 3513 2228 3513 1497 
Q 3513 744 3044 326 
Q 2575 -91 1722 -91 
Q 1428 -91 1123 -41 
Q 819 9 494 109 
L 494 744 
Q 775 591 1075 516 
Q 1375 441 1709 441 
Q 2250 441 2565 725 
Q 2881 1009 2881 1497 
Q 2881 1984 2565 2268 
Q 2250 2553 1709 2553 
Q 1456 2553 1204 2497 
Q 953 2441 691 2322 
L 691 4666 
z
" transform="scale(0.015625)"/>
       </defs>
       <use xlink:href="#DejaVuSans-31"/>
       <use xlink:href="#DejaVuSans-32" x="63.623047"/>
       <use xlink:href="#DejaVuSans-2c" x="127.246094"/>
       <use xlink:href="#DejaVuSans-35" x="159.033203"/>
       <use xlink:href="#DejaVuSans-30" x="222.65625"/>
       <use xlink:href="#DejaVuSans-30" x="286.279297"/>
      </g>
     </g>
    </g>
    <g id="ytick_2">
     <g id="line2d_19">
      <path d="M 82.671875 183.342236 
L 473.271875 183.342236 
" clip-path="url(#p016821aed8)" style="fill: none; stroke: #b0b0b0; stroke-opacity: 0.3; stroke-width: 0.8; stroke-linecap: square"/>
     </g>
     <g id="line2d_20">
      <g>
       <use xlink:href="#m843e7fa2fa" x="82.671875" y="183.342236" style="stroke: #000000; stroke-width: 0.8"/>
      </g>
     </g>
     <g id="text_11">
      <!-- 13,000 -->
      <g transform="translate(26.685 188.661143) scale(0.14 -0.14)">
       <use xlink:href="#DejaVuSans-31"/>
       <use xlink:href="#DejaVuSans-33" x="63.623047"/>
       <use xlink:href="#DejaVuSans-2c" x="127.246094"/>
       <use xlink:href="#DejaVuSans-30" x="159.033203"/>
       <use xlink:href="#DejaVuSans-30" x="222.65625"/>
       <use xlink:href="#DejaVuSans-30" x="286.279297"/>
      </g>
     </g>
    </g>
    <g id="ytick_3">
     <g id="line2d_21">
      <path d="M 82.671875 154.871681 
L 473.271875 154.871681 
" clip-path="url(#p016821aed8)" style="fill: none; stroke: #b0b0b0; stroke-opacity: 0.3; stroke-width: 0.8; stroke-linecap: square"/>
     </g>
     <g id="line2d_22">
      <g>
       <use xlink:href="#m843e7fa2fa" x="82.671875" y="154.871681" style="stroke: #000000; stroke-width: 0.8"/>
      </g>
     </g>
     <g id="text_12">
      <!-- 13,500 -->
      <g transform="translate(26.685 160.190588) scale(0.14 -0.14)">
       <use xlink:href="#DejaVuSans-31"/>
       <use xlink:href="#DejaVuSans-33" x="63.623047"/>
       <use xlink:href="#DejaVuSans-2c" x="127.246094"/>
       <use xlink:href="#DejaVuSans-35" x="159.033203"/>
       <use xlink:href="#DejaVuSans-30" x="222.65625"/>
       <use xlink:href="#DejaVuSans-30" x="286.279297"/>
      </g>
     </g>
    </g>
    <g id="ytick_4">
     <g id="line2d_23">
      <path d="M 82.671875 126.401126 
L 473.271875 126.401126 
" clip-path="url(#p016821aed8)" style="fill: none; stroke: #b0b0b0; stroke-opacity: 0.3; stroke-width: 0.8; stroke-linecap: square"/>
     </g>
     <g id="line2d_24">
      <g>
       <use xlink:href="#m843e7fa2fa" x="82.671875" y="126.401126" style="stroke: #000000; stroke-width: 0.8"/>
      </g>
     </g>
     <g id="text_13">
      <!-- 14,000 -->
      <g transform="translate(26.685 131.720033) scale(0.14 -0.14)">
       <use xlink:href="#DejaVuSans-31"/>
       <use xlink:href="#DejaVuSans-34" x="63.623047"/>
       <use xlink:href="#DejaVuSans-2c" x="127.246094"/>
       <use xlink:href="#DejaVuSans-30" x="159.033203"/>
       <use xlink:href="#DejaVuSans-30" x="222.65625"/>
       <use xlink:href="#DejaVuSans-30" x="286.279297"/>
      </g>
     </g>
    </g>
    <g id="ytick_5">
     <g id="line2d_25">
      <path d="M 82.671875 97.930571 
L 473.271875 97.930571 
" clip-path="url(#p016821aed8)" style="fill: none; stroke: #b0b0b0; stroke-opacity: 0.3; stroke-width: 0.8; stroke-linecap: square"/>
     </g>
     <g id="line2d_26">
      <g>
       <use xlink:href="#m843e7fa2fa" x="82.671875" y="97.930571" style="stroke: #000000; stroke-width: 0.8"/>
      </g>
     </g>
     <g id="text_14">
      <!-- 14,500 -->
      <g transform="translate(26.685 103.249478) scale(0.14 -0.14)">
       <use xlink:href="#DejaVuSans-31"/>
       <use xlink:href="#DejaVuSans-34" x="63.623047"/>
       <use xlink:href="#DejaVuSans-2c" x="127.246094"/>
       <use xlink:href="#DejaVuSans-35" x="159.033203"/>
       <use xlink:href="#DejaVuSans-30" x="222.65625"/>
       <use xlink:href="#DejaVuSans-30" x="286.279297"/>
      </g>
     </g>
    </g>
    <g id="ytick_6">
     <g id="line2d_27">
      <path d="M 82.671875 69.460016 
L 473.271875 69.460016 
" clip-path="url(#p016821aed8)" style="fill: none; stroke: #b0b0b0; stroke-opacity: 0.3; stroke-width: 0.8; stroke-linecap: square"/>
     </g>
     <g id="line2d_28">
      <g>
       <use xlink:href="#m843e7fa2fa" x="82.671875" y="69.460016" style="stroke: #000000; stroke-width: 0.8"/>
      </g>
     </g>
     <g id="text_15">
      <!-- 15,000 -->
      <g transform="translate(26.685 74.778923) scale(0.14 -0.14)">
       <use xlink:href="#DejaVuSans-31"/>
       <use xlink:href="#DejaVuSans-35" x="63.623047"/>
       <use xlink:href="#DejaVuSans-2c" x="127.246094"/>
       <use xlink:href="#DejaVuSans-30" x="159.033203"/>
       <use xlink:href="#DejaVuSans-30" x="222.65625"/>
       <use xlink:href="#DejaVuSans-30" x="286.279297"/>
      </g>
     </g>
    </g>
    <g id="ytick_7">
     <g id="line2d_29">
      <path d="M 82.671875 40.989461 
L 473.271875 40.989461 
" clip-path="url(#p016821aed8)" style="fill: none; stroke: #b0b0b0; stroke-opacity: 0.3; stroke-width: 0.8; stroke-linecap: square"/>
     </g>
     <g id="line2d_30">
      <g>
       <use xlink:href="#m843e7fa2fa" x="82.671875" y="40.989461" style="stroke: #000000; stroke-width: 0.8"/>
      </g>
     </g>
     <g id="text_16">
      <!-- 15,500 -->
      <g transform="translate(26.685 46.308368) scale(0.14 -0.14)">
       <use xlink:href="#DejaVuSans-31"/>
       <use xlink:href="#DejaVuSans-35" x="63.623047"/>
       <use xlink:href="#DejaVuSans-2c" x="127.246094"/>
       <use xlink:href="#DejaVuSans-35" x="159.033203"/>
       <use xlink:href="#DejaVuSans-30" x="222.65625"/>
       <use xlink:href="#DejaVuSans-30" x="286.279297"/>
      </g>
     </g>
    </g>
    <g id="ytick_8">
     <g id="line2d_31">
      <path d="M 82.671875 12.518906 
L 473.271875 12.518906 
" clip-path="url(#p016821aed8)" style="fill: none; stroke: #b0b0b0; stroke-opacity: 0.3; stroke-width: 0.8; stroke-linecap: square"/>
     </g>
     <g id="line2d_32">
      <g>
       <use xlink:href="#m843e7fa2fa" x="82.671875" y="12.518906" style="stroke: #000000; stroke-width: 0.8"/>
      </g>
     </g>
     <g id="text_17">
      <!-- 16,000 -->
      <g transform="translate(26.685 17.837812) scale(0.14 -0.14)">
       <use xlink:href="#DejaVuSans-31"/>
       <use xlink:href="#DejaVuSans-36" x="63.623047"/>
       <use xlink:href="#DejaVuSans-2c" x="127.246094"/>
       <use xlink:href="#DejaVuSans-30" x="159.033203"/>
       <use xlink:href="#DejaVuSans-30" x="222.65625"/>
       <use xlink:href="#DejaVuSans-30" x="286.279297"/>
      </g>
     </g>
    </g>
    <g id="text_18">
     <!-- Edges -->
     <g transform="translate(19.3575 146.53269) rotate(-90) scale(0.16 -0.16)">
      <defs>
       <path id="DejaVuSans-45" d="M 628 4666 
L 3578 4666 
L 3578 4134 
L 1259 4134 
L 1259 2753 
L 3481 2753 
L 3481 2222 
L 1259 2222 
L 1259 531 
L 3634 531 
L 3634 0 
L 628 0 
L 628 4666 
z
" transform="scale(0.015625)"/>
       <path id="DejaVuSans-64" d="M 2906 2969 
L 2906 4863 
L 3481 4863 
L 3481 0 
L 2906 0 
L 2906 525 
Q 2725 213 2448 61 
Q 2172 -91 1784 -91 
Q 1150 -91 751 415 
Q 353 922 353 1747 
Q 353 2572 751 3078 
Q 1150 3584 1784 3584 
Q 2172 3584 2448 3432 
Q 2725 3281 2906 2969 
z
M 947 1747 
Q 947 1113 1208 752 
Q 1469 391 1925 391 
Q 2381 391 2643 752 
Q 2906 1113 2906 1747 
Q 2906 2381 2643 2742 
Q 2381 3103 1925 3103 
Q 1469 3103 1208 2742 
Q 947 2381 947 1747 
z
" transform="scale(0.015625)"/>
       <path id="DejaVuSans-67" d="M 2906 1791 
Q 2906 2416 2648 2759 
Q 2391 3103 1925 3103 
Q 1463 3103 1205 2759 
Q 947 2416 947 1791 
Q 947 1169 1205 825 
Q 1463 481 1925 481 
Q 2391 481 2648 825 
Q 2906 1169 2906 1791 
z
M 3481 434 
Q 3481 -459 3084 -895 
Q 2688 -1331 1869 -1331 
Q 1566 -1331 1297 -1286 
Q 1028 -1241 775 -1147 
L 775 -588 
Q 1028 -725 1275 -790 
Q 1522 -856 1778 -856 
Q 2344 -856 2625 -561 
Q 2906 -266 2906 331 
L 2906 616 
Q 2728 306 2450 153 
Q 2172 0 1784 0 
Q 1141 0 747 490 
Q 353 981 353 1791 
Q 353 2603 747 3093 
Q 1141 3584 1784 3584 
Q 2172 3584 2450 3431 
Q 2728 3278 2906 2969 
L 2906 3500 
L 3481 3500 
L 3481 434 
z
" transform="scale(0.015625)"/>
       <path id="DejaVuSans-73" d="M 2834 3397 
L 2834 2853 
Q 2591 2978 2328 3040 
Q 2066 3103 1784 3103 
Q 1356 3103 1142 2972 
Q 928 2841 928 2578 
Q 928 2378 1081 2264 
Q 1234 2150 1697 2047 
L 1894 2003 
Q 2506 1872 2764 1633 
Q 3022 1394 3022 966 
Q 3022 478 2636 193 
Q 2250 -91 1575 -91 
Q 1294 -91 989 -36 
Q 684 19 347 128 
L 347 722 
Q 666 556 975 473 
Q 1284 391 1588 391 
Q 1994 391 2212 530 
Q 2431 669 2431 922 
Q 2431 1156 2273 1281 
Q 2116 1406 1581 1522 
L 1381 1569 
Q 847 1681 609 1914 
Q 372 2147 372 2553 
Q 372 3047 722 3315 
Q 1072 3584 1716 3584 
Q 2034 3584 2315 3537 
Q 2597 3491 2834 3397 
z
" transform="scale(0.015625)"/>
      </defs>
      <use xlink:href="#DejaVuSans-45"/>
      <use xlink:href="#DejaVuSans-64" x="63.183594"/>
      <use xlink:href="#DejaVuSans-67" x="126.660156"/>
      <use xlink:href="#DejaVuSans-65" x="190.136719"/>
      <use xlink:href="#DejaVuSans-73" x="251.660156"/>
     </g>
    </g>
   </g>
   <g id="line2d_33">
    <path d="M 100.42642 77.716477 
L 101.435201 76.976243 
L 106.479106 76.976243 
L 107.487887 76.292949 
L 120.60204 76.292949 
L 121.610821 76.008244 
L 125.645945 76.008244 
L 126.654726 75.894362 
L 128.672288 75.837421 
L 129.681069 75.666597 
L 130.68985 74.641657 
L 136.742536 74.584716 
L 137.751317 74.300011 
L 139.768879 74.300011 
L 140.77766 73.787541 
L 141.786441 73.616717 
L 142.795222 72.990365 
L 144.812784 72.990365 
L 146.830346 72.591777 
L 147.839127 70.598838 
L 148.847908 70.371074 
L 162.970842 70.371074 
L 164.988404 70.14331 
L 165.997185 70.14331 
L 167.005966 69.175311 
L 174.067433 69.175311 
L 175.076214 68.776723 
L 178.102557 68.776723 
L 179.111338 68.150371 
L 180.120119 67.694842 
L 190.207929 67.694842 
L 192.225491 67.182372 
L 194.243053 67.182372 
L 195.251834 67.011549 
L 197.269396 66.954607 
L 203.322082 66.954607 
L 204.330863 66.385196 
L 208.365987 66.385196 
L 209.374768 66.214373 
L 221.480139 66.214373 
L 222.48892 65.588021 
L 224.506482 65.588021 
L 225.515263 65.474139 
L 228.541606 65.474139 
L 229.550387 65.132492 
L 238.629416 65.075551 
L 239.638197 63.652023 
L 240.646978 63.652023 
L 241.655759 63.424259 
L 255.778693 63.424259 
L 256.787474 63.310376 
L 268.892846 63.310376 
L 269.901627 62.627083 
L 270.910408 61.43132 
L 271.919189 61.032732 
L 288.059685 61.032732 
L 289.068466 60.861909 
L 306.217743 60.861909 
L 307.226524 60.463321 
L 371.788507 60.40638 
L 372.797288 59.89391 
L 373.806069 59.609204 
L 375.823631 59.438381 
L 376.832412 59.438381 
L 379.858755 58.86897 
L 382.885098 58.86897 
L 383.893879 58.641205 
L 389.946565 58.584264 
L 390.955346 58.413441 
L 391.964127 58.014853 
L 398.016813 58.014853 
L 399.025594 56.932972 
L 421.218776 56.932972 
L 422.227557 56.363561 
L 424.245119 56.30662 
L 443.411958 56.30662 
L 444.420739 56.135797 
L 445.42952 55.737209 
L 446.438301 55.737209 
L 447.447082 55.395562 
L 451.482206 55.224739 
L 455.51733 55.167798 
L 455.51733 55.167798 
" clip-path="url(#p016821aed8)" style="fill: none; stroke-dasharray: 3,4.95; stroke-dashoffset: 0; stroke: #ddaa33; stroke-width: 3"/>
   </g>
   <g id="line2d_34">
    <path d="M 100.42642 62.000731 
L 105.470325 61.94379 
L 106.479106 61.772966 
L 107.487887 61.772966 
L 108.496668 61.659084 
L 109.505449 61.659084 
L 110.51423 61.488261 
L 113.540573 61.488261 
L 114.549354 58.242618 
L 117.575697 58.185676 
L 122.619602 57.957912 
L 124.637164 57.957912 
L 125.645945 57.84403 
L 127.663507 57.787089 
L 128.672288 57.559324 
L 129.681069 57.559324 
L 130.68985 57.103795 
L 131.698631 56.932972 
L 133.716193 56.932972 
L 134.724974 56.591325 
L 136.742536 56.534384 
L 137.751317 56.192738 
L 138.760098 56.192738 
L 140.77766 55.964973 
L 144.812784 55.964973 
L 147.839127 55.395562 
L 168.014747 55.338621 
L 169.023528 55.28168 
L 170.032309 54.996974 
L 175.076214 54.996974 
L 176.084995 54.883092 
L 177.093776 53.972034 
L 178.102557 53.972034 
L 179.111338 53.687329 
L 181.1289 53.630388 
L 183.146462 53.573447 
L 185.164024 53.516505 
L 190.207929 53.516505 
L 191.21671 53.402623 
L 202.313301 53.345682 
L 204.330863 53.288741 
L 208.365987 53.288741 
L 209.374768 53.117918 
L 211.39233 53.117918 
L 212.401111 52.890153 
L 228.541606 52.833212 
L 229.550387 52.377683 
L 248.717226 52.320742 
L 250.734788 52.263801 
L 257.796255 52.263801 
L 258.805036 50.555568 
L 275.954313 50.498627 
L 278.980656 50.384744 
L 284.024561 50.384744 
L 285.033342 50.270862 
L 288.059685 50.270862 
L 289.068466 50.043098 
L 296.129933 49.986157 
L 297.138714 49.701451 
L 301.173838 49.701451 
L 302.182619 49.416746 
L 304.200181 49.416746 
L 305.208962 49.302863 
L 310.252867 49.302863 
L 311.261648 49.075099 
L 313.27921 49.018158 
L 314.287991 48.847334 
L 316.305553 48.847334 
L 317.314334 48.733452 
L 330.428487 48.733452 
L 331.437268 48.334864 
L 332.446049 48.334864 
L 333.45483 48.164041 
L 334.463611 46.854396 
L 335.472392 46.626631 
L 336.481173 46.626631 
L 337.489954 46.512749 
L 340.516296 46.512749 
L 341.525077 46.284984 
L 342.533858 45.772514 
L 343.542639 45.601691 
L 353.630449 45.601691 
L 354.63923 45.316986 
L 356.656792 45.260045 
L 357.665573 45.146162 
L 358.674354 44.918398 
L 361.700697 44.918398 
L 362.709478 44.633692 
L 363.718259 44.51981 
L 382.885098 44.462869 
L 384.90266 44.00734 
L 398.016813 44.00734 
L 399.025594 43.779576 
L 401.043156 43.722635 
L 433.324148 43.665693 
L 434.332929 43.49487 
L 454.508549 43.49487 
L 455.51733 44.121222 
L 455.51733 44.121222 
" clip-path="url(#p016821aed8)" style="fill: none; stroke-dasharray: 3,4.95; stroke-dashoffset: 0; stroke: #000000; stroke-width: 3"/>
   </g>
   <g id="line2d_35">
    <path d="M 100.42642 158.288148 
L 101.435201 157.832619 
L 102.443982 157.775678 
L 104.461544 157.206267 
L 105.470325 155.554975 
L 107.487887 154.074506 
L 108.496668 153.220389 
L 112.531792 150.885804 
L 113.540573 150.71498 
L 115.558135 148.095689 
L 116.566916 148.038748 
L 120.60204 146.444397 
L 121.610821 146.330515 
L 124.637164 145.704163 
L 126.654726 145.647221 
L 127.663507 144.850046 
L 128.672288 143.5404 
L 130.68985 142.230755 
L 133.716193 142.173814 
L 134.724974 142.116873 
L 135.733755 141.262756 
L 136.742536 140.750286 
L 137.751317 140.408639 
L 140.77766 140.351698 
L 141.786441 140.066993 
L 142.795222 140.066993 
L 144.812784 139.782287 
L 146.830346 139.782287 
L 147.839127 138.130995 
L 153.891813 138.074054 
L 156.918156 137.960172 
L 157.926937 137.960172 
L 158.935718 137.789348 
L 159.944499 137.789348 
L 161.962061 137.618525 
L 162.970842 137.618525 
L 163.979623 137.504643 
L 168.014747 137.447702 
L 172.049871 137.276878 
L 176.084995 137.276878 
L 177.093776 136.821349 
L 178.102557 136.821349 
L 181.1289 136.536644 
L 183.146462 136.479703 
L 184.155243 135.910292 
L 189.199148 135.910292 
L 190.207929 135.739468 
L 197.269396 135.682527 
L 198.278177 135.511704 
L 199.286958 135.170057 
L 200.295739 135.170057 
L 201.30452 134.771469 
L 202.313301 134.031235 
L 203.322082 134.031235 
L 204.330863 133.860412 
L 205.339644 133.860412 
L 206.348425 133.291001 
L 207.357206 133.177118 
L 208.365987 131.981355 
L 209.374768 131.639708 
L 210.383549 131.525826 
L 217.445015 131.468885 
L 218.453796 131.241121 
L 220.471358 131.241121 
L 221.480139 131.070297 
L 223.497701 131.013356 
L 225.515263 131.013356 
L 226.524044 130.899474 
L 230.559168 130.899474 
L 231.567949 130.70018 
L 235.603073 130.67171 
L 246.699664 130.586298 
L 250.734788 130.557827 
L 251.743569 130.301592 
L 252.75235 130.301592 
L 254.769912 129.931475 
L 257.796255 129.931475 
L 258.805036 129.16277 
L 259.813817 129.105829 
L 260.822598 128.849594 
L 263.848941 128.792653 
L 266.875284 128.564888 
L 273.936751 128.479477 
L 275.954313 128.394065 
L 282.006999 128.308653 
L 286.042123 128.251712 
L 287.050904 128.080889 
L 288.059685 128.080889 
L 289.068466 127.568419 
L 293.10359 127.511478 
L 294.112371 127.340655 
L 297.138714 127.255243 
L 301.173838 127.226772 
L 302.182619 127.226772 
L 303.1914 126.685832 
L 329.419706 126.628891 
L 331.437268 126.543479 
L 336.481173 126.515008 
L 337.489954 126.05948 
L 342.533858 125.974068 
L 343.542639 125.746304 
L 346.568982 125.603951 
L 347.577763 124.664422 
L 358.674354 124.635952 
L 360.691916 124.55054 
L 361.700697 124.55054 
L 362.709478 123.781835 
L 369.770945 123.468659 
L 371.788507 123.411718 
L 373.806069 123.354777 
L 386.920222 123.297836 
L 387.929003 123.127012 
L 390.955346 123.127012 
L 391.964127 123.01313 
L 395.999251 123.01313 
L 397.008032 122.899248 
L 407.095842 122.870777 
L 408.104623 122.187484 
L 417.183652 122.187484 
L 418.192433 121.98819 
L 420.209995 121.931249 
L 421.218776 121.418779 
L 426.262681 121.361838 
L 428.280243 120.849368 
L 438.368053 120.792427 
L 439.376834 120.650074 
L 443.411958 120.621604 
L 444.420739 120.365369 
L 449.464644 120.336898 
L 450.473425 119.198076 
L 451.482206 118.771018 
L 452.490987 119.511252 
L 453.499768 119.511252 
L 454.508549 122.643013 
L 454.508549 122.643013 
" clip-path="url(#p016821aed8)" style="fill: none; stroke: #994455; stroke-width: 3; stroke-linecap: square"/>
   </g>
   <g id="line2d_36">
    <path d="M 100.42642 44.633692 
L 101.435201 44.576751 
L 103.452763 44.00734 
L 104.461544 43.950399 
L 105.470325 43.437929 
L 106.479106 43.153223 
L 107.487887 43.039341 
L 108.496668 42.754636 
L 109.505449 41.95746 
L 110.51423 41.615813 
L 112.531792 41.558872 
L 114.549354 41.558872 
L 115.558135 40.647815 
L 116.566916 40.476991 
L 117.575697 40.42005 
L 118.584478 39.508992 
L 120.60204 39.224287 
L 124.637164 38.427111 
L 128.672288 38.028524 
L 130.68985 38.028524 
L 132.707412 37.800759 
L 133.716193 37.060525 
L 136.742536 36.889701 
L 137.751317 36.32029 
L 141.786441 36.263349 
L 142.795222 36.149467 
L 144.812784 36.149467 
L 145.821565 36.035585 
L 146.830346 36.035585 
L 147.839127 35.580056 
L 151.874251 35.523115 
L 155.909375 35.352291 
L 160.95328 35.352291 
L 163.979623 35.067586 
L 168.014747 35.067586 
L 169.023528 33.928764 
L 170.032309 33.814881 
L 172.049871 33.814881 
L 173.058652 33.700999 
L 178.102557 33.700999 
L 181.1289 33.188529 
L 184.155243 33.131588 
L 187.181586 32.505236 
L 200.295739 32.448295 
L 201.30452 32.163589 
L 206.348425 31.935825 
L 207.357206 31.935825 
L 208.365987 31.821943 
L 217.445015 31.765001 
L 218.453796 31.423355 
L 228.541606 31.366414 
L 230.559168 31.081708 
L 234.594292 31.081708 
L 235.603073 30.910885 
L 252.75235 30.853944 
L 253.761131 30.056768 
L 254.769912 28.63324 
L 258.805036 28.576299 
L 260.822598 28.519358 
L 266.875284 28.519358 
L 267.884065 28.405476 
L 277.971875 28.348535 
L 278.980656 27.836065 
L 279.989437 27.665242 
L 292.094809 27.665242 
L 293.10359 27.494418 
L 295.121152 27.437477 
L 306.217743 27.437477 
L 307.226524 26.640302 
L 308.235305 26.640302 
L 309.244086 26.355596 
L 315.296772 26.355596 
L 316.305553 26.184773 
L 320.340677 26.013949 
L 335.472392 26.013949 
L 336.481173 25.900067 
L 367.753383 25.843126 
L 368.762164 25.729244 
L 381.876317 25.672303 
L 382.885098 25.55842 
L 394.99047 25.501479 
L 395.999251 23.565482 
L 397.008032 23.337717 
L 399.025594 23.280776 
L 400.034375 22.483601 
L 403.060718 22.369718 
L 422.227557 22.369718 
L 423.236338 22.255836 
L 426.262681 22.255836 
L 427.271462 22.141954 
L 430.297805 22.141954 
L 431.306586 22.028072 
L 438.368053 21.971131 
L 439.376834 21.743366 
L 445.42952 21.686425 
L 447.447082 21.629484 
L 450.473425 21.572543 
L 452.490987 21.515602 
L 454.508549 21.515602 
L 454.508549 21.515602 
" clip-path="url(#p016821aed8)" style="fill: none; stroke: #ee99aa; stroke-width: 3; stroke-linecap: square"/>
   </g>
   <g id="line2d_37">
    <path d="M 100.42642 223.03019 
L 101.435201 222.51772 
L 102.443982 217.90549 
L 104.461544 214.944552 
L 105.470325 214.944552 
L 106.479106 214.432082 
L 107.487887 214.147377 
L 108.496668 211.015616 
L 109.505449 209.307382 
L 110.51423 207.883855 
L 111.523011 206.004798 
L 112.531792 205.890916 
L 113.540573 203.954918 
L 114.549354 203.954918 
L 116.566916 203.442448 
L 118.584478 198.716336 
L 119.593259 197.235867 
L 120.60204 196.723397 
L 121.610821 196.38175 
L 122.619602 193.876342 
L 123.628383 193.648577 
L 124.637164 192.794461 
L 125.645945 190.061287 
L 128.672288 188.922465 
L 129.681069 185.56294 
L 130.68985 180.267416 
L 131.698631 179.584123 
L 132.707412 179.527182 
L 133.716193 179.299417 
L 134.724974 175.370481 
L 135.733755 175.370481 
L 136.742536 174.914952 
L 137.751317 174.117776 
L 138.760098 172.352602 
L 140.77766 172.181779 
L 142.795222 171.612368 
L 144.812784 171.555427 
L 145.821565 171.555427 
L 146.830346 170.986015 
L 147.839127 170.18884 
L 148.847908 169.904134 
L 149.856689 168.822253 
L 150.86547 168.480607 
L 151.874251 166.259903 
L 152.883032 166.08908 
L 153.891813 165.06414 
L 154.900594 164.437788 
L 156.918156 164.437788 
L 158.935718 163.868377 
L 160.95328 163.811436 
L 163.979623 163.754494 
L 164.988404 163.242024 
L 167.005966 163.185083 
L 169.023528 163.185083 
L 170.032309 162.558731 
L 172.049871 162.387908 
L 173.058652 162.330967 
L 174.067433 160.167205 
L 175.076214 160.167205 
L 176.084995 159.654735 
L 177.093776 159.654735 
L 179.111338 159.313088 
L 181.1289 159.256147 
L 186.172805 159.199206 
L 187.181586 158.9145 
L 188.190367 158.9145 
L 189.199148 158.800618 
L 191.21671 158.800618 
L 192.225491 158.458971 
L 194.243053 158.458971 
L 195.251834 157.320149 
L 200.295739 157.263208 
L 201.30452 157.035443 
L 205.339644 156.86462 
L 218.453796 156.807679 
L 219.462577 156.693797 
L 220.471358 156.295209 
L 222.48892 156.295209 
L 223.497701 155.782739 
L 224.506482 155.042505 
L 225.515263 155.042505 
L 226.524044 156.921561 
L 227.532825 156.466032 
L 230.559168 156.238268 
L 231.567949 156.238268 
L 232.57673 156.124386 
L 234.594292 156.124386 
L 235.603073 155.982033 
L 236.611854 155.355681 
L 238.629416 155.213328 
L 243.673321 155.127916 
L 244.682102 154.757799 
L 252.75235 154.729329 
L 253.761131 151.085097 
L 254.769912 150.800392 
L 256.787474 150.658039 
L 259.813817 150.601098 
L 260.822598 150.117099 
L 263.848941 150.060157 
L 264.857722 149.889334 
L 268.892846 149.860864 
L 269.901627 149.69004 
L 276.963094 149.433805 
L 277.971875 151.284391 
L 278.980656 150.487216 
L 284.024561 150.487216 
L 285.033342 150.259451 
L 290.077247 150.259451 
L 292.094809 149.974746 
L 293.10359 149.746981 
L 297.138714 149.746981 
L 298.147495 149.633099 
L 311.261648 149.633099 
L 312.270429 148.835924 
L 315.296772 148.778983 
L 316.305553 148.380395 
L 317.314334 148.380395 
L 318.323115 148.15263 
L 319.331896 146.899926 
L 321.349458 146.842985 
L 331.437268 146.842985 
L 332.446049 146.672161 
L 338.498735 146.672161 
L 339.507515 145.761104 
L 340.516296 145.476398 
L 344.55142 145.419457 
L 348.586544 145.248634 
L 356.656792 145.191693 
L 358.674354 145.134751 
L 378.849974 145.07781 
L 379.858755 144.906987 
L 392.972908 144.850046 
L 393.981689 144.736164 
L 401.043156 144.736164 
L 402.051937 144.622281 
L 408.104623 144.622281 
L 409.113404 144.166753 
L 412.139747 144.166753 
L 413.148528 143.938988 
L 454.508549 143.882047 
L 454.508549 143.882047 
" clip-path="url(#p016821aed8)" style="fill: none; stroke: #004488; stroke-width: 3; stroke-linecap: square"/>
   </g>
   <g id="line2d_38">
    <path d="M 100.42642 45.430868 
L 101.435201 45.03228 
L 102.443982 44.918398 
L 103.452763 44.51981 
L 104.461544 43.779576 
L 106.479106 43.039341 
L 110.51423 42.811577 
L 111.523011 42.299107 
L 114.549354 42.071342 
L 116.566916 40.021462 
L 119.593259 38.939581 
L 121.610821 38.825699 
L 122.619602 38.654876 
L 123.628383 38.199347 
L 125.645945 38.142406 
L 126.654726 37.686877 
L 128.672288 37.459112 
L 129.681069 37.174407 
L 133.716193 37.174407 
L 135.733755 37.003584 
L 136.742536 37.003584 
L 137.751317 36.889701 
L 138.760098 36.889701 
L 139.768879 36.491114 
L 140.77766 36.434172 
L 141.786441 36.149467 
L 144.812784 36.149467 
L 145.821565 35.181468 
L 146.830346 35.181468 
L 147.839127 34.953704 
L 148.847908 34.953704 
L 150.86547 34.612057 
L 153.891813 34.612057 
L 154.900594 34.156528 
L 156.918156 34.099587 
L 158.935718 34.099587 
L 159.944499 33.928764 
L 160.95328 33.928764 
L 162.970842 33.644058 
L 171.04109 33.587117 
L 172.049871 33.24547 
L 175.076214 33.188529 
L 178.102557 33.074647 
L 181.1289 33.017706 
L 183.146462 32.960765 
L 186.172805 32.903824 
L 188.190367 32.733 
L 190.207929 32.676059 
L 191.21671 32.562177 
L 193.234272 32.562177 
L 194.243053 32.391354 
L 195.251834 32.391354 
L 196.260615 32.106648 
L 198.278177 32.049707 
L 199.286958 31.821943 
L 208.365987 31.821943 
L 209.374768 31.423355 
L 212.401111 31.309473 
L 215.427454 31.252531 
L 217.445015 30.68312 
L 227.532825 30.68312 
L 228.541606 30.569238 
L 237.620635 30.569238 
L 239.638197 30.284533 
L 241.655759 30.227591 
L 243.673321 30.056768 
L 250.734788 29.999827 
L 252.75235 29.942886 
L 257.796255 29.885945 
L 258.805036 29.601239 
L 262.84016 29.601239 
L 263.848941 29.031828 
L 268.892846 29.031828 
L 269.901627 28.917946 
L 270.910408 28.917946 
L 271.919189 28.804064 
L 275.954313 28.804064 
L 276.963094 28.348535 
L 280.998218 28.348535 
L 282.006999 27.665242 
L 283.01578 27.665242 
L 284.024561 27.551359 
L 299.156276 27.494418 
L 300.165057 26.868066 
L 306.217743 26.868066 
L 307.226524 26.754184 
L 316.305553 26.697243 
L 318.323115 26.640302 
L 335.472392 26.640302 
L 336.481173 26.469478 
L 338.498735 26.412537 
L 341.525077 26.412537 
L 342.533858 26.241714 
L 350.604106 26.184773 
L 352.621668 26.127832 
L 353.630449 24.362657 
L 362.709478 24.305716 
L 366.744602 24.134893 
L 367.753383 23.50854 
L 368.762164 23.166894 
L 379.858755 23.109953 
L 381.876317 22.939129 
L 395.999251 22.882188 
L 397.008032 22.711365 
L 412.139747 22.654424 
L 413.148528 22.198895 
L 424.245119 22.141954 
L 425.2539 21.914189 
L 430.297805 21.857248 
L 432.315367 21.800307 
L 442.403177 21.800307 
L 443.411958 21.686425 
L 454.508549 21.686425 
L 455.51733 21.43019 
L 455.51733 21.43019 
" clip-path="url(#p016821aed8)" style="fill: none; stroke: #6699cc; stroke-width: 3; stroke-linecap: square"/>
   </g>
   <g id="line2d_39">
    <path d="M 100.42642 67.467077 
L 101.435201 67.467077 
L 102.443982 67.353195 
L 103.452763 67.125431 
L 106.479106 67.011549 
L 109.505449 66.954607 
L 110.51423 66.783784 
L 111.523011 66.783784 
L 112.531792 66.612961 
L 113.540573 66.612961 
L 114.549354 66.499079 
L 116.566916 66.499079 
L 117.575697 66.214373 
L 118.584478 66.157432 
L 119.593259 65.701903 
L 122.619602 65.588021 
L 123.628383 65.588021 
L 124.637164 63.652023 
L 130.68985 63.652023 
L 131.698631 62.45626 
L 133.716193 61.829908 
L 135.733755 61.829908 
L 136.742536 61.716025 
L 140.77766 61.716025 
L 141.786441 60.691085 
L 146.830346 60.634144 
L 148.847908 60.577203 
L 161.962061 60.577203 
L 162.970842 60.178615 
L 171.04109 60.121674 
L 172.049871 59.836969 
L 175.076214 59.836969 
L 176.084995 58.413441 
L 181.1289 58.413441 
L 183.146462 58.242618 
L 184.155243 58.242618 
L 185.164024 58.014853 
L 188.190367 58.014853 
L 189.199148 57.84403 
L 191.21671 57.84403 
L 192.225491 57.730148 
L 198.278177 57.673206 
L 203.322082 57.445442 
L 204.330863 57.445442 
L 205.339644 57.33156 
L 206.348425 55.851091 
L 221.480139 55.79415 
L 223.497701 55.737209 
L 247.708445 55.680268 
L 248.717226 55.452503 
L 251.743569 55.452503 
L 252.75235 54.996974 
L 263.848941 54.996974 
L 264.857722 54.826151 
L 274.945532 54.76921 
L 275.954313 54.484504 
L 277.971875 54.484504 
L 278.980656 54.199799 
L 279.989437 54.199799 
L 280.998218 53.288741 
L 283.01578 53.288741 
L 284.024561 52.890153 
L 286.042123 52.890153 
L 287.050904 52.776271 
L 294.112371 52.776271 
L 295.121152 51.979095 
L 303.1914 51.979095 
L 304.200181 51.751331 
L 306.217743 51.69439 
L 317.314334 51.637449 
L 318.323115 51.466625 
L 329.419706 51.466625 
L 330.428487 51.295802 
L 341.525077 51.238861 
L 343.542639 51.18192 
L 347.577763 51.18192 
L 348.586544 50.897214 
L 349.595325 50.897214 
L 350.604106 50.384744 
L 352.621668 50.384744 
L 354.63923 50.15698 
L 369.770945 50.100039 
L 370.779726 49.986157 
L 385.911441 49.929216 
L 386.920222 49.075099 
L 397.008032 49.075099 
L 398.016813 48.790393 
L 407.095842 48.790393 
L 408.104623 48.676511 
L 409.113404 48.448747 
L 411.130966 48.391806 
L 454.508549 48.391806 
L 455.51733 60.975791 
L 455.51733 60.975791 
" clip-path="url(#p016821aed8)" style="fill: none; stroke-dasharray: 3,4.95; stroke-dashoffset: 0; stroke: #808080; stroke-width: 3"/>
   </g>
   <g id="patch_3">
    <path d="M 82.671875 233.11019 
L 82.671875 11.35019 
" style="fill: none; stroke: #000000; stroke-width: 0.8; stroke-linejoin: miter; stroke-linecap: square"/>
   </g>
   <g id="patch_4">
    <path d="M 473.271875 233.11019 
L 473.271875 11.35019 
" style="fill: none; stroke: #000000; stroke-width: 0.8; stroke-linejoin: miter; stroke-linecap: square"/>
   </g>
   <g id="patch_5">
    <path d="M 82.671875 233.11019 
L 473.271875 233.11019 
" style="fill: none; stroke: #000000; stroke-width: 0.8; stroke-linejoin: miter; stroke-linecap: square"/>
   </g>
   <g id="patch_6">
    <path d="M 82.671875 11.35019 
L 473.271875 11.35019 
" style="fill: none; stroke: #000000; stroke-width: 0.8; stroke-linejoin: miter; stroke-linecap: square"/>
   </g>
   <g id="legend_1">
    <g id="patch_7">
     <path d="M 298.871875 228.11019 
L 466.271875 228.11019 
Q 468.271875 228.11019 468.271875 226.11019 
L 468.271875 164.813315 
Q 468.271875 162.813315 466.271875 162.813315 
L 298.871875 162.813315 
Q 296.871875 162.813315 296.871875 164.813315 
L 296.871875 226.11019 
Q 296.871875 228.11019 298.871875 228.11019 
z
" style="fill: #ffffff; opacity: 0.8; stroke: #cccccc; stroke-linejoin: miter"/>
    </g>
    <g id="line2d_40">
     <path d="M 300.871875 170.911752 
L 310.871875 170.911752 
L 320.871875 170.911752 
" style="fill: none; stroke: #994455; stroke-width: 3; stroke-linecap: square"/>
    </g>
    <g id="text_19">
     <!-- $symcts$ -->
     <g transform="translate(328.871875 174.411752) scale(0.1 -0.1)">
      <defs>
       <path id="DejaVuSans-Oblique-73" d="M 3200 3397 
L 3091 2853 
Q 2863 2978 2609 3040 
Q 2356 3103 2088 3103 
Q 1634 3103 1373 2948 
Q 1113 2794 1113 2528 
Q 1113 2219 1719 2053 
Q 1766 2041 1788 2034 
L 1972 1978 
Q 2547 1819 2739 1644 
Q 2931 1469 2931 1166 
Q 2931 609 2489 259 
Q 2047 -91 1331 -91 
Q 1053 -91 747 -37 
Q 441 16 72 128 
L 184 722 
Q 500 559 806 475 
Q 1113 391 1394 391 
Q 1816 391 2080 572 
Q 2344 753 2344 1031 
Q 2344 1331 1650 1516 
L 1591 1531 
L 1394 1581 
Q 956 1697 753 1886 
Q 550 2075 550 2369 
Q 550 2928 970 3256 
Q 1391 3584 2113 3584 
Q 2397 3584 2667 3537 
Q 2938 3491 3200 3397 
z
" transform="scale(0.015625)"/>
       <path id="DejaVuSans-Oblique-79" d="M 1588 -325 
Q 1188 -997 936 -1164 
Q 684 -1331 294 -1331 
L -159 -1331 
L -63 -850 
L 269 -850 
Q 509 -850 678 -719 
Q 847 -588 1056 -206 
L 1234 128 
L 459 3500 
L 1069 3500 
L 1650 819 
L 3256 3500 
L 3859 3500 
L 1588 -325 
z
" transform="scale(0.015625)"/>
       <path id="DejaVuSans-Oblique-6d" d="M 5747 2113 
L 5338 0 
L 4763 0 
L 5166 2094 
Q 5191 2228 5203 2325 
Q 5216 2422 5216 2491 
Q 5216 2772 5059 2928 
Q 4903 3084 4622 3084 
Q 4203 3084 3875 2770 
Q 3547 2456 3450 1953 
L 3066 0 
L 2491 0 
L 2900 2094 
Q 2925 2209 2937 2307 
Q 2950 2406 2950 2484 
Q 2950 2769 2794 2926 
Q 2638 3084 2363 3084 
Q 1938 3084 1609 2770 
Q 1281 2456 1184 1953 
L 800 0 
L 225 0 
L 909 3500 
L 1484 3500 
L 1375 2956 
Q 1609 3263 1923 3423 
Q 2238 3584 2597 3584 
Q 2978 3584 3223 3384 
Q 3469 3184 3519 2828 
Q 3781 3197 4126 3390 
Q 4472 3584 4856 3584 
Q 5306 3584 5551 3325 
Q 5797 3066 5797 2591 
Q 5797 2488 5784 2364 
Q 5772 2241 5747 2113 
z
" transform="scale(0.015625)"/>
       <path id="DejaVuSans-Oblique-63" d="M 3431 3366 
L 3316 2797 
Q 3109 2947 2876 3022 
Q 2644 3097 2394 3097 
Q 2119 3097 1870 3000 
Q 1622 2903 1453 2725 
Q 1184 2453 1037 2087 
Q 891 1722 891 1331 
Q 891 859 1127 628 
Q 1363 397 1844 397 
Q 2081 397 2348 469 
Q 2616 541 2906 684 
L 2797 116 
Q 2547 13 2283 -39 
Q 2019 -91 1741 -91 
Q 1044 -91 669 257 
Q 294 606 294 1253 
Q 294 1797 489 2255 
Q 684 2713 1069 3078 
Q 1331 3328 1684 3456 
Q 2038 3584 2456 3584 
Q 2700 3584 2940 3529 
Q 3181 3475 3431 3366 
z
" transform="scale(0.015625)"/>
       <path id="DejaVuSans-Oblique-74" d="M 2706 3500 
L 2619 3053 
L 1472 3053 
L 1100 1153 
Q 1081 1047 1072 975 
Q 1063 903 1063 863 
Q 1063 663 1183 572 
Q 1303 481 1569 481 
L 2150 481 
L 2053 0 
L 1503 0 
Q 991 0 739 200 
Q 488 400 488 806 
Q 488 878 497 964 
Q 506 1050 525 1153 
L 897 3053 
L 409 3053 
L 500 3500 
L 978 3500 
L 1172 4494 
L 1747 4494 
L 1556 3500 
L 2706 3500 
z
" transform="scale(0.015625)"/>
      </defs>
      <use xlink:href="#DejaVuSans-Oblique-73" transform="translate(0 0.78125)"/>
      <use xlink:href="#DejaVuSans-Oblique-79" transform="translate(52.099609 0.78125)"/>
      <use xlink:href="#DejaVuSans-Oblique-6d" transform="translate(111.279297 0.78125)"/>
      <use xlink:href="#DejaVuSans-Oblique-63" transform="translate(208.691406 0.78125)"/>
      <use xlink:href="#DejaVuSans-Oblique-74" transform="translate(263.671875 0.78125)"/>
      <use xlink:href="#DejaVuSans-Oblique-73" transform="translate(302.880859 0.78125)"/>
     </g>
    </g>
    <g id="line2d_41">
     <path d="M 300.871875 186.311752 
L 310.871875 186.311752 
L 320.871875 186.311752 
" style="fill: none; stroke: #ee99aa; stroke-width: 3; stroke-linecap: square"/>
    </g>
    <g id="text_20">
     <!-- $symcts^{+}$ -->
     <g transform="translate(328.871875 189.811752) scale(0.1 -0.1)">
      <defs>
       <path id="DejaVuSans-2b" d="M 2944 4013 
L 2944 2272 
L 4684 2272 
L 4684 1741 
L 2944 1741 
L 2944 0 
L 2419 0 
L 2419 1741 
L 678 1741 
L 678 2272 
L 2419 2272 
L 2419 4013 
L 2944 4013 
z
" transform="scale(0.015625)"/>
      </defs>
      <use xlink:href="#DejaVuSans-Oblique-73" transform="translate(0 0.826562)"/>
      <use xlink:href="#DejaVuSans-Oblique-79" transform="translate(52.099609 0.826562)"/>
      <use xlink:href="#DejaVuSans-Oblique-6d" transform="translate(111.279297 0.826562)"/>
      <use xlink:href="#DejaVuSans-Oblique-63" transform="translate(208.691406 0.826562)"/>
      <use xlink:href="#DejaVuSans-Oblique-74" transform="translate(263.671875 0.826562)"/>
      <use xlink:href="#DejaVuSans-Oblique-73" transform="translate(302.880859 0.826562)"/>
      <use xlink:href="#DejaVuSans-2b" transform="translate(359.630365 39.107812) scale(0.7)"/>
     </g>
    </g>
    <g id="line2d_42">
     <path d="M 300.871875 201.01019 
L 310.871875 201.01019 
L 320.871875 201.01019 
" style="fill: none; stroke: #004488; stroke-width: 3; stroke-linecap: square"/>
    </g>
    <g id="text_21">
     <!-- $symcts_{Q}$ -->
     <g transform="translate(328.871875 204.51019) scale(0.1 -0.1)">
      <defs>
       <path id="DejaVuSans-Oblique-51" d="M 2309 -84 
Q 2275 -88 2237 -89 
Q 2200 -91 2125 -91 
Q 1250 -91 756 411 
Q 263 913 263 1797 
Q 263 2319 452 2844 
Q 641 3369 978 3788 
Q 1369 4269 1858 4509 
Q 2347 4750 2938 4750 
Q 3794 4750 4287 4245 
Q 4781 3741 4781 2869 
Q 4781 1928 4265 1147 
Q 3750 366 2919 44 
L 3553 -825 
L 2847 -825 
L 2309 -84 
z
M 2919 4238 
Q 2400 4238 2003 3986 
Q 1606 3734 1313 3219 
Q 1125 2891 1026 2522 
Q 928 2153 928 1778 
Q 928 1128 1239 775 
Q 1550 422 2119 422 
Q 2631 422 3032 676 
Q 3434 931 3719 1434 
Q 3909 1772 4009 2142 
Q 4109 2513 4109 2881 
Q 4109 3528 3796 3883 
Q 3484 4238 2919 4238 
z
" transform="scale(0.015625)"/>
      </defs>
      <use xlink:href="#DejaVuSans-Oblique-73" transform="translate(0 0.78125)"/>
      <use xlink:href="#DejaVuSans-Oblique-79" transform="translate(52.099609 0.78125)"/>
      <use xlink:href="#DejaVuSans-Oblique-6d" transform="translate(111.279297 0.78125)"/>
      <use xlink:href="#DejaVuSans-Oblique-63" transform="translate(208.691406 0.78125)"/>
      <use xlink:href="#DejaVuSans-Oblique-74" transform="translate(263.671875 0.78125)"/>
      <use xlink:href="#DejaVuSans-Oblique-73" transform="translate(302.880859 0.78125)"/>
      <use xlink:href="#DejaVuSans-Oblique-51" transform="translate(354.980469 -15.625) scale(0.7)"/>
     </g>
    </g>
    <g id="line2d_43">
     <path d="M 300.871875 216.91019 
L 310.871875 216.91019 
L 320.871875 216.91019 
" style="fill: none; stroke: #6699cc; stroke-width: 3; stroke-linecap: square"/>
    </g>
    <g id="text_22">
     <!-- $symcts_{Q}^{+}$ -->
     <g transform="translate(328.871875 220.41019) scale(0.1 -0.1)">
      <use xlink:href="#DejaVuSans-Oblique-73" transform="translate(0 0.826562)"/>
      <use xlink:href="#DejaVuSans-Oblique-79" transform="translate(52.099609 0.826562)"/>
      <use xlink:href="#DejaVuSans-Oblique-6d" transform="translate(111.279297 0.826562)"/>
      <use xlink:href="#DejaVuSans-Oblique-63" transform="translate(208.691406 0.826562)"/>
      <use xlink:href="#DejaVuSans-Oblique-74" transform="translate(263.671875 0.826562)"/>
      <use xlink:href="#DejaVuSans-Oblique-73" transform="translate(302.880859 0.826562)"/>
      <use xlink:href="#DejaVuSans-2b" transform="translate(359.630365 39.107813) scale(0.7)"/>
      <use xlink:href="#DejaVuSans-Oblique-51" transform="translate(354.980469 -26.517188) scale(0.7)"/>
     </g>
    </g>
    <g id="line2d_44">
     <path d="M 391.071875 170.911752 
L 401.071875 170.911752 
L 411.071875 170.911752 
" style="fill: none; stroke-dasharray: 3,4.95; stroke-dashoffset: 0; stroke: #ddaa33; stroke-width: 3"/>
    </g>
    <g id="text_23">
     <!-- $afl$++ -->
     <g transform="translate(419.071875 174.411752) scale(0.1 -0.1)">
      <defs>
       <path id="DejaVuSans-Oblique-61" d="M 3438 1997 
L 3047 0 
L 2472 0 
L 2578 531 
Q 2325 219 2001 64 
Q 1678 -91 1281 -91 
Q 834 -91 548 182 
Q 263 456 263 884 
Q 263 1497 752 1853 
Q 1241 2209 2100 2209 
L 2900 2209 
L 2931 2363 
Q 2938 2388 2941 2417 
Q 2944 2447 2944 2509 
Q 2944 2788 2717 2942 
Q 2491 3097 2081 3097 
Q 1800 3097 1504 3025 
Q 1209 2953 897 2809 
L 997 3341 
Q 1322 3463 1633 3523 
Q 1944 3584 2234 3584 
Q 2853 3584 3176 3315 
Q 3500 3047 3500 2534 
Q 3500 2431 3484 2292 
Q 3469 2153 3438 1997 
z
M 2816 1759 
L 2241 1759 
Q 1534 1759 1195 1570 
Q 856 1381 856 984 
Q 856 709 1029 553 
Q 1203 397 1509 397 
Q 1978 397 2328 733 
Q 2678 1069 2791 1631 
L 2816 1759 
z
" transform="scale(0.015625)"/>
       <path id="DejaVuSans-Oblique-66" d="M 3059 4863 
L 2969 4384 
L 2419 4384 
Q 2106 4384 1964 4261 
Q 1822 4138 1753 3809 
L 1691 3500 
L 2638 3500 
L 2553 3053 
L 1606 3053 
L 1013 0 
L 434 0 
L 1031 3053 
L 481 3053 
L 563 3500 
L 1113 3500 
L 1159 3744 
Q 1278 4363 1576 4613 
Q 1875 4863 2516 4863 
L 3059 4863 
z
" transform="scale(0.015625)"/>
       <path id="DejaVuSans-Oblique-6c" d="M 1172 4863 
L 1747 4863 
L 800 0 
L 225 0 
L 1172 4863 
z
" transform="scale(0.015625)"/>
      </defs>
      <use xlink:href="#DejaVuSans-Oblique-61" transform="translate(0 0.015625)"/>
      <use xlink:href="#DejaVuSans-Oblique-66" transform="translate(61.279297 0.015625)"/>
      <use xlink:href="#DejaVuSans-Oblique-6c" transform="translate(96.484375 0.015625)"/>
      <use xlink:href="#DejaVuSans-2b" transform="translate(124.267578 0.015625)"/>
      <use xlink:href="#DejaVuSans-2b" transform="translate(208.056641 0.015625)"/>
     </g>
    </g>
    <g id="line2d_45">
     <path d="M 391.071875 186.29144 
L 401.071875 186.29144 
L 411.071875 186.29144 
" style="fill: none; stroke-dasharray: 3,4.95; stroke-dashoffset: 0; stroke: #000000; stroke-width: 3"/>
    </g>
    <g id="text_24">
     <!-- $symcc^{+}$ -->
     <g transform="translate(419.071875 189.79144) scale(0.1 -0.1)">
      <use xlink:href="#DejaVuSans-Oblique-73" transform="translate(0 0.826562)"/>
      <use xlink:href="#DejaVuSans-Oblique-79" transform="translate(52.099609 0.826562)"/>
      <use xlink:href="#DejaVuSans-Oblique-6d" transform="translate(111.279297 0.826562)"/>
      <use xlink:href="#DejaVuSans-Oblique-63" transform="translate(208.691406 0.826562)"/>
      <use xlink:href="#DejaVuSans-Oblique-63" transform="translate(263.671875 0.826562)"/>
      <use xlink:href="#DejaVuSans-2b" transform="translate(323.30224 39.107812) scale(0.7)"/>
     </g>
    </g>
    <g id="line2d_46">
     <path d="M 391.071875 201.69144 
L 401.071875 201.69144 
L 411.071875 201.69144 
" style="fill: none; stroke-dasharray: 3,4.95; stroke-dashoffset: 0; stroke: #808080; stroke-width: 3"/>
    </g>
    <g id="text_25">
     <!-- $symsan^{+}$ -->
     <g transform="translate(419.071875 205.19144) scale(0.1 -0.1)">
      <defs>
       <path id="DejaVuSans-Oblique-6e" d="M 3566 2113 
L 3156 0 
L 2578 0 
L 2988 2091 
Q 3016 2238 3031 2350 
Q 3047 2463 3047 2528 
Q 3047 2791 2881 2937 
Q 2716 3084 2419 3084 
Q 1956 3084 1622 2776 
Q 1288 2469 1184 1941 
L 800 0 
L 225 0 
L 903 3500 
L 1478 3500 
L 1363 2950 
Q 1603 3253 1940 3418 
Q 2278 3584 2650 3584 
Q 3113 3584 3367 3334 
Q 3622 3084 3622 2631 
Q 3622 2519 3608 2391 
Q 3594 2263 3566 2113 
z
" transform="scale(0.015625)"/>
      </defs>
      <use xlink:href="#DejaVuSans-Oblique-73" transform="translate(0 0.826562)"/>
      <use xlink:href="#DejaVuSans-Oblique-79" transform="translate(52.099609 0.826562)"/>
      <use xlink:href="#DejaVuSans-Oblique-6d" transform="translate(111.279297 0.826562)"/>
      <use xlink:href="#DejaVuSans-Oblique-73" transform="translate(208.691406 0.826562)"/>
      <use xlink:href="#DejaVuSans-Oblique-61" transform="translate(260.791016 0.826562)"/>
      <use xlink:href="#DejaVuSans-Oblique-6e" transform="translate(322.070312 0.826562)"/>
      <use xlink:href="#DejaVuSans-2b" transform="translate(390.099115 39.107812) scale(0.7)"/>
     </g>
    </g>
   </g>
  </g>
 </g>
 <defs>
  <clipPath id="p016821aed8">
   <rect x="82.671875" y="11.35019" width="390.6" height="221.76"/>
  </clipPath>
 </defs>
</svg>
