<?xml version="1.0" encoding="utf-8" standalone="no"?>
<!DOCTYPE svg PUBLIC "-//W3C//DTD SVG 1.1//EN"
  "http://www.w3.org/Graphics/SVG/1.1/DTD/svg11.dtd">
<svg xmlns:xlink="http://www.w3.org/1999/xlink" width="471.564375pt" height="276.194375pt" viewBox="0 0 471.564375 276.194375" xmlns="http://www.w3.org/2000/svg" version="1.1">
 <metadata>
  <rdf:RDF xmlns:dc="http://purl.org/dc/elements/1.1/" xmlns:cc="http://creativecommons.org/ns#" xmlns:rdf="http://www.w3.org/1999/02/22-rdf-syntax-ns#">
   <cc:Work>
    <dc:type rdf:resource="http://purl.org/dc/dcmitype/StillImage"/>
    <dc:date>2023-10-07T23:50:41.787135</dc:date>
    <dc:format>image/svg+xml</dc:format>
    <dc:creator>
     <cc:Agent>
      <dc:title>Matplotlib v3.7.1, https://matplotlib.org/</dc:title>
     </cc:Agent>
    </dc:creator>
   </cc:Work>
  </rdf:RDF>
 </metadata>
 <defs>
  <style type="text/css">*{stroke-linejoin: round; stroke-linecap: butt}</style>
 </defs>
 <g id="figure_1">
  <g id="patch_1">
   <path d="M 0 276.194375 
L 471.564375 276.194375 
L 471.564375 0 
L 0 0 
z
" style="fill: #ffffff"/>
  </g>
  <g id="axes_1">
   <g id="patch_2">
    <path d="M 73.764375 228.96 
L 464.364375 228.96 
L 464.364375 7.2 
L 73.764375 7.2 
z
" style="fill: #ffffff"/>
   </g>
   <g id="matplotlib.axis_1">
    <g id="xtick_1">
     <g id="line2d_1">
      <path d="M 91.51892 228.96 
L 91.51892 7.2 
" clip-path="url(#p71c7c8e092)" style="fill: none; stroke: #b0b0b0; stroke-opacity: 0.3; stroke-width: 0.8; stroke-linecap: square"/>
     </g>
     <g id="line2d_2">
      <defs>
       <path id="m3e924caaf6" d="M 0 0 
L 0 3.5 
" style="stroke: #000000; stroke-width: 0.8"/>
      </defs>
      <g>
       <use xlink:href="#m3e924caaf6" x="91.51892" y="228.96" style="stroke: #000000; stroke-width: 0.8"/>
      </g>
     </g>
     <g id="text_1">
      <!-- 0h -->
      <g transform="translate(82.62892 246.597813) scale(0.14 -0.14)">
       <defs>
        <path id="DejaVuSans-30" d="M 2034 4250 
Q 1547 4250 1301 3770 
Q 1056 3291 1056 2328 
Q 1056 1369 1301 889 
Q 1547 409 2034 409 
Q 2525 409 2770 889 
Q 3016 1369 3016 2328 
Q 3016 3291 2770 3770 
Q 2525 4250 2034 4250 
z
M 2034 4750 
Q 2819 4750 3233 4129 
Q 3647 3509 3647 2328 
Q 3647 1150 3233 529 
Q 2819 -91 2034 -91 
Q 1250 -91 836 529 
Q 422 1150 422 2328 
Q 422 3509 836 4129 
Q 1250 4750 2034 4750 
z
" transform="scale(0.015625)"/>
        <path id="DejaVuSans-68" d="M 3513 2113 
L 3513 0 
L 2938 0 
L 2938 2094 
Q 2938 2591 2744 2837 
Q 2550 3084 2163 3084 
Q 1697 3084 1428 2787 
Q 1159 2491 1159 1978 
L 1159 0 
L 581 0 
L 581 4863 
L 1159 4863 
L 1159 2956 
Q 1366 3272 1645 3428 
Q 1925 3584 2291 3584 
Q 2894 3584 3203 3211 
Q 3513 2838 3513 2113 
z
" transform="scale(0.015625)"/>
       </defs>
       <use xlink:href="#DejaVuSans-30"/>
       <use xlink:href="#DejaVuSans-68" x="63.623047"/>
      </g>
     </g>
    </g>
    <g id="xtick_2">
     <g id="line2d_3">
      <path d="M 135.905284 228.96 
L 135.905284 7.2 
" clip-path="url(#p71c7c8e092)" style="fill: none; stroke: #b0b0b0; stroke-opacity: 0.3; stroke-width: 0.8; stroke-linecap: square"/>
     </g>
     <g id="line2d_4">
      <g>
       <use xlink:href="#m3e924caaf6" x="135.905284" y="228.96" style="stroke: #000000; stroke-width: 0.8"/>
      </g>
     </g>
     <g id="text_2">
      <!-- 12h -->
      <g transform="translate(122.561534 246.597813) scale(0.14 -0.14)">
       <defs>
        <path id="DejaVuSans-31" d="M 794 531 
L 1825 531 
L 1825 4091 
L 703 3866 
L 703 4441 
L 1819 4666 
L 2450 4666 
L 2450 531 
L 3481 531 
L 3481 0 
L 794 0 
L 794 531 
z
" transform="scale(0.015625)"/>
        <path id="DejaVuSans-32" d="M 1228 531 
L 3431 531 
L 3431 0 
L 469 0 
L 469 531 
Q 828 903 1448 1529 
Q 2069 2156 2228 2338 
Q 2531 2678 2651 2914 
Q 2772 3150 2772 3378 
Q 2772 3750 2511 3984 
Q 2250 4219 1831 4219 
Q 1534 4219 1204 4116 
Q 875 4013 500 3803 
L 500 4441 
Q 881 4594 1212 4672 
Q 1544 4750 1819 4750 
Q 2544 4750 2975 4387 
Q 3406 4025 3406 3419 
Q 3406 3131 3298 2873 
Q 3191 2616 2906 2266 
Q 2828 2175 2409 1742 
Q 1991 1309 1228 531 
z
" transform="scale(0.015625)"/>
       </defs>
       <use xlink:href="#DejaVuSans-31"/>
       <use xlink:href="#DejaVuSans-32" x="63.623047"/>
       <use xlink:href="#DejaVuSans-68" x="127.246094"/>
      </g>
     </g>
    </g>
    <g id="xtick_3">
     <g id="line2d_5">
      <path d="M 180.291648 228.96 
L 180.291648 7.2 
" clip-path="url(#p71c7c8e092)" style="fill: none; stroke: #b0b0b0; stroke-opacity: 0.3; stroke-width: 0.8; stroke-linecap: square"/>
     </g>
     <g id="line2d_6">
      <g>
       <use xlink:href="#m3e924caaf6" x="180.291648" y="228.96" style="stroke: #000000; stroke-width: 0.8"/>
      </g>
     </g>
     <g id="text_3">
      <!-- 24h -->
      <g transform="translate(166.947898 246.597813) scale(0.14 -0.14)">
       <defs>
        <path id="DejaVuSans-34" d="M 2419 4116 
L 825 1625 
L 2419 1625 
L 2419 4116 
z
M 2253 4666 
L 3047 4666 
L 3047 1625 
L 3713 1625 
L 3713 1100 
L 3047 1100 
L 3047 0 
L 2419 0 
L 2419 1100 
L 313 1100 
L 313 1709 
L 2253 4666 
z
" transform="scale(0.015625)"/>
       </defs>
       <use xlink:href="#DejaVuSans-32"/>
       <use xlink:href="#DejaVuSans-34" x="63.623047"/>
       <use xlink:href="#DejaVuSans-68" x="127.246094"/>
      </g>
     </g>
    </g>
    <g id="xtick_4">
     <g id="line2d_7">
      <path d="M 224.678011 228.96 
L 224.678011 7.2 
" clip-path="url(#p71c7c8e092)" style="fill: none; stroke: #b0b0b0; stroke-opacity: 0.3; stroke-width: 0.8; stroke-linecap: square"/>
     </g>
     <g id="line2d_8">
      <g>
       <use xlink:href="#m3e924caaf6" x="224.678011" y="228.96" style="stroke: #000000; stroke-width: 0.8"/>
      </g>
     </g>
     <g id="text_4">
      <!-- 36h -->
      <g transform="translate(211.334261 246.597813) scale(0.14 -0.14)">
       <defs>
        <path id="DejaVuSans-33" d="M 2597 2516 
Q 3050 2419 3304 2112 
Q 3559 1806 3559 1356 
Q 3559 666 3084 287 
Q 2609 -91 1734 -91 
Q 1441 -91 1130 -33 
Q 819 25 488 141 
L 488 750 
Q 750 597 1062 519 
Q 1375 441 1716 441 
Q 2309 441 2620 675 
Q 2931 909 2931 1356 
Q 2931 1769 2642 2001 
Q 2353 2234 1838 2234 
L 1294 2234 
L 1294 2753 
L 1863 2753 
Q 2328 2753 2575 2939 
Q 2822 3125 2822 3475 
Q 2822 3834 2567 4026 
Q 2313 4219 1838 4219 
Q 1578 4219 1281 4162 
Q 984 4106 628 3988 
L 628 4550 
Q 988 4650 1302 4700 
Q 1616 4750 1894 4750 
Q 2613 4750 3031 4423 
Q 3450 4097 3450 3541 
Q 3450 3153 3228 2886 
Q 3006 2619 2597 2516 
z
" transform="scale(0.015625)"/>
        <path id="DejaVuSans-36" d="M 2113 2584 
Q 1688 2584 1439 2293 
Q 1191 2003 1191 1497 
Q 1191 994 1439 701 
Q 1688 409 2113 409 
Q 2538 409 2786 701 
Q 3034 994 3034 1497 
Q 3034 2003 2786 2293 
Q 2538 2584 2113 2584 
z
M 3366 4563 
L 3366 3988 
Q 3128 4100 2886 4159 
Q 2644 4219 2406 4219 
Q 1781 4219 1451 3797 
Q 1122 3375 1075 2522 
Q 1259 2794 1537 2939 
Q 1816 3084 2150 3084 
Q 2853 3084 3261 2657 
Q 3669 2231 3669 1497 
Q 3669 778 3244 343 
Q 2819 -91 2113 -91 
Q 1303 -91 875 529 
Q 447 1150 447 2328 
Q 447 3434 972 4092 
Q 1497 4750 2381 4750 
Q 2619 4750 2861 4703 
Q 3103 4656 3366 4563 
z
" transform="scale(0.015625)"/>
       </defs>
       <use xlink:href="#DejaVuSans-33"/>
       <use xlink:href="#DejaVuSans-36" x="63.623047"/>
       <use xlink:href="#DejaVuSans-68" x="127.246094"/>
      </g>
     </g>
    </g>
    <g id="xtick_5">
     <g id="line2d_9">
      <path d="M 269.064375 228.96 
L 269.064375 7.2 
" clip-path="url(#p71c7c8e092)" style="fill: none; stroke: #b0b0b0; stroke-opacity: 0.3; stroke-width: 0.8; stroke-linecap: square"/>
     </g>
     <g id="line2d_10">
      <g>
       <use xlink:href="#m3e924caaf6" x="269.064375" y="228.96" style="stroke: #000000; stroke-width: 0.8"/>
      </g>
     </g>
     <g id="text_5">
      <!-- 48h -->
      <g transform="translate(255.720625 246.597813) scale(0.14 -0.14)">
       <defs>
        <path id="DejaVuSans-38" d="M 2034 2216 
Q 1584 2216 1326 1975 
Q 1069 1734 1069 1313 
Q 1069 891 1326 650 
Q 1584 409 2034 409 
Q 2484 409 2743 651 
Q 3003 894 3003 1313 
Q 3003 1734 2745 1975 
Q 2488 2216 2034 2216 
z
M 1403 2484 
Q 997 2584 770 2862 
Q 544 3141 544 3541 
Q 544 4100 942 4425 
Q 1341 4750 2034 4750 
Q 2731 4750 3128 4425 
Q 3525 4100 3525 3541 
Q 3525 3141 3298 2862 
Q 3072 2584 2669 2484 
Q 3125 2378 3379 2068 
Q 3634 1759 3634 1313 
Q 3634 634 3220 271 
Q 2806 -91 2034 -91 
Q 1263 -91 848 271 
Q 434 634 434 1313 
Q 434 1759 690 2068 
Q 947 2378 1403 2484 
z
M 1172 3481 
Q 1172 3119 1398 2916 
Q 1625 2713 2034 2713 
Q 2441 2713 2670 2916 
Q 2900 3119 2900 3481 
Q 2900 3844 2670 4047 
Q 2441 4250 2034 4250 
Q 1625 4250 1398 4047 
Q 1172 3844 1172 3481 
z
" transform="scale(0.015625)"/>
       </defs>
       <use xlink:href="#DejaVuSans-34"/>
       <use xlink:href="#DejaVuSans-38" x="63.623047"/>
       <use xlink:href="#DejaVuSans-68" x="127.246094"/>
      </g>
     </g>
    </g>
    <g id="xtick_6">
     <g id="line2d_11">
      <path d="M 313.450739 228.96 
L 313.450739 7.2 
" clip-path="url(#p71c7c8e092)" style="fill: none; stroke: #b0b0b0; stroke-opacity: 0.3; stroke-width: 0.8; stroke-linecap: square"/>
     </g>
     <g id="line2d_12">
      <g>
       <use xlink:href="#m3e924caaf6" x="313.450739" y="228.96" style="stroke: #000000; stroke-width: 0.8"/>
      </g>
     </g>
     <g id="text_6">
      <!-- 60h -->
      <g transform="translate(300.106989 246.597813) scale(0.14 -0.14)">
       <use xlink:href="#DejaVuSans-36"/>
       <use xlink:href="#DejaVuSans-30" x="63.623047"/>
       <use xlink:href="#DejaVuSans-68" x="127.246094"/>
      </g>
     </g>
    </g>
    <g id="xtick_7">
     <g id="line2d_13">
      <path d="M 357.837102 228.96 
L 357.837102 7.2 
" clip-path="url(#p71c7c8e092)" style="fill: none; stroke: #b0b0b0; stroke-opacity: 0.3; stroke-width: 0.8; stroke-linecap: square"/>
     </g>
     <g id="line2d_14">
      <g>
       <use xlink:href="#m3e924caaf6" x="357.837102" y="228.96" style="stroke: #000000; stroke-width: 0.8"/>
      </g>
     </g>
     <g id="text_7">
      <!-- 72h -->
      <g transform="translate(344.493352 246.597813) scale(0.14 -0.14)">
       <defs>
        <path id="DejaVuSans-37" d="M 525 4666 
L 3525 4666 
L 3525 4397 
L 1831 0 
L 1172 0 
L 2766 4134 
L 525 4134 
L 525 4666 
z
" transform="scale(0.015625)"/>
       </defs>
       <use xlink:href="#DejaVuSans-37"/>
       <use xlink:href="#DejaVuSans-32" x="63.623047"/>
       <use xlink:href="#DejaVuSans-68" x="127.246094"/>
      </g>
     </g>
    </g>
    <g id="xtick_8">
     <g id="line2d_15">
      <path d="M 402.223466 228.96 
L 402.223466 7.2 
" clip-path="url(#p71c7c8e092)" style="fill: none; stroke: #b0b0b0; stroke-opacity: 0.3; stroke-width: 0.8; stroke-linecap: square"/>
     </g>
     <g id="line2d_16">
      <g>
       <use xlink:href="#m3e924caaf6" x="402.223466" y="228.96" style="stroke: #000000; stroke-width: 0.8"/>
      </g>
     </g>
     <g id="text_8">
      <!-- 84h -->
      <g transform="translate(388.879716 246.597813) scale(0.14 -0.14)">
       <use xlink:href="#DejaVuSans-38"/>
       <use xlink:href="#DejaVuSans-34" x="63.623047"/>
       <use xlink:href="#DejaVuSans-68" x="127.246094"/>
      </g>
     </g>
    </g>
    <g id="xtick_9">
     <g id="line2d_17">
      <path d="M 446.60983 228.96 
L 446.60983 7.2 
" clip-path="url(#p71c7c8e092)" style="fill: none; stroke: #b0b0b0; stroke-opacity: 0.3; stroke-width: 0.8; stroke-linecap: square"/>
     </g>
     <g id="line2d_18">
      <g>
       <use xlink:href="#m3e924caaf6" x="446.60983" y="228.96" style="stroke: #000000; stroke-width: 0.8"/>
      </g>
     </g>
     <g id="text_9">
      <!-- 96h -->
      <g transform="translate(433.26608 246.597813) scale(0.14 -0.14)">
       <defs>
        <path id="DejaVuSans-39" d="M 703 97 
L 703 672 
Q 941 559 1184 500 
Q 1428 441 1663 441 
Q 2288 441 2617 861 
Q 2947 1281 2994 2138 
Q 2813 1869 2534 1725 
Q 2256 1581 1919 1581 
Q 1219 1581 811 2004 
Q 403 2428 403 3163 
Q 403 3881 828 4315 
Q 1253 4750 1959 4750 
Q 2769 4750 3195 4129 
Q 3622 3509 3622 2328 
Q 3622 1225 3098 567 
Q 2575 -91 1691 -91 
Q 1453 -91 1209 -44 
Q 966 3 703 97 
z
M 1959 2075 
Q 2384 2075 2632 2365 
Q 2881 2656 2881 3163 
Q 2881 3666 2632 3958 
Q 2384 4250 1959 4250 
Q 1534 4250 1286 3958 
Q 1038 3666 1038 3163 
Q 1038 2656 1286 2365 
Q 1534 2075 1959 2075 
z
" transform="scale(0.015625)"/>
       </defs>
       <use xlink:href="#DejaVuSans-39"/>
       <use xlink:href="#DejaVuSans-36" x="63.623047"/>
       <use xlink:href="#DejaVuSans-68" x="127.246094"/>
      </g>
     </g>
    </g>
    <g id="text_10">
     <!-- Time -->
     <g transform="translate(249.490625 265.666875) scale(0.16 -0.16)">
      <defs>
       <path id="DejaVuSans-54" d="M -19 4666 
L 3928 4666 
L 3928 4134 
L 2272 4134 
L 2272 0 
L 1638 0 
L 1638 4134 
L -19 4134 
L -19 4666 
z
" transform="scale(0.015625)"/>
       <path id="DejaVuSans-69" d="M 603 3500 
L 1178 3500 
L 1178 0 
L 603 0 
L 603 3500 
z
M 603 4863 
L 1178 4863 
L 1178 4134 
L 603 4134 
L 603 4863 
z
" transform="scale(0.015625)"/>
       <path id="DejaVuSans-6d" d="M 3328 2828 
Q 3544 3216 3844 3400 
Q 4144 3584 4550 3584 
Q 5097 3584 5394 3201 
Q 5691 2819 5691 2113 
L 5691 0 
L 5113 0 
L 5113 2094 
Q 5113 2597 4934 2840 
Q 4756 3084 4391 3084 
Q 3944 3084 3684 2787 
Q 3425 2491 3425 1978 
L 3425 0 
L 2847 0 
L 2847 2094 
Q 2847 2600 2669 2842 
Q 2491 3084 2119 3084 
Q 1678 3084 1418 2786 
Q 1159 2488 1159 1978 
L 1159 0 
L 581 0 
L 581 3500 
L 1159 3500 
L 1159 2956 
Q 1356 3278 1631 3431 
Q 1906 3584 2284 3584 
Q 2666 3584 2933 3390 
Q 3200 3197 3328 2828 
z
" transform="scale(0.015625)"/>
       <path id="DejaVuSans-65" d="M 3597 1894 
L 3597 1613 
L 953 1613 
Q 991 1019 1311 708 
Q 1631 397 2203 397 
Q 2534 397 2845 478 
Q 3156 559 3463 722 
L 3463 178 
Q 3153 47 2828 -22 
Q 2503 -91 2169 -91 
Q 1331 -91 842 396 
Q 353 884 353 1716 
Q 353 2575 817 3079 
Q 1281 3584 2069 3584 
Q 2775 3584 3186 3129 
Q 3597 2675 3597 1894 
z
M 3022 2063 
Q 3016 2534 2758 2815 
Q 2500 3097 2075 3097 
Q 1594 3097 1305 2825 
Q 1016 2553 972 2059 
L 3022 2063 
z
" transform="scale(0.015625)"/>
      </defs>
      <use xlink:href="#DejaVuSans-54"/>
      <use xlink:href="#DejaVuSans-69" x="57.958984"/>
      <use xlink:href="#DejaVuSans-6d" x="85.742188"/>
      <use xlink:href="#DejaVuSans-65" x="183.154297"/>
     </g>
    </g>
   </g>
   <g id="matplotlib.axis_2">
    <g id="ytick_1">
     <g id="line2d_19">
      <path d="M 73.764375 217.093671 
L 464.364375 217.093671 
" clip-path="url(#p71c7c8e092)" style="fill: none; stroke: #b0b0b0; stroke-opacity: 0.3; stroke-width: 0.8; stroke-linecap: square"/>
     </g>
     <g id="line2d_20">
      <defs>
       <path id="m07f58c6f73" d="M 0 0 
L -3.5 0 
" style="stroke: #000000; stroke-width: 0.8"/>
      </defs>
      <g>
       <use xlink:href="#m07f58c6f73" x="73.764375" y="217.093671" style="stroke: #000000; stroke-width: 0.8"/>
      </g>
     </g>
     <g id="text_11">
      <!-- 8,000 -->
      <g transform="translate(26.685 222.412577) scale(0.14 -0.14)">
       <defs>
        <path id="DejaVuSans-2c" d="M 750 794 
L 1409 794 
L 1409 256 
L 897 -744 
L 494 -744 
L 750 256 
L 750 794 
z
" transform="scale(0.015625)"/>
       </defs>
       <use xlink:href="#DejaVuSans-38"/>
       <use xlink:href="#DejaVuSans-2c" x="63.623047"/>
       <use xlink:href="#DejaVuSans-30" x="95.410156"/>
       <use xlink:href="#DejaVuSans-30" x="159.033203"/>
       <use xlink:href="#DejaVuSans-30" x="222.65625"/>
      </g>
     </g>
    </g>
    <g id="ytick_2">
     <g id="line2d_21">
      <path d="M 73.764375 191.574684 
L 464.364375 191.574684 
" clip-path="url(#p71c7c8e092)" style="fill: none; stroke: #b0b0b0; stroke-opacity: 0.3; stroke-width: 0.8; stroke-linecap: square"/>
     </g>
     <g id="line2d_22">
      <g>
       <use xlink:href="#m07f58c6f73" x="73.764375" y="191.574684" style="stroke: #000000; stroke-width: 0.8"/>
      </g>
     </g>
     <g id="text_12">
      <!-- 8,200 -->
      <g transform="translate(26.685 196.89359) scale(0.14 -0.14)">
       <use xlink:href="#DejaVuSans-38"/>
       <use xlink:href="#DejaVuSans-2c" x="63.623047"/>
       <use xlink:href="#DejaVuSans-32" x="95.410156"/>
       <use xlink:href="#DejaVuSans-30" x="159.033203"/>
       <use xlink:href="#DejaVuSans-30" x="222.65625"/>
      </g>
     </g>
    </g>
    <g id="ytick_3">
     <g id="line2d_23">
      <path d="M 73.764375 166.055696 
L 464.364375 166.055696 
" clip-path="url(#p71c7c8e092)" style="fill: none; stroke: #b0b0b0; stroke-opacity: 0.3; stroke-width: 0.8; stroke-linecap: square"/>
     </g>
     <g id="line2d_24">
      <g>
       <use xlink:href="#m07f58c6f73" x="73.764375" y="166.055696" style="stroke: #000000; stroke-width: 0.8"/>
      </g>
     </g>
     <g id="text_13">
      <!-- 8,400 -->
      <g transform="translate(26.685 171.374602) scale(0.14 -0.14)">
       <use xlink:href="#DejaVuSans-38"/>
       <use xlink:href="#DejaVuSans-2c" x="63.623047"/>
       <use xlink:href="#DejaVuSans-34" x="95.410156"/>
       <use xlink:href="#DejaVuSans-30" x="159.033203"/>
       <use xlink:href="#DejaVuSans-30" x="222.65625"/>
      </g>
     </g>
    </g>
    <g id="ytick_4">
     <g id="line2d_25">
      <path d="M 73.764375 140.536709 
L 464.364375 140.536709 
" clip-path="url(#p71c7c8e092)" style="fill: none; stroke: #b0b0b0; stroke-opacity: 0.3; stroke-width: 0.8; stroke-linecap: square"/>
     </g>
     <g id="line2d_26">
      <g>
       <use xlink:href="#m07f58c6f73" x="73.764375" y="140.536709" style="stroke: #000000; stroke-width: 0.8"/>
      </g>
     </g>
     <g id="text_14">
      <!-- 8,600 -->
      <g transform="translate(26.685 145.855615) scale(0.14 -0.14)">
       <use xlink:href="#DejaVuSans-38"/>
       <use xlink:href="#DejaVuSans-2c" x="63.623047"/>
       <use xlink:href="#DejaVuSans-36" x="95.410156"/>
       <use xlink:href="#DejaVuSans-30" x="159.033203"/>
       <use xlink:href="#DejaVuSans-30" x="222.65625"/>
      </g>
     </g>
    </g>
    <g id="ytick_5">
     <g id="line2d_27">
      <path d="M 73.764375 115.017722 
L 464.364375 115.017722 
" clip-path="url(#p71c7c8e092)" style="fill: none; stroke: #b0b0b0; stroke-opacity: 0.3; stroke-width: 0.8; stroke-linecap: square"/>
     </g>
     <g id="line2d_28">
      <g>
       <use xlink:href="#m07f58c6f73" x="73.764375" y="115.017722" style="stroke: #000000; stroke-width: 0.8"/>
      </g>
     </g>
     <g id="text_15">
      <!-- 8,800 -->
      <g transform="translate(26.685 120.336628) scale(0.14 -0.14)">
       <use xlink:href="#DejaVuSans-38"/>
       <use xlink:href="#DejaVuSans-2c" x="63.623047"/>
       <use xlink:href="#DejaVuSans-38" x="95.410156"/>
       <use xlink:href="#DejaVuSans-30" x="159.033203"/>
       <use xlink:href="#DejaVuSans-30" x="222.65625"/>
      </g>
     </g>
    </g>
    <g id="ytick_6">
     <g id="line2d_29">
      <path d="M 73.764375 89.498734 
L 464.364375 89.498734 
" clip-path="url(#p71c7c8e092)" style="fill: none; stroke: #b0b0b0; stroke-opacity: 0.3; stroke-width: 0.8; stroke-linecap: square"/>
     </g>
     <g id="line2d_30">
      <g>
       <use xlink:href="#m07f58c6f73" x="73.764375" y="89.498734" style="stroke: #000000; stroke-width: 0.8"/>
      </g>
     </g>
     <g id="text_16">
      <!-- 9,000 -->
      <g transform="translate(26.685 94.81764) scale(0.14 -0.14)">
       <use xlink:href="#DejaVuSans-39"/>
       <use xlink:href="#DejaVuSans-2c" x="63.623047"/>
       <use xlink:href="#DejaVuSans-30" x="95.410156"/>
       <use xlink:href="#DejaVuSans-30" x="159.033203"/>
       <use xlink:href="#DejaVuSans-30" x="222.65625"/>
      </g>
     </g>
    </g>
    <g id="ytick_7">
     <g id="line2d_31">
      <path d="M 73.764375 63.979747 
L 464.364375 63.979747 
" clip-path="url(#p71c7c8e092)" style="fill: none; stroke: #b0b0b0; stroke-opacity: 0.3; stroke-width: 0.8; stroke-linecap: square"/>
     </g>
     <g id="line2d_32">
      <g>
       <use xlink:href="#m07f58c6f73" x="73.764375" y="63.979747" style="stroke: #000000; stroke-width: 0.8"/>
      </g>
     </g>
     <g id="text_17">
      <!-- 9,200 -->
      <g transform="translate(26.685 69.298653) scale(0.14 -0.14)">
       <use xlink:href="#DejaVuSans-39"/>
       <use xlink:href="#DejaVuSans-2c" x="63.623047"/>
       <use xlink:href="#DejaVuSans-32" x="95.410156"/>
       <use xlink:href="#DejaVuSans-30" x="159.033203"/>
       <use xlink:href="#DejaVuSans-30" x="222.65625"/>
      </g>
     </g>
    </g>
    <g id="ytick_8">
     <g id="line2d_33">
      <path d="M 73.764375 38.460759 
L 464.364375 38.460759 
" clip-path="url(#p71c7c8e092)" style="fill: none; stroke: #b0b0b0; stroke-opacity: 0.3; stroke-width: 0.8; stroke-linecap: square"/>
     </g>
     <g id="line2d_34">
      <g>
       <use xlink:href="#m07f58c6f73" x="73.764375" y="38.460759" style="stroke: #000000; stroke-width: 0.8"/>
      </g>
     </g>
     <g id="text_18">
      <!-- 9,400 -->
      <g transform="translate(26.685 43.779666) scale(0.14 -0.14)">
       <use xlink:href="#DejaVuSans-39"/>
       <use xlink:href="#DejaVuSans-2c" x="63.623047"/>
       <use xlink:href="#DejaVuSans-34" x="95.410156"/>
       <use xlink:href="#DejaVuSans-30" x="159.033203"/>
       <use xlink:href="#DejaVuSans-30" x="222.65625"/>
      </g>
     </g>
    </g>
    <g id="ytick_9">
     <g id="line2d_35">
      <path d="M 73.764375 12.941772 
L 464.364375 12.941772 
" clip-path="url(#p71c7c8e092)" style="fill: none; stroke: #b0b0b0; stroke-opacity: 0.3; stroke-width: 0.8; stroke-linecap: square"/>
     </g>
     <g id="line2d_36">
      <g>
       <use xlink:href="#m07f58c6f73" x="73.764375" y="12.941772" style="stroke: #000000; stroke-width: 0.8"/>
      </g>
     </g>
     <g id="text_19">
      <!-- 9,600 -->
      <g transform="translate(26.685 18.260678) scale(0.14 -0.14)">
       <use xlink:href="#DejaVuSans-39"/>
       <use xlink:href="#DejaVuSans-2c" x="63.623047"/>
       <use xlink:href="#DejaVuSans-36" x="95.410156"/>
       <use xlink:href="#DejaVuSans-30" x="159.033203"/>
       <use xlink:href="#DejaVuSans-30" x="222.65625"/>
      </g>
     </g>
    </g>
    <g id="text_20">
     <!-- Edges -->
     <g transform="translate(19.3575 142.3825) rotate(-90) scale(0.16 -0.16)">
      <defs>
       <path id="DejaVuSans-45" d="M 628 4666 
L 3578 4666 
L 3578 4134 
L 1259 4134 
L 1259 2753 
L 3481 2753 
L 3481 2222 
L 1259 2222 
L 1259 531 
L 3634 531 
L 3634 0 
L 628 0 
L 628 4666 
z
" transform="scale(0.015625)"/>
       <path id="DejaVuSans-64" d="M 2906 2969 
L 2906 4863 
L 3481 4863 
L 3481 0 
L 2906 0 
L 2906 525 
Q 2725 213 2448 61 
Q 2172 -91 1784 -91 
Q 1150 -91 751 415 
Q 353 922 353 1747 
Q 353 2572 751 3078 
Q 1150 3584 1784 3584 
Q 2172 3584 2448 3432 
Q 2725 3281 2906 2969 
z
M 947 1747 
Q 947 1113 1208 752 
Q 1469 391 1925 391 
Q 2381 391 2643 752 
Q 2906 1113 2906 1747 
Q 2906 2381 2643 2742 
Q 2381 3103 1925 3103 
Q 1469 3103 1208 2742 
Q 947 2381 947 1747 
z
" transform="scale(0.015625)"/>
       <path id="DejaVuSans-67" d="M 2906 1791 
Q 2906 2416 2648 2759 
Q 2391 3103 1925 3103 
Q 1463 3103 1205 2759 
Q 947 2416 947 1791 
Q 947 1169 1205 825 
Q 1463 481 1925 481 
Q 2391 481 2648 825 
Q 2906 1169 2906 1791 
z
M 3481 434 
Q 3481 -459 3084 -895 
Q 2688 -1331 1869 -1331 
Q 1566 -1331 1297 -1286 
Q 1028 -1241 775 -1147 
L 775 -588 
Q 1028 -725 1275 -790 
Q 1522 -856 1778 -856 
Q 2344 -856 2625 -561 
Q 2906 -266 2906 331 
L 2906 616 
Q 2728 306 2450 153 
Q 2172 0 1784 0 
Q 1141 0 747 490 
Q 353 981 353 1791 
Q 353 2603 747 3093 
Q 1141 3584 1784 3584 
Q 2172 3584 2450 3431 
Q 2728 3278 2906 2969 
L 2906 3500 
L 3481 3500 
L 3481 434 
z
" transform="scale(0.015625)"/>
       <path id="DejaVuSans-73" d="M 2834 3397 
L 2834 2853 
Q 2591 2978 2328 3040 
Q 2066 3103 1784 3103 
Q 1356 3103 1142 2972 
Q 928 2841 928 2578 
Q 928 2378 1081 2264 
Q 1234 2150 1697 2047 
L 1894 2003 
Q 2506 1872 2764 1633 
Q 3022 1394 3022 966 
Q 3022 478 2636 193 
Q 2250 -91 1575 -91 
Q 1294 -91 989 -36 
Q 684 19 347 128 
L 347 722 
Q 666 556 975 473 
Q 1284 391 1588 391 
Q 1994 391 2212 530 
Q 2431 669 2431 922 
Q 2431 1156 2273 1281 
Q 2116 1406 1581 1522 
L 1381 1569 
Q 847 1681 609 1914 
Q 372 2147 372 2553 
Q 372 3047 722 3315 
Q 1072 3584 1716 3584 
Q 2034 3584 2315 3537 
Q 2597 3491 2834 3397 
z
" transform="scale(0.015625)"/>
      </defs>
      <use xlink:href="#DejaVuSans-45"/>
      <use xlink:href="#DejaVuSans-64" x="63.183594"/>
      <use xlink:href="#DejaVuSans-67" x="126.660156"/>
      <use xlink:href="#DejaVuSans-65" x="190.136719"/>
      <use xlink:href="#DejaVuSans-73" x="251.660156"/>
     </g>
    </g>
   </g>
   <g id="line2d_37">
    <path d="M 91.51892 218.88 
L 92.443636 123.438987 
L 93.368352 83.501772 
L 94.293068 80.822278 
L 95.217784 76.611646 
L 96.1425 67.93519 
L 97.067216 65.128101 
L 97.991932 56.83443 
L 98.916648 51.730633 
L 99.841364 47.647595 
L 100.76608 45.350886 
L 101.690795 44.074937 
L 102.615511 43.436962 
L 103.540227 41.395443 
L 104.464943 40.502278 
L 105.389659 40.502278 
L 106.314375 36.92962 
L 107.239091 36.67443 
L 108.163807 36.291646 
L 109.088523 34.377722 
L 110.937955 34.377722 
L 111.86267 34.250127 
L 116.48625 34.250127 
L 118.335682 33.994937 
L 122.034545 33.994937 
L 122.959261 33.739747 
L 125.733409 33.739747 
L 126.658125 33.612152 
L 127.582841 33.612152 
L 128.507557 33.484557 
L 129.432273 33.101772 
L 140.528864 33.101772 
L 141.45358 32.974177 
L 144.227727 32.974177 
L 145.152443 32.718987 
L 147.001875 32.718987 
L 147.926591 32.336203 
L 151.625455 32.336203 
L 152.55017 32.208608 
L 153.474886 32.208608 
L 154.399602 31.825823 
L 158.098466 31.825823 
L 159.023182 31.698228 
L 162.722045 31.698228 
L 163.646761 31.443038 
L 173.818636 31.443038 
L 174.743352 31.315443 
L 183.990511 31.315443 
L 184.915227 31.187848 
L 193.23767 31.187848 
L 194.162386 31.060253 
L 213.58142 31.060253 
L 215.430852 30.805063 
L 241.322898 30.805063 
L 242.247614 30.677468 
L 270.913807 30.677468 
L 271.838523 30.549873 
L 277.386818 30.549873 
L 278.311534 30.167089 
L 284.784545 30.167089 
L 285.709261 29.911899 
L 293.106989 29.911899 
L 294.031705 29.784304 
L 299.58 29.784304 
L 300.504716 28.763544 
L 311.601307 28.763544 
L 312.526023 28.508354 
L 314.375455 28.508354 
L 315.30017 28.253165 
L 316.224886 28.253165 
L 317.149602 27.742785 
L 339.342784 27.742785 
L 340.2675 25.318481 
L 354.138239 25.318481 
L 355.062955 25.190886 
L 369.858409 25.190886 
L 370.783125 23.532152 
L 384.653864 23.532152 
L 385.57858 23.404557 
L 420.717784 23.404557 
L 421.6425 23.149367 
L 446.60983 23.149367 
L 446.60983 23.149367 
" clip-path="url(#p71c7c8e092)" style="fill: none; stroke-dasharray: 3,4.95; stroke-dashoffset: 0; stroke: #ddaa33; stroke-width: 3"/>
   </g>
   <g id="line2d_38">
    <path d="M 91.51892 218.88 
L 92.443636 130.456709 
L 93.368352 105.320506 
L 94.293068 99.706329 
L 95.217784 94.985316 
L 96.1425 94.857722 
L 97.067216 88.222785 
L 97.991932 85.288101 
L 98.916648 82.863797 
L 99.841364 82.736203 
L 100.76608 82.353418 
L 101.690795 82.353418 
L 102.615511 82.225823 
L 103.540227 78.908354 
L 105.389659 78.397975 
L 106.314375 77.24962 
L 107.239091 77.24962 
L 109.088523 76.228861 
L 110.013239 76.101266 
L 110.937955 76.101266 
L 111.86267 75.973671 
L 112.787386 75.080506 
L 113.712102 74.952911 
L 114.636818 74.442532 
L 116.48625 72.401013 
L 118.335682 72.401013 
L 119.260398 72.273418 
L 121.10983 71.507848 
L 122.034545 71.380253 
L 123.883977 71.380253 
L 124.808693 71.125063 
L 125.733409 71.125063 
L 126.658125 70.997468 
L 127.582841 63.979747 
L 128.507557 62.321013 
L 129.432273 61.810633 
L 130.356989 61.555443 
L 145.152443 61.555443 
L 146.077159 61.300253 
L 149.776023 61.300253 
L 150.700739 60.917468 
L 157.17375 60.917468 
L 158.098466 60.662278 
L 159.947898 60.662278 
L 160.872614 60.279494 
L 161.79733 59.769114 
L 162.722045 57.217215 
L 163.646761 57.08962 
L 177.5175 57.08962 
L 178.442216 56.83443 
L 203.409545 56.83443 
L 204.334261 56.706835 
L 205.258977 56.706835 
L 206.183693 56.579241 
L 221.903864 56.579241 
L 222.82858 55.686076 
L 225.602727 55.686076 
L 226.527443 55.558481 
L 227.452159 55.558481 
L 228.376875 55.430886 
L 229.301591 55.430886 
L 230.226307 55.303291 
L 232.075739 54.282532 
L 233.000455 54.154937 
L 233.92517 54.154937 
L 234.849886 54.027342 
L 239.473466 54.027342 
L 240.398182 53.516962 
L 241.322898 52.623797 
L 242.247614 52.623797 
L 244.097045 52.368608 
L 246.871193 52.368608 
L 247.795909 51.858228 
L 248.720625 51.475443 
L 255.193636 51.475443 
L 256.118352 51.347848 
L 258.8925 51.347848 
L 259.817216 51.092658 
L 260.741932 51.092658 
L 261.666648 50.965063 
L 262.591364 50.965063 
L 263.51608 50.709873 
L 264.440795 49.944304 
L 268.139659 49.944304 
L 269.064375 49.816709 
L 273.687955 49.816709 
L 274.61267 49.689114 
L 279.23625 49.689114 
L 280.160966 49.433924 
L 282.935114 49.433924 
L 283.85983 47.647595 
L 300.504716 47.647595 
L 301.429432 47.52 
L 302.354148 47.52 
L 303.278864 47.392405 
L 304.20358 47.137215 
L 305.128295 47.137215 
L 306.053011 46.75443 
L 320.848466 46.75443 
L 321.773182 46.626835 
L 322.697898 45.988861 
L 323.622614 45.733671 
L 324.54733 45.095696 
L 327.321477 45.095696 
L 328.246193 42.926582 
L 338.418068 42.926582 
L 339.342784 42.798987 
L 356.912386 42.798987 
L 357.837102 42.543797 
L 367.084261 42.543797 
L 368.008977 42.288608 
L 368.933693 42.161013 
L 374.481989 42.161013 
L 375.406705 41.523038 
L 380.955 41.523038 
L 381.879716 41.267848 
L 397.599886 41.267848 
L 398.524602 37.95038 
L 424.416648 37.95038 
L 425.341364 37.822785 
L 446.60983 37.822785 
L 446.60983 37.822785 
" clip-path="url(#p71c7c8e092)" style="fill: none; stroke-dasharray: 3,4.95; stroke-dashoffset: 0; stroke: #000000; stroke-width: 3"/>
   </g>
   <g id="line2d_39">
    <path d="M 91.51892 218.88 
L 92.443636 207.524051 
L 93.368352 199.23038 
L 94.293068 187.746835 
L 95.217784 186.470886 
L 96.1425 185.067342 
L 97.067216 180.091139 
L 97.991932 174.859747 
L 98.916648 174.349367 
L 99.841364 171.031899 
L 100.76608 167.267848 
L 101.690795 164.588354 
L 102.615511 163.69519 
L 103.540227 161.079494 
L 104.464943 157.187848 
L 105.389659 156.996456 
L 106.314375 156.868861 
L 107.239091 156.677468 
L 108.163807 156.996456 
L 109.088523 154.316962 
L 110.013239 153.934177 
L 110.937955 151.637468 
L 111.86267 149.340759 
L 112.787386 148.511392 
L 113.712102 148.192405 
L 114.636818 147.682025 
L 115.561534 146.023291 
L 116.48625 144.364557 
L 117.410966 144.364557 
" clip-path="url(#p71c7c8e092)" style="fill: none; stroke: #994455; stroke-width: 3; stroke-linecap: square"/>
   </g>
   <g id="line2d_40">
    <path d="M 91.51892 218.88 
L 92.443636 140.791899 
L 93.368352 118.973165 
L 94.293068 92.943797 
L 95.217784 83.118987 
L 96.1425 78.780759 
L 97.067216 75.846076 
L 97.991932 66.786835 
L 98.916648 62.958987 
L 99.841364 58.36557 
L 100.76608 55.813671 
L 101.690795 51.985823 
L 102.615511 50.327089 
L 103.540227 43.947342 
L 104.464943 43.181772 
L 105.389659 41.523038 
L 106.314375 41.395443 
L 107.239091 40.757468 
L 108.163807 39.609114 
L 109.088523 39.226329 
L 110.013239 38.588354 
L 110.937955 38.20557 
L 111.86267 35.653671 
L 112.787386 33.994937 
L 113.712102 33.612152 
L 115.561534 33.356962 
L 116.48625 33.101772 
L 117.410966 33.101772 
L 118.335682 32.974177 
L 119.260398 31.825823 
L 120.185114 31.698228 
L 121.10983 31.443038 
L 122.034545 28.891139 
L 122.959261 27.232405 
L 123.883977 26.977215 
L 125.733409 26.722025 
L 126.658125 26.466835 
L 127.582841 25.956456 
L 128.507557 25.828861 
L 129.432273 25.573671 
L 130.356989 25.573671 
L 131.281705 24.935696 
L 132.20642 24.680506 
L 133.131136 24.680506 
L 134.055852 24.552911 
L 135.905284 24.552911 
L 136.83 24.425316 
L 138.679432 24.425316 
L 140.528864 24.170127 
L 141.45358 24.170127 
L 143.303011 23.914937 
L 144.227727 23.914937 
L 146.077159 23.659747 
L 147.926591 23.659747 
L 149.776023 23.404557 
L 150.700739 23.021772 
L 153.474886 23.021772 
L 154.399602 22.894177 
L 155.324318 22.894177 
L 156.249034 22.638987 
L 159.023182 22.638987 
L 159.947898 22.511392 
L 169.195057 22.511392 
L 170.119773 22.128608 
L 178.442216 22.128608 
L 179.366932 21.745823 
L 180.291648 21.490633 
L 182.14108 21.490633 
L 183.065795 21.235443 
L 185.839943 21.235443 
L 187.689375 20.980253 
L 189.538807 20.980253 
L 191.388239 20.725063 
L 193.23767 20.725063 
L 195.087102 20.469873 
L 198.785966 20.469873 
L 199.710682 20.342278 
L 200.635398 20.342278 
L 202.48483 20.087089 
L 206.183693 20.087089 
L 207.108409 19.959494 
L 212.656705 19.959494 
L 213.58142 19.831899 
L 224.678011 19.831899 
L 225.602727 19.704304 
L 232.075739 19.704304 
L 233.000455 19.576709 
L 238.54875 19.576709 
L 239.473466 19.449114 
L 240.398182 19.449114 
L 241.322898 19.321519 
L 245.021761 19.321519 
L 245.946477 19.193924 
L 259.817216 19.193924 
L 260.741932 19.066329 
L 266.290227 19.066329 
L 267.214943 18.938734 
L 268.139659 18.938734 
L 269.064375 18.811139 
L 276.462102 18.811139 
L 277.386818 18.300759 
L 301.429432 18.300759 
L 302.354148 18.173165 
L 362.460682 18.173165 
L 363.385398 17.407595 
L 441.98625 17.407595 
L 442.910966 17.28 
L 446.60983 17.28 
L 446.60983 17.28 
" clip-path="url(#p71c7c8e092)" style="fill: none; stroke: #ee99aa; stroke-width: 3; stroke-linecap: square"/>
   </g>
   <g id="line2d_41">
    <path d="M 91.51892 218.88 
L 92.443636 218.62481 
L 97.991932 218.62481 
L 98.916648 206.503291 
L 107.239091 206.503291 
L 108.163807 205.801519 
L 109.088523 205.610127 
L 110.013239 202.484051 
L 111.86267 202.484051 
L 112.787386 199.549367 
L 113.712102 199.038987 
L 114.636818 197.380253 
L 115.561534 197.380253 
L 116.48625 197.252658 
L 117.410966 195.147342 
L 119.260398 195.147342 
L 120.185114 192.212658 
L 122.959261 192.212658 
L 123.883977 191.766076 
L 128.507557 191.766076 
L 129.432273 190.043544 
L 130.356989 189.596962 
L 131.281705 188.576203 
L 132.20642 186.917468 
L 135.905284 186.917468 
L 136.83 184.939747 
L 137.754716 184.556962 
L 138.679432 184.556962 
L 139.604148 184.429367 
L 140.528864 184.429367 
L 141.45358 183.663797 
L 142.378295 182.324051 
L 144.227727 182.260253 
L 145.152443 179.453165 
L 148.851307 179.389367 
L 149.776023 178.177215 
L 154.399602 178.177215 
L 155.324318 177.922025 
L 156.249034 177.79443 
L 157.17375 176.901266 
L 160.872614 176.901266 
L 161.79733 175.944304 
L 162.722045 175.944304 
L 163.646761 175.051139 
L 167.345625 175.051139 
L 168.270341 172.244051 
L 169.195057 172.244051 
L 170.119773 170.712911 
L 174.743352 170.712911 
L 175.668068 169.755949 
L 178.442216 169.500759 
L 179.366932 167.331646 
L 180.291648 167.331646 
L 181.216364 166.119494 
L 185.839943 166.055696 
L 186.764659 164.779747 
L 187.689375 164.588354 
L 188.614091 164.077975 
L 189.538807 163.69519 
L 192.312955 163.69519 
L 193.23767 163.121013 
L 194.162386 162.802025 
L 195.087102 162.164051 
L 197.86125 162.036456 
L 198.785966 162.036456 
L 199.710682 160.377722 
L 200.635398 159.867342 
L 201.560114 159.867342 
L 202.48483 159.675949 
L 204.334261 159.675949 
L 205.258977 159.037975 
L 206.183693 158.782785 
L 207.108409 158.782785 
L 208.033125 161.079494 
L 208.957841 160.824304 
L 215.430852 160.824304 
L 216.355568 159.16557 
L 222.82858 159.16557 
L 223.753295 150.616709 
L 228.376875 150.616709 
L 229.301591 147.937215 
L 237.624034 147.937215 
L 238.54875 147.80962 
L 242.247614 147.80962 
L 243.17233 147.55443 
L 247.795909 147.55443 
L 247.795909 147.55443 
" clip-path="url(#p71c7c8e092)" style="fill: none; stroke: #004488; stroke-width: 3; stroke-linecap: square"/>
   </g>
   <g id="line2d_42">
    <path d="M 91.51892 218.88 
L 92.443636 143.216203 
L 93.368352 127.139241 
L 94.293068 113.231392 
L 95.217784 102.768608 
L 96.1425 96.388861 
L 97.991932 79.801519 
L 98.916648 74.570127 
L 99.841364 70.614684 
L 100.76608 70.104304 
L 101.690795 69.338734 
L 102.615511 66.786835 
L 103.540227 54.537722 
L 105.389659 54.537722 
L 106.314375 52.113418 
L 108.163807 50.454684 
L 110.013239 49.944304 
L 112.787386 48.795949 
L 113.712102 48.668354 
L 114.636818 47.77519 
L 115.561534 47.77519 
L 116.48625 47.52 
L 117.410966 47.392405 
L 118.335682 46.882025 
L 119.260398 46.75443 
L 120.185114 46.371646 
L 121.10983 46.116456 
L 122.959261 45.861266 
L 123.883977 45.861266 
L 124.808693 45.733671 
L 125.733409 44.712911 
L 126.658125 44.712911 
L 127.582841 44.585316 
L 129.432273 44.585316 
L 130.356989 39.098734 
L 131.281705 38.715949 
L 132.20642 38.460759 
L 134.055852 38.460759 
L 135.905284 38.20557 
L 136.83 38.20557 
L 138.679432 37.95038 
L 139.604148 37.95038 
L 140.528864 37.822785 
L 142.378295 37.822785 
L 143.303011 37.69519 
L 144.227727 37.44 
L 145.152443 37.057215 
L 147.001875 36.802025 
L 147.926591 36.802025 
L 148.851307 36.164051 
L 149.776023 36.036456 
L 150.700739 36.036456 
L 152.55017 33.867342 
L 153.474886 33.867342 
L 154.399602 32.846582 
L 155.324318 32.718987 
L 156.249034 32.718987 
L 157.17375 32.591392 
L 159.023182 32.591392 
L 160.872614 32.336203 
L 161.79733 32.336203 
L 162.722045 31.953418 
L 164.571477 31.953418 
L 165.496193 31.825823 
L 171.044489 31.825823 
L 172.89392 31.570633 
L 173.818636 30.805063 
L 175.668068 30.805063 
L 177.5175 30.549873 
L 178.442216 30.039494 
L 179.366932 30.039494 
L 180.291648 29.911899 
L 182.14108 27.487595 
L 183.065795 27.232405 
L 183.990511 27.232405 
L 184.915227 26.722025 
L 186.764659 26.466835 
L 189.538807 26.466835 
L 190.463523 26.339241 
L 197.86125 26.339241 
L 198.785966 25.318481 
L 200.635398 25.063291 
L 201.560114 24.808101 
L 202.48483 24.680506 
L 203.409545 24.425316 
L 206.183693 24.425316 
L 207.108409 23.914937 
L 208.033125 23.532152 
L 209.882557 23.021772 
L 212.656705 23.021772 
L 213.58142 22.766582 
L 215.430852 22.511392 
L 217.280284 22.511392 
L 218.205 22.383797 
L 219.129716 22.128608 
L 220.054432 21.745823 
L 220.979148 21.745823 
L 221.903864 21.618228 
L 223.753295 21.618228 
L 224.678011 21.490633 
L 226.527443 21.490633 
L 228.376875 21.235443 
L 231.151023 21.235443 
L 232.075739 21.107848 
L 233.92517 20.597468 
L 235.774602 20.597468 
L 236.699318 20.469873 
L 268.139659 20.469873 
L 269.064375 20.342278 
L 269.989091 20.342278 
L 270.913807 20.087089 
L 274.61267 20.087089 
L 275.537386 19.831899 
L 279.23625 19.831899 
L 280.160966 19.704304 
L 284.784545 19.704304 
L 285.709261 19.576709 
L 288.483409 19.576709 
L 289.408125 19.449114 
L 290.332841 19.449114 
L 292.182273 19.193924 
L 344.89108 19.193924 
L 345.815795 19.066329 
L 366.159545 19.066329 
L 367.084261 18.300759 
L 368.933693 18.300759 
L 369.858409 18.173165 
L 402.223466 18.173165 
L 403.148182 18.04557 
L 435.513239 18.04557 
L 436.437955 17.79038 
L 446.60983 17.79038 
L 446.60983 17.79038 
" clip-path="url(#p71c7c8e092)" style="fill: none; stroke: #6699cc; stroke-width: 3; stroke-linecap: square"/>
   </g>
   <g id="patch_3">
    <path d="M 73.764375 228.96 
L 73.764375 7.2 
" style="fill: none; stroke: #000000; stroke-width: 0.8; stroke-linejoin: miter; stroke-linecap: square"/>
   </g>
   <g id="patch_4">
    <path d="M 464.364375 228.96 
L 464.364375 7.2 
" style="fill: none; stroke: #000000; stroke-width: 0.8; stroke-linejoin: miter; stroke-linecap: square"/>
   </g>
   <g id="patch_5">
    <path d="M 73.764375 228.96 
L 464.364375 228.96 
" style="fill: none; stroke: #000000; stroke-width: 0.8; stroke-linejoin: miter; stroke-linecap: square"/>
   </g>
   <g id="patch_6">
    <path d="M 73.764375 7.2 
L 464.364375 7.2 
" style="fill: none; stroke: #000000; stroke-width: 0.8; stroke-linejoin: miter; stroke-linecap: square"/>
   </g>
   <g id="legend_1">
    <g id="patch_7">
     <path d="M 292.964375 223.96 
L 457.364375 223.96 
Q 459.364375 223.96 459.364375 221.96 
L 459.364375 175.881875 
Q 459.364375 173.881875 457.364375 173.881875 
L 292.964375 173.881875 
Q 290.964375 173.881875 290.964375 175.881875 
L 290.964375 221.96 
Q 290.964375 223.96 292.964375 223.96 
z
" style="fill: #ffffff; opacity: 0.8; stroke: #cccccc; stroke-linejoin: miter"/>
    </g>
    <g id="line2d_43">
     <path d="M 294.964375 182.681875 
L 304.964375 182.681875 
L 314.964375 182.681875 
" style="fill: none; stroke: #994455; stroke-width: 3; stroke-linecap: square"/>
    </g>
    <g id="text_21">
     <!-- $symcts$ -->
     <g transform="translate(322.964375 186.181875) scale(0.1 -0.1)">
      <defs>
       <path id="DejaVuSans-Oblique-73" d="M 3200 3397 
L 3091 2853 
Q 2863 2978 2609 3040 
Q 2356 3103 2088 3103 
Q 1634 3103 1373 2948 
Q 1113 2794 1113 2528 
Q 1113 2219 1719 2053 
Q 1766 2041 1788 2034 
L 1972 1978 
Q 2547 1819 2739 1644 
Q 2931 1469 2931 1166 
Q 2931 609 2489 259 
Q 2047 -91 1331 -91 
Q 1053 -91 747 -37 
Q 441 16 72 128 
L 184 722 
Q 500 559 806 475 
Q 1113 391 1394 391 
Q 1816 391 2080 572 
Q 2344 753 2344 1031 
Q 2344 1331 1650 1516 
L 1591 1531 
L 1394 1581 
Q 956 1697 753 1886 
Q 550 2075 550 2369 
Q 550 2928 970 3256 
Q 1391 3584 2113 3584 
Q 2397 3584 2667 3537 
Q 2938 3491 3200 3397 
z
" transform="scale(0.015625)"/>
       <path id="DejaVuSans-Oblique-79" d="M 1588 -325 
Q 1188 -997 936 -1164 
Q 684 -1331 294 -1331 
L -159 -1331 
L -63 -850 
L 269 -850 
Q 509 -850 678 -719 
Q 847 -588 1056 -206 
L 1234 128 
L 459 3500 
L 1069 3500 
L 1650 819 
L 3256 3500 
L 3859 3500 
L 1588 -325 
z
" transform="scale(0.015625)"/>
       <path id="DejaVuSans-Oblique-6d" d="M 5747 2113 
L 5338 0 
L 4763 0 
L 5166 2094 
Q 5191 2228 5203 2325 
Q 5216 2422 5216 2491 
Q 5216 2772 5059 2928 
Q 4903 3084 4622 3084 
Q 4203 3084 3875 2770 
Q 3547 2456 3450 1953 
L 3066 0 
L 2491 0 
L 2900 2094 
Q 2925 2209 2937 2307 
Q 2950 2406 2950 2484 
Q 2950 2769 2794 2926 
Q 2638 3084 2363 3084 
Q 1938 3084 1609 2770 
Q 1281 2456 1184 1953 
L 800 0 
L 225 0 
L 909 3500 
L 1484 3500 
L 1375 2956 
Q 1609 3263 1923 3423 
Q 2238 3584 2597 3584 
Q 2978 3584 3223 3384 
Q 3469 3184 3519 2828 
Q 3781 3197 4126 3390 
Q 4472 3584 4856 3584 
Q 5306 3584 5551 3325 
Q 5797 3066 5797 2591 
Q 5797 2488 5784 2364 
Q 5772 2241 5747 2113 
z
" transform="scale(0.015625)"/>
       <path id="DejaVuSans-Oblique-63" d="M 3431 3366 
L 3316 2797 
Q 3109 2947 2876 3022 
Q 2644 3097 2394 3097 
Q 2119 3097 1870 3000 
Q 1622 2903 1453 2725 
Q 1184 2453 1037 2087 
Q 891 1722 891 1331 
Q 891 859 1127 628 
Q 1363 397 1844 397 
Q 2081 397 2348 469 
Q 2616 541 2906 684 
L 2797 116 
Q 2547 13 2283 -39 
Q 2019 -91 1741 -91 
Q 1044 -91 669 257 
Q 294 606 294 1253 
Q 294 1797 489 2255 
Q 684 2713 1069 3078 
Q 1331 3328 1684 3456 
Q 2038 3584 2456 3584 
Q 2700 3584 2940 3529 
Q 3181 3475 3431 3366 
z
" transform="scale(0.015625)"/>
       <path id="DejaVuSans-Oblique-74" d="M 2706 3500 
L 2619 3053 
L 1472 3053 
L 1100 1153 
Q 1081 1047 1072 975 
Q 1063 903 1063 863 
Q 1063 663 1183 572 
Q 1303 481 1569 481 
L 2150 481 
L 2053 0 
L 1503 0 
Q 991 0 739 200 
Q 488 400 488 806 
Q 488 878 497 964 
Q 506 1050 525 1153 
L 897 3053 
L 409 3053 
L 500 3500 
L 978 3500 
L 1172 4494 
L 1747 4494 
L 1556 3500 
L 2706 3500 
z
" transform="scale(0.015625)"/>
      </defs>
      <use xlink:href="#DejaVuSans-Oblique-73" transform="translate(0 0.78125)"/>
      <use xlink:href="#DejaVuSans-Oblique-79" transform="translate(52.099609 0.78125)"/>
      <use xlink:href="#DejaVuSans-Oblique-6d" transform="translate(111.279297 0.78125)"/>
      <use xlink:href="#DejaVuSans-Oblique-63" transform="translate(208.691406 0.78125)"/>
      <use xlink:href="#DejaVuSans-Oblique-74" transform="translate(263.671875 0.78125)"/>
      <use xlink:href="#DejaVuSans-Oblique-73" transform="translate(302.880859 0.78125)"/>
     </g>
    </g>
    <g id="line2d_44">
     <path d="M 294.964375 198.081875 
L 304.964375 198.081875 
L 314.964375 198.081875 
" style="fill: none; stroke: #ee99aa; stroke-width: 3; stroke-linecap: square"/>
    </g>
    <g id="text_22">
     <!-- $symcts^{+}$ -->
     <g transform="translate(322.964375 201.581875) scale(0.1 -0.1)">
      <defs>
       <path id="DejaVuSans-2b" d="M 2944 4013 
L 2944 2272 
L 4684 2272 
L 4684 1741 
L 2944 1741 
L 2944 0 
L 2419 0 
L 2419 1741 
L 678 1741 
L 678 2272 
L 2419 2272 
L 2419 4013 
L 2944 4013 
z
" transform="scale(0.015625)"/>
      </defs>
      <use xlink:href="#DejaVuSans-Oblique-73" transform="translate(0 0.826562)"/>
      <use xlink:href="#DejaVuSans-Oblique-79" transform="translate(52.099609 0.826562)"/>
      <use xlink:href="#DejaVuSans-Oblique-6d" transform="translate(111.279297 0.826562)"/>
      <use xlink:href="#DejaVuSans-Oblique-63" transform="translate(208.691406 0.826562)"/>
      <use xlink:href="#DejaVuSans-Oblique-74" transform="translate(263.671875 0.826562)"/>
      <use xlink:href="#DejaVuSans-Oblique-73" transform="translate(302.880859 0.826562)"/>
      <use xlink:href="#DejaVuSans-2b" transform="translate(359.630365 39.107812) scale(0.7)"/>
     </g>
    </g>
    <g id="line2d_45">
     <path d="M 294.964375 212.780313 
L 304.964375 212.780313 
L 314.964375 212.780313 
" style="fill: none; stroke: #004488; stroke-width: 3; stroke-linecap: square"/>
    </g>
    <g id="text_23">
     <!-- $symcts_{Q}$ -->
     <g transform="translate(322.964375 216.280313) scale(0.1 -0.1)">
      <defs>
       <path id="DejaVuSans-Oblique-51" d="M 2309 -84 
Q 2275 -88 2237 -89 
Q 2200 -91 2125 -91 
Q 1250 -91 756 411 
Q 263 913 263 1797 
Q 263 2319 452 2844 
Q 641 3369 978 3788 
Q 1369 4269 1858 4509 
Q 2347 4750 2938 4750 
Q 3794 4750 4287 4245 
Q 4781 3741 4781 2869 
Q 4781 1928 4265 1147 
Q 3750 366 2919 44 
L 3553 -825 
L 2847 -825 
L 2309 -84 
z
M 2919 4238 
Q 2400 4238 2003 3986 
Q 1606 3734 1313 3219 
Q 1125 2891 1026 2522 
Q 928 2153 928 1778 
Q 928 1128 1239 775 
Q 1550 422 2119 422 
Q 2631 422 3032 676 
Q 3434 931 3719 1434 
Q 3909 1772 4009 2142 
Q 4109 2513 4109 2881 
Q 4109 3528 3796 3883 
Q 3484 4238 2919 4238 
z
" transform="scale(0.015625)"/>
      </defs>
      <use xlink:href="#DejaVuSans-Oblique-73" transform="translate(0 0.78125)"/>
      <use xlink:href="#DejaVuSans-Oblique-79" transform="translate(52.099609 0.78125)"/>
      <use xlink:href="#DejaVuSans-Oblique-6d" transform="translate(111.279297 0.78125)"/>
      <use xlink:href="#DejaVuSans-Oblique-63" transform="translate(208.691406 0.78125)"/>
      <use xlink:href="#DejaVuSans-Oblique-74" transform="translate(263.671875 0.78125)"/>
      <use xlink:href="#DejaVuSans-Oblique-73" transform="translate(302.880859 0.78125)"/>
      <use xlink:href="#DejaVuSans-Oblique-51" transform="translate(354.980469 -15.625) scale(0.7)"/>
     </g>
    </g>
    <g id="line2d_46">
     <path d="M 385.164375 182.681875 
L 395.164375 182.681875 
L 405.164375 182.681875 
" style="fill: none; stroke: #6699cc; stroke-width: 3; stroke-linecap: square"/>
    </g>
    <g id="text_24">
     <!-- $symcts_{Q}^{+}$ -->
     <g transform="translate(413.164375 186.181875) scale(0.1 -0.1)">
      <use xlink:href="#DejaVuSans-Oblique-73" transform="translate(0 0.826562)"/>
      <use xlink:href="#DejaVuSans-Oblique-79" transform="translate(52.099609 0.826562)"/>
      <use xlink:href="#DejaVuSans-Oblique-6d" transform="translate(111.279297 0.826562)"/>
      <use xlink:href="#DejaVuSans-Oblique-63" transform="translate(208.691406 0.826562)"/>
      <use xlink:href="#DejaVuSans-Oblique-74" transform="translate(263.671875 0.826562)"/>
      <use xlink:href="#DejaVuSans-Oblique-73" transform="translate(302.880859 0.826562)"/>
      <use xlink:href="#DejaVuSans-2b" transform="translate(359.630365 39.107813) scale(0.7)"/>
      <use xlink:href="#DejaVuSans-Oblique-51" transform="translate(354.980469 -26.517188) scale(0.7)"/>
     </g>
    </g>
    <g id="line2d_47">
     <path d="M 385.164375 198.980313 
L 395.164375 198.980313 
L 405.164375 198.980313 
" style="fill: none; stroke-dasharray: 3,4.95; stroke-dashoffset: 0; stroke: #ddaa33; stroke-width: 3"/>
    </g>
    <g id="text_25">
     <!-- $afl$++ -->
     <g transform="translate(413.164375 202.480313) scale(0.1 -0.1)">
      <defs>
       <path id="DejaVuSans-Oblique-61" d="M 3438 1997 
L 3047 0 
L 2472 0 
L 2578 531 
Q 2325 219 2001 64 
Q 1678 -91 1281 -91 
Q 834 -91 548 182 
Q 263 456 263 884 
Q 263 1497 752 1853 
Q 1241 2209 2100 2209 
L 2900 2209 
L 2931 2363 
Q 2938 2388 2941 2417 
Q 2944 2447 2944 2509 
Q 2944 2788 2717 2942 
Q 2491 3097 2081 3097 
Q 1800 3097 1504 3025 
Q 1209 2953 897 2809 
L 997 3341 
Q 1322 3463 1633 3523 
Q 1944 3584 2234 3584 
Q 2853 3584 3176 3315 
Q 3500 3047 3500 2534 
Q 3500 2431 3484 2292 
Q 3469 2153 3438 1997 
z
M 2816 1759 
L 2241 1759 
Q 1534 1759 1195 1570 
Q 856 1381 856 984 
Q 856 709 1029 553 
Q 1203 397 1509 397 
Q 1978 397 2328 733 
Q 2678 1069 2791 1631 
L 2816 1759 
z
" transform="scale(0.015625)"/>
       <path id="DejaVuSans-Oblique-66" d="M 3059 4863 
L 2969 4384 
L 2419 4384 
Q 2106 4384 1964 4261 
Q 1822 4138 1753 3809 
L 1691 3500 
L 2638 3500 
L 2553 3053 
L 1606 3053 
L 1013 0 
L 434 0 
L 1031 3053 
L 481 3053 
L 563 3500 
L 1113 3500 
L 1159 3744 
Q 1278 4363 1576 4613 
Q 1875 4863 2516 4863 
L 3059 4863 
z
" transform="scale(0.015625)"/>
       <path id="DejaVuSans-Oblique-6c" d="M 1172 4863 
L 1747 4863 
L 800 0 
L 225 0 
L 1172 4863 
z
" transform="scale(0.015625)"/>
      </defs>
      <use xlink:href="#DejaVuSans-Oblique-61" transform="translate(0 0.015625)"/>
      <use xlink:href="#DejaVuSans-Oblique-66" transform="translate(61.279297 0.015625)"/>
      <use xlink:href="#DejaVuSans-Oblique-6c" transform="translate(96.484375 0.015625)"/>
      <use xlink:href="#DejaVuSans-2b" transform="translate(124.267578 0.015625)"/>
      <use xlink:href="#DejaVuSans-2b" transform="translate(208.056641 0.015625)"/>
     </g>
    </g>
    <g id="line2d_48">
     <path d="M 385.164375 214.36 
L 395.164375 214.36 
L 405.164375 214.36 
" style="fill: none; stroke-dasharray: 3,4.95; stroke-dashoffset: 0; stroke: #000000; stroke-width: 3"/>
    </g>
    <g id="text_26">
     <!-- $symcc^{+}$ -->
     <g transform="translate(413.164375 217.86) scale(0.1 -0.1)">
      <use xlink:href="#DejaVuSans-Oblique-73" transform="translate(0 0.826562)"/>
      <use xlink:href="#DejaVuSans-Oblique-79" transform="translate(52.099609 0.826562)"/>
      <use xlink:href="#DejaVuSans-Oblique-6d" transform="translate(111.279297 0.826562)"/>
      <use xlink:href="#DejaVuSans-Oblique-63" transform="translate(208.691406 0.826562)"/>
      <use xlink:href="#DejaVuSans-Oblique-63" transform="translate(263.671875 0.826562)"/>
      <use xlink:href="#DejaVuSans-2b" transform="translate(323.30224 39.107812) scale(0.7)"/>
     </g>
    </g>
   </g>
  </g>
 </g>
 <defs>
  <clipPath id="p71c7c8e092">
   <rect x="73.764375" y="7.2" width="390.6" height="221.76"/>
  </clipPath>
 </defs>
</svg>
