<?xml version="1.0" encoding="utf-8" standalone="no"?>
<!DOCTYPE svg PUBLIC "-//W3C//DTD SVG 1.1//EN"
  "http://www.w3.org/Graphics/SVG/1.1/DTD/svg11.dtd">
<svg xmlns:xlink="http://www.w3.org/1999/xlink" width="480.745656pt" height="276.194375pt" viewBox="0 0 480.745656 276.194375" xmlns="http://www.w3.org/2000/svg" version="1.1">
 <metadata>
  <rdf:RDF xmlns:dc="http://purl.org/dc/elements/1.1/" xmlns:cc="http://creativecommons.org/ns#" xmlns:rdf="http://www.w3.org/1999/02/22-rdf-syntax-ns#">
   <cc:Work>
    <dc:type rdf:resource="http://purl.org/dc/dcmitype/StillImage"/>
    <dc:date>2023-10-07T23:51:03.702034</dc:date>
    <dc:format>image/svg+xml</dc:format>
    <dc:creator>
     <cc:Agent>
      <dc:title>Matplotlib v3.7.1, https://matplotlib.org/</dc:title>
     </cc:Agent>
    </dc:creator>
   </cc:Work>
  </rdf:RDF>
 </metadata>
 <defs>
  <style type="text/css">*{stroke-linejoin: round; stroke-linecap: butt}</style>
 </defs>
 <g id="figure_1">
  <g id="patch_1">
   <path d="M 0 276.194375 
L 480.745656 276.194375 
L 480.745656 0 
L 0 0 
z
" style="fill: #ffffff"/>
  </g>
  <g id="axes_1">
   <g id="patch_2">
    <path d="M 82.671875 228.96 
L 473.271875 228.96 
L 473.271875 7.2 
L 82.671875 7.2 
z
" style="fill: #ffffff"/>
   </g>
   <g id="matplotlib.axis_1">
    <g id="xtick_1">
     <g id="line2d_1">
      <path d="M 100.42642 228.96 
L 100.42642 7.2 
" clip-path="url(#pa02e684f36)" style="fill: none; stroke: #b0b0b0; stroke-opacity: 0.3; stroke-width: 0.8; stroke-linecap: square"/>
     </g>
     <g id="line2d_2">
      <defs>
       <path id="mf0d935bab1" d="M 0 0 
L 0 3.5 
" style="stroke: #000000; stroke-width: 0.8"/>
      </defs>
      <g>
       <use xlink:href="#mf0d935bab1" x="100.42642" y="228.96" style="stroke: #000000; stroke-width: 0.8"/>
      </g>
     </g>
     <g id="text_1">
      <!-- 0h -->
      <g transform="translate(91.53642 246.597813) scale(0.14 -0.14)">
       <defs>
        <path id="DejaVuSans-30" d="M 2034 4250 
Q 1547 4250 1301 3770 
Q 1056 3291 1056 2328 
Q 1056 1369 1301 889 
Q 1547 409 2034 409 
Q 2525 409 2770 889 
Q 3016 1369 3016 2328 
Q 3016 3291 2770 3770 
Q 2525 4250 2034 4250 
z
M 2034 4750 
Q 2819 4750 3233 4129 
Q 3647 3509 3647 2328 
Q 3647 1150 3233 529 
Q 2819 -91 2034 -91 
Q 1250 -91 836 529 
Q 422 1150 422 2328 
Q 422 3509 836 4129 
Q 1250 4750 2034 4750 
z
" transform="scale(0.015625)"/>
        <path id="DejaVuSans-68" d="M 3513 2113 
L 3513 0 
L 2938 0 
L 2938 2094 
Q 2938 2591 2744 2837 
Q 2550 3084 2163 3084 
Q 1697 3084 1428 2787 
Q 1159 2491 1159 1978 
L 1159 0 
L 581 0 
L 581 4863 
L 1159 4863 
L 1159 2956 
Q 1366 3272 1645 3428 
Q 1925 3584 2291 3584 
Q 2894 3584 3203 3211 
Q 3513 2838 3513 2113 
z
" transform="scale(0.015625)"/>
       </defs>
       <use xlink:href="#DejaVuSans-30"/>
       <use xlink:href="#DejaVuSans-68" x="63.623047"/>
      </g>
     </g>
    </g>
    <g id="xtick_2">
     <g id="line2d_3">
      <path d="M 145.398356 228.96 
L 145.398356 7.2 
" clip-path="url(#pa02e684f36)" style="fill: none; stroke: #b0b0b0; stroke-opacity: 0.3; stroke-width: 0.8; stroke-linecap: square"/>
     </g>
     <g id="line2d_4">
      <g>
       <use xlink:href="#mf0d935bab1" x="145.398356" y="228.96" style="stroke: #000000; stroke-width: 0.8"/>
      </g>
     </g>
     <g id="text_2">
      <!-- 12h -->
      <g transform="translate(132.054606 246.597813) scale(0.14 -0.14)">
       <defs>
        <path id="DejaVuSans-31" d="M 794 531 
L 1825 531 
L 1825 4091 
L 703 3866 
L 703 4441 
L 1819 4666 
L 2450 4666 
L 2450 531 
L 3481 531 
L 3481 0 
L 794 0 
L 794 531 
z
" transform="scale(0.015625)"/>
        <path id="DejaVuSans-32" d="M 1228 531 
L 3431 531 
L 3431 0 
L 469 0 
L 469 531 
Q 828 903 1448 1529 
Q 2069 2156 2228 2338 
Q 2531 2678 2651 2914 
Q 2772 3150 2772 3378 
Q 2772 3750 2511 3984 
Q 2250 4219 1831 4219 
Q 1534 4219 1204 4116 
Q 875 4013 500 3803 
L 500 4441 
Q 881 4594 1212 4672 
Q 1544 4750 1819 4750 
Q 2544 4750 2975 4387 
Q 3406 4025 3406 3419 
Q 3406 3131 3298 2873 
Q 3191 2616 2906 2266 
Q 2828 2175 2409 1742 
Q 1991 1309 1228 531 
z
" transform="scale(0.015625)"/>
       </defs>
       <use xlink:href="#DejaVuSans-31"/>
       <use xlink:href="#DejaVuSans-32" x="63.623047"/>
       <use xlink:href="#DejaVuSans-68" x="127.246094"/>
      </g>
     </g>
    </g>
    <g id="xtick_3">
     <g id="line2d_5">
      <path d="M 190.370292 228.96 
L 190.370292 7.2 
" clip-path="url(#pa02e684f36)" style="fill: none; stroke: #b0b0b0; stroke-opacity: 0.3; stroke-width: 0.8; stroke-linecap: square"/>
     </g>
     <g id="line2d_6">
      <g>
       <use xlink:href="#mf0d935bab1" x="190.370292" y="228.96" style="stroke: #000000; stroke-width: 0.8"/>
      </g>
     </g>
     <g id="text_3">
      <!-- 24h -->
      <g transform="translate(177.026542 246.597813) scale(0.14 -0.14)">
       <defs>
        <path id="DejaVuSans-34" d="M 2419 4116 
L 825 1625 
L 2419 1625 
L 2419 4116 
z
M 2253 4666 
L 3047 4666 
L 3047 1625 
L 3713 1625 
L 3713 1100 
L 3047 1100 
L 3047 0 
L 2419 0 
L 2419 1100 
L 313 1100 
L 313 1709 
L 2253 4666 
z
" transform="scale(0.015625)"/>
       </defs>
       <use xlink:href="#DejaVuSans-32"/>
       <use xlink:href="#DejaVuSans-34" x="63.623047"/>
       <use xlink:href="#DejaVuSans-68" x="127.246094"/>
      </g>
     </g>
    </g>
    <g id="xtick_4">
     <g id="line2d_7">
      <path d="M 235.342228 228.96 
L 235.342228 7.2 
" clip-path="url(#pa02e684f36)" style="fill: none; stroke: #b0b0b0; stroke-opacity: 0.3; stroke-width: 0.8; stroke-linecap: square"/>
     </g>
     <g id="line2d_8">
      <g>
       <use xlink:href="#mf0d935bab1" x="235.342228" y="228.96" style="stroke: #000000; stroke-width: 0.8"/>
      </g>
     </g>
     <g id="text_4">
      <!-- 36h -->
      <g transform="translate(221.998478 246.597813) scale(0.14 -0.14)">
       <defs>
        <path id="DejaVuSans-33" d="M 2597 2516 
Q 3050 2419 3304 2112 
Q 3559 1806 3559 1356 
Q 3559 666 3084 287 
Q 2609 -91 1734 -91 
Q 1441 -91 1130 -33 
Q 819 25 488 141 
L 488 750 
Q 750 597 1062 519 
Q 1375 441 1716 441 
Q 2309 441 2620 675 
Q 2931 909 2931 1356 
Q 2931 1769 2642 2001 
Q 2353 2234 1838 2234 
L 1294 2234 
L 1294 2753 
L 1863 2753 
Q 2328 2753 2575 2939 
Q 2822 3125 2822 3475 
Q 2822 3834 2567 4026 
Q 2313 4219 1838 4219 
Q 1578 4219 1281 4162 
Q 984 4106 628 3988 
L 628 4550 
Q 988 4650 1302 4700 
Q 1616 4750 1894 4750 
Q 2613 4750 3031 4423 
Q 3450 4097 3450 3541 
Q 3450 3153 3228 2886 
Q 3006 2619 2597 2516 
z
" transform="scale(0.015625)"/>
        <path id="DejaVuSans-36" d="M 2113 2584 
Q 1688 2584 1439 2293 
Q 1191 2003 1191 1497 
Q 1191 994 1439 701 
Q 1688 409 2113 409 
Q 2538 409 2786 701 
Q 3034 994 3034 1497 
Q 3034 2003 2786 2293 
Q 2538 2584 2113 2584 
z
M 3366 4563 
L 3366 3988 
Q 3128 4100 2886 4159 
Q 2644 4219 2406 4219 
Q 1781 4219 1451 3797 
Q 1122 3375 1075 2522 
Q 1259 2794 1537 2939 
Q 1816 3084 2150 3084 
Q 2853 3084 3261 2657 
Q 3669 2231 3669 1497 
Q 3669 778 3244 343 
Q 2819 -91 2113 -91 
Q 1303 -91 875 529 
Q 447 1150 447 2328 
Q 447 3434 972 4092 
Q 1497 4750 2381 4750 
Q 2619 4750 2861 4703 
Q 3103 4656 3366 4563 
z
" transform="scale(0.015625)"/>
       </defs>
       <use xlink:href="#DejaVuSans-33"/>
       <use xlink:href="#DejaVuSans-36" x="63.623047"/>
       <use xlink:href="#DejaVuSans-68" x="127.246094"/>
      </g>
     </g>
    </g>
    <g id="xtick_5">
     <g id="line2d_9">
      <path d="M 280.314163 228.96 
L 280.314163 7.2 
" clip-path="url(#pa02e684f36)" style="fill: none; stroke: #b0b0b0; stroke-opacity: 0.3; stroke-width: 0.8; stroke-linecap: square"/>
     </g>
     <g id="line2d_10">
      <g>
       <use xlink:href="#mf0d935bab1" x="280.314163" y="228.96" style="stroke: #000000; stroke-width: 0.8"/>
      </g>
     </g>
     <g id="text_5">
      <!-- 48h -->
      <g transform="translate(266.970413 246.597813) scale(0.14 -0.14)">
       <defs>
        <path id="DejaVuSans-38" d="M 2034 2216 
Q 1584 2216 1326 1975 
Q 1069 1734 1069 1313 
Q 1069 891 1326 650 
Q 1584 409 2034 409 
Q 2484 409 2743 651 
Q 3003 894 3003 1313 
Q 3003 1734 2745 1975 
Q 2488 2216 2034 2216 
z
M 1403 2484 
Q 997 2584 770 2862 
Q 544 3141 544 3541 
Q 544 4100 942 4425 
Q 1341 4750 2034 4750 
Q 2731 4750 3128 4425 
Q 3525 4100 3525 3541 
Q 3525 3141 3298 2862 
Q 3072 2584 2669 2484 
Q 3125 2378 3379 2068 
Q 3634 1759 3634 1313 
Q 3634 634 3220 271 
Q 2806 -91 2034 -91 
Q 1263 -91 848 271 
Q 434 634 434 1313 
Q 434 1759 690 2068 
Q 947 2378 1403 2484 
z
M 1172 3481 
Q 1172 3119 1398 2916 
Q 1625 2713 2034 2713 
Q 2441 2713 2670 2916 
Q 2900 3119 2900 3481 
Q 2900 3844 2670 4047 
Q 2441 4250 2034 4250 
Q 1625 4250 1398 4047 
Q 1172 3844 1172 3481 
z
" transform="scale(0.015625)"/>
       </defs>
       <use xlink:href="#DejaVuSans-34"/>
       <use xlink:href="#DejaVuSans-38" x="63.623047"/>
       <use xlink:href="#DejaVuSans-68" x="127.246094"/>
      </g>
     </g>
    </g>
    <g id="xtick_6">
     <g id="line2d_11">
      <path d="M 325.286099 228.96 
L 325.286099 7.2 
" clip-path="url(#pa02e684f36)" style="fill: none; stroke: #b0b0b0; stroke-opacity: 0.3; stroke-width: 0.8; stroke-linecap: square"/>
     </g>
     <g id="line2d_12">
      <g>
       <use xlink:href="#mf0d935bab1" x="325.286099" y="228.96" style="stroke: #000000; stroke-width: 0.8"/>
      </g>
     </g>
     <g id="text_6">
      <!-- 60h -->
      <g transform="translate(311.942349 246.597813) scale(0.14 -0.14)">
       <use xlink:href="#DejaVuSans-36"/>
       <use xlink:href="#DejaVuSans-30" x="63.623047"/>
       <use xlink:href="#DejaVuSans-68" x="127.246094"/>
      </g>
     </g>
    </g>
    <g id="xtick_7">
     <g id="line2d_13">
      <path d="M 370.258035 228.96 
L 370.258035 7.2 
" clip-path="url(#pa02e684f36)" style="fill: none; stroke: #b0b0b0; stroke-opacity: 0.3; stroke-width: 0.8; stroke-linecap: square"/>
     </g>
     <g id="line2d_14">
      <g>
       <use xlink:href="#mf0d935bab1" x="370.258035" y="228.96" style="stroke: #000000; stroke-width: 0.8"/>
      </g>
     </g>
     <g id="text_7">
      <!-- 72h -->
      <g transform="translate(356.914285 246.597813) scale(0.14 -0.14)">
       <defs>
        <path id="DejaVuSans-37" d="M 525 4666 
L 3525 4666 
L 3525 4397 
L 1831 0 
L 1172 0 
L 2766 4134 
L 525 4134 
L 525 4666 
z
" transform="scale(0.015625)"/>
       </defs>
       <use xlink:href="#DejaVuSans-37"/>
       <use xlink:href="#DejaVuSans-32" x="63.623047"/>
       <use xlink:href="#DejaVuSans-68" x="127.246094"/>
      </g>
     </g>
    </g>
    <g id="xtick_8">
     <g id="line2d_15">
      <path d="M 415.22997 228.96 
L 415.22997 7.2 
" clip-path="url(#pa02e684f36)" style="fill: none; stroke: #b0b0b0; stroke-opacity: 0.3; stroke-width: 0.8; stroke-linecap: square"/>
     </g>
     <g id="line2d_16">
      <g>
       <use xlink:href="#mf0d935bab1" x="415.22997" y="228.96" style="stroke: #000000; stroke-width: 0.8"/>
      </g>
     </g>
     <g id="text_8">
      <!-- 84h -->
      <g transform="translate(401.88622 246.597813) scale(0.14 -0.14)">
       <use xlink:href="#DejaVuSans-38"/>
       <use xlink:href="#DejaVuSans-34" x="63.623047"/>
       <use xlink:href="#DejaVuSans-68" x="127.246094"/>
      </g>
     </g>
    </g>
    <g id="xtick_9">
     <g id="line2d_17">
      <path d="M 460.201906 228.96 
L 460.201906 7.2 
" clip-path="url(#pa02e684f36)" style="fill: none; stroke: #b0b0b0; stroke-opacity: 0.3; stroke-width: 0.8; stroke-linecap: square"/>
     </g>
     <g id="line2d_18">
      <g>
       <use xlink:href="#mf0d935bab1" x="460.201906" y="228.96" style="stroke: #000000; stroke-width: 0.8"/>
      </g>
     </g>
     <g id="text_9">
      <!-- 96h -->
      <g transform="translate(446.858156 246.597813) scale(0.14 -0.14)">
       <defs>
        <path id="DejaVuSans-39" d="M 703 97 
L 703 672 
Q 941 559 1184 500 
Q 1428 441 1663 441 
Q 2288 441 2617 861 
Q 2947 1281 2994 2138 
Q 2813 1869 2534 1725 
Q 2256 1581 1919 1581 
Q 1219 1581 811 2004 
Q 403 2428 403 3163 
Q 403 3881 828 4315 
Q 1253 4750 1959 4750 
Q 2769 4750 3195 4129 
Q 3622 3509 3622 2328 
Q 3622 1225 3098 567 
Q 2575 -91 1691 -91 
Q 1453 -91 1209 -44 
Q 966 3 703 97 
z
M 1959 2075 
Q 2384 2075 2632 2365 
Q 2881 2656 2881 3163 
Q 2881 3666 2632 3958 
Q 2384 4250 1959 4250 
Q 1534 4250 1286 3958 
Q 1038 3666 1038 3163 
Q 1038 2656 1286 2365 
Q 1534 2075 1959 2075 
z
" transform="scale(0.015625)"/>
       </defs>
       <use xlink:href="#DejaVuSans-39"/>
       <use xlink:href="#DejaVuSans-36" x="63.623047"/>
       <use xlink:href="#DejaVuSans-68" x="127.246094"/>
      </g>
     </g>
    </g>
    <g id="text_10">
     <!-- Time -->
     <g transform="translate(258.398125 265.666875) scale(0.16 -0.16)">
      <defs>
       <path id="DejaVuSans-54" d="M -19 4666 
L 3928 4666 
L 3928 4134 
L 2272 4134 
L 2272 0 
L 1638 0 
L 1638 4134 
L -19 4134 
L -19 4666 
z
" transform="scale(0.015625)"/>
       <path id="DejaVuSans-69" d="M 603 3500 
L 1178 3500 
L 1178 0 
L 603 0 
L 603 3500 
z
M 603 4863 
L 1178 4863 
L 1178 4134 
L 603 4134 
L 603 4863 
z
" transform="scale(0.015625)"/>
       <path id="DejaVuSans-6d" d="M 3328 2828 
Q 3544 3216 3844 3400 
Q 4144 3584 4550 3584 
Q 5097 3584 5394 3201 
Q 5691 2819 5691 2113 
L 5691 0 
L 5113 0 
L 5113 2094 
Q 5113 2597 4934 2840 
Q 4756 3084 4391 3084 
Q 3944 3084 3684 2787 
Q 3425 2491 3425 1978 
L 3425 0 
L 2847 0 
L 2847 2094 
Q 2847 2600 2669 2842 
Q 2491 3084 2119 3084 
Q 1678 3084 1418 2786 
Q 1159 2488 1159 1978 
L 1159 0 
L 581 0 
L 581 3500 
L 1159 3500 
L 1159 2956 
Q 1356 3278 1631 3431 
Q 1906 3584 2284 3584 
Q 2666 3584 2933 3390 
Q 3200 3197 3328 2828 
z
" transform="scale(0.015625)"/>
       <path id="DejaVuSans-65" d="M 3597 1894 
L 3597 1613 
L 953 1613 
Q 991 1019 1311 708 
Q 1631 397 2203 397 
Q 2534 397 2845 478 
Q 3156 559 3463 722 
L 3463 178 
Q 3153 47 2828 -22 
Q 2503 -91 2169 -91 
Q 1331 -91 842 396 
Q 353 884 353 1716 
Q 353 2575 817 3079 
Q 1281 3584 2069 3584 
Q 2775 3584 3186 3129 
Q 3597 2675 3597 1894 
z
M 3022 2063 
Q 3016 2534 2758 2815 
Q 2500 3097 2075 3097 
Q 1594 3097 1305 2825 
Q 1016 2553 972 2059 
L 3022 2063 
z
" transform="scale(0.015625)"/>
      </defs>
      <use xlink:href="#DejaVuSans-54"/>
      <use xlink:href="#DejaVuSans-69" x="57.958984"/>
      <use xlink:href="#DejaVuSans-6d" x="85.742188"/>
      <use xlink:href="#DejaVuSans-65" x="183.154297"/>
     </g>
    </g>
   </g>
   <g id="matplotlib.axis_2">
    <g id="ytick_1">
     <g id="line2d_19">
      <path d="M 82.671875 215.083212 
L 473.271875 215.083212 
" clip-path="url(#pa02e684f36)" style="fill: none; stroke: #b0b0b0; stroke-opacity: 0.3; stroke-width: 0.8; stroke-linecap: square"/>
     </g>
     <g id="line2d_20">
      <defs>
       <path id="maf9d2167ce" d="M 0 0 
L -3.5 0 
" style="stroke: #000000; stroke-width: 0.8"/>
      </defs>
      <g>
       <use xlink:href="#maf9d2167ce" x="82.671875" y="215.083212" style="stroke: #000000; stroke-width: 0.8"/>
      </g>
     </g>
     <g id="text_11">
      <!-- 8,000 -->
      <g transform="translate(35.5925 220.402118) scale(0.14 -0.14)">
       <defs>
        <path id="DejaVuSans-2c" d="M 750 794 
L 1409 794 
L 1409 256 
L 897 -744 
L 494 -744 
L 750 256 
L 750 794 
z
" transform="scale(0.015625)"/>
       </defs>
       <use xlink:href="#DejaVuSans-38"/>
       <use xlink:href="#DejaVuSans-2c" x="63.623047"/>
       <use xlink:href="#DejaVuSans-30" x="95.410156"/>
       <use xlink:href="#DejaVuSans-30" x="159.033203"/>
       <use xlink:href="#DejaVuSans-30" x="222.65625"/>
      </g>
     </g>
    </g>
    <g id="ytick_2">
     <g id="line2d_21">
      <path d="M 82.671875 183.574596 
L 473.271875 183.574596 
" clip-path="url(#pa02e684f36)" style="fill: none; stroke: #b0b0b0; stroke-opacity: 0.3; stroke-width: 0.8; stroke-linecap: square"/>
     </g>
     <g id="line2d_22">
      <g>
       <use xlink:href="#maf9d2167ce" x="82.671875" y="183.574596" style="stroke: #000000; stroke-width: 0.8"/>
      </g>
     </g>
     <g id="text_12">
      <!-- 10,000 -->
      <g transform="translate(26.685 188.893502) scale(0.14 -0.14)">
       <use xlink:href="#DejaVuSans-31"/>
       <use xlink:href="#DejaVuSans-30" x="63.623047"/>
       <use xlink:href="#DejaVuSans-2c" x="127.246094"/>
       <use xlink:href="#DejaVuSans-30" x="159.033203"/>
       <use xlink:href="#DejaVuSans-30" x="222.65625"/>
       <use xlink:href="#DejaVuSans-30" x="286.279297"/>
      </g>
     </g>
    </g>
    <g id="ytick_3">
     <g id="line2d_23">
      <path d="M 82.671875 152.065981 
L 473.271875 152.065981 
" clip-path="url(#pa02e684f36)" style="fill: none; stroke: #b0b0b0; stroke-opacity: 0.3; stroke-width: 0.8; stroke-linecap: square"/>
     </g>
     <g id="line2d_24">
      <g>
       <use xlink:href="#maf9d2167ce" x="82.671875" y="152.065981" style="stroke: #000000; stroke-width: 0.8"/>
      </g>
     </g>
     <g id="text_13">
      <!-- 12,000 -->
      <g transform="translate(26.685 157.384887) scale(0.14 -0.14)">
       <use xlink:href="#DejaVuSans-31"/>
       <use xlink:href="#DejaVuSans-32" x="63.623047"/>
       <use xlink:href="#DejaVuSans-2c" x="127.246094"/>
       <use xlink:href="#DejaVuSans-30" x="159.033203"/>
       <use xlink:href="#DejaVuSans-30" x="222.65625"/>
       <use xlink:href="#DejaVuSans-30" x="286.279297"/>
      </g>
     </g>
    </g>
    <g id="ytick_4">
     <g id="line2d_25">
      <path d="M 82.671875 120.557365 
L 473.271875 120.557365 
" clip-path="url(#pa02e684f36)" style="fill: none; stroke: #b0b0b0; stroke-opacity: 0.3; stroke-width: 0.8; stroke-linecap: square"/>
     </g>
     <g id="line2d_26">
      <g>
       <use xlink:href="#maf9d2167ce" x="82.671875" y="120.557365" style="stroke: #000000; stroke-width: 0.8"/>
      </g>
     </g>
     <g id="text_14">
      <!-- 14,000 -->
      <g transform="translate(26.685 125.876271) scale(0.14 -0.14)">
       <use xlink:href="#DejaVuSans-31"/>
       <use xlink:href="#DejaVuSans-34" x="63.623047"/>
       <use xlink:href="#DejaVuSans-2c" x="127.246094"/>
       <use xlink:href="#DejaVuSans-30" x="159.033203"/>
       <use xlink:href="#DejaVuSans-30" x="222.65625"/>
       <use xlink:href="#DejaVuSans-30" x="286.279297"/>
      </g>
     </g>
    </g>
    <g id="ytick_5">
     <g id="line2d_27">
      <path d="M 82.671875 89.048749 
L 473.271875 89.048749 
" clip-path="url(#pa02e684f36)" style="fill: none; stroke: #b0b0b0; stroke-opacity: 0.3; stroke-width: 0.8; stroke-linecap: square"/>
     </g>
     <g id="line2d_28">
      <g>
       <use xlink:href="#maf9d2167ce" x="82.671875" y="89.048749" style="stroke: #000000; stroke-width: 0.8"/>
      </g>
     </g>
     <g id="text_15">
      <!-- 16,000 -->
      <g transform="translate(26.685 94.367656) scale(0.14 -0.14)">
       <use xlink:href="#DejaVuSans-31"/>
       <use xlink:href="#DejaVuSans-36" x="63.623047"/>
       <use xlink:href="#DejaVuSans-2c" x="127.246094"/>
       <use xlink:href="#DejaVuSans-30" x="159.033203"/>
       <use xlink:href="#DejaVuSans-30" x="222.65625"/>
       <use xlink:href="#DejaVuSans-30" x="286.279297"/>
      </g>
     </g>
    </g>
    <g id="ytick_6">
     <g id="line2d_29">
      <path d="M 82.671875 57.540134 
L 473.271875 57.540134 
" clip-path="url(#pa02e684f36)" style="fill: none; stroke: #b0b0b0; stroke-opacity: 0.3; stroke-width: 0.8; stroke-linecap: square"/>
     </g>
     <g id="line2d_30">
      <g>
       <use xlink:href="#maf9d2167ce" x="82.671875" y="57.540134" style="stroke: #000000; stroke-width: 0.8"/>
      </g>
     </g>
     <g id="text_16">
      <!-- 18,000 -->
      <g transform="translate(26.685 62.85904) scale(0.14 -0.14)">
       <use xlink:href="#DejaVuSans-31"/>
       <use xlink:href="#DejaVuSans-38" x="63.623047"/>
       <use xlink:href="#DejaVuSans-2c" x="127.246094"/>
       <use xlink:href="#DejaVuSans-30" x="159.033203"/>
       <use xlink:href="#DejaVuSans-30" x="222.65625"/>
       <use xlink:href="#DejaVuSans-30" x="286.279297"/>
      </g>
     </g>
    </g>
    <g id="ytick_7">
     <g id="line2d_31">
      <path d="M 82.671875 26.031518 
L 473.271875 26.031518 
" clip-path="url(#pa02e684f36)" style="fill: none; stroke: #b0b0b0; stroke-opacity: 0.3; stroke-width: 0.8; stroke-linecap: square"/>
     </g>
     <g id="line2d_32">
      <g>
       <use xlink:href="#maf9d2167ce" x="82.671875" y="26.031518" style="stroke: #000000; stroke-width: 0.8"/>
      </g>
     </g>
     <g id="text_17">
      <!-- 20,000 -->
      <g transform="translate(26.685 31.350424) scale(0.14 -0.14)">
       <use xlink:href="#DejaVuSans-32"/>
       <use xlink:href="#DejaVuSans-30" x="63.623047"/>
       <use xlink:href="#DejaVuSans-2c" x="127.246094"/>
       <use xlink:href="#DejaVuSans-30" x="159.033203"/>
       <use xlink:href="#DejaVuSans-30" x="222.65625"/>
       <use xlink:href="#DejaVuSans-30" x="286.279297"/>
      </g>
     </g>
    </g>
    <g id="text_18">
     <!-- Edges -->
     <g transform="translate(19.3575 142.3825) rotate(-90) scale(0.16 -0.16)">
      <defs>
       <path id="DejaVuSans-45" d="M 628 4666 
L 3578 4666 
L 3578 4134 
L 1259 4134 
L 1259 2753 
L 3481 2753 
L 3481 2222 
L 1259 2222 
L 1259 531 
L 3634 531 
L 3634 0 
L 628 0 
L 628 4666 
z
" transform="scale(0.015625)"/>
       <path id="DejaVuSans-64" d="M 2906 2969 
L 2906 4863 
L 3481 4863 
L 3481 0 
L 2906 0 
L 2906 525 
Q 2725 213 2448 61 
Q 2172 -91 1784 -91 
Q 1150 -91 751 415 
Q 353 922 353 1747 
Q 353 2572 751 3078 
Q 1150 3584 1784 3584 
Q 2172 3584 2448 3432 
Q 2725 3281 2906 2969 
z
M 947 1747 
Q 947 1113 1208 752 
Q 1469 391 1925 391 
Q 2381 391 2643 752 
Q 2906 1113 2906 1747 
Q 2906 2381 2643 2742 
Q 2381 3103 1925 3103 
Q 1469 3103 1208 2742 
Q 947 2381 947 1747 
z
" transform="scale(0.015625)"/>
       <path id="DejaVuSans-67" d="M 2906 1791 
Q 2906 2416 2648 2759 
Q 2391 3103 1925 3103 
Q 1463 3103 1205 2759 
Q 947 2416 947 1791 
Q 947 1169 1205 825 
Q 1463 481 1925 481 
Q 2391 481 2648 825 
Q 2906 1169 2906 1791 
z
M 3481 434 
Q 3481 -459 3084 -895 
Q 2688 -1331 1869 -1331 
Q 1566 -1331 1297 -1286 
Q 1028 -1241 775 -1147 
L 775 -588 
Q 1028 -725 1275 -790 
Q 1522 -856 1778 -856 
Q 2344 -856 2625 -561 
Q 2906 -266 2906 331 
L 2906 616 
Q 2728 306 2450 153 
Q 2172 0 1784 0 
Q 1141 0 747 490 
Q 353 981 353 1791 
Q 353 2603 747 3093 
Q 1141 3584 1784 3584 
Q 2172 3584 2450 3431 
Q 2728 3278 2906 2969 
L 2906 3500 
L 3481 3500 
L 3481 434 
z
" transform="scale(0.015625)"/>
       <path id="DejaVuSans-73" d="M 2834 3397 
L 2834 2853 
Q 2591 2978 2328 3040 
Q 2066 3103 1784 3103 
Q 1356 3103 1142 2972 
Q 928 2841 928 2578 
Q 928 2378 1081 2264 
Q 1234 2150 1697 2047 
L 1894 2003 
Q 2506 1872 2764 1633 
Q 3022 1394 3022 966 
Q 3022 478 2636 193 
Q 2250 -91 1575 -91 
Q 1294 -91 989 -36 
Q 684 19 347 128 
L 347 722 
Q 666 556 975 473 
Q 1284 391 1588 391 
Q 1994 391 2212 530 
Q 2431 669 2431 922 
Q 2431 1156 2273 1281 
Q 2116 1406 1581 1522 
L 1381 1569 
Q 847 1681 609 1914 
Q 372 2147 372 2553 
Q 372 3047 722 3315 
Q 1072 3584 1716 3584 
Q 2034 3584 2315 3537 
Q 2597 3491 2834 3397 
z
" transform="scale(0.015625)"/>
      </defs>
      <use xlink:href="#DejaVuSans-45"/>
      <use xlink:href="#DejaVuSans-64" x="63.183594"/>
      <use xlink:href="#DejaVuSans-67" x="126.660156"/>
      <use xlink:href="#DejaVuSans-65" x="190.136719"/>
      <use xlink:href="#DejaVuSans-73" x="251.660156"/>
     </g>
    </g>
   </g>
   <g id="line2d_33">
    <path d="M 100.42642 218.88 
L 101.363336 169.395719 
L 102.300251 163.314556 
L 103.237166 158.57251 
L 105.110997 150.474795 
L 106.047912 149.371994 
L 106.984828 146.83555 
L 107.921743 145.874538 
L 108.858658 144.173072 
L 109.795574 143.684689 
L 110.732489 142.581887 
L 111.669404 140.202987 
L 113.543235 139.824883 
L 114.48015 136.611005 
L 115.417066 136.579496 
L 116.353981 135.57122 
L 117.290896 135.303397 
L 118.227812 134.736242 
L 120.101642 133.145057 
L 121.038558 130.545596 
L 122.912388 125.740532 
L 123.849304 124.732256 
L 124.786219 124.637731 
L 125.723134 122.747214 
L 126.66005 121.534132 
L 127.596965 119.265512 
L 128.53388 117.469521 
L 129.470796 117.107171 
L 130.407711 113.593961 
L 131.344626 110.726677 
L 132.281542 110.726677 
L 134.155372 110.112259 
L 135.092288 103.857799 
L 137.903034 102.896786 
L 140.71378 102.628963 
L 141.650695 102.235105 
L 142.58761 102.061808 
L 143.524526 102.030299 
L 145.398356 101.699458 
L 147.272187 101.66795 
L 150.082933 101.179566 
L 151.019848 99.856204 
L 151.956763 99.525364 
L 152.893679 98.564351 
L 153.830594 98.312282 
L 154.767509 97.114955 
L 155.704425 91.31737 
L 156.64134 90.907758 
L 157.578255 89.930991 
L 158.515171 89.930991 
L 159.452086 89.804956 
L 160.389001 89.48987 
L 161.325917 89.442607 
L 162.262832 88.985732 
L 163.199747 87.835668 
L 164.136663 87.489073 
L 165.073578 85.50403 
L 166.010493 84.81084 
L 170.69507 83.755302 
L 172.568901 83.188147 
L 173.505816 82.967586 
L 175.379647 82.967586 
L 176.316562 81.644225 
L 177.253477 81.486682 
L 178.190393 81.486682 
L 179.127308 81.29763 
L 180.064223 79.407113 
L 181.001139 78.729678 
L 182.874969 78.524872 
L 184.7488 77.957717 
L 185.685715 75.137695 
L 186.622631 71.49845 
L 188.496461 66.945455 
L 189.433377 64.960413 
L 190.370292 63.526771 
L 191.307207 62.676038 
L 192.244123 62.360952 
L 193.181038 61.447202 
L 195.054869 61.321168 
L 195.991784 61.03759 
L 196.928699 60.612224 
L 197.865615 59.651211 
L 199.739445 59.084056 
L 201.613276 58.249077 
L 202.550191 55.350285 
L 203.487106 55.11397 
L 206.297852 55.066707 
L 207.234768 55.066707 
L 208.171683 54.940673 
L 209.108598 54.609832 
L 212.85626 53.963906 
L 213.793175 53.617311 
L 215.667006 53.286471 
L 218.477752 51.474725 
L 219.414667 51.254165 
L 222.225413 51.143885 
L 224.099244 51.033605 
L 225.036159 50.57673 
L 226.90999 50.513712 
L 227.846905 50.261643 
L 228.78382 49.852031 
L 231.594566 49.221859 
L 232.531482 48.812247 
L 233.468397 48.245092 
L 234.405312 48.229338 
L 235.342228 48.071795 
L 236.279143 48.05604 
L 237.216058 47.882743 
L 238.152974 47.882743 
L 239.089889 47.709446 
L 240.026804 47.299834 
L 246.585212 46.968993 
L 251.269788 46.905976 
L 253.143619 46.795696 
L 255.017449 46.748433 
L 255.954365 46.59089 
L 257.828195 46.575135 
L 258.765111 46.070998 
L 264.386603 44.905179 
L 265.323518 44.889424 
L 266.260433 44.558584 
L 269.071179 44.038692 
L 270.94501 43.975675 
L 271.881925 43.786623 
L 276.566502 43.487291 
L 277.503417 43.235222 
L 279.377248 43.156451 
L 285.935655 43.061925 
L 286.872571 41.502248 
L 292.494063 41.029619 
L 296.241724 40.935093 
L 297.178639 40.541235 
L 298.115555 40.541235 
L 299.05247 40.226149 
L 308.421623 39.75352 
L 311.232369 39.154856 
L 322.475353 38.934296 
L 323.412268 37.579426 
L 324.349184 37.232831 
L 328.096845 37.217077 
L 329.03376 37.091042 
L 329.970676 36.775956 
L 331.844506 36.68143 
L 337.465998 36.68143 
L 338.402914 36.539641 
L 340.276744 36.492378 
L 342.150575 36.177292 
L 343.08749 35.909469 
L 345.898236 35.783435 
L 346.835152 35.531366 
L 348.708982 35.358068 
L 349.645898 35.32656 
L 352.456644 34.916948 
L 355.26739 34.586107 
L 356.204305 34.144987 
L 357.14122 33.955935 
L 358.078135 33.955935 
L 359.015051 33.8299 
L 359.951966 33.451797 
L 360.888881 33.38878 
L 361.825797 33.089448 
L 363.699627 32.900396 
L 371.19495 32.900396 
L 373.068781 32.616819 
L 374.005696 31.703069 
L 379.627188 31.592789 
L 381.501019 31.451 
L 396.491664 31.356474 
L 399.30241 31.183177 
L 403.986987 31.088651 
L 404.923902 30.820828 
L 408.671563 30.789319 
L 411.482309 30.75781 
L 412.419224 30.348198 
L 418.977632 30.348198 
L 420.851462 30.174901 
L 436.779023 29.828306 
L 445.211261 29.339923 
L 446.148176 27.2446 
L 448.958922 27.236723 
L 449.895838 31.403737 
L 449.895838 31.403737 
" clip-path="url(#pa02e684f36)" style="fill: none; stroke-dasharray: 3,4.95; stroke-dashoffset: 0; stroke: #ddaa33; stroke-width: 3"/>
   </g>
   <g id="line2d_34">
    <path d="M 100.42642 218.88 
L 101.363336 218.265582 
L 102.300251 216.83194 
L 103.237166 211.506984 
L 104.174082 202.684572 
L 105.110997 202.416748 
L 106.047912 201.881102 
L 107.921743 201.881102 
L 108.858658 201.597524 
L 109.795574 201.566016 
L 110.732489 200.636512 
L 117.290896 200.541986 
L 130.407711 200.053602 
L 132.281542 199.691253 
L 136.966118 199.580973 
L 137.903034 199.549464 
L 138.839949 199.20287 
L 145.398356 199.092589 
L 146.335271 199.045326 
L 147.272187 198.777503 
L 159.452086 198.682977 
L 162.262832 198.61996 
L 163.199747 198.61996 
L 164.136663 198.383646 
L 169.758155 198.304874 
L 172.568901 198.304874 
L 173.505816 197.911016 
L 174.442731 197.784982 
L 180.064223 197.690456 
L 197.865615 197.343861 
L 199.739445 197.343861 
L 200.67636 197.139055 
L 210.045514 197.091792 
L 211.919344 196.965758 
L 219.414667 196.934249 
L 221.288498 196.808215 
L 224.099244 196.79246 
L 225.036159 196.619163 
L 227.846905 196.619163 
L 229.720736 196.398603 
L 258.765111 196.304077 
L 259.702026 194.7444 
L 281.251079 194.492331 
L 296.241724 194.476577 
L 323.412268 194.389928 
L 328.096845 194.30328 
L 330.907591 194.30328 
L 331.844506 194.019702 
L 334.655252 193.877913 
L 356.204305 193.468301 
L 357.14122 193.176847 
L 368.384204 193.129584 
L 369.321119 192.546674 
L 394.617833 192.444271 
L 396.491664 192.326114 
L 412.419224 192.215834 
L 414.293055 192.129185 
L 421.788378 192.113431 
L 423.662208 192.003151 
L 427.40987 192.003151 
L 428.346785 191.798345 
L 430.220616 191.751082 
L 432.094446 191.664433 
L 454.580414 191.585662 
L 455.51733 191.971642 
L 455.51733 191.971642 
" clip-path="url(#pa02e684f36)" style="fill: none; stroke: #994455; stroke-width: 3; stroke-linecap: square"/>
   </g>
   <g id="line2d_35">
    <path d="M 100.42642 218.88 
L 101.363336 164.953004 
L 102.300251 151.593351 
L 104.174082 141.242771 
L 105.110997 133.901264 
L 106.047912 129.946932 
L 106.984828 123.834261 
L 107.921743 118.918917 
L 108.858658 112.93228 
L 109.795574 102.203596 
L 110.732489 98.564351 
L 111.669404 96.264222 
L 112.60632 94.704546 
L 114.48015 84.873858 
L 115.417066 83.062112 
L 116.353981 82.1011 
L 117.290896 80.368126 
L 118.227812 79.391359 
L 120.101642 78.619397 
L 121.038558 76.524075 
L 122.912388 69.292847 
L 123.849304 68.473623 
L 124.786219 67.843451 
L 125.723134 67.008473 
L 126.66005 63.353473 
L 128.53388 62.423969 
L 129.470796 59.619702 
L 130.407711 59.225845 
L 131.344626 56.516104 
L 132.281542 55.69688 
L 133.218457 55.334531 
L 134.155372 54.562569 
L 135.092288 54.20022 
L 136.029203 53.963906 
L 136.966118 53.128927 
L 137.903034 52.640544 
L 138.839949 52.546018 
L 139.776864 52.04188 
L 140.71378 51.679531 
L 141.650695 51.159639 
L 143.524526 51.049359 
L 144.461441 50.560975 
L 146.335271 50.340415 
L 147.272187 50.009574 
L 149.146017 49.757506 
L 150.082933 49.584208 
L 151.956763 49.5527 
L 153.830594 49.127333 
L 154.767509 49.095825 
L 155.704425 48.512915 
L 156.64134 48.323864 
L 157.578255 47.520394 
L 159.452086 47.173799 
L 162.262832 46.968993 
L 163.199747 45.046968 
L 164.136663 44.936687 
L 165.073578 44.479812 
L 166.010493 44.148972 
L 166.947409 44.101709 
L 167.884324 42.888627 
L 168.821239 42.352981 
L 170.69507 42.226946 
L 171.631985 41.927615 
L 176.316562 41.6913 
L 178.190393 40.88783 
L 179.127308 40.683024 
L 182.874969 40.320675 
L 183.811885 40.131623 
L 184.7488 39.658994 
L 185.685715 39.013068 
L 187.559546 38.540438 
L 188.496461 38.461667 
L 189.433377 37.091042 
L 191.307207 36.949253 
L 192.244123 36.807465 
L 193.181038 36.79171 
L 196.928699 35.956732 
L 205.360937 35.641646 
L 207.234768 35.625891 
L 208.171683 35.405331 
L 209.108598 34.649124 
L 210.045514 34.365547 
L 210.982429 34.30253 
L 213.793175 33.451797 
L 214.73009 33.246991 
L 216.603921 33.183974 
L 218.477752 32.947659 
L 221.288498 32.947659 
L 222.225413 32.821625 
L 223.162328 32.821625 
L 224.099244 32.69559 
L 229.720736 32.632573 
L 230.657651 32.569556 
L 231.594566 32.238715 
L 232.531482 32.144189 
L 233.468397 31.907875 
L 247.522127 31.640052 
L 248.459042 31.466754 
L 250.332873 31.372228 
L 252.206703 31.309211 
L 253.143619 30.789319 
L 258.765111 30.458478 
L 260.638941 30.190655 
L 261.575857 30.174901 
L 262.512772 29.655009 
L 263.449687 29.308414 
L 264.386603 29.166625 
L 267.197349 29.119362 
L 269.071179 28.993328 
L 271.881925 28.898802 
L 272.818841 28.583716 
L 274.692671 28.205612 
L 277.503417 27.638457 
L 278.440333 27.606949 
L 279.377248 27.307617 
L 281.251079 27.260354 
L 283.124909 27.055548 
L 285.935655 26.882251 
L 287.809486 26.850742 
L 288.746401 26.047272 
L 298.115555 25.842466 
L 301.863216 25.763695 
L 303.737047 25.63766 
L 320.601522 25.354083 
L 321.538438 24.676648 
L 322.475353 24.519104 
L 325.286099 23.778652 
L 327.15993 23.762898 
L 328.096845 23.495074 
L 329.970676 23.353286 
L 331.844506 23.069708 
L 332.781422 23.0382 
L 334.655252 22.723113 
L 337.465998 22.660096 
L 339.339829 22.581325 
L 340.276744 22.423782 
L 344.024406 22.250484 
L 345.898236 21.966907 
L 351.519728 21.699083 
L 352.456644 20.990139 
L 353.393559 20.895614 
L 355.26739 20.564773 
L 357.14122 20.454493 
L 358.078135 20.438739 
L 359.015051 20.202424 
L 359.951966 20.202424 
L 360.888881 20.044881 
L 368.384204 19.950355 
L 386.185595 19.461972 
L 387.122511 18.926325 
L 388.059426 18.611239 
L 423.662208 18.122855 
L 425.536039 18.122855 
L 427.40987 17.902295 
L 442.400515 17.823524 
L 443.33743 17.28 
L 443.33743 17.28 
" clip-path="url(#pa02e684f36)" style="fill: none; stroke: #ee99aa; stroke-width: 3; stroke-linecap: square"/>
   </g>
   <g id="line2d_36">
    <path d="M 100.42642 218.88 
L 101.363336 217.225798 
L 102.300251 207.72595 
L 103.237166 207.143041 
L 104.174082 205.488838 
L 105.110997 205.236769 
L 106.047912 201.502998 
L 107.921743 200.998861 
L 108.858658 199.817288 
L 109.795574 199.738516 
L 110.732489 199.42343 
L 113.543235 198.84052 
L 114.48015 198.525434 
L 124.786219 198.241857 
L 125.723134 197.989788 
L 126.66005 197.974034 
L 127.596965 197.690456 
L 130.407711 197.580176 
L 131.344626 197.272967 
L 137.903034 197.178441 
L 142.58761 196.855478 
L 146.335271 196.831846 
L 148.209102 196.650672 
L 151.956763 196.619163 
L 152.893679 196.760952 
L 157.578255 196.760952 
L 158.515171 196.540392 
L 166.010493 196.477374 
L 169.758155 196.256814 
L 176.316562 196.225305 
L 177.253477 195.343064 
L 178.190393 195.343064 
L 180.064223 194.949206 
L 185.685715 194.925575 
L 187.559546 194.705015 
L 191.307207 194.610489 
L 197.865615 194.389928 
L 210.045514 194.287525 
L 228.78382 193.578582 
L 236.279143 193.491933 
L 238.152974 193.318636 
L 242.83755 193.11383 
L 246.585212 193.003549 
L 260.638941 192.995672 
L 261.575857 191.861362 
L 289.683317 191.751082 
L 307.484708 191.56203 
L 351.519728 191.45175 
L 352.456644 191.325716 
L 353.393559 191.325716 
L 354.330474 191.136664 
L 355.26739 189.703022 
L 357.14122 189.135867 
L 359.015051 189.07285 
L 365.573458 188.962569 
L 374.005696 188.789272 
L 378.690273 188.694746 
L 381.501019 188.615975 
L 403.986987 188.537203 
L 405.860817 188.442677 
L 453.643499 188.348151 
L 453.643499 188.348151 
" clip-path="url(#pa02e684f36)" style="fill: none; stroke: #004488; stroke-width: 3; stroke-linecap: square"/>
   </g>
   <g id="line2d_37">
    <path d="M 100.42642 218.88 
L 101.363336 164.669427 
L 102.300251 149.419257 
L 103.237166 145.732749 
L 104.174082 138.958396 
L 106.047912 127.394734 
L 106.984828 123.50342 
L 107.921743 121.140274 
L 108.858658 116.996891 
L 109.795574 116.051633 
L 110.732489 115.515986 
L 111.669404 112.948034 
L 112.60632 107.890901 
L 114.48015 103.211872 
L 115.417066 101.967282 
L 116.353981 99.068489 
L 117.290896 96.626571 
L 118.227812 95.492261 
L 119.164727 92.877046 
L 120.101642 91.443404 
L 121.038558 90.671443 
L 121.975473 88.859698 
L 122.912388 88.040474 
L 123.849304 85.582802 
L 124.786219 77.453579 
L 125.723134 77.09123 
L 126.66005 76.0672 
L 127.596965 75.405519 
L 129.470796 72.08136 
L 130.407711 71.529959 
L 131.344626 70.269614 
L 132.281542 68.442115 
L 133.218457 67.134507 
L 134.155372 66.976964 
L 135.092288 66.078968 
L 136.966118 63.353473 
L 137.903034 61.242396 
L 138.839949 57.382591 
L 140.71378 56.689401 
L 141.650695 55.948949 
L 142.58761 55.618108 
L 143.524526 54.294746 
L 145.398356 53.837871 
L 146.335271 53.223453 
L 147.272187 51.238411 
L 148.209102 50.072592 
L 149.146017 49.536945 
L 152.893679 49.426665 
L 154.767509 48.954036 
L 155.704425 48.85951 
L 157.578255 48.024532 
L 158.515171 47.126536 
L 159.452086 46.732678 
L 161.325917 46.638153 
L 162.262832 45.913454 
L 164.136663 45.488088 
L 166.010493 44.590093 
L 167.884324 44.401041 
L 168.821239 43.707851 
L 169.758155 43.566063 
L 170.69507 43.550308 
L 171.631985 43.250976 
L 172.568901 43.235222 
L 173.505816 43.04617 
L 175.379647 42.951645 
L 178.190393 42.71533 
L 179.127308 42.163929 
L 183.811885 41.754317 
L 185.685715 41.013865 
L 186.622631 40.320675 
L 187.559546 40.115869 
L 188.496461 40.052852 
L 190.370292 39.280891 
L 192.244123 39.186365 
L 193.181038 38.824016 
L 195.991784 38.713736 
L 196.928699 38.39865 
L 203.487106 37.81574 
L 206.297852 37.81574 
L 207.234768 37.658197 
L 208.171683 36.382098 
L 211.919344 36.145784 
L 214.73009 35.720417 
L 218.477752 35.562874 
L 223.162328 35.452594 
L 225.036159 35.389577 
L 225.973074 35.105999 
L 227.846905 35.042982 
L 228.78382 34.85393 
L 230.657651 34.727896 
L 231.594566 34.586107 
L 240.026804 34.334038 
L 240.96372 34.192249 
L 247.522127 34.160741 
L 249.395958 34.003198 
L 251.269788 33.782637 
L 252.206703 32.947659 
L 253.143619 32.947659 
L 255.017449 32.679836 
L 255.954365 32.679836 
L 256.89128 32.538047 
L 259.702026 32.459276 
L 260.638941 32.380504 
L 261.575857 32.175698 
L 263.449687 32.081172 
L 264.386603 31.734577 
L 265.323518 31.514017 
L 268.134264 31.419491 
L 270.008095 31.324965 
L 271.881925 31.277702 
L 273.755756 30.852336 
L 274.692671 30.836582 
L 275.629587 30.53725 
L 277.503417 30.332444 
L 279.377248 30.237918 
L 281.251079 29.970095 
L 284.99874 29.781043 
L 286.872571 29.276905 
L 288.746401 29.198134 
L 296.241724 28.898802 
L 299.989385 28.867293 
L 300.926301 28.48919 
L 305.610877 28.26863 
L 306.547792 28.142595 
L 308.421623 28.095332 
L 310.295454 27.953544 
L 320.601522 27.859018 
L 321.538438 27.796 
L 323.412268 27.276108 
L 325.286099 27.228845 
L 326.223014 26.803479 
L 328.096845 26.708953 
L 330.907591 26.299341 
L 331.844506 26.283587 
L 332.781422 26.063027 
L 333.718337 26.031518 
L 334.655252 25.74794 
L 337.465998 25.653415 
L 338.402914 25.4171 
L 342.150575 25.30682 
L 346.835152 25.070505 
L 347.772067 24.739665 
L 349.645898 24.50335 
L 351.519728 24.267036 
L 352.456644 23.951949 
L 358.078135 23.778652 
L 362.762712 23.400549 
L 363.699627 23.25876 
L 367.447289 23.179988 
L 370.258035 23.069708 
L 399.30241 22.502553 
L 403.050071 22.266238 
L 410.545394 22.061432 
L 412.419224 21.762101 
L 421.788378 21.683329 
L 422.725293 21.525786 
L 437.715938 21.43126 
L 439.589769 21.305226 
L 440.526684 21.305226 
L 441.4636 21.163437 
L 442.400515 20.029127 
L 443.33743 19.871584 
L 443.33743 19.871584 
" clip-path="url(#pa02e684f36)" style="fill: none; stroke: #6699cc; stroke-width: 3; stroke-linecap: square"/>
   </g>
   <g id="line2d_38">
    <path d="M 100.42642 218.88 
L 101.363336 184.850695 
L 103.237166 173.791171 
L 104.174082 172.971947 
L 105.110997 170.656064 
L 106.047912 169.332702 
L 107.921743 168.135375 
L 108.858658 166.244858 
L 109.795574 165.74072 
L 110.732489 165.583177 
L 111.669404 165.173565 
L 112.60632 165.031776 
L 113.543235 164.763953 
L 129.470796 164.653672 
L 130.407711 164.637918 
L 131.344626 164.385849 
L 132.281542 163.330311 
L 133.218457 162.967962 
L 147.272187 162.967962 
L 148.209102 162.77891 
L 150.082933 160.872639 
L 151.019848 159.59654 
L 152.893679 157.784794 
L 153.830594 157.532725 
L 154.767509 156.461432 
L 156.64134 155.374385 
L 157.578255 154.633933 
L 158.515171 154.523653 
L 159.452086 154.019515 
L 160.389001 152.065981 
L 161.325917 152.002963 
L 162.262832 151.057705 
L 163.199747 150.852899 
L 164.136663 148.33221 
L 165.073578 147.465723 
L 173.505816 147.465723 
L 174.442731 147.008848 
L 175.379647 147.008848 
L 176.316562 145.685486 
L 177.253477 142.314064 
L 178.190393 141.967469 
L 179.127308 137.981629 
L 181.001139 136.343181 
L 181.938054 136.091112 
L 182.874969 135.224625 
L 183.811885 133.601932 
L 184.7488 132.215553 
L 185.685715 131.270294 
L 186.622631 130.939454 
L 188.496461 129.773635 
L 190.370292 128.623571 
L 191.307207 127.820101 
L 192.244123 127.441997 
L 193.181038 126.087127 
L 195.054869 124.874045 
L 203.487106 124.763765 
L 204.424022 124.464433 
L 212.85626 124.401416 
L 213.793175 119.328529 
L 214.73009 118.666848 
L 219.414667 118.556568 
L 223.162328 118.399025 
L 225.036159 118.27299 
L 225.973074 117.926395 
L 229.720736 117.879133 
L 230.657651 117.548292 
L 232.531482 117.406503 
L 236.279143 117.374995 
L 238.152974 116.051633 
L 239.089889 115.941353 
L 240.026804 115.248163 
L 240.96372 114.744025 
L 241.900635 114.696762 
L 242.83755 113.767258 
L 243.774466 113.515189 
L 245.648296 111.057517 
L 246.585212 110.931483 
L 247.522127 109.182755 
L 249.395958 109.151246 
L 250.332873 108.647108 
L 251.269788 108.647108 
L 252.206703 107.686095 
L 253.143619 107.402518 
L 254.080534 107.386764 
L 255.017449 105.259932 
L 255.954365 105.18116 
L 256.89128 104.818811 
L 257.828195 104.582497 
L 258.765111 103.999587 
L 259.702026 103.82629 
L 260.638941 102.361139 
L 261.575857 101.920019 
L 262.512772 101.337109 
L 266.260433 100.407605 
L 267.197349 100.234308 
L 269.071179 99.572627 
L 270.008095 99.556873 
L 270.94501 99.210278 
L 271.881925 92.861292 
L 272.818841 91.663964 
L 273.755756 91.459158 
L 274.692671 91.443404 
L 275.629587 90.592671 
L 276.566502 88.056228 
L 277.503417 87.693879 
L 278.440333 86.74862 
L 279.377248 86.275991 
L 280.314163 86.260237 
L 281.251079 84.495754 
L 282.187994 84.054634 
L 289.683317 84.023125 
L 290.620232 83.708039 
L 292.494063 82.841552 
L 297.178639 82.573729 
L 298.115555 82.400431 
L 299.05247 82.368923 
L 300.926301 81.423664 
L 301.863216 81.155841 
L 302.800131 81.140087 
L 303.737047 80.903772 
L 304.673962 79.674936 
L 305.610877 79.517393 
L 306.547792 78.965992 
L 311.232369 78.587889 
L 312.169284 78.320066 
L 314.043115 78.209785 
L 315.916946 77.847436 
L 316.853861 77.847436 
L 318.727692 77.658385 
L 319.664607 77.658385 
L 320.601522 77.53235 
L 321.538438 77.53235 
L 322.475353 77.374807 
L 323.412268 77.374807 
L 325.286099 76.50832 
L 326.223014 76.335023 
L 333.718337 76.319269 
L 334.655252 74.476015 
L 335.592168 74.46026 
L 337.465998 73.656791 
L 339.339829 73.168407 
L 341.21366 73.10539 
L 342.150575 72.695778 
L 343.08749 72.617006 
L 344.024406 72.349183 
L 344.961321 71.955325 
L 345.898236 71.923817 
L 346.835152 71.640239 
L 348.708982 71.435433 
L 349.645898 71.151856 
L 357.14122 70.836769 
L 358.078135 70.710735 
L 359.015051 69.00927 
L 359.951966 68.520886 
L 360.888881 67.906468 
L 361.825797 67.717416 
L 362.762712 67.370822 
L 363.699627 66.882438 
L 364.636543 66.614615 
L 365.573458 65.070693 
L 366.510373 63.810348 
L 368.384204 63.006878 
L 370.258035 62.75481 
L 371.19495 62.739055 
L 372.131865 61.652008 
L 373.068781 60.23412 
L 374.005696 59.808754 
L 375.879527 58.705952 
L 377.753357 58.249077 
L 378.690273 57.681922 
L 379.627188 56.972979 
L 384.311765 56.279789 
L 385.24868 55.602354 
L 386.185595 55.492074 
L 387.122511 52.892613 
L 388.059426 52.388475 
L 391.807087 51.837074 
L 394.617833 50.891816 
L 396.491664 49.930803 
L 398.365495 49.536945 
L 399.30241 49.489682 
L 401.176241 49.032807 
L 402.113156 48.418389 
L 405.860817 47.567657 
L 407.734648 47.425868 
L 408.671563 47.394359 
L 409.608479 47.221062 
L 410.545394 46.70117 
L 411.482309 46.338821 
L 412.419224 46.197032 
L 413.35614 45.8977 
L 423.662208 44.98395 
L 424.599124 44.621601 
L 427.40987 44.369532 
L 428.346785 44.117463 
L 430.220616 44.117463 
L 431.157531 43.975675 
L 433.031362 43.95992 
L 433.968277 43.770869 
L 434.905192 43.377011 
L 436.779023 42.951645 
L 445.211261 42.841364 
L 446.148176 43.156451 
L 447.085092 72.553989 
L 448.022007 72.364937 
L 448.022007 72.364937 
" clip-path="url(#pa02e684f36)" style="fill: none; stroke-dasharray: 3,4.95; stroke-dashoffset: 0; stroke: #808080; stroke-width: 3"/>
   </g>
   <g id="patch_3">
    <path d="M 82.671875 228.96 
L 82.671875 7.2 
" style="fill: none; stroke: #000000; stroke-width: 0.8; stroke-linejoin: miter; stroke-linecap: square"/>
   </g>
   <g id="patch_4">
    <path d="M 473.271875 228.96 
L 473.271875 7.2 
" style="fill: none; stroke: #000000; stroke-width: 0.8; stroke-linejoin: miter; stroke-linecap: square"/>
   </g>
   <g id="patch_5">
    <path d="M 82.671875 228.96 
L 473.271875 228.96 
" style="fill: none; stroke: #000000; stroke-width: 0.8; stroke-linejoin: miter; stroke-linecap: square"/>
   </g>
   <g id="patch_6">
    <path d="M 82.671875 7.2 
L 473.271875 7.2 
" style="fill: none; stroke: #000000; stroke-width: 0.8; stroke-linejoin: miter; stroke-linecap: square"/>
   </g>
   <g id="legend_1">
    <g id="patch_7">
     <path d="M 298.871875 143.119063 
L 466.271875 143.119063 
Q 468.271875 143.119063 468.271875 141.119063 
L 468.271875 95.040938 
Q 468.271875 93.040938 466.271875 93.040938 
L 298.871875 93.040938 
Q 296.871875 93.040938 296.871875 95.040938 
L 296.871875 141.119063 
Q 296.871875 143.119063 298.871875 143.119063 
z
" style="fill: #ffffff; opacity: 0.8; stroke: #cccccc; stroke-linejoin: miter"/>
    </g>
    <g id="line2d_39">
     <path d="M 300.871875 101.840938 
L 310.871875 101.840938 
L 320.871875 101.840938 
" style="fill: none; stroke: #994455; stroke-width: 3; stroke-linecap: square"/>
    </g>
    <g id="text_19">
     <!-- $symcts$ -->
     <g transform="translate(328.871875 105.340938) scale(0.1 -0.1)">
      <defs>
       <path id="DejaVuSans-Oblique-73" d="M 3200 3397 
L 3091 2853 
Q 2863 2978 2609 3040 
Q 2356 3103 2088 3103 
Q 1634 3103 1373 2948 
Q 1113 2794 1113 2528 
Q 1113 2219 1719 2053 
Q 1766 2041 1788 2034 
L 1972 1978 
Q 2547 1819 2739 1644 
Q 2931 1469 2931 1166 
Q 2931 609 2489 259 
Q 2047 -91 1331 -91 
Q 1053 -91 747 -37 
Q 441 16 72 128 
L 184 722 
Q 500 559 806 475 
Q 1113 391 1394 391 
Q 1816 391 2080 572 
Q 2344 753 2344 1031 
Q 2344 1331 1650 1516 
L 1591 1531 
L 1394 1581 
Q 956 1697 753 1886 
Q 550 2075 550 2369 
Q 550 2928 970 3256 
Q 1391 3584 2113 3584 
Q 2397 3584 2667 3537 
Q 2938 3491 3200 3397 
z
" transform="scale(0.015625)"/>
       <path id="DejaVuSans-Oblique-79" d="M 1588 -325 
Q 1188 -997 936 -1164 
Q 684 -1331 294 -1331 
L -159 -1331 
L -63 -850 
L 269 -850 
Q 509 -850 678 -719 
Q 847 -588 1056 -206 
L 1234 128 
L 459 3500 
L 1069 3500 
L 1650 819 
L 3256 3500 
L 3859 3500 
L 1588 -325 
z
" transform="scale(0.015625)"/>
       <path id="DejaVuSans-Oblique-6d" d="M 5747 2113 
L 5338 0 
L 4763 0 
L 5166 2094 
Q 5191 2228 5203 2325 
Q 5216 2422 5216 2491 
Q 5216 2772 5059 2928 
Q 4903 3084 4622 3084 
Q 4203 3084 3875 2770 
Q 3547 2456 3450 1953 
L 3066 0 
L 2491 0 
L 2900 2094 
Q 2925 2209 2937 2307 
Q 2950 2406 2950 2484 
Q 2950 2769 2794 2926 
Q 2638 3084 2363 3084 
Q 1938 3084 1609 2770 
Q 1281 2456 1184 1953 
L 800 0 
L 225 0 
L 909 3500 
L 1484 3500 
L 1375 2956 
Q 1609 3263 1923 3423 
Q 2238 3584 2597 3584 
Q 2978 3584 3223 3384 
Q 3469 3184 3519 2828 
Q 3781 3197 4126 3390 
Q 4472 3584 4856 3584 
Q 5306 3584 5551 3325 
Q 5797 3066 5797 2591 
Q 5797 2488 5784 2364 
Q 5772 2241 5747 2113 
z
" transform="scale(0.015625)"/>
       <path id="DejaVuSans-Oblique-63" d="M 3431 3366 
L 3316 2797 
Q 3109 2947 2876 3022 
Q 2644 3097 2394 3097 
Q 2119 3097 1870 3000 
Q 1622 2903 1453 2725 
Q 1184 2453 1037 2087 
Q 891 1722 891 1331 
Q 891 859 1127 628 
Q 1363 397 1844 397 
Q 2081 397 2348 469 
Q 2616 541 2906 684 
L 2797 116 
Q 2547 13 2283 -39 
Q 2019 -91 1741 -91 
Q 1044 -91 669 257 
Q 294 606 294 1253 
Q 294 1797 489 2255 
Q 684 2713 1069 3078 
Q 1331 3328 1684 3456 
Q 2038 3584 2456 3584 
Q 2700 3584 2940 3529 
Q 3181 3475 3431 3366 
z
" transform="scale(0.015625)"/>
       <path id="DejaVuSans-Oblique-74" d="M 2706 3500 
L 2619 3053 
L 1472 3053 
L 1100 1153 
Q 1081 1047 1072 975 
Q 1063 903 1063 863 
Q 1063 663 1183 572 
Q 1303 481 1569 481 
L 2150 481 
L 2053 0 
L 1503 0 
Q 991 0 739 200 
Q 488 400 488 806 
Q 488 878 497 964 
Q 506 1050 525 1153 
L 897 3053 
L 409 3053 
L 500 3500 
L 978 3500 
L 1172 4494 
L 1747 4494 
L 1556 3500 
L 2706 3500 
z
" transform="scale(0.015625)"/>
      </defs>
      <use xlink:href="#DejaVuSans-Oblique-73" transform="translate(0 0.78125)"/>
      <use xlink:href="#DejaVuSans-Oblique-79" transform="translate(52.099609 0.78125)"/>
      <use xlink:href="#DejaVuSans-Oblique-6d" transform="translate(111.279297 0.78125)"/>
      <use xlink:href="#DejaVuSans-Oblique-63" transform="translate(208.691406 0.78125)"/>
      <use xlink:href="#DejaVuSans-Oblique-74" transform="translate(263.671875 0.78125)"/>
      <use xlink:href="#DejaVuSans-Oblique-73" transform="translate(302.880859 0.78125)"/>
     </g>
    </g>
    <g id="line2d_40">
     <path d="M 300.871875 117.240938 
L 310.871875 117.240938 
L 320.871875 117.240938 
" style="fill: none; stroke: #ee99aa; stroke-width: 3; stroke-linecap: square"/>
    </g>
    <g id="text_20">
     <!-- $symcts^{+}$ -->
     <g transform="translate(328.871875 120.740938) scale(0.1 -0.1)">
      <defs>
       <path id="DejaVuSans-2b" d="M 2944 4013 
L 2944 2272 
L 4684 2272 
L 4684 1741 
L 2944 1741 
L 2944 0 
L 2419 0 
L 2419 1741 
L 678 1741 
L 678 2272 
L 2419 2272 
L 2419 4013 
L 2944 4013 
z
" transform="scale(0.015625)"/>
      </defs>
      <use xlink:href="#DejaVuSans-Oblique-73" transform="translate(0 0.826562)"/>
      <use xlink:href="#DejaVuSans-Oblique-79" transform="translate(52.099609 0.826562)"/>
      <use xlink:href="#DejaVuSans-Oblique-6d" transform="translate(111.279297 0.826562)"/>
      <use xlink:href="#DejaVuSans-Oblique-63" transform="translate(208.691406 0.826562)"/>
      <use xlink:href="#DejaVuSans-Oblique-74" transform="translate(263.671875 0.826562)"/>
      <use xlink:href="#DejaVuSans-Oblique-73" transform="translate(302.880859 0.826562)"/>
      <use xlink:href="#DejaVuSans-2b" transform="translate(359.630365 39.107812) scale(0.7)"/>
     </g>
    </g>
    <g id="line2d_41">
     <path d="M 300.871875 131.939375 
L 310.871875 131.939375 
L 320.871875 131.939375 
" style="fill: none; stroke: #004488; stroke-width: 3; stroke-linecap: square"/>
    </g>
    <g id="text_21">
     <!-- $symcts_{Q}$ -->
     <g transform="translate(328.871875 135.439375) scale(0.1 -0.1)">
      <defs>
       <path id="DejaVuSans-Oblique-51" d="M 2309 -84 
Q 2275 -88 2237 -89 
Q 2200 -91 2125 -91 
Q 1250 -91 756 411 
Q 263 913 263 1797 
Q 263 2319 452 2844 
Q 641 3369 978 3788 
Q 1369 4269 1858 4509 
Q 2347 4750 2938 4750 
Q 3794 4750 4287 4245 
Q 4781 3741 4781 2869 
Q 4781 1928 4265 1147 
Q 3750 366 2919 44 
L 3553 -825 
L 2847 -825 
L 2309 -84 
z
M 2919 4238 
Q 2400 4238 2003 3986 
Q 1606 3734 1313 3219 
Q 1125 2891 1026 2522 
Q 928 2153 928 1778 
Q 928 1128 1239 775 
Q 1550 422 2119 422 
Q 2631 422 3032 676 
Q 3434 931 3719 1434 
Q 3909 1772 4009 2142 
Q 4109 2513 4109 2881 
Q 4109 3528 3796 3883 
Q 3484 4238 2919 4238 
z
" transform="scale(0.015625)"/>
      </defs>
      <use xlink:href="#DejaVuSans-Oblique-73" transform="translate(0 0.78125)"/>
      <use xlink:href="#DejaVuSans-Oblique-79" transform="translate(52.099609 0.78125)"/>
      <use xlink:href="#DejaVuSans-Oblique-6d" transform="translate(111.279297 0.78125)"/>
      <use xlink:href="#DejaVuSans-Oblique-63" transform="translate(208.691406 0.78125)"/>
      <use xlink:href="#DejaVuSans-Oblique-74" transform="translate(263.671875 0.78125)"/>
      <use xlink:href="#DejaVuSans-Oblique-73" transform="translate(302.880859 0.78125)"/>
      <use xlink:href="#DejaVuSans-Oblique-51" transform="translate(354.980469 -15.625) scale(0.7)"/>
     </g>
    </g>
    <g id="line2d_42">
     <path d="M 391.071875 101.840938 
L 401.071875 101.840938 
L 411.071875 101.840938 
" style="fill: none; stroke: #6699cc; stroke-width: 3; stroke-linecap: square"/>
    </g>
    <g id="text_22">
     <!-- $symcts_{Q}^{+}$ -->
     <g transform="translate(419.071875 105.340938) scale(0.1 -0.1)">
      <use xlink:href="#DejaVuSans-Oblique-73" transform="translate(0 0.826562)"/>
      <use xlink:href="#DejaVuSans-Oblique-79" transform="translate(52.099609 0.826562)"/>
      <use xlink:href="#DejaVuSans-Oblique-6d" transform="translate(111.279297 0.826562)"/>
      <use xlink:href="#DejaVuSans-Oblique-63" transform="translate(208.691406 0.826562)"/>
      <use xlink:href="#DejaVuSans-Oblique-74" transform="translate(263.671875 0.826562)"/>
      <use xlink:href="#DejaVuSans-Oblique-73" transform="translate(302.880859 0.826562)"/>
      <use xlink:href="#DejaVuSans-2b" transform="translate(359.630365 39.107813) scale(0.7)"/>
      <use xlink:href="#DejaVuSans-Oblique-51" transform="translate(354.980469 -26.517188) scale(0.7)"/>
     </g>
    </g>
    <g id="line2d_43">
     <path d="M 391.071875 118.139375 
L 401.071875 118.139375 
L 411.071875 118.139375 
" style="fill: none; stroke-dasharray: 3,4.95; stroke-dashoffset: 0; stroke: #ddaa33; stroke-width: 3"/>
    </g>
    <g id="text_23">
     <!-- $afl$++ -->
     <g transform="translate(419.071875 121.639375) scale(0.1 -0.1)">
      <defs>
       <path id="DejaVuSans-Oblique-61" d="M 3438 1997 
L 3047 0 
L 2472 0 
L 2578 531 
Q 2325 219 2001 64 
Q 1678 -91 1281 -91 
Q 834 -91 548 182 
Q 263 456 263 884 
Q 263 1497 752 1853 
Q 1241 2209 2100 2209 
L 2900 2209 
L 2931 2363 
Q 2938 2388 2941 2417 
Q 2944 2447 2944 2509 
Q 2944 2788 2717 2942 
Q 2491 3097 2081 3097 
Q 1800 3097 1504 3025 
Q 1209 2953 897 2809 
L 997 3341 
Q 1322 3463 1633 3523 
Q 1944 3584 2234 3584 
Q 2853 3584 3176 3315 
Q 3500 3047 3500 2534 
Q 3500 2431 3484 2292 
Q 3469 2153 3438 1997 
z
M 2816 1759 
L 2241 1759 
Q 1534 1759 1195 1570 
Q 856 1381 856 984 
Q 856 709 1029 553 
Q 1203 397 1509 397 
Q 1978 397 2328 733 
Q 2678 1069 2791 1631 
L 2816 1759 
z
" transform="scale(0.015625)"/>
       <path id="DejaVuSans-Oblique-66" d="M 3059 4863 
L 2969 4384 
L 2419 4384 
Q 2106 4384 1964 4261 
Q 1822 4138 1753 3809 
L 1691 3500 
L 2638 3500 
L 2553 3053 
L 1606 3053 
L 1013 0 
L 434 0 
L 1031 3053 
L 481 3053 
L 563 3500 
L 1113 3500 
L 1159 3744 
Q 1278 4363 1576 4613 
Q 1875 4863 2516 4863 
L 3059 4863 
z
" transform="scale(0.015625)"/>
       <path id="DejaVuSans-Oblique-6c" d="M 1172 4863 
L 1747 4863 
L 800 0 
L 225 0 
L 1172 4863 
z
" transform="scale(0.015625)"/>
      </defs>
      <use xlink:href="#DejaVuSans-Oblique-61" transform="translate(0 0.015625)"/>
      <use xlink:href="#DejaVuSans-Oblique-66" transform="translate(61.279297 0.015625)"/>
      <use xlink:href="#DejaVuSans-Oblique-6c" transform="translate(96.484375 0.015625)"/>
      <use xlink:href="#DejaVuSans-2b" transform="translate(124.267578 0.015625)"/>
      <use xlink:href="#DejaVuSans-2b" transform="translate(208.056641 0.015625)"/>
     </g>
    </g>
    <g id="line2d_44">
     <path d="M 391.071875 133.519063 
L 401.071875 133.519063 
L 411.071875 133.519063 
" style="fill: none; stroke-dasharray: 3,4.95; stroke-dashoffset: 0; stroke: #808080; stroke-width: 3"/>
    </g>
    <g id="text_24">
     <!-- $symsan^{+}$ -->
     <g transform="translate(419.071875 137.019063) scale(0.1 -0.1)">
      <defs>
       <path id="DejaVuSans-Oblique-6e" d="M 3566 2113 
L 3156 0 
L 2578 0 
L 2988 2091 
Q 3016 2238 3031 2350 
Q 3047 2463 3047 2528 
Q 3047 2791 2881 2937 
Q 2716 3084 2419 3084 
Q 1956 3084 1622 2776 
Q 1288 2469 1184 1941 
L 800 0 
L 225 0 
L 903 3500 
L 1478 3500 
L 1363 2950 
Q 1603 3253 1940 3418 
Q 2278 3584 2650 3584 
Q 3113 3584 3367 3334 
Q 3622 3084 3622 2631 
Q 3622 2519 3608 2391 
Q 3594 2263 3566 2113 
z
" transform="scale(0.015625)"/>
      </defs>
      <use xlink:href="#DejaVuSans-Oblique-73" transform="translate(0 0.826562)"/>
      <use xlink:href="#DejaVuSans-Oblique-79" transform="translate(52.099609 0.826562)"/>
      <use xlink:href="#DejaVuSans-Oblique-6d" transform="translate(111.279297 0.826562)"/>
      <use xlink:href="#DejaVuSans-Oblique-73" transform="translate(208.691406 0.826562)"/>
      <use xlink:href="#DejaVuSans-Oblique-61" transform="translate(260.791016 0.826562)"/>
      <use xlink:href="#DejaVuSans-Oblique-6e" transform="translate(322.070312 0.826562)"/>
      <use xlink:href="#DejaVuSans-2b" transform="translate(390.099115 39.107812) scale(0.7)"/>
     </g>
    </g>
   </g>
  </g>
 </g>
 <defs>
  <clipPath id="pa02e684f36">
   <rect x="82.671875" y="7.2" width="390.6" height="221.76"/>
  </clipPath>
 </defs>
</svg>
