<?xml version="1.0" encoding="utf-8" standalone="no"?>
<!DOCTYPE svg PUBLIC "-//W3C//DTD SVG 1.1//EN"
  "http://www.w3.org/Graphics/SVG/1.1/DTD/svg11.dtd">
<svg xmlns:xlink="http://www.w3.org/1999/xlink" width="471.564375pt" height="276.194375pt" viewBox="0 0 471.564375 276.194375" xmlns="http://www.w3.org/2000/svg" version="1.1">
 <metadata>
  <rdf:RDF xmlns:dc="http://purl.org/dc/elements/1.1/" xmlns:cc="http://creativecommons.org/ns#" xmlns:rdf="http://www.w3.org/1999/02/22-rdf-syntax-ns#">
   <cc:Work>
    <dc:type rdf:resource="http://purl.org/dc/dcmitype/StillImage"/>
    <dc:date>2024-01-24T08:02:42.883954</dc:date>
    <dc:format>image/svg+xml</dc:format>
    <dc:creator>
     <cc:Agent>
      <dc:title>Matplotlib v3.6.3, https://matplotlib.org/</dc:title>
     </cc:Agent>
    </dc:creator>
   </cc:Work>
  </rdf:RDF>
 </metadata>
 <defs>
  <style type="text/css">*{stroke-linejoin: round; stroke-linecap: butt}</style>
 </defs>
 <g id="figure_1">
  <g id="patch_1">
   <path d="M 0 276.194375 
L 471.564375 276.194375 
L 471.564375 0 
L 0 0 
z
" style="fill: #ffffff"/>
  </g>
  <g id="axes_1">
   <g id="patch_2">
    <path d="M 73.764375 228.96 
L 464.364375 228.96 
L 464.364375 7.2 
L 73.764375 7.2 
z
" style="fill: #ffffff"/>
   </g>
   <g id="matplotlib.axis_1">
    <g id="xtick_1">
     <g id="line2d_1">
      <path d="M 91.51892 228.96 
L 91.51892 7.2 
" clip-path="url(#p9f778a4963)" style="fill: none; stroke: #b0b0b0; stroke-opacity: 0.3; stroke-width: 0.8; stroke-linecap: square"/>
     </g>
     <g id="line2d_2">
      <defs>
       <path id="ma7016dbc44" d="M 0 0 
L 0 3.5 
" style="stroke: #000000; stroke-width: 0.8"/>
      </defs>
      <g>
       <use xlink:href="#ma7016dbc44" x="91.51892" y="228.96" style="stroke: #000000; stroke-width: 0.8"/>
      </g>
     </g>
     <g id="text_1">
      <!-- 0h -->
      <g transform="translate(82.62892 246.597812) scale(0.14 -0.14)">
       <defs>
        <path id="DejaVuSans-30" d="M 2034 4250 
Q 1547 4250 1301 3770 
Q 1056 3291 1056 2328 
Q 1056 1369 1301 889 
Q 1547 409 2034 409 
Q 2525 409 2770 889 
Q 3016 1369 3016 2328 
Q 3016 3291 2770 3770 
Q 2525 4250 2034 4250 
z
M 2034 4750 
Q 2819 4750 3233 4129 
Q 3647 3509 3647 2328 
Q 3647 1150 3233 529 
Q 2819 -91 2034 -91 
Q 1250 -91 836 529 
Q 422 1150 422 2328 
Q 422 3509 836 4129 
Q 1250 4750 2034 4750 
z
" transform="scale(0.015625)"/>
        <path id="DejaVuSans-68" d="M 3513 2113 
L 3513 0 
L 2938 0 
L 2938 2094 
Q 2938 2591 2744 2837 
Q 2550 3084 2163 3084 
Q 1697 3084 1428 2787 
Q 1159 2491 1159 1978 
L 1159 0 
L 581 0 
L 581 4863 
L 1159 4863 
L 1159 2956 
Q 1366 3272 1645 3428 
Q 1925 3584 2291 3584 
Q 2894 3584 3203 3211 
Q 3513 2838 3513 2113 
z
" transform="scale(0.015625)"/>
       </defs>
       <use xlink:href="#DejaVuSans-30"/>
       <use xlink:href="#DejaVuSans-68" x="63.623047"/>
      </g>
     </g>
    </g>
    <g id="xtick_2">
     <g id="line2d_3">
      <path d="M 180.291648 228.96 
L 180.291648 7.2 
" clip-path="url(#p9f778a4963)" style="fill: none; stroke: #b0b0b0; stroke-opacity: 0.3; stroke-width: 0.8; stroke-linecap: square"/>
     </g>
     <g id="line2d_4">
      <g>
       <use xlink:href="#ma7016dbc44" x="180.291648" y="228.96" style="stroke: #000000; stroke-width: 0.8"/>
      </g>
     </g>
     <g id="text_2">
      <!-- 12h -->
      <g transform="translate(166.947898 246.597812) scale(0.14 -0.14)">
       <defs>
        <path id="DejaVuSans-31" d="M 794 531 
L 1825 531 
L 1825 4091 
L 703 3866 
L 703 4441 
L 1819 4666 
L 2450 4666 
L 2450 531 
L 3481 531 
L 3481 0 
L 794 0 
L 794 531 
z
" transform="scale(0.015625)"/>
        <path id="DejaVuSans-32" d="M 1228 531 
L 3431 531 
L 3431 0 
L 469 0 
L 469 531 
Q 828 903 1448 1529 
Q 2069 2156 2228 2338 
Q 2531 2678 2651 2914 
Q 2772 3150 2772 3378 
Q 2772 3750 2511 3984 
Q 2250 4219 1831 4219 
Q 1534 4219 1204 4116 
Q 875 4013 500 3803 
L 500 4441 
Q 881 4594 1212 4672 
Q 1544 4750 1819 4750 
Q 2544 4750 2975 4387 
Q 3406 4025 3406 3419 
Q 3406 3131 3298 2873 
Q 3191 2616 2906 2266 
Q 2828 2175 2409 1742 
Q 1991 1309 1228 531 
z
" transform="scale(0.015625)"/>
       </defs>
       <use xlink:href="#DejaVuSans-31"/>
       <use xlink:href="#DejaVuSans-32" x="63.623047"/>
       <use xlink:href="#DejaVuSans-68" x="127.246094"/>
      </g>
     </g>
    </g>
    <g id="xtick_3">
     <g id="line2d_5">
      <path d="M 269.064375 228.96 
L 269.064375 7.2 
" clip-path="url(#p9f778a4963)" style="fill: none; stroke: #b0b0b0; stroke-opacity: 0.3; stroke-width: 0.8; stroke-linecap: square"/>
     </g>
     <g id="line2d_6">
      <g>
       <use xlink:href="#ma7016dbc44" x="269.064375" y="228.96" style="stroke: #000000; stroke-width: 0.8"/>
      </g>
     </g>
     <g id="text_3">
      <!-- 24h -->
      <g transform="translate(255.720625 246.597812) scale(0.14 -0.14)">
       <defs>
        <path id="DejaVuSans-34" d="M 2419 4116 
L 825 1625 
L 2419 1625 
L 2419 4116 
z
M 2253 4666 
L 3047 4666 
L 3047 1625 
L 3713 1625 
L 3713 1100 
L 3047 1100 
L 3047 0 
L 2419 0 
L 2419 1100 
L 313 1100 
L 313 1709 
L 2253 4666 
z
" transform="scale(0.015625)"/>
       </defs>
       <use xlink:href="#DejaVuSans-32"/>
       <use xlink:href="#DejaVuSans-34" x="63.623047"/>
       <use xlink:href="#DejaVuSans-68" x="127.246094"/>
      </g>
     </g>
    </g>
    <g id="xtick_4">
     <g id="line2d_7">
      <path d="M 357.837102 228.96 
L 357.837102 7.2 
" clip-path="url(#p9f778a4963)" style="fill: none; stroke: #b0b0b0; stroke-opacity: 0.3; stroke-width: 0.8; stroke-linecap: square"/>
     </g>
     <g id="line2d_8">
      <g>
       <use xlink:href="#ma7016dbc44" x="357.837102" y="228.96" style="stroke: #000000; stroke-width: 0.8"/>
      </g>
     </g>
     <g id="text_4">
      <!-- 36h -->
      <g transform="translate(344.493352 246.597812) scale(0.14 -0.14)">
       <defs>
        <path id="DejaVuSans-33" d="M 2597 2516 
Q 3050 2419 3304 2112 
Q 3559 1806 3559 1356 
Q 3559 666 3084 287 
Q 2609 -91 1734 -91 
Q 1441 -91 1130 -33 
Q 819 25 488 141 
L 488 750 
Q 750 597 1062 519 
Q 1375 441 1716 441 
Q 2309 441 2620 675 
Q 2931 909 2931 1356 
Q 2931 1769 2642 2001 
Q 2353 2234 1838 2234 
L 1294 2234 
L 1294 2753 
L 1863 2753 
Q 2328 2753 2575 2939 
Q 2822 3125 2822 3475 
Q 2822 3834 2567 4026 
Q 2313 4219 1838 4219 
Q 1578 4219 1281 4162 
Q 984 4106 628 3988 
L 628 4550 
Q 988 4650 1302 4700 
Q 1616 4750 1894 4750 
Q 2613 4750 3031 4423 
Q 3450 4097 3450 3541 
Q 3450 3153 3228 2886 
Q 3006 2619 2597 2516 
z
" transform="scale(0.015625)"/>
        <path id="DejaVuSans-36" d="M 2113 2584 
Q 1688 2584 1439 2293 
Q 1191 2003 1191 1497 
Q 1191 994 1439 701 
Q 1688 409 2113 409 
Q 2538 409 2786 701 
Q 3034 994 3034 1497 
Q 3034 2003 2786 2293 
Q 2538 2584 2113 2584 
z
M 3366 4563 
L 3366 3988 
Q 3128 4100 2886 4159 
Q 2644 4219 2406 4219 
Q 1781 4219 1451 3797 
Q 1122 3375 1075 2522 
Q 1259 2794 1537 2939 
Q 1816 3084 2150 3084 
Q 2853 3084 3261 2657 
Q 3669 2231 3669 1497 
Q 3669 778 3244 343 
Q 2819 -91 2113 -91 
Q 1303 -91 875 529 
Q 447 1150 447 2328 
Q 447 3434 972 4092 
Q 1497 4750 2381 4750 
Q 2619 4750 2861 4703 
Q 3103 4656 3366 4563 
z
" transform="scale(0.015625)"/>
       </defs>
       <use xlink:href="#DejaVuSans-33"/>
       <use xlink:href="#DejaVuSans-36" x="63.623047"/>
       <use xlink:href="#DejaVuSans-68" x="127.246094"/>
      </g>
     </g>
    </g>
    <g id="xtick_5">
     <g id="line2d_9">
      <path d="M 446.60983 228.96 
L 446.60983 7.2 
" clip-path="url(#p9f778a4963)" style="fill: none; stroke: #b0b0b0; stroke-opacity: 0.3; stroke-width: 0.8; stroke-linecap: square"/>
     </g>
     <g id="line2d_10">
      <g>
       <use xlink:href="#ma7016dbc44" x="446.60983" y="228.96" style="stroke: #000000; stroke-width: 0.8"/>
      </g>
     </g>
     <g id="text_5">
      <!-- 48h -->
      <g transform="translate(433.26608 246.597812) scale(0.14 -0.14)">
       <defs>
        <path id="DejaVuSans-38" d="M 2034 2216 
Q 1584 2216 1326 1975 
Q 1069 1734 1069 1313 
Q 1069 891 1326 650 
Q 1584 409 2034 409 
Q 2484 409 2743 651 
Q 3003 894 3003 1313 
Q 3003 1734 2745 1975 
Q 2488 2216 2034 2216 
z
M 1403 2484 
Q 997 2584 770 2862 
Q 544 3141 544 3541 
Q 544 4100 942 4425 
Q 1341 4750 2034 4750 
Q 2731 4750 3128 4425 
Q 3525 4100 3525 3541 
Q 3525 3141 3298 2862 
Q 3072 2584 2669 2484 
Q 3125 2378 3379 2068 
Q 3634 1759 3634 1313 
Q 3634 634 3220 271 
Q 2806 -91 2034 -91 
Q 1263 -91 848 271 
Q 434 634 434 1313 
Q 434 1759 690 2068 
Q 947 2378 1403 2484 
z
M 1172 3481 
Q 1172 3119 1398 2916 
Q 1625 2713 2034 2713 
Q 2441 2713 2670 2916 
Q 2900 3119 2900 3481 
Q 2900 3844 2670 4047 
Q 2441 4250 2034 4250 
Q 1625 4250 1398 4047 
Q 1172 3844 1172 3481 
z
" transform="scale(0.015625)"/>
       </defs>
       <use xlink:href="#DejaVuSans-34"/>
       <use xlink:href="#DejaVuSans-38" x="63.623047"/>
       <use xlink:href="#DejaVuSans-68" x="127.246094"/>
      </g>
     </g>
    </g>
    <g id="text_6">
     <!-- Time -->
     <g transform="translate(249.490625 265.666875) scale(0.16 -0.16)">
      <defs>
       <path id="DejaVuSans-54" d="M -19 4666 
L 3928 4666 
L 3928 4134 
L 2272 4134 
L 2272 0 
L 1638 0 
L 1638 4134 
L -19 4134 
L -19 4666 
z
" transform="scale(0.015625)"/>
       <path id="DejaVuSans-69" d="M 603 3500 
L 1178 3500 
L 1178 0 
L 603 0 
L 603 3500 
z
M 603 4863 
L 1178 4863 
L 1178 4134 
L 603 4134 
L 603 4863 
z
" transform="scale(0.015625)"/>
       <path id="DejaVuSans-6d" d="M 3328 2828 
Q 3544 3216 3844 3400 
Q 4144 3584 4550 3584 
Q 5097 3584 5394 3201 
Q 5691 2819 5691 2113 
L 5691 0 
L 5113 0 
L 5113 2094 
Q 5113 2597 4934 2840 
Q 4756 3084 4391 3084 
Q 3944 3084 3684 2787 
Q 3425 2491 3425 1978 
L 3425 0 
L 2847 0 
L 2847 2094 
Q 2847 2600 2669 2842 
Q 2491 3084 2119 3084 
Q 1678 3084 1418 2786 
Q 1159 2488 1159 1978 
L 1159 0 
L 581 0 
L 581 3500 
L 1159 3500 
L 1159 2956 
Q 1356 3278 1631 3431 
Q 1906 3584 2284 3584 
Q 2666 3584 2933 3390 
Q 3200 3197 3328 2828 
z
" transform="scale(0.015625)"/>
       <path id="DejaVuSans-65" d="M 3597 1894 
L 3597 1613 
L 953 1613 
Q 991 1019 1311 708 
Q 1631 397 2203 397 
Q 2534 397 2845 478 
Q 3156 559 3463 722 
L 3463 178 
Q 3153 47 2828 -22 
Q 2503 -91 2169 -91 
Q 1331 -91 842 396 
Q 353 884 353 1716 
Q 353 2575 817 3079 
Q 1281 3584 2069 3584 
Q 2775 3584 3186 3129 
Q 3597 2675 3597 1894 
z
M 3022 2063 
Q 3016 2534 2758 2815 
Q 2500 3097 2075 3097 
Q 1594 3097 1305 2825 
Q 1016 2553 972 2059 
L 3022 2063 
z
" transform="scale(0.015625)"/>
      </defs>
      <use xlink:href="#DejaVuSans-54"/>
      <use xlink:href="#DejaVuSans-69" x="57.958984"/>
      <use xlink:href="#DejaVuSans-6d" x="85.742188"/>
      <use xlink:href="#DejaVuSans-65" x="183.154297"/>
     </g>
    </g>
   </g>
   <g id="matplotlib.axis_2">
    <g id="ytick_1">
     <g id="line2d_11">
      <path d="M 73.764375 227.605067 
L 464.364375 227.605067 
" clip-path="url(#p9f778a4963)" style="fill: none; stroke: #b0b0b0; stroke-opacity: 0.3; stroke-width: 0.8; stroke-linecap: square"/>
     </g>
     <g id="line2d_12">
      <defs>
       <path id="mb69d804f7c" d="M 0 0 
L -3.5 0 
" style="stroke: #000000; stroke-width: 0.8"/>
      </defs>
      <g>
       <use xlink:href="#mb69d804f7c" x="73.764375" y="227.605067" style="stroke: #000000; stroke-width: 0.8"/>
      </g>
     </g>
     <g id="text_7">
      <!-- 0 -->
      <g transform="translate(57.856875 232.923973) scale(0.14 -0.14)">
       <use xlink:href="#DejaVuSans-30"/>
      </g>
     </g>
    </g>
    <g id="ytick_2">
     <g id="line2d_13">
      <path d="M 73.764375 195.761756 
L 464.364375 195.761756 
" clip-path="url(#p9f778a4963)" style="fill: none; stroke: #b0b0b0; stroke-opacity: 0.3; stroke-width: 0.8; stroke-linecap: square"/>
     </g>
     <g id="line2d_14">
      <g>
       <use xlink:href="#mb69d804f7c" x="73.764375" y="195.761756" style="stroke: #000000; stroke-width: 0.8"/>
      </g>
     </g>
     <g id="text_8">
      <!-- 1,000 -->
      <g transform="translate(26.685 201.080663) scale(0.14 -0.14)">
       <defs>
        <path id="DejaVuSans-2c" d="M 750 794 
L 1409 794 
L 1409 256 
L 897 -744 
L 494 -744 
L 750 256 
L 750 794 
z
" transform="scale(0.015625)"/>
       </defs>
       <use xlink:href="#DejaVuSans-31"/>
       <use xlink:href="#DejaVuSans-2c" x="63.623047"/>
       <use xlink:href="#DejaVuSans-30" x="95.410156"/>
       <use xlink:href="#DejaVuSans-30" x="159.033203"/>
       <use xlink:href="#DejaVuSans-30" x="222.65625"/>
      </g>
     </g>
    </g>
    <g id="ytick_3">
     <g id="line2d_15">
      <path d="M 73.764375 163.918446 
L 464.364375 163.918446 
" clip-path="url(#p9f778a4963)" style="fill: none; stroke: #b0b0b0; stroke-opacity: 0.3; stroke-width: 0.8; stroke-linecap: square"/>
     </g>
     <g id="line2d_16">
      <g>
       <use xlink:href="#mb69d804f7c" x="73.764375" y="163.918446" style="stroke: #000000; stroke-width: 0.8"/>
      </g>
     </g>
     <g id="text_9">
      <!-- 2,000 -->
      <g transform="translate(26.685 169.237352) scale(0.14 -0.14)">
       <use xlink:href="#DejaVuSans-32"/>
       <use xlink:href="#DejaVuSans-2c" x="63.623047"/>
       <use xlink:href="#DejaVuSans-30" x="95.410156"/>
       <use xlink:href="#DejaVuSans-30" x="159.033203"/>
       <use xlink:href="#DejaVuSans-30" x="222.65625"/>
      </g>
     </g>
    </g>
    <g id="ytick_4">
     <g id="line2d_17">
      <path d="M 73.764375 132.075135 
L 464.364375 132.075135 
" clip-path="url(#p9f778a4963)" style="fill: none; stroke: #b0b0b0; stroke-opacity: 0.3; stroke-width: 0.8; stroke-linecap: square"/>
     </g>
     <g id="line2d_18">
      <g>
       <use xlink:href="#mb69d804f7c" x="73.764375" y="132.075135" style="stroke: #000000; stroke-width: 0.8"/>
      </g>
     </g>
     <g id="text_10">
      <!-- 3,000 -->
      <g transform="translate(26.685 137.394041) scale(0.14 -0.14)">
       <use xlink:href="#DejaVuSans-33"/>
       <use xlink:href="#DejaVuSans-2c" x="63.623047"/>
       <use xlink:href="#DejaVuSans-30" x="95.410156"/>
       <use xlink:href="#DejaVuSans-30" x="159.033203"/>
       <use xlink:href="#DejaVuSans-30" x="222.65625"/>
      </g>
     </g>
    </g>
    <g id="ytick_5">
     <g id="line2d_19">
      <path d="M 73.764375 100.231824 
L 464.364375 100.231824 
" clip-path="url(#p9f778a4963)" style="fill: none; stroke: #b0b0b0; stroke-opacity: 0.3; stroke-width: 0.8; stroke-linecap: square"/>
     </g>
     <g id="line2d_20">
      <g>
       <use xlink:href="#mb69d804f7c" x="73.764375" y="100.231824" style="stroke: #000000; stroke-width: 0.8"/>
      </g>
     </g>
     <g id="text_11">
      <!-- 4,000 -->
      <g transform="translate(26.685 105.550731) scale(0.14 -0.14)">
       <use xlink:href="#DejaVuSans-34"/>
       <use xlink:href="#DejaVuSans-2c" x="63.623047"/>
       <use xlink:href="#DejaVuSans-30" x="95.410156"/>
       <use xlink:href="#DejaVuSans-30" x="159.033203"/>
       <use xlink:href="#DejaVuSans-30" x="222.65625"/>
      </g>
     </g>
    </g>
    <g id="ytick_6">
     <g id="line2d_21">
      <path d="M 73.764375 68.388514 
L 464.364375 68.388514 
" clip-path="url(#p9f778a4963)" style="fill: none; stroke: #b0b0b0; stroke-opacity: 0.3; stroke-width: 0.8; stroke-linecap: square"/>
     </g>
     <g id="line2d_22">
      <g>
       <use xlink:href="#mb69d804f7c" x="73.764375" y="68.388514" style="stroke: #000000; stroke-width: 0.8"/>
      </g>
     </g>
     <g id="text_12">
      <!-- 5,000 -->
      <g transform="translate(26.685 73.70742) scale(0.14 -0.14)">
       <defs>
        <path id="DejaVuSans-35" d="M 691 4666 
L 3169 4666 
L 3169 4134 
L 1269 4134 
L 1269 2991 
Q 1406 3038 1543 3061 
Q 1681 3084 1819 3084 
Q 2600 3084 3056 2656 
Q 3513 2228 3513 1497 
Q 3513 744 3044 326 
Q 2575 -91 1722 -91 
Q 1428 -91 1123 -41 
Q 819 9 494 109 
L 494 744 
Q 775 591 1075 516 
Q 1375 441 1709 441 
Q 2250 441 2565 725 
Q 2881 1009 2881 1497 
Q 2881 1984 2565 2268 
Q 2250 2553 1709 2553 
Q 1456 2553 1204 2497 
Q 953 2441 691 2322 
L 691 4666 
z
" transform="scale(0.015625)"/>
       </defs>
       <use xlink:href="#DejaVuSans-35"/>
       <use xlink:href="#DejaVuSans-2c" x="63.623047"/>
       <use xlink:href="#DejaVuSans-30" x="95.410156"/>
       <use xlink:href="#DejaVuSans-30" x="159.033203"/>
       <use xlink:href="#DejaVuSans-30" x="222.65625"/>
      </g>
     </g>
    </g>
    <g id="ytick_7">
     <g id="line2d_23">
      <path d="M 73.764375 36.545203 
L 464.364375 36.545203 
" clip-path="url(#p9f778a4963)" style="fill: none; stroke: #b0b0b0; stroke-opacity: 0.3; stroke-width: 0.8; stroke-linecap: square"/>
     </g>
     <g id="line2d_24">
      <g>
       <use xlink:href="#mb69d804f7c" x="73.764375" y="36.545203" style="stroke: #000000; stroke-width: 0.8"/>
      </g>
     </g>
     <g id="text_13">
      <!-- 6,000 -->
      <g transform="translate(26.685 41.864109) scale(0.14 -0.14)">
       <use xlink:href="#DejaVuSans-36"/>
       <use xlink:href="#DejaVuSans-2c" x="63.623047"/>
       <use xlink:href="#DejaVuSans-30" x="95.410156"/>
       <use xlink:href="#DejaVuSans-30" x="159.033203"/>
       <use xlink:href="#DejaVuSans-30" x="222.65625"/>
      </g>
     </g>
    </g>
    <g id="text_14">
     <!-- Edges -->
     <g transform="translate(19.3575 142.3825) rotate(-90) scale(0.16 -0.16)">
      <defs>
       <path id="DejaVuSans-45" d="M 628 4666 
L 3578 4666 
L 3578 4134 
L 1259 4134 
L 1259 2753 
L 3481 2753 
L 3481 2222 
L 1259 2222 
L 1259 531 
L 3634 531 
L 3634 0 
L 628 0 
L 628 4666 
z
" transform="scale(0.015625)"/>
       <path id="DejaVuSans-64" d="M 2906 2969 
L 2906 4863 
L 3481 4863 
L 3481 0 
L 2906 0 
L 2906 525 
Q 2725 213 2448 61 
Q 2172 -91 1784 -91 
Q 1150 -91 751 415 
Q 353 922 353 1747 
Q 353 2572 751 3078 
Q 1150 3584 1784 3584 
Q 2172 3584 2448 3432 
Q 2725 3281 2906 2969 
z
M 947 1747 
Q 947 1113 1208 752 
Q 1469 391 1925 391 
Q 2381 391 2643 752 
Q 2906 1113 2906 1747 
Q 2906 2381 2643 2742 
Q 2381 3103 1925 3103 
Q 1469 3103 1208 2742 
Q 947 2381 947 1747 
z
" transform="scale(0.015625)"/>
       <path id="DejaVuSans-67" d="M 2906 1791 
Q 2906 2416 2648 2759 
Q 2391 3103 1925 3103 
Q 1463 3103 1205 2759 
Q 947 2416 947 1791 
Q 947 1169 1205 825 
Q 1463 481 1925 481 
Q 2391 481 2648 825 
Q 2906 1169 2906 1791 
z
M 3481 434 
Q 3481 -459 3084 -895 
Q 2688 -1331 1869 -1331 
Q 1566 -1331 1297 -1286 
Q 1028 -1241 775 -1147 
L 775 -588 
Q 1028 -725 1275 -790 
Q 1522 -856 1778 -856 
Q 2344 -856 2625 -561 
Q 2906 -266 2906 331 
L 2906 616 
Q 2728 306 2450 153 
Q 2172 0 1784 0 
Q 1141 0 747 490 
Q 353 981 353 1791 
Q 353 2603 747 3093 
Q 1141 3584 1784 3584 
Q 2172 3584 2450 3431 
Q 2728 3278 2906 2969 
L 2906 3500 
L 3481 3500 
L 3481 434 
z
" transform="scale(0.015625)"/>
       <path id="DejaVuSans-73" d="M 2834 3397 
L 2834 2853 
Q 2591 2978 2328 3040 
Q 2066 3103 1784 3103 
Q 1356 3103 1142 2972 
Q 928 2841 928 2578 
Q 928 2378 1081 2264 
Q 1234 2150 1697 2047 
L 1894 2003 
Q 2506 1872 2764 1633 
Q 3022 1394 3022 966 
Q 3022 478 2636 193 
Q 2250 -91 1575 -91 
Q 1294 -91 989 -36 
Q 684 19 347 128 
L 347 722 
Q 666 556 975 473 
Q 1284 391 1588 391 
Q 1994 391 2212 530 
Q 2431 669 2431 922 
Q 2431 1156 2273 1281 
Q 2116 1406 1581 1522 
L 1381 1569 
Q 847 1681 609 1914 
Q 372 2147 372 2553 
Q 372 3047 722 3315 
Q 1072 3584 1716 3584 
Q 2034 3584 2315 3537 
Q 2597 3491 2834 3397 
z
" transform="scale(0.015625)"/>
      </defs>
      <use xlink:href="#DejaVuSans-45"/>
      <use xlink:href="#DejaVuSans-64" x="63.183594"/>
      <use xlink:href="#DejaVuSans-67" x="126.660156"/>
      <use xlink:href="#DejaVuSans-65" x="190.136719"/>
      <use xlink:href="#DejaVuSans-73" x="251.660156"/>
     </g>
    </g>
   </g>
   <g id="line2d_25">
    <path d="M 91.51892 218.88 
L 93.368352 131.119836 
L 95.217784 130.355596 
L 97.067216 126.470712 
L 98.916648 126.279653 
L 100.76608 125.802003 
L 102.615511 125.77016 
L 104.464943 124.71933 
L 111.86267 124.52827 
L 113.712102 124.43274 
L 115.561534 123.795874 
L 119.260398 123.764031 
L 121.10983 123.572971 
L 124.808693 123.477441 
L 128.507557 123.190851 
L 130.356989 123.190851 
L 132.20642 122.840575 
L 141.45358 122.745045 
L 143.303011 117.236152 
L 150.700739 117.236152 
L 152.55017 117.108779 
L 154.399602 117.108779 
L 156.249034 99.117308 
L 158.098466 99.117308 
L 159.947898 98.353069 
L 161.79733 97.843576 
L 163.646761 80.648188 
L 165.496193 77.654917 
L 167.345625 76.826991 
L 171.044489 76.731461 
L 176.592784 76.572245 
L 178.442216 62.497501 
L 180.291648 61.319299 
L 182.14108 59.727133 
L 183.990511 59.090267 
L 185.839943 58.676304 
L 187.689375 57.243355 
L 191.388239 57.052295 
L 193.23767 56.096996 
L 195.087102 49.537274 
L 196.936534 34.984881 
L 198.785966 34.570918 
L 200.635398 34.411701 
L 202.48483 33.742992 
L 204.334261 32.596632 
L 206.183693 32.405573 
L 208.033125 31.768706 
L 209.882557 31.673176 
L 211.731989 30.65419 
L 219.129716 30.494974 
L 220.979148 29.730734 
L 222.82858 29.730734 
L 226.527443 29.539675 
L 228.376875 29.030182 
L 230.226307 28.743592 
L 243.17233 28.648062 
L 252.419489 28.488845 
L 254.26892 28.106726 
L 259.817216 28.074882 
L 261.666648 27.565389 
L 263.51608 27.310643 
L 270.913807 27.246956 
L 272.763239 26.928523 
L 276.462102 26.673777 
L 282.010398 26.578247 
L 283.85983 26.450873 
L 287.558693 26.450873 
L 289.408125 26.259814 
L 293.106989 26.22797 
L 294.95642 25.877694 
L 306.053011 25.782164 
L 317.149602 25.527417 
L 318.999034 25.113454 
L 324.54733 25.017924 
L 326.396761 25.017924 
L 328.246193 24.763178 
L 339.342784 24.699491 
L 355.98767 23.935252 
L 359.686534 23.903409 
L 361.535966 23.712349 
L 376.33142 23.553132 
L 383.729148 23.489446 
L 385.57858 23.330229 
L 396.67517 23.234699 
L 413.320057 23.011796 
L 415.169489 21.196727 
L 422.567216 20.782764 
L 424.416648 20.782764 
L 426.26608 20.528018 
L 437.36267 20.209585 
L 446.60983 20.177741 
L 446.60983 20.177741 
" clip-path="url(#p9f778a4963)" style="fill: none; stroke-dasharray: 3,4.95; stroke-dashoffset: 0; stroke: #ddaa33; stroke-width: 3"/>
   </g>
   <g id="line2d_26">
    <path d="M 91.51892 218.88 
L 93.368352 161.721257 
L 95.217784 133.603614 
L 97.067216 129.368454 
L 98.916648 120.19758 
L 100.76608 112.364126 
L 102.615511 109.593758 
L 104.464943 108.288182 
L 106.314375 107.778689 
L 111.86267 107.587629 
L 113.712102 106.759703 
L 115.561534 106.504957 
L 117.410966 105.931777 
L 119.260398 105.931777 
L 121.10983 105.740717 
L 122.959261 105.740717 
L 124.808693 105.454127 
L 128.507557 105.358597 
L 141.45358 105.167538 
L 143.303011 103.702745 
L 158.098466 103.034036 
L 161.79733 103.034036 
L 163.646761 102.556386 
L 169.195057 102.429013 
L 171.044489 102.429013 
L 174.743352 101.82399 
L 180.291648 101.82399 
L 185.839943 101.44187 
L 196.936534 101.378184 
L 198.785966 100.518414 
L 200.635398 100.136294 
L 204.334261 100.072608 
L 208.033125 100.008921 
L 209.882557 99.626801 
L 213.58142 99.563115 
L 217.280284 99.563115 
L 219.129716 98.958092 
L 237.624034 98.862562 
L 239.473466 98.480442 
L 243.17233 98.480442 
L 245.021761 98.289382 
L 267.214943 98.257539 
L 269.064375 97.716203 
L 283.85983 97.652516 
L 287.558693 97.58883 
L 289.408125 97.58883 
L 291.257557 97.30224 
L 294.95642 97.270396 
L 296.805852 96.792747 
L 309.751875 96.665374 
L 311.601307 96.665374 
L 313.450739 96.538 
L 333.794489 96.474314 
L 337.493352 96.410627 
L 339.342784 92.175467 
L 361.535966 92.175467 
L 363.385398 91.761504 
L 376.33142 91.761504 
L 378.180852 83.800676 
L 380.030284 80.680032 
L 381.879716 79.820262 
L 383.729148 79.756576 
L 385.57858 79.533672 
L 387.428011 79.151553 
L 389.277443 79.151553 
L 391.126875 78.705746 
L 392.976307 78.705746 
L 396.67517 78.482843 
L 431.814375 78.387313 
L 433.663807 76.954364 
L 446.60983 76.954364 
L 446.60983 76.954364 
" clip-path="url(#p9f778a4963)" style="fill: none; stroke: #994455; stroke-width: 3; stroke-linecap: square"/>
   </g>
   <g id="line2d_27">
    <path d="M 91.51892 218.88 
L 93.368352 129.113707 
L 95.217784 126.629929 
L 97.067216 120.738916 
L 98.916648 112.332282 
L 100.76608 95.487171 
L 102.615511 93.035236 
L 104.464943 92.557586 
L 106.314375 91.888877 
L 108.163807 91.888877 
L 110.013239 91.124637 
L 111.86267 91.092794 
L 113.712102 90.933578 
L 115.561534 90.615145 
L 117.410966 90.169338 
L 122.959261 89.882748 
L 124.808693 89.500629 
L 126.658125 88.06768 
L 128.507557 67.369528 
L 130.356989 60.586903 
L 132.20642 60.459529 
L 134.055852 53.199254 
L 135.905284 52.498702 
L 137.754716 44.79262 
L 139.604148 44.314971 
L 143.303011 44.251284 
L 147.001875 44.251284 
L 148.851307 41.608289 
L 150.700739 41.449073 
L 156.249034 41.385386 
L 158.098466 41.066953 
L 161.79733 40.971423 
L 208.033125 40.207184 
L 209.882557 39.984281 
L 215.430852 39.920594 
L 219.129716 39.825064 
L 220.979148 39.793221 
L 222.82858 39.570317 
L 224.678011 39.570317 
L 226.527443 38.487645 
L 228.376875 37.723405 
L 230.226307 37.723405 
L 232.075739 37.532346 
L 233.92517 37.213912 
L 237.624034 37.213912 
L 239.473466 34.411701 
L 252.419489 34.284328 
L 265.365511 34.188798 
L 267.214943 33.679305 
L 280.160966 33.583775 
L 306.053011 33.233499 
L 313.450739 33.137969 
L 315.30017 32.724006 
L 330.095625 32.628476 
L 333.794489 32.532946 
L 337.493352 32.469259 
L 341.192216 32.469259 
L 343.041648 32.278199 
L 354.138239 32.182669 
L 355.98767 31.41843 
L 370.783125 31.354743 
L 372.632557 31.004467 
L 374.481989 31.004467 
L 376.33142 30.558661 
L 378.180852 29.030182 
L 381.879716 28.998338 
L 383.729148 28.616219 
L 385.57858 28.457002 
L 392.976307 28.457002 
L 394.825739 28.297785 
L 396.67517 27.406173 
L 398.524602 27.374329 
L 400.374034 27.18327 
L 411.470625 27.119583 
L 413.320057 26.769307 
L 415.169489 26.769307 
L 417.01892 26.61009 
L 420.717784 26.578247 
L 422.567216 24.795021 
L 424.416648 24.667648 
L 435.513239 24.572118 
L 437.36267 23.967095 
L 439.212102 23.967095 
L 441.061534 23.807879 
L 446.60983 23.807879 
L 446.60983 23.807879 
" clip-path="url(#p9f778a4963)" style="fill: none; stroke: #ee99aa; stroke-width: 3; stroke-linecap: square"/>
   </g>
   <g id="line2d_28">
    <path d="M 91.51892 218.88 
L 93.368352 156.912917 
L 95.217784 143.57057 
L 97.067216 137.775088 
L 98.916648 134.304167 
L 100.76608 133.189651 
L 102.615511 131.119836 
L 104.464943 129.33661 
L 106.314375 127.999191 
L 108.163807 127.107579 
L 111.86267 126.598086 
L 113.712102 126.502556 
L 115.561534 126.056749 
L 119.260398 125.897533 
L 121.10983 125.897533 
L 124.808693 125.324353 
L 128.507557 125.260667 
L 132.20642 124.337211 
L 135.905284 124.337211 
L 137.754716 124.082464 
L 143.303011 123.795874 
L 145.152443 123.604814 
L 152.55017 123.604814 
L 154.399602 123.445598 
L 167.345625 123.413755 
L 169.195057 122.585828 
L 171.044489 122.267395 
L 196.936534 122.171865 
L 198.785966 113.383112 
L 200.635398 112.013849 
L 202.48483 107.078136 
L 204.334261 106.759703 
L 206.183693 106.090994 
L 208.033125 105.899934 
L 209.882557 105.836247 
L 213.58142 105.072008 
L 215.430852 105.072008 
L 217.280284 103.989335 
L 220.979148 103.989335 
L 222.82858 103.320625 
L 224.678011 103.065879 
L 232.075739 103.065879 
L 233.92517 102.492699 
L 248.720625 102.460856 
L 254.26892 102.078736 
L 256.118352 102.078736 
L 257.967784 101.951363 
L 261.666648 101.951363 
L 263.51608 101.601087 
L 272.763239 101.34634 
L 274.61267 101.091594 
L 276.462102 101.091594 
L 278.311534 97.843576 
L 283.85983 97.779889 
L 285.709261 97.39777 
L 287.558693 96.601687 
L 291.257557 96.601687 
L 293.106989 96.315097 
L 300.504716 95.964821 
L 306.053011 95.932977 
L 309.751875 95.710074 
L 311.601307 95.136895 
L 318.999034 95.105051 
L 331.945057 95.009521 
L 337.493352 94.754775 
L 354.138239 94.722932 
L 355.98767 83.705146 
L 357.837102 82.367727 
L 359.686534 81.762704 
L 363.385398 81.730861 
L 365.23483 80.488972 
L 367.084261 79.661046 
L 372.632557 79.565516 
L 378.180852 79.533672 
L 381.879716 79.215239 
L 409.621193 79.151553 
L 413.320057 79.087866 
L 417.01892 79.087866 
L 418.868352 78.960493 
L 446.60983 78.92865 
L 446.60983 78.92865 
" clip-path="url(#p9f778a4963)" style="fill: none; stroke: #004488; stroke-width: 3; stroke-linecap: square"/>
   </g>
   <g id="line2d_29">
    <path d="M 91.51892 218.88 
L 93.368352 128.731587 
L 95.217784 126.534399 
L 97.067216 126.152279 
L 98.916648 125.929376 
L 100.76608 125.324353 
L 102.615511 123.063478 
L 104.464943 118.892004 
L 106.314375 117.904862 
L 111.86267 117.904862 
L 113.712102 117.108779 
L 115.561534 115.803203 
L 119.260398 115.612143 
L 121.10983 114.019978 
L 122.959261 96.888277 
L 124.808693 96.34694 
L 126.658125 95.964821 
L 128.507557 87.048694 
L 130.356989 85.392842 
L 132.20642 84.692289 
L 134.055852 82.654317 
L 137.754716 81.794547 
L 139.604148 81.476114 
L 141.45358 77.400171 
L 147.001875 77.240954 
L 148.851307 76.444871 
L 152.55017 76.030908 
L 154.399602 75.234825 
L 156.249034 70.585702 
L 158.098466 70.458329 
L 159.947898 69.948836 
L 161.79733 69.31197 
L 167.345625 69.280126 
L 171.044489 69.12091 
L 178.442216 69.057223 
L 180.291648 68.515887 
L 185.839943 68.292984 
L 187.689375 59.950036 
L 189.538807 53.135568 
L 191.388239 52.817135 
L 193.23767 52.817135 
L 195.087102 52.243955 
L 198.785966 51.989209 
L 200.635398 51.957365 
L 202.48483 47.531145 
L 208.033125 47.467459 
L 213.58142 47.308242 
L 215.430852 46.862436 
L 226.527443 46.735062 
L 228.376875 43.869164 
L 230.226307 43.805478 
L 232.075739 42.850178 
L 233.92517 42.690962 
L 239.473466 42.627275 
L 241.322898 42.531745 
L 243.17233 41.958566 
L 252.419489 41.608289 
L 254.26892 40.907737 
L 257.967784 40.621147 
L 261.666648 40.525617 
L 269.064375 40.302714 
L 270.913807 35.589904 
L 272.763239 33.774835 
L 278.311534 33.488245 
L 282.010398 33.329029 
L 293.106989 33.329029 
L 294.95642 33.074282 
L 304.20358 33.042439 
L 307.902443 32.851379 
L 309.751875 32.087139 
L 311.601307 31.673176 
L 315.30017 31.60949 
L 317.149602 31.545803 
L 318.999034 31.354743 
L 320.848466 31.3229 
L 322.697898 31.004467 
L 333.794489 30.908937 
L 335.64392 30.208384 
L 337.493352 30.176541 
L 339.342784 28.775435 
L 341.192216 27.883822 
L 343.041648 27.820136 
L 344.89108 20.050368 
L 346.740511 19.891151 
L 348.589943 19.859308 
L 350.439375 19.158755 
L 357.837102 19.126912 
L 359.686534 18.967695 
L 367.084261 18.967695 
L 368.933693 18.840322 
L 374.481989 18.808479 
L 376.33142 18.649262 
L 385.57858 18.553732 
L 389.277443 18.458202 
L 420.717784 18.362673 
L 422.567216 18.235299 
L 424.416648 17.693963 
L 428.115511 17.598433 
L 442.910966 17.56659 
L 444.760398 17.28 
L 446.60983 17.28 
L 446.60983 17.28 
" clip-path="url(#p9f778a4963)" style="fill: none; stroke: #6699cc; stroke-width: 3; stroke-linecap: square"/>
   </g>
   <g id="line2d_30">
    <path d="M 91.51892 218.88 
L 93.368352 126.693616 
L 95.217784 126.407026 
L 102.615511 126.247809 
L 104.464943 125.961219 
L 106.314375 125.961219 
L 108.163807 125.037763 
L 110.013239 125.037763 
L 111.86267 124.91039 
L 115.561534 124.878547 
L 117.410966 124.751174 
L 119.260398 124.751174 
L 121.10983 124.43274 
L 128.507557 124.43274 
L 130.356989 124.177994 
L 139.604148 124.018777 
L 141.45358 123.700344 
L 147.001875 123.700344 
L 148.851307 123.445598 
L 156.249034 123.350068 
L 159.947898 123.190851 
L 171.044489 122.967948 
L 172.89392 122.012649 
L 180.291648 121.662372 
L 183.990511 121.566843 
L 191.388239 121.534999 
L 195.087102 121.471313 
L 196.936534 119.91099 
L 198.785966 119.783617 
L 200.635398 118.223295 
L 209.882557 118.159608 
L 211.731989 116.662973 
L 213.58142 116.376383 
L 215.430852 116.376383 
L 217.280284 114.433941 
L 220.979148 114.306568 
L 224.678011 114.051821 
L 248.720625 113.956291 
L 250.570057 111.026707 
L 252.419489 99.531272 
L 254.26892 94.277125 
L 256.118352 94.277125 
L 257.967784 87.526343 
L 259.817216 87.271597 
L 263.51608 87.239754 
L 265.365511 86.730261 
L 270.913807 86.666574 
L 272.763239 86.507357 
L 274.61267 85.902335 
L 294.95642 85.838648 
L 298.655284 85.774961 
L 307.902443 85.743118 
L 309.751875 85.010722 
L 313.450739 85.010722 
L 315.30017 62.179068 
L 317.149602 60.17294 
L 326.396761 60.07741 
L 330.095625 60.013723 
L 352.288807 59.918193 
L 354.138239 59.567917 
L 357.837102 59.567917 
L 359.686534 59.440543 
L 372.632557 59.345013 
L 381.879716 59.281327 
L 394.825739 59.185797 
L 400.374034 59.090267 
L 405.92233 59.02658 
L 407.771761 58.739991 
L 417.01892 58.644461 
L 418.868352 56.479115 
L 420.717784 56.351742 
L 422.567216 56.096996 
L 424.416648 54.250084 
L 429.964943 54.21824 
L 431.814375 54.027181 
L 437.36267 54.027181 
L 439.212102 53.804277 
L 446.60983 53.804277 
L 446.60983 53.804277 
" clip-path="url(#p9f778a4963)" style="fill: none; stroke-dasharray: 3,4.95; stroke-dashoffset: 0; stroke: #000000; stroke-width: 3"/>
   </g>
   <g id="line2d_31">
    <path d="M 91.51892 218.88 
L 93.368352 201.971202 
L 95.217784 196.780742 
L 97.067216 196.589683 
L 98.916648 196.525996 
L 100.76608 186.145077 
L 102.615511 184.457381 
L 106.314375 182.546782 
L 108.163807 182.387566 
L 110.013239 181.336737 
L 111.86267 178.343465 
L 113.712102 176.018904 
L 115.561534 175.382038 
L 117.410966 174.968075 
L 121.10983 174.904388 
L 122.959261 174.235678 
L 124.808693 174.012775 
L 126.658125 171.7519 
L 128.507557 171.433467 
L 134.055852 171.337937 
L 135.905284 170.987661 
L 137.754716 170.446324 
L 139.604148 170.414481 
L 141.45358 168.376509 
L 143.303011 167.739643 
L 150.700739 167.070934 
L 154.399602 167.03909 
L 156.249034 166.65697 
L 158.098466 165.669828 
L 159.947898 165.032962 
L 161.79733 165.032962 
L 163.646761 163.950289 
L 165.496193 163.822916 
L 167.345625 163.822916 
L 169.195057 163.472639 
L 172.89392 163.377109 
L 174.743352 160.383838 
L 176.592784 160.129092 
L 178.442216 158.536926 
L 180.291648 158.059277 
L 182.14108 157.931903 
L 183.990511 157.581627 
L 185.839943 157.581627 
L 187.689375 157.23135 
L 189.538807 157.103977 
L 191.388239 156.626328 
L 193.23767 156.562641 
L 195.087102 156.148678 
L 198.785966 156.021305 
L 200.635398 154.238079 
L 202.48483 154.142549 
L 204.334261 153.85596 
L 206.183693 153.824116 
L 208.033125 152.423011 
L 209.882557 152.327481 
L 211.731989 148.95209 
L 213.58142 148.920246 
L 215.430852 147.90126 
L 217.280284 147.582827 
L 220.979148 147.391767 
L 224.678011 147.391767 
L 226.527443 146.882275 
L 230.226307 146.818588 
L 232.075739 146.531998 
L 233.92517 146.404625 
L 235.774602 145.863289 
L 239.473466 145.321952 
L 245.021761 145.194579 
L 246.871193 144.780616 
L 248.720625 144.653243 
L 250.570057 144.653243 
L 254.26892 143.18845 
L 257.967784 142.774487 
L 263.51608 142.678958 
L 267.214943 142.424211 
L 269.064375 142.201308 
L 272.763239 142.137621 
L 274.61267 141.882875 
L 280.160966 141.564442 
L 282.010398 141.564442 
L 283.85983 141.373382 
L 287.558693 141.246009 
L 289.408125 140.227023 
L 293.106989 140.163336 
L 294.95642 139.908589 
L 304.20358 139.43094 
L 306.053011 138.794074 
L 309.751875 138.76223 
L 313.450739 138.189051 
L 315.30017 138.189051 
L 318.999034 137.934304 
L 320.848466 137.934304 
L 324.54733 137.615871 
L 326.396761 137.488498 
L 328.246193 135.514213 
L 330.095625 134.941033 
L 331.945057 134.781816 
L 335.64392 134.654443 
L 337.493352 134.495227 
L 339.342784 134.113107 
L 344.89108 134.017577 
L 346.740511 133.667301 
L 348.589943 133.635457 
L 350.439375 133.412554 
L 354.138239 133.125964 
L 359.686534 132.361725 
L 365.23483 132.266195 
L 367.084261 131.438269 
L 370.783125 131.215366 
L 372.632557 131.215366 
L 374.481989 130.801403 
L 376.33142 130.260066 
L 387.428011 129.33661 
L 389.277443 128.858961 
L 391.126875 128.699744 
L 392.976307 128.285781 
L 394.825739 128.285781 
L 398.524602 127.903661 
L 402.223466 127.298638 
L 404.072898 127.298638 
L 409.621193 126.629929 
L 411.470625 126.088593 
L 417.01892 125.5791 
L 418.868352 125.10145 
L 426.26608 124.018777 
L 428.115511 122.872418 
L 429.964943 122.872418 
L 431.814375 122.267395 
L 433.663807 122.044492 
L 435.513239 121.630529 
L 437.36267 117.267996 
L 439.212102 117.013249 
L 441.061534 116.981406 
L 442.910966 116.726659 
L 444.760398 116.599286 
L 446.60983 115.835047 
L 446.60983 115.835047 
" clip-path="url(#p9f778a4963)" style="fill: none; stroke-dasharray: 3,4.95; stroke-dashoffset: 0; stroke: #808080; stroke-width: 3"/>
   </g>
   <g id="patch_3">
    <path d="M 73.764375 228.96 
L 73.764375 7.2 
" style="fill: none; stroke: #000000; stroke-width: 0.8; stroke-linejoin: miter; stroke-linecap: square"/>
   </g>
   <g id="patch_4">
    <path d="M 464.364375 228.96 
L 464.364375 7.2 
" style="fill: none; stroke: #000000; stroke-width: 0.8; stroke-linejoin: miter; stroke-linecap: square"/>
   </g>
   <g id="patch_5">
    <path d="M 73.764375 228.96 
L 464.364375 228.96 
" style="fill: none; stroke: #000000; stroke-width: 0.8; stroke-linejoin: miter; stroke-linecap: square"/>
   </g>
   <g id="patch_6">
    <path d="M 73.764375 7.2 
L 464.364375 7.2 
" style="fill: none; stroke: #000000; stroke-width: 0.8; stroke-linejoin: miter; stroke-linecap: square"/>
   </g>
   <g id="legend_1">
    <g id="patch_7">
     <path d="M 268.664375 223.96 
L 457.364375 223.96 
Q 459.364375 223.96 459.364375 221.96 
L 459.364375 160.661562 
Q 459.364375 158.661562 457.364375 158.661562 
L 268.664375 158.661562 
Q 266.664375 158.661562 266.664375 160.661562 
L 266.664375 221.96 
Q 266.664375 223.96 268.664375 223.96 
z
" style="fill: #ffffff; opacity: 0.8; stroke: #cccccc; stroke-linejoin: miter"/>
    </g>
    <g id="line2d_32">
     <path d="M 270.664375 166.761562 
L 280.664375 166.761562 
L 290.664375 166.761562 
" style="fill: none; stroke: #994455; stroke-width: 3; stroke-linecap: square"/>
    </g>
    <g id="text_15">
     <!-- $symcts$ -->
     <g transform="translate(298.664375 170.261562) scale(0.1 -0.1)">
      <defs>
       <path id="DejaVuSans-Oblique-73" d="M 3200 3397 
L 3091 2853 
Q 2863 2978 2609 3040 
Q 2356 3103 2088 3103 
Q 1634 3103 1373 2948 
Q 1113 2794 1113 2528 
Q 1113 2219 1719 2053 
Q 1766 2041 1788 2034 
L 1972 1978 
Q 2547 1819 2739 1644 
Q 2931 1469 2931 1166 
Q 2931 609 2489 259 
Q 2047 -91 1331 -91 
Q 1053 -91 747 -37 
Q 441 16 72 128 
L 184 722 
Q 500 559 806 475 
Q 1113 391 1394 391 
Q 1816 391 2080 572 
Q 2344 753 2344 1031 
Q 2344 1331 1650 1516 
L 1591 1531 
L 1394 1581 
Q 956 1697 753 1886 
Q 550 2075 550 2369 
Q 550 2928 970 3256 
Q 1391 3584 2113 3584 
Q 2397 3584 2667 3537 
Q 2938 3491 3200 3397 
z
" transform="scale(0.015625)"/>
       <path id="DejaVuSans-Oblique-79" d="M 1588 -325 
Q 1188 -997 936 -1164 
Q 684 -1331 294 -1331 
L -159 -1331 
L -63 -850 
L 269 -850 
Q 509 -850 678 -719 
Q 847 -588 1056 -206 
L 1234 128 
L 459 3500 
L 1069 3500 
L 1650 819 
L 3256 3500 
L 3859 3500 
L 1588 -325 
z
" transform="scale(0.015625)"/>
       <path id="DejaVuSans-Oblique-6d" d="M 5747 2113 
L 5338 0 
L 4763 0 
L 5166 2094 
Q 5191 2228 5203 2325 
Q 5216 2422 5216 2491 
Q 5216 2772 5059 2928 
Q 4903 3084 4622 3084 
Q 4203 3084 3875 2770 
Q 3547 2456 3450 1953 
L 3066 0 
L 2491 0 
L 2900 2094 
Q 2925 2209 2937 2307 
Q 2950 2406 2950 2484 
Q 2950 2769 2794 2926 
Q 2638 3084 2363 3084 
Q 1938 3084 1609 2770 
Q 1281 2456 1184 1953 
L 800 0 
L 225 0 
L 909 3500 
L 1484 3500 
L 1375 2956 
Q 1609 3263 1923 3423 
Q 2238 3584 2597 3584 
Q 2978 3584 3223 3384 
Q 3469 3184 3519 2828 
Q 3781 3197 4126 3390 
Q 4472 3584 4856 3584 
Q 5306 3584 5551 3325 
Q 5797 3066 5797 2591 
Q 5797 2488 5784 2364 
Q 5772 2241 5747 2113 
z
" transform="scale(0.015625)"/>
       <path id="DejaVuSans-Oblique-63" d="M 3431 3366 
L 3316 2797 
Q 3109 2947 2876 3022 
Q 2644 3097 2394 3097 
Q 2119 3097 1870 3000 
Q 1622 2903 1453 2725 
Q 1184 2453 1037 2087 
Q 891 1722 891 1331 
Q 891 859 1127 628 
Q 1363 397 1844 397 
Q 2081 397 2348 469 
Q 2616 541 2906 684 
L 2797 116 
Q 2547 13 2283 -39 
Q 2019 -91 1741 -91 
Q 1044 -91 669 257 
Q 294 606 294 1253 
Q 294 1797 489 2255 
Q 684 2713 1069 3078 
Q 1331 3328 1684 3456 
Q 2038 3584 2456 3584 
Q 2700 3584 2940 3529 
Q 3181 3475 3431 3366 
z
" transform="scale(0.015625)"/>
       <path id="DejaVuSans-Oblique-74" d="M 2706 3500 
L 2619 3053 
L 1472 3053 
L 1100 1153 
Q 1081 1047 1072 975 
Q 1063 903 1063 863 
Q 1063 663 1183 572 
Q 1303 481 1569 481 
L 2150 481 
L 2053 0 
L 1503 0 
Q 991 0 739 200 
Q 488 400 488 806 
Q 488 878 497 964 
Q 506 1050 525 1153 
L 897 3053 
L 409 3053 
L 500 3500 
L 978 3500 
L 1172 4494 
L 1747 4494 
L 1556 3500 
L 2706 3500 
z
" transform="scale(0.015625)"/>
      </defs>
      <use xlink:href="#DejaVuSans-Oblique-73" transform="translate(0 0.78125)"/>
      <use xlink:href="#DejaVuSans-Oblique-79" transform="translate(52.099609 0.78125)"/>
      <use xlink:href="#DejaVuSans-Oblique-6d" transform="translate(111.279297 0.78125)"/>
      <use xlink:href="#DejaVuSans-Oblique-63" transform="translate(208.691406 0.78125)"/>
      <use xlink:href="#DejaVuSans-Oblique-74" transform="translate(263.671875 0.78125)"/>
      <use xlink:href="#DejaVuSans-Oblique-73" transform="translate(302.880859 0.78125)"/>
     </g>
    </g>
    <g id="line2d_33">
     <path d="M 270.664375 182.161562 
L 280.664375 182.161562 
L 290.664375 182.161562 
" style="fill: none; stroke: #ee99aa; stroke-width: 3; stroke-linecap: square"/>
    </g>
    <g id="text_16">
     <!-- $symcts^{+}$ -->
     <g transform="translate(298.664375 185.661562) scale(0.1 -0.1)">
      <defs>
       <path id="DejaVuSans-2b" d="M 2944 4013 
L 2944 2272 
L 4684 2272 
L 4684 1741 
L 2944 1741 
L 2944 0 
L 2419 0 
L 2419 1741 
L 678 1741 
L 678 2272 
L 2419 2272 
L 2419 4013 
L 2944 4013 
z
" transform="scale(0.015625)"/>
      </defs>
      <use xlink:href="#DejaVuSans-Oblique-73" transform="translate(0 0.826562)"/>
      <use xlink:href="#DejaVuSans-Oblique-79" transform="translate(52.099609 0.826562)"/>
      <use xlink:href="#DejaVuSans-Oblique-6d" transform="translate(111.279297 0.826562)"/>
      <use xlink:href="#DejaVuSans-Oblique-63" transform="translate(208.691406 0.826562)"/>
      <use xlink:href="#DejaVuSans-Oblique-74" transform="translate(263.671875 0.826562)"/>
      <use xlink:href="#DejaVuSans-Oblique-73" transform="translate(302.880859 0.826562)"/>
      <use xlink:href="#DejaVuSans-2b" transform="translate(359.630365 39.107812) scale(0.7)"/>
     </g>
    </g>
    <g id="line2d_34">
     <path d="M 270.664375 196.86 
L 280.664375 196.86 
L 290.664375 196.86 
" style="fill: none; stroke: #004488; stroke-width: 3; stroke-linecap: square"/>
    </g>
    <g id="text_17">
     <!-- $symcts_{Q}$ -->
     <g transform="translate(298.664375 200.36) scale(0.1 -0.1)">
      <defs>
       <path id="DejaVuSans-Oblique-51" d="M 2309 -84 
Q 2275 -88 2237 -89 
Q 2200 -91 2125 -91 
Q 1250 -91 756 411 
Q 263 913 263 1797 
Q 263 2319 452 2844 
Q 641 3369 978 3788 
Q 1369 4269 1858 4509 
Q 2347 4750 2938 4750 
Q 3794 4750 4287 4245 
Q 4781 3741 4781 2869 
Q 4781 1928 4265 1147 
Q 3750 366 2919 44 
L 3553 -825 
L 2847 -825 
L 2309 -84 
z
M 2919 4238 
Q 2400 4238 2003 3986 
Q 1606 3734 1313 3219 
Q 1125 2891 1026 2522 
Q 928 2153 928 1778 
Q 928 1128 1239 775 
Q 1550 422 2119 422 
Q 2631 422 3032 676 
Q 3434 931 3719 1434 
Q 3909 1772 4009 2142 
Q 4109 2513 4109 2881 
Q 4109 3528 3796 3883 
Q 3484 4238 2919 4238 
z
" transform="scale(0.015625)"/>
      </defs>
      <use xlink:href="#DejaVuSans-Oblique-73" transform="translate(0 0.78125)"/>
      <use xlink:href="#DejaVuSans-Oblique-79" transform="translate(52.099609 0.78125)"/>
      <use xlink:href="#DejaVuSans-Oblique-6d" transform="translate(111.279297 0.78125)"/>
      <use xlink:href="#DejaVuSans-Oblique-63" transform="translate(208.691406 0.78125)"/>
      <use xlink:href="#DejaVuSans-Oblique-74" transform="translate(263.671875 0.78125)"/>
      <use xlink:href="#DejaVuSans-Oblique-73" transform="translate(302.880859 0.78125)"/>
      <use xlink:href="#DejaVuSans-Oblique-51" transform="translate(354.980469 -15.625) scale(0.7)"/>
     </g>
    </g>
    <g id="line2d_35">
     <path d="M 270.664375 212.76 
L 280.664375 212.76 
L 290.664375 212.76 
" style="fill: none; stroke: #6699cc; stroke-width: 3; stroke-linecap: square"/>
    </g>
    <g id="text_18">
     <!-- $symcts_{Q}^{+}$ -->
     <g transform="translate(298.664375 216.26) scale(0.1 -0.1)">
      <use xlink:href="#DejaVuSans-Oblique-73" transform="translate(0 0.826562)"/>
      <use xlink:href="#DejaVuSans-Oblique-79" transform="translate(52.099609 0.826562)"/>
      <use xlink:href="#DejaVuSans-Oblique-6d" transform="translate(111.279297 0.826562)"/>
      <use xlink:href="#DejaVuSans-Oblique-63" transform="translate(208.691406 0.826562)"/>
      <use xlink:href="#DejaVuSans-Oblique-74" transform="translate(263.671875 0.826562)"/>
      <use xlink:href="#DejaVuSans-Oblique-73" transform="translate(302.880859 0.826562)"/>
      <use xlink:href="#DejaVuSans-2b" transform="translate(359.630365 39.107813) scale(0.7)"/>
      <use xlink:href="#DejaVuSans-Oblique-51" transform="translate(354.980469 -26.517188) scale(0.7)"/>
     </g>
    </g>
    <g id="line2d_36">
     <path d="M 360.864375 166.761562 
L 370.864375 166.761562 
L 380.864375 166.761562 
" style="fill: none; stroke-dasharray: 3,4.95; stroke-dashoffset: 0; stroke: #ddaa33; stroke-width: 3"/>
    </g>
    <g id="text_19">
     <!-- $afl_companion$ -->
     <g transform="translate(388.864375 170.261562) scale(0.1 -0.1)">
      <defs>
       <path id="DejaVuSans-Oblique-61" d="M 3438 1997 
L 3047 0 
L 2472 0 
L 2578 531 
Q 2325 219 2001 64 
Q 1678 -91 1281 -91 
Q 834 -91 548 182 
Q 263 456 263 884 
Q 263 1497 752 1853 
Q 1241 2209 2100 2209 
L 2900 2209 
L 2931 2363 
Q 2938 2388 2941 2417 
Q 2944 2447 2944 2509 
Q 2944 2788 2717 2942 
Q 2491 3097 2081 3097 
Q 1800 3097 1504 3025 
Q 1209 2953 897 2809 
L 997 3341 
Q 1322 3463 1633 3523 
Q 1944 3584 2234 3584 
Q 2853 3584 3176 3315 
Q 3500 3047 3500 2534 
Q 3500 2431 3484 2292 
Q 3469 2153 3438 1997 
z
M 2816 1759 
L 2241 1759 
Q 1534 1759 1195 1570 
Q 856 1381 856 984 
Q 856 709 1029 553 
Q 1203 397 1509 397 
Q 1978 397 2328 733 
Q 2678 1069 2791 1631 
L 2816 1759 
z
" transform="scale(0.015625)"/>
       <path id="DejaVuSans-Oblique-66" d="M 3059 4863 
L 2969 4384 
L 2419 4384 
Q 2106 4384 1964 4261 
Q 1822 4138 1753 3809 
L 1691 3500 
L 2638 3500 
L 2553 3053 
L 1606 3053 
L 1013 0 
L 434 0 
L 1031 3053 
L 481 3053 
L 563 3500 
L 1113 3500 
L 1159 3744 
Q 1278 4363 1576 4613 
Q 1875 4863 2516 4863 
L 3059 4863 
z
" transform="scale(0.015625)"/>
       <path id="DejaVuSans-Oblique-6c" d="M 1172 4863 
L 1747 4863 
L 800 0 
L 225 0 
L 1172 4863 
z
" transform="scale(0.015625)"/>
       <path id="DejaVuSans-Oblique-6f" d="M 1625 -91 
Q 1009 -91 651 289 
Q 294 669 294 1325 
Q 294 1706 417 2101 
Q 541 2497 738 2766 
Q 1047 3184 1428 3384 
Q 1809 3584 2291 3584 
Q 2888 3584 3255 3212 
Q 3622 2841 3622 2241 
Q 3622 1825 3500 1412 
Q 3378 1000 3181 728 
Q 2875 309 2494 109 
Q 2113 -91 1625 -91 
z
M 891 1344 
Q 891 869 1089 633 
Q 1288 397 1691 397 
Q 2269 397 2648 901 
Q 3028 1406 3028 2181 
Q 3028 2634 2825 2865 
Q 2622 3097 2228 3097 
Q 1903 3097 1650 2945 
Q 1397 2794 1197 2484 
Q 1050 2253 970 1956 
Q 891 1659 891 1344 
z
" transform="scale(0.015625)"/>
       <path id="DejaVuSans-Oblique-70" d="M 3175 2156 
Q 3175 2616 2975 2859 
Q 2775 3103 2400 3103 
Q 2144 3103 1911 2972 
Q 1678 2841 1497 2591 
Q 1319 2344 1212 1994 
Q 1106 1644 1106 1300 
Q 1106 863 1306 627 
Q 1506 391 1875 391 
Q 2147 391 2380 519 
Q 2613 647 2778 891 
Q 2956 1147 3065 1494 
Q 3175 1841 3175 2156 
z
M 1394 2969 
Q 1625 3272 1939 3428 
Q 2253 3584 2638 3584 
Q 3175 3584 3472 3232 
Q 3769 2881 3769 2247 
Q 3769 1728 3584 1258 
Q 3400 788 3053 416 
Q 2822 169 2531 39 
Q 2241 -91 1919 -91 
Q 1547 -91 1294 64 
Q 1041 219 916 525 
L 556 -1331 
L -19 -1331 
L 922 3500 
L 1497 3500 
L 1394 2969 
z
" transform="scale(0.015625)"/>
       <path id="DejaVuSans-Oblique-6e" d="M 3566 2113 
L 3156 0 
L 2578 0 
L 2988 2091 
Q 3016 2238 3031 2350 
Q 3047 2463 3047 2528 
Q 3047 2791 2881 2937 
Q 2716 3084 2419 3084 
Q 1956 3084 1622 2776 
Q 1288 2469 1184 1941 
L 800 0 
L 225 0 
L 903 3500 
L 1478 3500 
L 1363 2950 
Q 1603 3253 1940 3418 
Q 2278 3584 2650 3584 
Q 3113 3584 3367 3334 
Q 3622 3084 3622 2631 
Q 3622 2519 3608 2391 
Q 3594 2263 3566 2113 
z
" transform="scale(0.015625)"/>
       <path id="DejaVuSans-Oblique-69" d="M 1172 4863 
L 1747 4863 
L 1606 4134 
L 1031 4134 
L 1172 4863 
z
M 909 3500 
L 1484 3500 
L 800 0 
L 225 0 
L 909 3500 
z
" transform="scale(0.015625)"/>
      </defs>
      <use xlink:href="#DejaVuSans-Oblique-61" transform="translate(0 0.015625)"/>
      <use xlink:href="#DejaVuSans-Oblique-66" transform="translate(61.279297 0.015625)"/>
      <use xlink:href="#DejaVuSans-Oblique-6c" transform="translate(96.484375 0.015625)"/>
      <use xlink:href="#DejaVuSans-Oblique-63" transform="translate(124.267578 -16.390625) scale(0.7)"/>
      <use xlink:href="#DejaVuSans-Oblique-6f" transform="translate(165.488281 0.015625)"/>
      <use xlink:href="#DejaVuSans-Oblique-6d" transform="translate(226.669922 0.015625)"/>
      <use xlink:href="#DejaVuSans-Oblique-70" transform="translate(324.082031 0.015625)"/>
      <use xlink:href="#DejaVuSans-Oblique-61" transform="translate(387.558594 0.015625)"/>
      <use xlink:href="#DejaVuSans-Oblique-6e" transform="translate(448.837891 0.015625)"/>
      <use xlink:href="#DejaVuSans-Oblique-69" transform="translate(512.216797 0.015625)"/>
      <use xlink:href="#DejaVuSans-Oblique-6f" transform="translate(540 0.015625)"/>
      <use xlink:href="#DejaVuSans-Oblique-6e" transform="translate(601.181641 0.015625)"/>
     </g>
    </g>
    <g id="line2d_37">
     <path d="M 360.864375 182.161562 
L 370.864375 182.161562 
L 380.864375 182.161562 
" style="fill: none; stroke-dasharray: 3,4.95; stroke-dashoffset: 0; stroke: #000000; stroke-width: 3"/>
    </g>
    <g id="text_20">
     <!-- $symqemu^{+}$ -->
     <g transform="translate(388.864375 185.661562) scale(0.1 -0.1)">
      <defs>
       <path id="DejaVuSans-Oblique-71" d="M 2669 525 
Q 2438 222 2123 65 
Q 1809 -91 1428 -91 
Q 897 -91 595 267 
Q 294 625 294 1253 
Q 294 1759 480 2231 
Q 666 2703 1013 3078 
Q 1238 3322 1530 3453 
Q 1822 3584 2144 3584 
Q 2531 3584 2781 3431 
Q 3031 3278 3144 2969 
L 3244 3494 
L 3822 3494 
L 2888 -1319 
L 2309 -1319 
L 2669 525 
z
M 891 1338 
Q 891 875 1084 633 
Q 1278 391 1644 391 
Q 2188 391 2572 911 
Q 2956 1431 2956 2175 
Q 2956 2625 2757 2864 
Q 2559 3103 2188 3103 
Q 1916 3103 1684 2976 
Q 1453 2850 1281 2606 
Q 1100 2350 995 2006 
Q 891 1663 891 1338 
z
" transform="scale(0.015625)"/>
       <path id="DejaVuSans-Oblique-65" d="M 3078 2063 
Q 3088 2113 3092 2166 
Q 3097 2219 3097 2272 
Q 3097 2653 2873 2875 
Q 2650 3097 2266 3097 
Q 1838 3097 1509 2826 
Q 1181 2556 1013 2059 
L 3078 2063 
z
M 3578 1613 
L 903 1613 
Q 884 1494 878 1425 
Q 872 1356 872 1306 
Q 872 872 1139 634 
Q 1406 397 1894 397 
Q 2269 397 2603 481 
Q 2938 566 3225 728 
L 3116 159 
Q 2806 34 2476 -28 
Q 2147 -91 1806 -91 
Q 1078 -91 686 257 
Q 294 606 294 1247 
Q 294 1794 489 2264 
Q 684 2734 1063 3103 
Q 1306 3334 1642 3459 
Q 1978 3584 2356 3584 
Q 2950 3584 3301 3228 
Q 3653 2872 3653 2272 
Q 3653 2128 3634 1964 
Q 3616 1800 3578 1613 
z
" transform="scale(0.015625)"/>
       <path id="DejaVuSans-Oblique-75" d="M 428 1388 
L 838 3500 
L 1416 3500 
L 1006 1409 
Q 975 1256 961 1147 
Q 947 1038 947 966 
Q 947 700 1109 554 
Q 1272 409 1569 409 
Q 2031 409 2368 721 
Q 2706 1034 2809 1563 
L 3194 3500 
L 3769 3500 
L 3091 0 
L 2516 0 
L 2631 550 
Q 2388 244 2052 76 
Q 1716 -91 1338 -91 
Q 878 -91 622 161 
Q 366 413 366 863 
Q 366 956 381 1097 
Q 397 1238 428 1388 
z
" transform="scale(0.015625)"/>
      </defs>
      <use xlink:href="#DejaVuSans-Oblique-73" transform="translate(0 0.826562)"/>
      <use xlink:href="#DejaVuSans-Oblique-79" transform="translate(52.099609 0.826562)"/>
      <use xlink:href="#DejaVuSans-Oblique-6d" transform="translate(111.279297 0.826562)"/>
      <use xlink:href="#DejaVuSans-Oblique-71" transform="translate(208.691406 0.826562)"/>
      <use xlink:href="#DejaVuSans-Oblique-65" transform="translate(272.167969 0.826562)"/>
      <use xlink:href="#DejaVuSans-Oblique-6d" transform="translate(333.691406 0.826562)"/>
      <use xlink:href="#DejaVuSans-Oblique-75" transform="translate(431.103516 0.826562)"/>
      <use xlink:href="#DejaVuSans-2b" transform="translate(498.948568 39.107812) scale(0.7)"/>
     </g>
    </g>
    <g id="line2d_38">
     <path d="M 360.864375 197.561562 
L 370.864375 197.561562 
L 380.864375 197.561562 
" style="fill: none; stroke-dasharray: 3,4.95; stroke-dashoffset: 0; stroke: #808080; stroke-width: 3"/>
    </g>
    <g id="text_21">
     <!-- $symsan^{+}$ -->
     <g transform="translate(388.864375 201.061562) scale(0.1 -0.1)">
      <use xlink:href="#DejaVuSans-Oblique-73" transform="translate(0 0.826562)"/>
      <use xlink:href="#DejaVuSans-Oblique-79" transform="translate(52.099609 0.826562)"/>
      <use xlink:href="#DejaVuSans-Oblique-6d" transform="translate(111.279297 0.826562)"/>
      <use xlink:href="#DejaVuSans-Oblique-73" transform="translate(208.691406 0.826562)"/>
      <use xlink:href="#DejaVuSans-Oblique-61" transform="translate(260.791016 0.826562)"/>
      <use xlink:href="#DejaVuSans-Oblique-6e" transform="translate(322.070312 0.826562)"/>
      <use xlink:href="#DejaVuSans-2b" transform="translate(390.099115 39.107812) scale(0.7)"/>
     </g>
    </g>
   </g>
  </g>
 </g>
 <defs>
  <clipPath id="p9f778a4963">
   <rect x="73.764375" y="7.2" width="390.6" height="221.76"/>
  </clipPath>
 </defs>
</svg>
